<svg width="16" height="16" viewBox="0 0 16 16" fill="none" xmlns="http://www.w3.org/2000/svg">
<path d="M7.29167 8.54167V10.4648C7.29167 10.6422 7.35153 10.7906 7.47125 10.9102C7.59083 11.0299 7.73931 11.0898 7.91667 11.0898C8.09403 11.0898 8.2425 11.0299 8.36208 10.9102C8.48181 10.7906 8.54167 10.6422 8.54167 10.4648V8.54167H10.4648C10.6422 8.54167 10.7906 8.48181 10.9102 8.36208C11.0299 8.2425 11.0898 8.09403 11.0898 7.91667C11.0898 7.73931 11.0299 7.59083 10.9102 7.47125C10.7906 7.35153 10.6422 7.29167 10.4648 7.29167H8.54167V5.36854C8.54167 5.19118 8.48181 5.04271 8.36208 4.92312C8.2425 4.8034 8.09403 4.74354 7.91667 4.74354C7.73931 4.74354 7.59083 4.8034 7.47125 4.92312C7.35153 5.04271 7.29167 5.19118 7.29167 5.36854V7.29167H5.36854C5.19118 7.29167 5.04271 7.35153 4.92312 7.47125C4.8034 7.59083 4.74354 7.73931 4.74354 7.91667C4.74354 8.09403 4.8034 8.2425 4.92312 8.36208C5.04271 8.48181 5.19118 8.54167 5.36854 8.54167H7.29167ZM7.91667 15.8333C7.71583 15.8333 7.52403 15.7978 7.34125 15.7267C7.15861 15.6557 6.99361 15.5449 6.84625 15.3942L0.464792 9C0.322708 8.84403 0.209722 8.67472 0.125833 8.49208C0.0419445 8.30931 0 8.1175 0 7.91667C0 7.72111 0.0419445 7.53069 0.125833 7.34542C0.209722 7.16 0.322708 6.99625 0.464792 6.85417L6.84625 0.46C7.00222 0.304028 7.16937 0.188333 7.34771 0.112916C7.52618 0.0376385 7.71583 0 7.91667 0C8.11222 0 8.30479 0.0376385 8.49438 0.112916C8.68396 0.188333 8.84979 0.304028 8.99187 0.46L15.3606 6.85417C15.508 7.00486 15.6236 7.17069 15.7075 7.35167C15.7914 7.53278 15.8333 7.72111 15.8333 7.91667C15.8333 8.1175 15.7935 8.30931 15.714 8.49208C15.6344 8.67472 15.5166 8.84403 15.3606 9L8.99187 15.3942C8.84979 15.5362 8.68396 15.645 8.49438 15.7204C8.30479 15.7957 8.11222 15.8333 7.91667 15.8333ZM8.10896 14.5031L14.4823 8.11708C14.5305 8.06889 14.5546 8.0034 14.5546 7.92063C14.5546 7.83785 14.5305 7.77243 14.4823 7.72437L8.10896 1.33812C8.0609 1.29007 7.99549 1.26604 7.91271 1.26604C7.82993 1.26604 7.76444 1.29007 7.71625 1.33812L1.34292 7.72437C1.30014 7.77243 1.27875 7.83785 1.27875 7.92063C1.27875 8.0034 1.30014 8.06889 1.34292 8.11708L7.71625 14.5031C7.76444 14.5459 7.82993 14.5673 7.91271 14.5673C7.99549 14.5673 8.0609 14.5459 8.10896 14.5031Z" fill="#B9C1C5"/>
</svg>
