<svg width="40" height="40" viewBox="0 0 40 40" fill="none" xmlns="http://www.w3.org/2000/svg">
<rect width="40" height="40" rx="10" fill="white"/>
<path d="M28.3776 28.582H11.6224C10.7279 28.582 10 27.8542 10 26.9596V18.2044C10 17.3099 10.7279 16.582 11.6224 16.582H28.3776C29.2721 16.582 30 17.3099 30 18.2044V26.9596C30 27.8542 29.2721 28.582 28.3776 28.582ZM11.6224 17.9154C11.4629 17.9154 11.3333 18.0449 11.3333 18.2044V26.9596C11.3333 27.1192 11.4629 27.2487 11.6224 27.2487H28.3776C28.5371 27.2487 28.6667 27.1192 28.6667 26.9596V18.2044C28.6667 18.0449 28.5371 17.9154 28.3776 17.9154H11.6224Z" fill="#1679AB"/>
<path d="M19.9997 25.2493C18.5293 25.2493 17.333 24.0531 17.333 22.5827C17.333 21.1123 18.5293 19.916 19.9997 19.916C21.4701 19.916 22.6663 21.1123 22.6663 22.5827C22.6663 24.0531 21.4701 25.2493 19.9997 25.2493ZM19.9997 21.2493C19.2643 21.2493 18.6663 21.8473 18.6663 22.5827C18.6663 23.318 19.2643 23.916 19.9997 23.916C20.735 23.916 21.333 23.318 21.333 22.5827C21.333 21.8473 20.735 21.2493 19.9997 21.2493Z" fill="#1679AB"/>
<path d="M13.3337 25.2493C12.9679 25.2493 12.667 24.9484 12.667 24.5827V20.5827C12.667 20.2169 12.9679 19.916 13.3337 19.916C13.6994 19.916 14.0003 20.2169 14.0003 20.5827V24.5827C14.0003 24.9484 13.6994 25.2493 13.3337 25.2493Z" fill="#1679AB"/>
<path d="M26.6667 25.2493C26.3009 25.2493 26 24.9484 26 24.5827V20.5827C26 20.2169 26.3009 19.916 26.6667 19.916C27.0324 19.916 27.3333 20.2169 27.3333 20.5827V24.5827C27.3333 24.9484 27.0324 25.2493 26.6667 25.2493Z" fill="#1679AB"/>
<path d="M27.3333 15.2484H12.6667C12.2985 15.2484 12 14.9498 12 14.5817C12 14.2136 12.2985 13.915 12.6667 13.915H27.3333C27.7015 13.915 28 14.2136 28 14.5817C28 14.9498 27.7015 15.2484 27.3333 15.2484Z" fill="#1679AB"/>
<path d="M25.333 12.5833H13.9997C13.6315 12.5833 13.333 12.2848 13.333 11.9167C13.333 11.5485 13.6315 11.25 13.9997 11.25H25.333C25.7011 11.25 25.9997 11.5485 25.9997 11.9167C25.9997 12.2848 25.7011 12.5833 25.333 12.5833Z" fill="#1679AB"/>
</svg>
