<svg width="14" height="13" viewBox="0 0 14 13" fill="none" xmlns="http://www.w3.org/2000/svg">
<mask id="path-1-inside-1_6703_6724" fill="white">
<path d="M6.83721 11.6312V5.94461C7.01031 5.91036 7.17927 5.85775 7.34121 5.78768L11.6747 3.86219C11.7016 3.96479 11.7171 4.07005 11.7209 4.17605V5.69326C11.7209 5.82278 11.7724 5.947 11.864 6.03859C11.9556 6.13018 12.0798 6.18163 12.2093 6.18163C12.3388 6.18163 12.463 6.13018 12.5546 6.03859C12.6462 5.947 12.6977 5.82278 12.6977 5.69326V4.17605C12.6959 3.7702 12.5925 3.37127 12.3968 3.01568V3.00786C12.3968 3.00135 12.3884 2.99744 12.3851 2.99158C12.1296 2.53054 11.7313 2.16492 11.2501 1.94972L7.34316 0.212419C7.03072 0.0723893 6.6922 0 6.34981 0C6.00743 0 5.66891 0.0723893 5.35647 0.212419L1.44949 1.95037C0.968307 2.16557 0.570011 2.53119 0.314512 2.99223C0.311256 2.99809 0.305395 3.002 0.302791 3.00851V3.01633C0.106667 3.37158 0.00257391 3.77026 0 4.17605V8.51084C0.000252589 8.98289 0.13729 9.44476 0.394535 9.84057C0.651779 10.2364 1.01821 10.5492 1.44949 10.7411L5.35647 12.4777C5.92778 12.737 6.57769 12.7631 7.168 12.5507C7.28706 12.5049 7.3835 12.4144 7.43669 12.2985C7.48989 12.1825 7.49562 12.0504 7.45267 11.9303C7.40972 11.8102 7.32149 11.7117 7.20684 11.6558C7.0922 11.5999 6.96023 11.5911 6.83916 11.6312H6.83721ZM5.75498 1.10061C5.94202 1.01657 6.14476 0.973117 6.34981 0.973117C6.55487 0.973117 6.7576 1.01657 6.94465 1.10061L10.8516 2.83856C10.958 2.8891 11.0579 2.95228 11.1492 3.02674L9.37284 3.81661L4.64865 1.59093L5.75498 1.10061ZM3.4694 2.11707L8.19293 4.34014L6.94791 4.89363C6.75931 4.97529 6.55598 5.01742 6.35046 5.01742C6.14495 5.01742 5.94162 4.97529 5.75302 4.89363L1.54847 3.02674C1.63965 2.95234 1.73958 2.88936 1.84605 2.83921L3.4694 2.11707ZM1.84605 9.84833C1.58737 9.73327 1.36759 9.5457 1.21331 9.30833C1.05903 9.07095 0.976857 8.79395 0.976744 8.51084V4.17605C0.980578 4.07005 0.996082 3.96479 1.02298 3.86219L5.35907 5.78898C5.52027 5.85834 5.68833 5.9105 5.86047 5.94461V11.6227C5.82465 11.6104 5.78819 11.6019 5.75302 11.5863L1.84605 9.84833ZM12.2093 9.60023C12.2093 9.72976 12.1578 9.85398 12.0663 9.94557C11.9747 10.0372 11.8505 10.0886 11.7209 10.0886H11.3953V10.4142C11.3953 10.5437 11.3439 10.6679 11.2523 10.7595C11.1607 10.8511 11.0365 10.9026 10.907 10.9026C10.7775 10.9026 10.6532 10.8511 10.5616 10.7595C10.4701 10.6679 10.4186 10.5437 10.4186 10.4142V10.0886H10.093C9.9635 10.0886 9.83928 10.0372 9.74769 9.94557C9.6561 9.85398 9.60465 9.72976 9.60465 9.60023C9.60465 9.47071 9.6561 9.34649 9.74769 9.2549C9.83928 9.16331 9.9635 9.11186 10.093 9.11186H10.4186V8.78628C10.4186 8.65676 10.4701 8.53254 10.5616 8.44095C10.6532 8.34936 10.7775 8.29791 10.907 8.29791C11.0365 8.29791 11.1607 8.34936 11.2523 8.44095C11.3439 8.53254 11.3953 8.65676 11.3953 8.78628V9.11186H11.7209C11.8505 9.11186 11.9747 9.16331 12.0663 9.2549C12.1578 9.34649 12.2093 9.47071 12.2093 9.60023ZM10.907 6.50721C10.2952 6.50721 9.69723 6.68861 9.18859 7.02848C8.67994 7.36834 8.2835 7.85141 8.0494 8.41658C7.81529 8.98176 7.75404 9.60367 7.87338 10.2037C7.99273 10.8036 8.28731 11.3548 8.71988 11.7873C9.15245 12.2199 9.70357 12.5145 10.3036 12.6338C10.9035 12.7532 11.5254 12.6919 12.0906 12.4578C12.6558 12.2237 13.1389 11.8273 13.4787 11.3186C13.8186 10.81 14 10.212 14 9.60023C13.9991 8.78012 13.673 7.99383 13.0932 7.41386C12.5133 6.83389 11.7271 6.50759 10.907 6.50656V6.50721ZM10.907 11.7165C10.4884 11.7165 10.0793 11.5924 9.73124 11.3599C9.38321 11.1273 9.11197 10.7968 8.95179 10.4101C8.79161 10.0234 8.7497 9.59789 8.83136 9.18737C8.91302 8.77685 9.11458 8.39977 9.41054 8.1038C9.70651 7.80783 10.0836 7.60628 10.4941 7.52462C10.9046 7.44296 11.3301 7.48487 11.7168 7.64505C12.1035 7.80522 12.4341 8.07647 12.6666 8.42449C12.8991 8.77251 13.0233 9.18167 13.0233 9.60023C13.0224 10.1612 12.7991 10.6989 12.4024 11.0955C12.0057 11.4921 11.4679 11.7158 10.907 11.7165Z"/>
</mask>
<path d="M6.83721 11.6312V5.94461C7.01031 5.91036 7.17927 5.85775 7.34121 5.78768L11.6747 3.86219C11.7016 3.96479 11.7171 4.07005 11.7209 4.17605V5.69326C11.7209 5.82278 11.7724 5.947 11.864 6.03859C11.9556 6.13018 12.0798 6.18163 12.2093 6.18163C12.3388 6.18163 12.463 6.13018 12.5546 6.03859C12.6462 5.947 12.6977 5.82278 12.6977 5.69326V4.17605C12.6959 3.7702 12.5925 3.37127 12.3968 3.01568V3.00786C12.3968 3.00135 12.3884 2.99744 12.3851 2.99158C12.1296 2.53054 11.7313 2.16492 11.2501 1.94972L7.34316 0.212419C7.03072 0.0723893 6.6922 0 6.34981 0C6.00743 0 5.66891 0.0723893 5.35647 0.212419L1.44949 1.95037C0.968307 2.16557 0.570011 2.53119 0.314512 2.99223C0.311256 2.99809 0.305395 3.002 0.302791 3.00851V3.01633C0.106667 3.37158 0.00257391 3.77026 0 4.17605V8.51084C0.000252589 8.98289 0.13729 9.44476 0.394535 9.84057C0.651779 10.2364 1.01821 10.5492 1.44949 10.7411L5.35647 12.4777C5.92778 12.737 6.57769 12.7631 7.168 12.5507C7.28706 12.5049 7.3835 12.4144 7.43669 12.2985C7.48989 12.1825 7.49562 12.0504 7.45267 11.9303C7.40972 11.8102 7.32149 11.7117 7.20684 11.6558C7.0922 11.5999 6.96023 11.5911 6.83916 11.6312H6.83721ZM5.75498 1.10061C5.94202 1.01657 6.14476 0.973117 6.34981 0.973117C6.55487 0.973117 6.7576 1.01657 6.94465 1.10061L10.8516 2.83856C10.958 2.8891 11.0579 2.95228 11.1492 3.02674L9.37284 3.81661L4.64865 1.59093L5.75498 1.10061ZM3.4694 2.11707L8.19293 4.34014L6.94791 4.89363C6.75931 4.97529 6.55598 5.01742 6.35046 5.01742C6.14495 5.01742 5.94162 4.97529 5.75302 4.89363L1.54847 3.02674C1.63965 2.95234 1.73958 2.88936 1.84605 2.83921L3.4694 2.11707ZM1.84605 9.84833C1.58737 9.73327 1.36759 9.5457 1.21331 9.30833C1.05903 9.07095 0.976857 8.79395 0.976744 8.51084V4.17605C0.980578 4.07005 0.996082 3.96479 1.02298 3.86219L5.35907 5.78898C5.52027 5.85834 5.68833 5.9105 5.86047 5.94461V11.6227C5.82465 11.6104 5.78819 11.6019 5.75302 11.5863L1.84605 9.84833ZM12.2093 9.60023C12.2093 9.72976 12.1578 9.85398 12.0663 9.94557C11.9747 10.0372 11.8505 10.0886 11.7209 10.0886H11.3953V10.4142C11.3953 10.5437 11.3439 10.6679 11.2523 10.7595C11.1607 10.8511 11.0365 10.9026 10.907 10.9026C10.7775 10.9026 10.6532 10.8511 10.5616 10.7595C10.4701 10.6679 10.4186 10.5437 10.4186 10.4142V10.0886H10.093C9.9635 10.0886 9.83928 10.0372 9.74769 9.94557C9.6561 9.85398 9.60465 9.72976 9.60465 9.60023C9.60465 9.47071 9.6561 9.34649 9.74769 9.2549C9.83928 9.16331 9.9635 9.11186 10.093 9.11186H10.4186V8.78628C10.4186 8.65676 10.4701 8.53254 10.5616 8.44095C10.6532 8.34936 10.7775 8.29791 10.907 8.29791C11.0365 8.29791 11.1607 8.34936 11.2523 8.44095C11.3439 8.53254 11.3953 8.65676 11.3953 8.78628V9.11186H11.7209C11.8505 9.11186 11.9747 9.16331 12.0663 9.2549C12.1578 9.34649 12.2093 9.47071 12.2093 9.60023ZM10.907 6.50721C10.2952 6.50721 9.69723 6.68861 9.18859 7.02848C8.67994 7.36834 8.2835 7.85141 8.0494 8.41658C7.81529 8.98176 7.75404 9.60367 7.87338 10.2037C7.99273 10.8036 8.28731 11.3548 8.71988 11.7873C9.15245 12.2199 9.70357 12.5145 10.3036 12.6338C10.9035 12.7532 11.5254 12.6919 12.0906 12.4578C12.6558 12.2237 13.1389 11.8273 13.4787 11.3186C13.8186 10.81 14 10.212 14 9.60023C13.9991 8.78012 13.673 7.99383 13.0932 7.41386C12.5133 6.83389 11.7271 6.50759 10.907 6.50656V6.50721ZM10.907 11.7165C10.4884 11.7165 10.0793 11.5924 9.73124 11.3599C9.38321 11.1273 9.11197 10.7968 8.95179 10.4101C8.79161 10.0234 8.7497 9.59789 8.83136 9.18737C8.91302 8.77685 9.11458 8.39977 9.41054 8.1038C9.70651 7.80783 10.0836 7.60628 10.4941 7.52462C10.9046 7.44296 11.3301 7.48487 11.7168 7.64505C12.1035 7.80522 12.4341 8.07647 12.6666 8.42449C12.8991 8.77251 13.0233 9.18167 13.0233 9.60023C13.0224 10.1612 12.7991 10.6989 12.4024 11.0955C12.0057 11.4921 11.4679 11.7158 10.907 11.7165Z" fill="#201E43" stroke="white" stroke-width="0.4" mask="url(#path-1-inside-1_6703_6724)"/>
</svg>
