<svg width="100" height="100" viewBox="0 0 100 100" fill="none" xmlns="http://www.w3.org/2000/svg">
<circle cx="50.6102" cy="46.9996" r="32.1266" fill="url(#paint0_linear_4457_4159)"/>
<g filter="url(#filter0_d_4457_4159)">
<path d="M35.1418 46.4047L44.7119 55.9748C45.1765 56.4394 45.9299 56.4394 46.3946 55.9748L65.4836 36.8857" stroke="#EFEFEF" stroke-width="5.94938" stroke-linecap="round" stroke-linejoin="round"/>
</g>
<circle cx="58.1421" cy="2.67722" r="2.67722" fill="#E72351"/>
<circle cx="93.2434" cy="70.5005" r="2.67722" fill="#40BDAF"/>
<circle cx="34.3445" cy="91.3227" r="2.67722" fill="#40B8AC"/>
<circle cx="10.5466" cy="65.146" r="2.67722" fill="#115974"/>
<rect x="32.8569" y="4.75977" width="3.56962" height="6.5443" transform="rotate(-30 32.8569 4.75977)" fill="#40B8AC"/>
<rect width="3.56962" height="6.5443" transform="matrix(-0.866025 -0.5 -0.5 0.866025 87.4106 13.6836)" fill="#115974"/>
<rect x="81.0469" y="86.8613" width="3.56962" height="6.5443" transform="rotate(-30 81.0469 86.8613)" fill="#41BEB0"/>
<rect x="1.24927" y="45.4766" width="3.56962" height="6.5443" transform="rotate(-99.8957 1.24927 45.4766)" fill="#E72351"/>
<path d="M9.22107 22.6054C8.88543 21.9466 9.58882 21.2432 10.2476 21.5789L11.1896 22.0589C11.4842 22.209 11.8419 22.1523 12.0757 21.9185L12.8234 21.1709C13.3461 20.6481 14.2325 21.0997 14.1168 21.83L13.9514 22.8742C13.8997 23.2008 14.0641 23.5235 14.3587 23.6736L15.3008 24.1536C15.9595 24.4893 15.8039 25.4717 15.0737 25.5874L14.0294 25.7528C13.7028 25.8045 13.4467 26.0606 13.395 26.3872L13.2296 27.4315C13.114 28.1617 12.1315 28.3173 11.7958 27.6586L11.3158 26.7165C11.1657 26.4219 10.843 26.2575 10.5164 26.3092L9.47215 26.4746C8.74194 26.5903 8.29033 25.7039 8.81311 25.1812L9.56072 24.4335C9.79451 24.1997 9.85117 23.842 9.70107 23.5474L9.22107 22.6054Z" fill="#40B8AC"/>
<path d="M9.22107 80.9091C8.88543 80.2503 9.58882 79.5469 10.2476 79.8826L11.1896 80.3626C11.4842 80.5127 11.8419 80.456 12.0757 80.2222L12.8234 79.4746C13.3461 78.9518 14.2325 79.4034 14.1168 80.1337L13.9514 81.1779C13.8997 81.5045 14.0641 81.8272 14.3587 81.9773L15.3008 82.4573C15.9595 82.793 15.8039 83.7755 15.0737 83.8911L14.0294 84.0565C13.7028 84.1082 13.4467 84.3644 13.395 84.6909L13.2296 85.7352C13.114 86.4654 12.1315 86.621 11.7958 85.9623L11.3158 85.0202C11.1657 84.7256 10.843 84.5612 10.5164 84.6129L9.47215 84.7783C8.74194 84.894 8.29033 84.0076 8.81311 83.4849L9.56072 82.7372C9.79451 82.5035 9.85117 82.1457 9.70107 81.8511L9.22107 80.9091Z" fill="#E72351"/>
<path d="M88.9425 35.6942C88.6069 35.0355 89.3103 34.3321 89.969 34.6677L90.911 35.1477C91.2056 35.2978 91.5634 35.2412 91.7972 35.0074L92.5448 34.2598C93.0676 33.737 93.9539 34.1886 93.8382 34.9188L93.6728 35.9631C93.6211 36.2896 93.7856 36.6124 94.0801 36.7625L95.0222 37.2425C95.6809 37.5781 95.5253 38.5606 94.7951 38.6763L93.7508 38.8417C93.4243 38.8934 93.1682 39.1495 93.1164 39.4761L92.951 40.5203C92.8354 41.2505 91.8529 41.4062 91.5172 40.7474L91.0372 39.8054C90.8871 39.5108 90.5644 39.3463 90.2379 39.3981L89.1936 39.5635C88.4634 39.6791 88.0118 38.7928 88.5345 38.27L89.2822 37.5224C89.5159 37.2886 89.5726 36.9309 89.4225 36.6363L88.9425 35.6942Z" fill="#40B8AC"/>
<path d="M54.921 89.9472C54.5854 89.2884 55.2888 88.585 55.9475 88.9207L56.8896 89.4007C57.1842 89.5508 57.5419 89.4941 57.7757 89.2603L58.5233 88.5127C59.0461 87.9899 59.9324 88.4415 59.8167 89.1717L59.6514 90.216C59.5996 90.5426 59.7641 90.8653 60.0587 91.0154L61.0007 91.4954C61.6594 91.831 61.5038 92.8135 60.7736 92.9292L59.7294 93.0946C59.4028 93.1463 59.1467 93.4024 59.095 93.729L58.9296 94.7733C58.8139 95.5035 57.8314 95.6591 57.4958 95.0004L57.0158 94.0583C56.8657 93.7637 56.5429 93.5993 56.2164 93.651L55.1721 93.8164C54.4419 93.932 53.9903 93.0457 54.5131 92.5229L55.2607 91.7753C55.4945 91.5415 55.5511 91.1838 55.401 90.8892L54.921 89.9472Z" fill="#115974"/>
<defs>
<filter id="filter0_d_4457_4159" x="27.5267" y="33.9111" width="45.572" height="34.7867" filterUnits="userSpaceOnUse" color-interpolation-filters="sRGB">
<feFlood flood-opacity="0" result="BackgroundImageFix"/>
<feColorMatrix in="SourceAlpha" type="matrix" values="0 0 0 0 0 0 0 0 0 0 0 0 0 0 0 0 0 0 127 0" result="hardAlpha"/>
<feOffset dy="4.7595"/>
<feGaussianBlur stdDeviation="2.32026"/>
<feComposite in2="hardAlpha" operator="out"/>
<feColorMatrix type="matrix" values="0 0 0 0 0 0 0 0 0 0 0 0 0 0 0 0 0 0 0.25 0"/>
<feBlend mode="normal" in2="BackgroundImageFix" result="effect1_dropShadow_4457_4159"/>
<feBlend mode="normal" in="SourceGraphic" in2="effect1_dropShadow_4457_4159" result="shape"/>
</filter>
<linearGradient id="paint0_linear_4457_4159" x1="50.6102" y1="14.873" x2="50.6102" y2="79.1262" gradientUnits="userSpaceOnUse">
<stop stop-color="#1679AB"/>
<stop offset="1" stop-color="#041822"/>
</linearGradient>
</defs>
</svg>
