<svg width="24" height="24" viewBox="0 0 24 24" fill="none" xmlns="http://www.w3.org/2000/svg">
<path d="M20.976 5.88746H16.3154V4.91373C16.3138 3.85713 15.4575 3.0011 14.4009 3H9.5585C8.50157 3.00116 7.64499 3.85758 7.64372 4.9145V5.88823H3.02504C2.17458 5.88923 1.48539 6.57854 1.48456 7.42899V11.876C1.48439 12.0823 1.62456 12.2624 1.82463 12.3129L2.22355 12.4137V19.991C2.22455 20.84 2.91253 21.528 3.76149 21.529H20.2385C21.0874 21.528 21.7754 20.84 21.7764 19.991V12.4116L22.1753 12.3114C22.3754 12.2609 22.5156 12.0808 22.5154 11.8744V7.42744C22.5141 6.57765 21.8257 5.88901 20.976 5.88746ZM8.54264 4.91373C8.5438 4.35344 8.99821 3.89981 9.5585 3.89964H14.4008C14.961 3.90036 15.415 4.35427 15.4157 4.9145V5.88823H8.54264V4.91373ZM20.8777 19.991C20.8773 20.3434 20.5918 20.6289 20.2395 20.6293H3.76254C3.40983 20.6295 3.12369 20.3438 3.12325 19.991V12.6394L10.28 14.4506L10.5371 14.5156V15.3582C10.5381 15.9105 10.9855 16.358 11.5378 16.3589H12.422C12.9738 16.3576 13.4209 15.9106 13.4222 15.3587V14.529L20.8777 12.6394V19.991H20.8777ZM11.435 15.3587V13.4118C11.4361 13.3566 11.4806 13.3122 11.5357 13.3111H12.42C12.4749 13.3105 12.5199 13.3546 12.5205 13.4095V13.4118V15.3587C12.521 15.4137 12.477 15.4587 12.4221 15.4593C12.4214 15.4593 12.4207 15.4593 12.42 15.4593H11.5378C11.4819 15.4593 11.4362 15.4147 11.435 15.3587ZM21.6167 11.5243L21.2222 11.6243H21.217L14.4607 13.3373L13.4212 13.6005V13.4118C13.4201 12.8599 12.973 12.4126 12.421 12.4114H11.5378C10.9849 12.4114 10.5364 12.8589 10.5353 13.4118V13.5879L2.78395 11.6251H2.77959L2.38426 11.5248V7.42822C2.38509 7.07462 2.6715 6.7881 3.02509 6.78716H20.976C21.3296 6.78815 21.6159 7.07462 21.6168 7.42822V11.5243H21.6167Z" fill="#011E29"/>
</svg>
