<svg width="17" height="20" viewBox="0 0 17 20" fill="none" xmlns="http://www.w3.org/2000/svg">
<mask id="path-1-inside-1_4561_6858" fill="white">
<path d="M1.80775 19.5C1.30908 19.5 0.883083 19.3234 0.52975 18.9703C0.176583 18.6169 0 18.1909 0 17.6923V6.30775C0 5.80908 0.176583 5.38308 0.52975 5.02975C0.883083 4.67658 1.30908 4.5 1.80775 4.5H4C4 3.25133 4.43783 2.18917 5.3135 1.3135C6.18917 0.437833 7.25133 0 8.5 0C9.74867 0 10.8108 0.437833 11.6865 1.3135C12.5622 2.18917 13 3.25133 13 4.5H15.1923C15.6909 4.5 16.1169 4.67658 16.4703 5.02975C16.8234 5.38308 17 5.80908 17 6.30775V17.6923C17 18.1909 16.8234 18.6169 16.4703 18.9703C16.1169 19.3234 15.6909 19.5 15.1923 19.5H1.80775ZM1.80775 18H15.1923C15.2692 18 15.3398 17.9679 15.4038 17.9038C15.4679 17.8398 15.5 17.7693 15.5 17.6923V6.30775C15.5 6.23075 15.4679 6.16025 15.4038 6.09625C15.3398 6.03208 15.2692 6 15.1923 6H1.80775C1.73075 6 1.66025 6.03208 1.59625 6.09625C1.53208 6.16025 1.5 6.23075 1.5 6.30775V17.6923C1.5 17.7693 1.53208 17.8398 1.59625 17.9038C1.66025 17.9679 1.73075 18 1.80775 18ZM5.5 4.5H11.5C11.5 3.66667 11.2083 2.95833 10.625 2.375C10.0417 1.79167 9.33333 1.5 8.5 1.5C7.66667 1.5 6.95833 1.79167 6.375 2.375C5.79167 2.95833 5.5 3.66667 5.5 4.5ZM8.4845 11.5C9.61533 11.5 10.6311 11.1173 11.5318 10.352C12.4324 9.5865 12.8776 8.71792 12.8673 7.74625C12.8673 7.53975 12.798 7.36375 12.6595 7.21825C12.5212 7.07275 12.3456 7 12.1328 7C11.9571 7 11.8 7.06058 11.6615 7.18175C11.523 7.30292 11.4249 7.47183 11.3673 7.6885C11.2224 8.36667 10.8769 8.9215 10.3307 9.353C9.78458 9.78433 9.16917 10 8.4845 10C7.8 10 7.18208 9.78433 6.63075 9.353C6.07942 8.9215 5.7365 8.36667 5.602 7.6885C5.54433 7.4615 5.45133 7.29 5.323 7.174C5.19483 7.058 5.04292 7 4.86725 7C4.65442 7 4.47625 7.07275 4.33275 7.21825C4.18908 7.36375 4.11725 7.53975 4.11725 7.74625C4.11725 8.71792 4.5625 9.5865 5.453 10.352C6.34333 11.1173 7.35383 11.5 8.4845 11.5Z"/>
</mask>
<path d="M1.80775 19.5C1.30908 19.5 0.883083 19.3234 0.52975 18.9703C0.176583 18.6169 0 18.1909 0 17.6923V6.30775C0 5.80908 0.176583 5.38308 0.52975 5.02975C0.883083 4.67658 1.30908 4.5 1.80775 4.5H4C4 3.25133 4.43783 2.18917 5.3135 1.3135C6.18917 0.437833 7.25133 0 8.5 0C9.74867 0 10.8108 0.437833 11.6865 1.3135C12.5622 2.18917 13 3.25133 13 4.5H15.1923C15.6909 4.5 16.1169 4.67658 16.4703 5.02975C16.8234 5.38308 17 5.80908 17 6.30775V17.6923C17 18.1909 16.8234 18.6169 16.4703 18.9703C16.1169 19.3234 15.6909 19.5 15.1923 19.5H1.80775ZM1.80775 18H15.1923C15.2692 18 15.3398 17.9679 15.4038 17.9038C15.4679 17.8398 15.5 17.7693 15.5 17.6923V6.30775C15.5 6.23075 15.4679 6.16025 15.4038 6.09625C15.3398 6.03208 15.2692 6 15.1923 6H1.80775C1.73075 6 1.66025 6.03208 1.59625 6.09625C1.53208 6.16025 1.5 6.23075 1.5 6.30775V17.6923C1.5 17.7693 1.53208 17.8398 1.59625 17.9038C1.66025 17.9679 1.73075 18 1.80775 18ZM5.5 4.5H11.5C11.5 3.66667 11.2083 2.95833 10.625 2.375C10.0417 1.79167 9.33333 1.5 8.5 1.5C7.66667 1.5 6.95833 1.79167 6.375 2.375C5.79167 2.95833 5.5 3.66667 5.5 4.5ZM8.4845 11.5C9.61533 11.5 10.6311 11.1173 11.5318 10.352C12.4324 9.5865 12.8776 8.71792 12.8673 7.74625C12.8673 7.53975 12.798 7.36375 12.6595 7.21825C12.5212 7.07275 12.3456 7 12.1328 7C11.9571 7 11.8 7.06058 11.6615 7.18175C11.523 7.30292 11.4249 7.47183 11.3673 7.6885C11.2224 8.36667 10.8769 8.9215 10.3307 9.353C9.78458 9.78433 9.16917 10 8.4845 10C7.8 10 7.18208 9.78433 6.63075 9.353C6.07942 8.9215 5.7365 8.36667 5.602 7.6885C5.54433 7.4615 5.45133 7.29 5.323 7.174C5.19483 7.058 5.04292 7 4.86725 7C4.65442 7 4.47625 7.07275 4.33275 7.21825C4.18908 7.36375 4.11725 7.53975 4.11725 7.74625C4.11725 8.71792 4.5625 9.5865 5.453 10.352C6.34333 11.1173 7.35383 11.5 8.4845 11.5Z" fill="white"/>
<path d="M1.65 18V6H1.35V18H1.65ZM0.52975 18.9703L0.317568 19.1823L0.317668 19.1824L0.52975 18.9703ZM0.52975 5.02975L0.317668 4.81757L0.317568 4.81767L0.52975 5.02975ZM4 4.5V4.8H4.3V4.5H4ZM13 4.5H12.7V4.8H13V4.5ZM16.4703 5.02975L16.6824 4.81767L16.6823 4.81757L16.4703 5.02975ZM16.4703 18.9703L16.6823 19.1824L16.6824 19.1823L16.4703 18.9703ZM15.4038 17.9038L15.1919 17.6913L15.1913 17.6919L15.4038 17.9038ZM15.4038 6.09625L15.1913 6.30811L15.1919 6.30866L15.4038 6.09625ZM1.59625 6.09625L1.80811 6.30866L1.80866 6.30811L1.59625 6.09625ZM1.59625 17.9038L1.80866 17.6919L1.80811 17.6913L1.59625 17.9038ZM5.5 4.5H5.2V4.8H5.5V4.5ZM11.5 4.5V4.8H11.8V4.5H11.5ZM11.5318 10.352L11.726 10.5806L11.726 10.5806L11.5318 10.352ZM12.8673 7.74625H12.5672L12.5673 7.74944L12.8673 7.74625ZM12.6595 7.21825L12.4421 7.42496L12.4422 7.42509L12.6595 7.21825ZM11.3673 7.6885L11.0773 7.61134L11.0754 7.61855L11.0739 7.62584L11.3673 7.6885ZM10.3307 9.353L10.5167 9.58843L10.5167 9.5884L10.3307 9.353ZM6.63075 9.353L6.44585 9.58925L6.4459 9.58928L6.63075 9.353ZM5.602 7.6885L5.89627 7.63014L5.89472 7.62234L5.89276 7.61463L5.602 7.6885ZM5.323 7.174L5.12169 7.39643L5.12183 7.39656L5.323 7.174ZM4.33275 7.21825L4.54622 7.42903L4.54634 7.42891L4.33275 7.21825ZM5.453 10.352L5.25744 10.5795L5.25744 10.5795L5.453 10.352ZM1.80775 19.2C1.38879 19.2 1.03902 19.0551 0.741832 18.7581L0.317668 19.1824C0.727144 19.5917 1.22938 19.8 1.80775 19.8V19.2ZM0.741932 18.7582C0.444881 18.461 0.3 18.1112 0.3 17.6923H-0.3C-0.3 18.2706 -0.0917141 18.7729 0.317568 19.1823L0.741932 18.7582ZM0.3 17.6923V6.30775H-0.3V17.6923H0.3ZM0.3 6.30775C0.3 5.88879 0.444881 5.53902 0.741932 5.24183L0.317568 4.81767C-0.0917141 5.22714 -0.3 5.72938 -0.3 6.30775H0.3ZM0.741832 5.24193C1.03902 4.94488 1.38879 4.8 1.80775 4.8V4.2C1.22938 4.2 0.727143 4.40829 0.317668 4.81757L0.741832 5.24193ZM1.80775 4.8H4V4.2H1.80775V4.8ZM4.3 4.5C4.3 3.33016 4.70675 2.34451 5.52563 1.52563L5.10137 1.10137C4.16892 2.03382 3.7 3.17251 3.7 4.5H4.3ZM5.52563 1.52563C6.34451 0.706749 7.33015 0.3 8.5 0.3V-0.3C7.17251 -0.3 6.03382 0.168916 5.10137 1.10137L5.52563 1.52563ZM8.5 0.3C9.66985 0.3 10.6555 0.706749 11.4744 1.52563L11.8986 1.10137C10.9662 0.168916 9.82749 -0.3 8.5 -0.3V0.3ZM11.4744 1.52563C12.2933 2.34451 12.7 3.33015 12.7 4.5H13.3C13.3 3.17251 12.8311 2.03382 11.8986 1.10137L11.4744 1.52563ZM13 4.8H15.1923V4.2H13V4.8ZM15.1923 4.8C15.6112 4.8 15.961 4.94488 16.2582 5.24193L16.6823 4.81757C16.2729 4.40829 15.7706 4.2 15.1923 4.2V4.8ZM16.2581 5.24183C16.5551 5.53902 16.7 5.88879 16.7 6.30775H17.3C17.3 5.72938 17.0917 5.22714 16.6824 4.81767L16.2581 5.24183ZM16.7 6.30775V17.6923H17.3V6.30775H16.7ZM16.7 17.6923C16.7 18.1112 16.5551 18.461 16.2581 18.7582L16.6824 19.1823C17.0917 18.7729 17.3 18.2706 17.3 17.6923H16.7ZM16.2582 18.7581C15.961 19.0551 15.6112 19.2 15.1923 19.2V19.8C15.7706 19.8 16.2729 19.5917 16.6823 19.1824L16.2582 18.7581ZM15.1923 19.2H1.80775V19.8H15.1923V19.2ZM1.80775 18.3H15.1923V17.7H1.80775V18.3ZM15.1923 18.3C15.363 18.3 15.5066 18.2254 15.6162 18.1156L15.1913 17.6919C15.1806 17.7027 15.176 17.7041 15.1786 17.7029C15.1799 17.7023 15.1821 17.7015 15.185 17.7008C15.188 17.7002 15.1905 17.7 15.1923 17.7V18.3ZM15.6156 18.1162C15.7254 18.0066 15.8 17.863 15.8 17.6923H15.2C15.2 17.6905 15.2002 17.688 15.2008 17.685C15.2015 17.6821 15.2023 17.6799 15.2029 17.6786C15.2041 17.676 15.2027 17.6806 15.1919 17.6913L15.6156 18.1162ZM15.8 17.6923V6.30775H15.2V17.6923H15.8ZM15.8 6.30775C15.8 6.13704 15.7254 5.9934 15.6156 5.88384L15.1919 6.30866C15.2027 6.31944 15.2041 6.32402 15.2029 6.32139C15.2023 6.32013 15.2015 6.31791 15.2008 6.31498C15.2002 6.31205 15.2 6.3095 15.2 6.30775H15.8ZM15.6162 5.88439C15.5066 5.77455 15.363 5.7 15.1923 5.7V6.3C15.1905 6.3 15.188 6.2998 15.185 6.29916C15.1821 6.29852 15.1799 6.29769 15.1786 6.29712C15.176 6.29592 15.1806 6.29729 15.1913 6.30811L15.6162 5.88439ZM15.1923 5.7H1.80775V6.3H15.1923V5.7ZM1.80775 5.7C1.63704 5.7 1.4934 5.77456 1.38384 5.88439L1.80866 6.30811C1.81944 6.29729 1.82402 6.29592 1.82139 6.29712C1.82013 6.29769 1.81791 6.29852 1.81498 6.29916C1.81205 6.2998 1.8095 6.3 1.80775 6.3V5.7ZM1.38439 5.88384C1.27456 5.99339 1.2 6.13704 1.2 6.30775H1.8C1.8 6.3095 1.7998 6.31205 1.79916 6.31498C1.79852 6.31791 1.79769 6.32013 1.79712 6.32139C1.79592 6.32402 1.79729 6.31944 1.80811 6.30866L1.38439 5.88384ZM1.2 6.30775V17.6923H1.8V6.30775H1.2ZM1.2 17.6923C1.2 17.863 1.27456 18.0066 1.38439 18.1162L1.80811 17.6913C1.79729 17.6806 1.79592 17.676 1.79712 17.6786C1.79769 17.6799 1.79852 17.6821 1.79916 17.685C1.7998 17.688 1.8 17.6905 1.8 17.6923H1.2ZM1.38384 18.1156C1.4934 18.2254 1.63704 18.3 1.80775 18.3V17.7C1.8095 17.7 1.81205 17.7002 1.81498 17.7008C1.81791 17.7015 1.82013 17.7023 1.82139 17.7029C1.82402 17.7041 1.81944 17.7027 1.80866 17.6919L1.38384 18.1156ZM5.5 4.8H11.5V4.2H5.5V4.8ZM11.8 4.5C11.8 3.58801 11.4774 2.8031 10.8371 2.16287L10.4129 2.58713C10.9393 3.11357 11.2 3.74532 11.2 4.5H11.8ZM10.8371 2.16287C10.1969 1.52263 9.41199 1.2 8.5 1.2V1.8C9.25468 1.8 9.88643 2.0607 10.4129 2.58713L10.8371 2.16287ZM8.5 1.2C7.58801 1.2 6.8031 1.52263 6.16287 2.16287L6.58713 2.58713C7.11357 2.0607 7.74532 1.8 8.5 1.8V1.2ZM6.16287 2.16287C5.52263 2.8031 5.2 3.58801 5.2 4.5H5.8C5.8 3.74532 6.0607 3.11357 6.58713 2.58713L6.16287 2.16287ZM8.4845 11.8C9.68993 11.8 10.7738 11.3898 11.726 10.5806L11.3375 10.1234C10.4884 10.8449 9.54074 11.2 8.4845 11.2V11.8ZM11.726 10.5806C12.6785 9.77109 13.1787 8.82307 13.1672 7.74306L12.5673 7.74944C12.5764 8.61276 12.1864 9.40191 11.3375 10.1234L11.726 10.5806ZM13.1673 7.74625C13.1673 7.46514 13.07 7.2144 12.8768 7.01141L12.4422 7.42509C12.526 7.5131 12.5673 7.61436 12.5673 7.74625H13.1673ZM12.8769 7.01154C12.6783 6.80258 12.4222 6.7 12.1328 6.7V7.3C12.2689 7.3 12.3641 7.34292 12.4421 7.42496L12.8769 7.01154ZM12.1328 6.7C11.8807 6.7 11.6543 6.78944 11.464 6.95596L11.859 7.40754C11.9457 7.33173 12.0334 7.3 12.1328 7.3V6.7ZM11.464 6.95596C11.2716 7.12424 11.147 7.34977 11.0773 7.61134L11.6572 7.76566C11.7029 7.59389 11.7744 7.48159 11.859 7.40754L11.464 6.95596ZM11.0739 7.62584C10.9437 8.2354 10.6363 8.72924 10.1448 9.1176L10.5167 9.5884C11.1175 9.11376 11.5011 8.49793 11.6606 7.75116L11.0739 7.62584ZM10.1448 9.11757C9.65066 9.50783 9.10049 9.7 8.4845 9.7V10.3C9.23784 10.3 9.91851 10.0608 10.5167 9.58843L10.1448 9.11757ZM8.4845 9.7C7.86863 9.7 7.31546 9.50778 6.8156 9.11672L6.4459 9.58928C7.04871 10.0609 7.73137 10.3 8.4845 10.3V9.7ZM6.81565 9.11675C6.32011 8.72892 6.0166 8.23685 5.89627 7.63014L5.30773 7.74686C5.4564 8.49648 5.83872 9.11408 6.44585 9.58925L6.81565 9.11675ZM5.89276 7.61463C5.82556 7.35009 5.70938 7.11886 5.52417 6.95144L5.12183 7.39656C5.19328 7.46114 5.26311 7.57291 5.31124 7.76236L5.89276 7.61463ZM5.52431 6.95157C5.34 6.78476 5.11599 6.7 4.86725 6.7V7.3C4.96985 7.3 5.04966 7.33124 5.12169 7.39643L5.52431 6.95157ZM4.86725 6.7C4.57785 6.7 4.32159 6.80233 4.11915 7.00759L4.54634 7.42891C4.63091 7.34317 4.73098 7.3 4.86725 7.3V6.7ZM4.11928 7.00747C3.91956 7.20974 3.81725 7.46172 3.81725 7.74625H4.41725C4.41725 7.61778 4.45861 7.51776 4.54622 7.42903L4.11928 7.00747ZM3.81725 7.74625C3.81725 8.82351 4.31577 9.77002 5.25744 10.5795L5.64856 10.1245C4.80923 9.40298 4.41725 8.61233 4.41725 7.74625H3.81725ZM5.25744 10.5795C6.19991 11.3897 7.27912 11.8 8.4845 11.8V11.2C7.42854 11.2 6.48675 10.845 5.64856 10.1245L5.25744 10.5795Z" fill="#1B3843" mask="url(#path-1-inside-1_4561_6858)"/>
</svg>
