<svg width="22" height="21" viewBox="0 0 22 21" fill="none" xmlns="http://www.w3.org/2000/svg">
<path d="M12.6764 8.37576L12.6167 8.3639V8.4248V9.2748V9.3159L12.657 9.32386L19.8315 10.7404C19.9989 10.777 20.1167 10.9307 20.1167 11.0998V19.5998C20.1167 19.8049 19.948 19.9665 19.75 19.9665H12.6667H12.6167V20.0165V20.4331C12.6167 20.6389 12.4557 20.7998 12.25 20.7998V20.8498V20.8998H19.75C20.4693 20.8998 21.05 20.3191 21.05 19.5998V11.0998C21.05 10.4845 20.6335 9.9641 20.0187 9.83422L20.0187 9.83421L20.0181 9.8341L12.6764 8.37576Z" fill="#011E29" stroke="#011E29" stroke-width="0.1"/>
<path d="M17.7166 12.9333C17.7166 12.6723 17.5109 12.4666 17.25 12.4666H15.5833C15.3223 12.4666 15.1166 12.6723 15.1166 12.9333C15.1166 13.1942 15.3223 13.3999 15.5833 13.3999H17.25C17.5109 13.3999 17.7166 13.1942 17.7166 12.9333Z" fill="#011E29" stroke="#011E29" stroke-width="0.1"/>
<path d="M17.7166 15.4333C17.7166 15.1723 17.5109 14.9666 17.25 14.9666H15.5833C15.3223 14.9666 15.1166 15.1723 15.1166 15.4333C15.1166 15.6942 15.3223 15.8999 15.5833 15.8999H17.25C17.5109 15.8999 17.7166 15.6942 17.7166 15.4333Z" fill="#011E29" stroke="#011E29" stroke-width="0.1"/>
<path d="M17.7166 17.9323C17.7166 17.6713 17.5109 17.4656 17.25 17.4656H15.5833C15.3223 17.4656 15.1166 17.6713 15.1166 17.9323C15.1166 18.1932 15.3223 18.399 15.5833 18.399H17.25C17.5109 18.399 17.7166 18.1932 17.7166 17.9323Z" fill="#011E29" stroke="#011E29" stroke-width="0.1"/>
<path d="M11.9533 8.40213L11.9532 8.40195L11.9497 8.40513C11.8489 8.49672 11.7833 8.62632 11.7833 8.76713V20.0171V20.4338C11.7833 20.6947 11.989 20.9005 12.25 20.9005C12.5109 20.9005 12.7166 20.6947 12.7166 20.4338V20.0171V9.27546V8.42546V8.38447L12.6765 8.37643L12.3431 8.30976C12.2029 8.28173 12.0636 8.31939 11.9533 8.40213Z" fill="#011E29" stroke="#011E29" stroke-width="0.1"/>
<path d="M11.8833 20.0166V19.9666H11.8333H9.33329H9.28329V20.0166V20.4333C9.28329 20.639 9.12235 20.7999 8.91663 20.7999V20.8499V20.8999H12.25V20.8499V20.7999C12.0442 20.7999 11.8833 20.639 11.8833 20.4333V20.0166Z" fill="#011E29" stroke="#011E29" stroke-width="0.1"/>
<path d="M10.2166 5.43327C10.2166 5.17232 10.0109 4.9666 9.74996 4.9666H8.08329C7.82235 4.9666 7.61663 5.17232 7.61663 5.43327C7.61663 5.69422 7.82235 5.89993 8.08329 5.89993H9.74996C10.0109 5.89993 10.2166 5.69422 10.2166 5.43327Z" fill="#011E29" stroke="#011E29" stroke-width="0.1"/>
<path d="M9.74996 8.39896C10.0109 8.39896 10.2166 8.19324 10.2166 7.93229C10.2166 7.67134 10.0109 7.46562 9.74996 7.46562H8.08329C7.82235 7.46562 7.61663 7.67134 7.61663 7.93229C7.61663 8.19324 7.82235 8.39896 8.08329 8.39896H9.74996Z" fill="#011E29" stroke="#011E29" stroke-width="0.1"/>
<path d="M10.2166 10.4323C10.2166 10.1713 10.0109 9.96562 9.74996 9.96562H8.08329C7.82235 9.96562 7.61663 10.1713 7.61663 10.4323C7.61663 10.6932 7.82235 10.899 8.08329 10.899H9.74996C10.0109 10.899 10.2166 10.6932 10.2166 10.4323Z" fill="#011E29" stroke="#011E29" stroke-width="0.1"/>
<path d="M10.2166 12.9333C10.2166 12.6723 10.0109 12.4666 9.74996 12.4666H8.08329C7.82235 12.4666 7.61663 12.6723 7.61663 12.9333C7.61663 13.1942 7.82235 13.3999 8.08329 13.3999H9.74996C10.0109 13.3999 10.2166 13.1942 10.2166 12.9333Z" fill="#011E29" stroke="#011E29" stroke-width="0.1"/>
<path d="M5.58333 13.3999C5.84428 13.3999 6.05 13.1942 6.05 12.9333C6.05 12.6723 5.84428 12.4666 5.58333 12.4666H3.91667C3.65572 12.4666 3.45 12.6723 3.45 12.9333C3.45 13.1942 3.65572 13.3999 3.91667 13.3999H5.58333Z" fill="#011E29" stroke="#011E29" stroke-width="0.1"/>
<path d="M6.05 5.43327C6.05 5.17232 5.84428 4.9666 5.58333 4.9666H3.91667C3.65572 4.9666 3.45 5.17232 3.45 5.43327C3.45 5.69422 3.65572 5.89993 3.91667 5.89993H5.58333C5.84428 5.89993 6.05 5.69422 6.05 5.43327Z" fill="#011E29" stroke="#011E29" stroke-width="0.1"/>
<path d="M6.05 7.93229C6.05 7.67134 5.84428 7.46562 5.58333 7.46562H3.91667C3.65572 7.46562 3.45 7.67134 3.45 7.93229C3.45 8.19324 3.65572 8.39896 3.91667 8.39896H5.58333C5.84428 8.39896 6.05 8.19324 6.05 7.93229Z" fill="#011E29" stroke="#011E29" stroke-width="0.1"/>
<path d="M6.05 10.4323C6.05 10.1713 5.84428 9.96562 5.58333 9.96562H3.91667C3.65572 9.96562 3.45 10.1713 3.45 10.4323C3.45 10.6932 3.65572 10.899 3.91667 10.899H5.58333C5.84428 10.899 6.05 10.6932 6.05 10.4323Z" fill="#011E29" stroke="#011E29" stroke-width="0.1"/>
<path d="M5.16671 20.0666H5.21671V20.0166V16.2666C5.21671 16.0609 5.37765 15.8999 5.58337 15.8999H8.08337C8.28141 15.8999 8.45004 16.0615 8.45004 16.2666V20.0166V20.0666H8.50004H9.33337H9.38337V20.0166V16.2666C9.38337 15.5473 8.80265 14.9666 8.08337 14.9666H5.58337C4.86409 14.9666 4.28337 15.5473 4.28337 16.2666V20.0166V20.0666H4.33337H5.16671Z" fill="#011E29" stroke="#011E29" stroke-width="0.1"/>
<path d="M9.38337 20.0166V19.9666H9.33337H8.50004H5.16671H4.33337H4.28337V20.0166V20.4333C4.28337 20.6942 4.48909 20.8999 4.75004 20.8999H8.91671C9.17765 20.8999 9.38337 20.6942 9.38337 20.4333V20.0166Z" fill="#011E29" stroke="#011E29" stroke-width="0.1"/>
<path d="M4.75 20.8996V20.8496V20.7996C4.54428 20.7996 4.38333 20.6386 4.38333 20.4329V20.0162V19.9662H4.33333H2.25C2.05196 19.9662 1.88333 19.8046 1.88333 19.5996V2.24956C1.88333 2.13953 1.92664 2.04522 2.01534 1.9713L2.01536 1.97132L2.01655 1.97026C2.08202 1.91206 2.16173 1.88289 2.25 1.88289C2.27613 1.88289 2.29307 1.88329 2.30919 1.88866L2.30895 1.88937L2.31753 1.89066L11.4751 3.27388C11.4752 3.2739 11.4754 3.27392 11.4755 3.27394C11.6511 3.30338 11.7833 3.45735 11.7833 3.64122V8.76622H11.8333H11.8833C11.8833 8.6578 11.9337 8.55476 12.0152 8.47981C12.1046 8.41356 12.2145 8.38511 12.3235 8.40692L12.6569 8.47359L12.7167 8.48555V8.42456V3.64122C12.7167 2.9999 12.2571 2.4625 11.6248 2.35855L11.6242 2.35846L2.46619 0.966845C2.46613 0.966836 2.46607 0.966827 2.46602 0.966818C2.08539 0.906313 1.70414 1.01013 1.40955 1.26124C1.11441 1.50446 0.95 1.86873 0.95 2.24956V19.5996C0.95 20.3188 1.53072 20.8996 2.25 20.8996H4.75Z" fill="#011E29" stroke="#011E29" stroke-width="0.1"/>
</svg>
