<svg width="40" height="40" viewBox="0 0 40 40" fill="none" xmlns="http://www.w3.org/2000/svg">
<rect x="0.5" y="0.5" width="39" height="39" rx="11.5" fill="white" stroke="#D0E4EE"/>
<path d="M16.8185 28.4552C16.4044 28.4552 16.0524 28.3101 15.7623 28.0199C15.4722 27.7299 15.3272 27.3778 15.3272 26.9638C15.3272 26.5496 15.4722 26.1974 15.7623 25.9074C16.0524 25.6173 16.4044 25.4723 16.8185 25.4723C17.2327 25.4723 17.5848 25.6173 17.8748 25.9074C18.1649 26.1974 18.3099 26.5496 18.3099 26.9638C18.3099 27.3778 18.1649 27.7299 17.8748 28.0199C17.5848 28.3101 17.2327 28.4552 16.8185 28.4552ZM25.079 28.4552C24.6648 28.4552 24.3127 28.3101 24.0226 28.0199C23.7326 27.7299 23.5875 27.3778 23.5875 26.9638C23.5875 26.5496 23.7326 26.1974 24.0226 25.9074C24.3127 25.6173 24.6648 25.4723 25.079 25.4723C25.493 25.4723 25.8451 25.6173 26.1351 25.9074C26.4252 26.1974 26.5702 26.5496 26.5702 26.9638C26.5702 27.3778 26.4252 27.7299 26.1351 28.0199C25.8451 28.3101 25.493 28.4552 25.079 28.4552ZM15.8482 14.9829L18.0084 19.5065H23.8185C23.8676 19.5065 23.9114 19.4942 23.9497 19.4696C23.988 19.4451 24.0207 19.4109 24.048 19.3671L26.3344 15.2124C26.3672 15.1523 26.3699 15.099 26.3425 15.0526C26.3152 15.0061 26.2687 14.9829 26.2031 14.9829H15.8482ZM15.2354 13.7045H27.0686C27.4172 13.7045 27.6807 13.8529 27.8593 14.1496C28.038 14.4462 28.0465 14.7491 27.8848 15.0583L25.1542 20.0046C25.0144 20.2505 24.8296 20.442 24.5996 20.5791C24.3695 20.7163 24.1174 20.7849 23.8432 20.7849H17.6249L16.6382 22.5876C16.5945 22.6532 16.5931 22.7243 16.6342 22.8007C16.6751 22.8772 16.7365 22.9155 16.8185 22.9155H25.9312C26.1125 22.9155 26.2643 22.9767 26.3868 23.099C26.5091 23.2214 26.5702 23.3733 26.5702 23.5547C26.5702 23.7361 26.5091 23.888 26.3868 24.0103C26.2643 24.1327 26.1125 24.1939 25.9312 24.1939H16.8185C16.2503 24.1939 15.8234 23.9489 15.5377 23.4588C15.2519 22.9688 15.2419 22.4795 15.5075 21.991L16.7234 19.8048L13.6227 13.2784H12.6392C12.4578 13.2784 12.306 13.2172 12.1837 13.0947C12.0612 12.9724 12 12.8206 12 12.6392C12 12.4578 12.0612 12.306 12.1837 12.1837C12.306 12.0612 12.4578 12 12.6392 12H13.9421C14.0875 12 14.223 12.0385 14.3486 12.1155C14.4743 12.1926 14.5699 12.3011 14.6354 12.4408L15.2354 13.7045Z" fill="#1679AB"/>
</svg>
