<svg width="20" height="19" viewBox="0 0 20 19" fill="none" xmlns="http://www.w3.org/2000/svg">
<mask id="path-1-outside-1_6914_4688" maskUnits="userSpaceOnUse" x="0" y="0" width="20" height="19" fill="black">
<rect fill="white" width="20" height="19"/>
<path d="M18.9999 2.46352C18.9999 1.65626 18.3331 1 17.513 1H2.48695C1.66677 1 1 1.65626 1 2.46352V11.0905C1 11.8978 1.66677 12.554 2.48695 12.554H5.4022C5.39281 12.6819 5.38263 12.809 5.38263 12.9392C5.38263 15.7846 7.7351 18.1 10.6261 18.1C11.1614 18.1 11.6858 18.0191 12.1882 17.8635C12.6836 18.0168 13.2103 18.1 13.7565 18.1C16.6475 18.1 19 15.7846 19 12.9392C19 12.5209 18.9437 12.1173 18.8482 11.7275C18.946 11.5296 19 11.3116 19 11.0905L18.9999 2.46352ZM17.2782 9.12712C16.3461 8.29214 15.1126 7.77839 13.7565 7.77839C13.3104 7.77839 12.88 7.83924 12.466 7.94322C12.6436 7.5812 12.7391 7.18606 12.7391 6.77703C12.7391 5.2904 11.5104 4.08106 9.99996 4.08106C8.4895 4.08106 7.26081 5.29038 7.26081 6.77703C7.26081 7.42251 7.49873 8.04413 7.91978 8.52708C7.00257 9.07396 6.26848 9.8866 5.83096 10.8594H4.25245C3.9261 10.2016 3.39002 9.67399 2.72168 9.35279V4.20123C3.39002 3.88003 3.9261 3.35239 4.25245 2.69459H15.7473C16.0737 3.35239 16.6098 3.88003 17.2781 4.20123L17.2782 9.12712ZM8.34391 8.29985C7.95339 7.89084 7.73035 7.3455 7.73035 6.77702C7.73035 5.54536 8.74851 4.54327 9.99988 4.54327C11.2512 4.54327 12.2694 5.54538 12.2694 6.77702C12.2694 7.1922 12.1481 7.58966 11.9282 7.94166C11.5056 7.83459 11.0697 7.77836 10.6259 7.77836C9.80734 7.77836 9.03503 7.96941 8.34391 8.29985ZM10.6261 17.6377C7.9941 17.6377 5.8522 15.5296 5.8522 12.9391C5.8522 10.3486 7.9941 8.2405 10.6261 8.2405C10.9039 8.2405 11.1778 8.26669 11.447 8.3129C9.71198 9.15557 8.51294 10.9095 8.51294 12.9392C8.51294 14.9672 9.71112 16.7212 11.4438 17.5638C11.1754 17.6108 10.9023 17.6377 10.6261 17.6377ZM13.7565 17.6377C11.1245 17.6377 8.98261 15.5296 8.98261 12.9391C8.98261 10.3486 11.1245 8.2405 13.7565 8.2405C16.3884 8.2405 18.5303 10.3486 18.5303 12.9391C18.5303 15.5296 16.3884 17.6377 13.7565 17.6377ZM17.7306 9.58217C17.7407 9.55598 17.7478 9.52902 17.7478 9.50052V4.05318C17.7478 3.96075 17.6922 3.87756 17.6061 3.84136C16.9339 3.55483 16.404 3.03334 16.1129 2.37169C16.0754 2.28696 15.9908 2.23227 15.8977 2.23227H4.10229C4.00838 2.23227 3.92386 2.28696 3.88708 2.37169C3.59595 3.03336 3.06612 3.55483 2.39387 3.84136C2.30779 3.87833 2.25222 3.96152 2.25222 4.05318V9.50052C2.25222 9.59295 2.30779 9.67614 2.39387 9.71234C3.06614 9.99888 3.59595 10.5204 3.88708 11.182C3.92464 11.2667 4.00917 11.3214 4.10229 11.3214H5.65029C5.56655 11.5702 5.50394 11.8275 5.45933 12.0917H2.48699C1.92586 12.0917 1.46961 11.6426 1.46961 11.0903V2.46333C1.46961 1.91105 1.92586 1.46199 2.48699 1.46199H17.513C18.0741 1.46199 18.5304 1.91105 18.5304 2.46333V10.8161C18.323 10.367 18.0538 9.9519 17.7306 9.58217ZM15.0127 10.746C14.7505 10.5689 14.4163 10.4711 14.025 10.4425V9.85713C14.025 9.72927 13.9201 9.62605 13.7902 9.62605C13.6603 9.62605 13.5554 9.72926 13.5554 9.85713V10.4441C12.6116 10.5157 12.0442 10.9856 12.0325 11.7404C12.016 12.7849 13.0741 13.0075 13.5554 13.1015V14.9124C13.2322 14.8939 12.9646 14.8207 12.765 14.686C12.5247 14.5234 12.4167 14.3863 12.3181 14.1206C12.2735 14.0004 12.1389 13.9396 12.0176 13.9827C11.8955 14.0266 11.8329 14.1591 11.8775 14.2785C12.0098 14.6351 12.178 14.8492 12.4997 15.0665C12.7767 15.2536 13.1344 15.3538 13.5562 15.3738V16.0193C13.5562 16.1471 13.6611 16.2504 13.791 16.2504C13.9209 16.2504 14.0258 16.1471 14.0258 16.0193V15.3638C14.9109 15.2744 15.4493 14.8092 15.4799 14.0774C15.5213 13.0761 14.5392 12.8265 14.0258 12.7241V10.9039C14.3185 10.9286 14.5619 11.0017 14.7473 11.1273C14.9876 11.2898 15.0956 11.4269 15.1942 11.6927C15.2388 11.8128 15.3742 11.8745 15.4947 11.8306C15.6168 11.7867 15.6794 11.6542 15.6348 11.5348C15.5026 11.1781 15.3343 10.964 15.0127 10.7468V10.746ZM12.5021 11.7489C12.5115 11.1396 13.0343 10.9463 13.5555 10.9039V12.6301C13.021 12.5176 12.4927 12.3312 12.5021 11.7497V11.7489ZM15.0096 14.059C14.9846 14.6567 14.472 14.8493 14.0251 14.9024V13.1978C14.5424 13.3126 15.0323 13.5059 15.0096 14.059Z"/>
</mask>
<path d="M18.9999 2.46352C18.9999 1.65626 18.3331 1 17.513 1H2.48695C1.66677 1 1 1.65626 1 2.46352V11.0905C1 11.8978 1.66677 12.554 2.48695 12.554H5.4022C5.39281 12.6819 5.38263 12.809 5.38263 12.9392C5.38263 15.7846 7.7351 18.1 10.6261 18.1C11.1614 18.1 11.6858 18.0191 12.1882 17.8635C12.6836 18.0168 13.2103 18.1 13.7565 18.1C16.6475 18.1 19 15.7846 19 12.9392C19 12.5209 18.9437 12.1173 18.8482 11.7275C18.946 11.5296 19 11.3116 19 11.0905L18.9999 2.46352ZM17.2782 9.12712C16.3461 8.29214 15.1126 7.77839 13.7565 7.77839C13.3104 7.77839 12.88 7.83924 12.466 7.94322C12.6436 7.5812 12.7391 7.18606 12.7391 6.77703C12.7391 5.2904 11.5104 4.08106 9.99996 4.08106C8.4895 4.08106 7.26081 5.29038 7.26081 6.77703C7.26081 7.42251 7.49873 8.04413 7.91978 8.52708C7.00257 9.07396 6.26848 9.8866 5.83096 10.8594H4.25245C3.9261 10.2016 3.39002 9.67399 2.72168 9.35279V4.20123C3.39002 3.88003 3.9261 3.35239 4.25245 2.69459H15.7473C16.0737 3.35239 16.6098 3.88003 17.2781 4.20123L17.2782 9.12712ZM8.34391 8.29985C7.95339 7.89084 7.73035 7.3455 7.73035 6.77702C7.73035 5.54536 8.74851 4.54327 9.99988 4.54327C11.2512 4.54327 12.2694 5.54538 12.2694 6.77702C12.2694 7.1922 12.1481 7.58966 11.9282 7.94166C11.5056 7.83459 11.0697 7.77836 10.6259 7.77836C9.80734 7.77836 9.03503 7.96941 8.34391 8.29985ZM10.6261 17.6377C7.9941 17.6377 5.8522 15.5296 5.8522 12.9391C5.8522 10.3486 7.9941 8.2405 10.6261 8.2405C10.9039 8.2405 11.1778 8.26669 11.447 8.3129C9.71198 9.15557 8.51294 10.9095 8.51294 12.9392C8.51294 14.9672 9.71112 16.7212 11.4438 17.5638C11.1754 17.6108 10.9023 17.6377 10.6261 17.6377ZM13.7565 17.6377C11.1245 17.6377 8.98261 15.5296 8.98261 12.9391C8.98261 10.3486 11.1245 8.2405 13.7565 8.2405C16.3884 8.2405 18.5303 10.3486 18.5303 12.9391C18.5303 15.5296 16.3884 17.6377 13.7565 17.6377ZM17.7306 9.58217C17.7407 9.55598 17.7478 9.52902 17.7478 9.50052V4.05318C17.7478 3.96075 17.6922 3.87756 17.6061 3.84136C16.9339 3.55483 16.404 3.03334 16.1129 2.37169C16.0754 2.28696 15.9908 2.23227 15.8977 2.23227H4.10229C4.00838 2.23227 3.92386 2.28696 3.88708 2.37169C3.59595 3.03336 3.06612 3.55483 2.39387 3.84136C2.30779 3.87833 2.25222 3.96152 2.25222 4.05318V9.50052C2.25222 9.59295 2.30779 9.67614 2.39387 9.71234C3.06614 9.99888 3.59595 10.5204 3.88708 11.182C3.92464 11.2667 4.00917 11.3214 4.10229 11.3214H5.65029C5.56655 11.5702 5.50394 11.8275 5.45933 12.0917H2.48699C1.92586 12.0917 1.46961 11.6426 1.46961 11.0903V2.46333C1.46961 1.91105 1.92586 1.46199 2.48699 1.46199H17.513C18.0741 1.46199 18.5304 1.91105 18.5304 2.46333V10.8161C18.323 10.367 18.0538 9.9519 17.7306 9.58217ZM15.0127 10.746C14.7505 10.5689 14.4163 10.4711 14.025 10.4425V9.85713C14.025 9.72927 13.9201 9.62605 13.7902 9.62605C13.6603 9.62605 13.5554 9.72926 13.5554 9.85713V10.4441C12.6116 10.5157 12.0442 10.9856 12.0325 11.7404C12.016 12.7849 13.0741 13.0075 13.5554 13.1015V14.9124C13.2322 14.8939 12.9646 14.8207 12.765 14.686C12.5247 14.5234 12.4167 14.3863 12.3181 14.1206C12.2735 14.0004 12.1389 13.9396 12.0176 13.9827C11.8955 14.0266 11.8329 14.1591 11.8775 14.2785C12.0098 14.6351 12.178 14.8492 12.4997 15.0665C12.7767 15.2536 13.1344 15.3538 13.5562 15.3738V16.0193C13.5562 16.1471 13.6611 16.2504 13.791 16.2504C13.9209 16.2504 14.0258 16.1471 14.0258 16.0193V15.3638C14.9109 15.2744 15.4493 14.8092 15.4799 14.0774C15.5213 13.0761 14.5392 12.8265 14.0258 12.7241V10.9039C14.3185 10.9286 14.5619 11.0017 14.7473 11.1273C14.9876 11.2898 15.0956 11.4269 15.1942 11.6927C15.2388 11.8128 15.3742 11.8745 15.4947 11.8306C15.6168 11.7867 15.6794 11.6542 15.6348 11.5348C15.5026 11.1781 15.3343 10.964 15.0127 10.7468V10.746ZM12.5021 11.7489C12.5115 11.1396 13.0343 10.9463 13.5555 10.9039V12.6301C13.021 12.5176 12.4927 12.3312 12.5021 11.7497V11.7489ZM15.0096 14.059C14.9846 14.6567 14.472 14.8493 14.0251 14.9024V13.1978C14.5424 13.3126 15.0323 13.5059 15.0096 14.059Z" fill="#1B3843"/>
<path d="M18.9999 2.46352C18.9999 1.65626 18.3331 1 17.513 1H2.48695C1.66677 1 1 1.65626 1 2.46352V11.0905C1 11.8978 1.66677 12.554 2.48695 12.554H5.4022C5.39281 12.6819 5.38263 12.809 5.38263 12.9392C5.38263 15.7846 7.7351 18.1 10.6261 18.1C11.1614 18.1 11.6858 18.0191 12.1882 17.8635C12.6836 18.0168 13.2103 18.1 13.7565 18.1C16.6475 18.1 19 15.7846 19 12.9392C19 12.5209 18.9437 12.1173 18.8482 11.7275C18.946 11.5296 19 11.3116 19 11.0905L18.9999 2.46352ZM17.2782 9.12712C16.3461 8.29214 15.1126 7.77839 13.7565 7.77839C13.3104 7.77839 12.88 7.83924 12.466 7.94322C12.6436 7.5812 12.7391 7.18606 12.7391 6.77703C12.7391 5.2904 11.5104 4.08106 9.99996 4.08106C8.4895 4.08106 7.26081 5.29038 7.26081 6.77703C7.26081 7.42251 7.49873 8.04413 7.91978 8.52708C7.00257 9.07396 6.26848 9.8866 5.83096 10.8594H4.25245C3.9261 10.2016 3.39002 9.67399 2.72168 9.35279V4.20123C3.39002 3.88003 3.9261 3.35239 4.25245 2.69459H15.7473C16.0737 3.35239 16.6098 3.88003 17.2781 4.20123L17.2782 9.12712ZM8.34391 8.29985C7.95339 7.89084 7.73035 7.3455 7.73035 6.77702C7.73035 5.54536 8.74851 4.54327 9.99988 4.54327C11.2512 4.54327 12.2694 5.54538 12.2694 6.77702C12.2694 7.1922 12.1481 7.58966 11.9282 7.94166C11.5056 7.83459 11.0697 7.77836 10.6259 7.77836C9.80734 7.77836 9.03503 7.96941 8.34391 8.29985ZM10.6261 17.6377C7.9941 17.6377 5.8522 15.5296 5.8522 12.9391C5.8522 10.3486 7.9941 8.2405 10.6261 8.2405C10.9039 8.2405 11.1778 8.26669 11.447 8.3129C9.71198 9.15557 8.51294 10.9095 8.51294 12.9392C8.51294 14.9672 9.71112 16.7212 11.4438 17.5638C11.1754 17.6108 10.9023 17.6377 10.6261 17.6377ZM13.7565 17.6377C11.1245 17.6377 8.98261 15.5296 8.98261 12.9391C8.98261 10.3486 11.1245 8.2405 13.7565 8.2405C16.3884 8.2405 18.5303 10.3486 18.5303 12.9391C18.5303 15.5296 16.3884 17.6377 13.7565 17.6377ZM17.7306 9.58217C17.7407 9.55598 17.7478 9.52902 17.7478 9.50052V4.05318C17.7478 3.96075 17.6922 3.87756 17.6061 3.84136C16.9339 3.55483 16.404 3.03334 16.1129 2.37169C16.0754 2.28696 15.9908 2.23227 15.8977 2.23227H4.10229C4.00838 2.23227 3.92386 2.28696 3.88708 2.37169C3.59595 3.03336 3.06612 3.55483 2.39387 3.84136C2.30779 3.87833 2.25222 3.96152 2.25222 4.05318V9.50052C2.25222 9.59295 2.30779 9.67614 2.39387 9.71234C3.06614 9.99888 3.59595 10.5204 3.88708 11.182C3.92464 11.2667 4.00917 11.3214 4.10229 11.3214H5.65029C5.56655 11.5702 5.50394 11.8275 5.45933 12.0917H2.48699C1.92586 12.0917 1.46961 11.6426 1.46961 11.0903V2.46333C1.46961 1.91105 1.92586 1.46199 2.48699 1.46199H17.513C18.0741 1.46199 18.5304 1.91105 18.5304 2.46333V10.8161C18.323 10.367 18.0538 9.9519 17.7306 9.58217ZM15.0127 10.746C14.7505 10.5689 14.4163 10.4711 14.025 10.4425V9.85713C14.025 9.72927 13.9201 9.62605 13.7902 9.62605C13.6603 9.62605 13.5554 9.72926 13.5554 9.85713V10.4441C12.6116 10.5157 12.0442 10.9856 12.0325 11.7404C12.016 12.7849 13.0741 13.0075 13.5554 13.1015V14.9124C13.2322 14.8939 12.9646 14.8207 12.765 14.686C12.5247 14.5234 12.4167 14.3863 12.3181 14.1206C12.2735 14.0004 12.1389 13.9396 12.0176 13.9827C11.8955 14.0266 11.8329 14.1591 11.8775 14.2785C12.0098 14.6351 12.178 14.8492 12.4997 15.0665C12.7767 15.2536 13.1344 15.3538 13.5562 15.3738V16.0193C13.5562 16.1471 13.6611 16.2504 13.791 16.2504C13.9209 16.2504 14.0258 16.1471 14.0258 16.0193V15.3638C14.9109 15.2744 15.4493 14.8092 15.4799 14.0774C15.5213 13.0761 14.5392 12.8265 14.0258 12.7241V10.9039C14.3185 10.9286 14.5619 11.0017 14.7473 11.1273C14.9876 11.2898 15.0956 11.4269 15.1942 11.6927C15.2388 11.8128 15.3742 11.8745 15.4947 11.8306C15.6168 11.7867 15.6794 11.6542 15.6348 11.5348C15.5026 11.1781 15.3343 10.964 15.0127 10.7468V10.746ZM12.5021 11.7489C12.5115 11.1396 13.0343 10.9463 13.5555 10.9039V12.6301C13.021 12.5176 12.4927 12.3312 12.5021 11.7497V11.7489ZM15.0096 14.059C14.9846 14.6567 14.472 14.8493 14.0251 14.9024V13.1978C14.5424 13.3126 15.0323 13.5059 15.0096 14.059Z" stroke="#1B3843" stroke-width="0.4" mask="url(#path-1-outside-1_6914_4688)"/>
</svg>
