<svg width="24" height="24" viewBox="0 0 24 24" fill="none" xmlns="http://www.w3.org/2000/svg">
<path d="M14.5865 4.0413C14.3839 4.00266 14.174 4.04265 14.0004 4.15297C13.8268 4.2633 13.7027 4.4355 13.654 4.63386C13.5382 4.9752 13.3123 5.26946 13.011 5.47141C12.7097 5.67337 12.3497 5.77182 11.9864 5.75164C11.6196 5.7701 11.257 5.66776 10.9553 5.46063C10.6535 5.25351 10.4297 4.95329 10.3188 4.60693C10.2701 4.40856 10.146 4.23636 9.9724 4.12604C9.79878 4.01571 9.5889 3.97573 9.38629 4.01437C5.00287 4.8022 2.17815 7.58319 2.00118 11.2665C1.99518 11.3752 2.01204 11.4841 2.05071 11.5861C2.08937 11.688 2.14899 11.781 2.2258 11.859C2.30127 11.9376 2.39206 12.0001 2.49267 12.043C2.59329 12.0858 2.70163 12.108 2.81116 12.1082H5.7652V17.8385C5.75975 18.4053 5.98166 18.951 6.38229 19.3562C6.78292 19.7614 7.32958 19.9929 7.90246 20H16.0703C16.6432 20 17.1927 19.7753 17.5984 19.3752C18.0042 18.9751 18.233 18.4322 18.2348 17.8654V12.1351H21.1888C21.2984 12.1349 21.4067 12.1127 21.5073 12.0699C21.6079 12.0271 21.6987 11.9645 21.7742 11.886C21.851 11.8079 21.9106 11.715 21.9493 11.613C21.988 11.511 22.0048 11.4022 21.9988 11.2934C21.7946 7.61013 18.9699 4.82914 14.5865 4.0413Z" stroke="#356475" stroke-width="1.5"/>
</svg>
