<svg width="24" height="24" viewBox="0 0 24 24" fill="none" xmlns="http://www.w3.org/2000/svg">
<path d="M6.99546 6.16699C6.49765 6.16699 6.09265 6.57199 6.09265 7.06981V7.35921C6.09265 7.85702 6.49765 8.26202 6.99546 8.26202H11.5977C12.0955 8.26202 12.5005 7.85702 12.5005 7.35921V7.06981C12.5005 6.57199 12.0955 6.16699 11.5977 6.16699H6.99546ZM11.7973 7.06981V7.35921C11.7973 7.46932 11.7078 7.5589 11.5977 7.5589H6.99546C6.88535 7.5589 6.79578 7.46932 6.79578 7.35921V7.06981C6.79578 6.9597 6.88535 6.87012 6.99546 6.87012H11.5977C11.7078 6.87012 11.7973 6.95974 11.7973 7.06981Z" fill="#011E29"/>
<path d="M13.9786 13.0948C13.9786 12.5854 13.5642 12.1709 13.0547 12.1709H12.3398C11.8303 12.1709 11.4159 12.5854 11.4159 13.0948V13.8098C11.4159 14.3192 11.8304 14.7337 12.3398 14.7337H13.0547C13.5642 14.7337 13.9786 14.3192 13.9786 13.8098V13.0948ZM13.2755 13.8097C13.2755 13.9315 13.1765 14.0305 13.0547 14.0305H12.3398C12.218 14.0305 12.119 13.9315 12.119 13.8097V13.0948C12.119 12.973 12.2181 12.874 12.3398 12.874H13.0547C13.1765 12.874 13.2755 12.973 13.2755 13.0948V13.8097Z" fill="#011E29"/>
<path d="M17.5232 13.0948C17.5232 12.5854 17.1087 12.1709 16.5993 12.1709H15.8843C15.3749 12.1709 14.9604 12.5854 14.9604 13.0948V13.8098C14.9604 14.3192 15.3749 14.7337 15.8843 14.7337H16.5993C17.1088 14.7337 17.5232 14.3192 17.5232 13.8098V13.0948ZM16.8201 13.8097C16.8201 13.9315 16.721 14.0305 16.5993 14.0305H15.8843C15.7626 14.0305 15.6636 13.9315 15.6636 13.8097V13.0948C15.6636 12.973 15.7626 12.874 15.8843 12.874H16.5993C16.7211 12.874 16.8201 12.973 16.8201 13.0948V13.8097Z" fill="#011E29"/>
<path d="M13.0547 15.3281H12.3398C11.8303 15.3281 11.4159 15.7426 11.4159 16.252V16.967C11.4159 17.4765 11.8304 17.8909 12.3398 17.8909H13.0547C13.5642 17.8909 13.9786 17.4765 13.9786 16.967V16.252C13.9786 15.7426 13.5642 15.3281 13.0547 15.3281ZM13.2755 16.967C13.2755 17.0888 13.1765 17.1878 13.0547 17.1878H12.3398C12.218 17.1878 12.119 17.0888 12.119 16.967V16.252C12.119 16.1303 12.2181 16.0312 12.3398 16.0312H13.0547C13.1765 16.0312 13.2755 16.1303 13.2755 16.252V16.967Z" fill="#011E29"/>
<path d="M16.5993 15.3281H15.8843C15.3749 15.3281 14.9604 15.7426 14.9604 16.252V16.967C14.9604 17.4765 15.3749 17.8909 15.8843 17.8909H16.5993C17.1088 17.8909 17.5232 17.4765 17.5232 16.967V16.252C17.5232 15.7426 17.1087 15.3281 16.5993 15.3281ZM16.8201 16.967C16.8201 17.0888 16.721 17.1878 16.5993 17.1878H15.8843C15.7626 17.1878 15.6636 17.0888 15.6636 16.967V16.252C15.6636 16.1303 15.7626 16.0312 15.8843 16.0312H16.5993C16.7211 16.0312 16.8201 16.1303 16.8201 16.252V16.967Z" fill="#011E29"/>
<path d="M22.8972 21.2409H22.4564V20.8195C22.4564 19.7155 21.5582 18.8174 20.4543 18.8174C20.0513 18.8174 19.6626 18.9368 19.3302 19.1627C19.2534 19.215 19.1552 19.2321 19.0535 19.2114C18.9451 19.1892 18.8337 19.1779 18.7223 19.1779C17.8172 19.1779 17.0808 19.9143 17.0808 20.8195V21.2409H16.2067V19.5761C16.2067 18.9487 15.6963 18.4384 15.069 18.4384H13.8703C13.243 18.4384 12.7326 18.9488 12.7326 19.5761V21.2409H10.1477V12.1527C10.1477 11.701 10.5152 11.3334 10.967 11.3334H13.9125C14.1067 11.3334 14.2641 11.1761 14.2641 10.9819C14.2641 10.7877 14.1067 10.6303 13.9125 10.6303H11.7165C11.8815 9.76377 12.644 9.10645 13.5579 9.10645H15.3814C16.2953 9.10645 17.0578 9.76377 17.2229 10.6303H15.3121C15.1179 10.6303 14.9605 10.7877 14.9605 10.9819C14.9605 11.1761 15.1179 11.3334 15.3121 11.3334H17.9723C18.424 11.3334 18.7916 11.701 18.7916 12.1527V18.3127C18.7916 18.5069 18.949 18.6643 19.1431 18.6643C19.3373 18.6643 19.4947 18.5069 19.4947 18.3127V12.1527C19.4947 11.3133 18.8118 10.6303 17.9723 10.6303H17.9353C17.7633 9.37429 16.6839 8.40332 15.3814 8.40332H13.5579C12.8079 8.40332 12.1323 8.72559 11.6609 9.23835H6.99558C6.49777 9.23835 6.09277 9.6434 6.09277 10.1412V10.4306C6.09277 10.9284 6.49777 11.3334 6.99558 11.3334H8.97534C9.1695 11.3334 9.32691 11.1761 9.32691 10.9819C9.32691 10.7877 9.1695 10.6303 8.97534 10.6303H6.99558C6.88547 10.6303 6.79589 10.5407 6.79589 10.4306V10.1412C6.79589 10.0311 6.88547 9.94148 6.99558 9.94148H11.1997C11.1041 10.1573 11.0371 10.3884 11.004 10.6303H10.967C10.1276 10.6303 9.44461 11.3132 9.44461 12.1527V12.31H6.99553C6.49772 12.31 6.09272 12.715 6.09272 13.2128V13.5022C6.09272 14.0001 6.49772 14.4051 6.99553 14.4051H9.44461V15.3817H6.99553C6.49772 15.3817 6.09272 15.7867 6.09272 16.2846V16.574C6.09272 17.0718 6.49772 17.4768 6.99553 17.4768H9.44461V18.4385H8.69733C8.07 18.4385 7.55963 18.9488 7.55963 19.5762V21.2409H6.91936V20.8195C6.91936 19.9144 6.18295 19.178 5.2778 19.178C5.16642 19.178 5.055 19.1892 4.94667 19.2115C4.84509 19.2321 4.74675 19.215 4.66988 19.1627C4.33758 18.9369 3.94889 18.8175 3.54581 18.8175C2.44186 18.8175 1.54378 19.7156 1.54378 20.8195V21.2409H1.10292C0.494672 21.2409 0 21.7356 0 22.3437V22.8968C0 23.5049 0.494672 23.9996 1.10273 23.9996H22.8972C23.5053 23.9996 24 23.5049 24 22.8968V22.3437C24 21.7356 23.5053 21.2409 22.8972 21.2409ZM17.7839 20.8195C17.7839 20.302 18.2048 19.881 18.7223 19.881C18.7863 19.881 18.8502 19.8875 18.9122 19.9002C19.2015 19.9596 19.4903 19.9041 19.7255 19.7442C19.9408 19.5979 20.1928 19.5206 20.4543 19.5206C21.1705 19.5206 21.7532 20.1033 21.7532 20.8195V21.2409H17.7839V20.8195ZM13.4356 19.5762C13.4356 19.3365 13.6306 19.1416 13.8702 19.1416H15.0689C15.3085 19.1416 15.5035 19.3365 15.5035 19.5762V21.2409H13.4356V19.5762H13.4356ZM6.99548 13.7019C6.88538 13.7019 6.7958 13.6124 6.7958 13.5022V13.2128C6.7958 13.1027 6.88538 13.0131 6.99548 13.0131H9.44456V13.7019L6.99548 13.7019ZM6.99548 16.7736C6.88538 16.7736 6.7958 16.6841 6.7958 16.574V16.2846C6.7958 16.1744 6.88538 16.0849 6.99548 16.0849H9.44456V16.7736L6.99548 16.7736ZM8.26266 19.5762C8.26266 19.3365 8.45761 19.1416 8.69723 19.1416H9.44452V21.2409H8.26266V19.5762ZM2.24677 20.8195C2.24677 20.1033 2.82947 19.5206 3.54567 19.5206C3.80723 19.5206 4.05923 19.5979 4.27444 19.7442C4.50966 19.9041 4.79859 19.9596 5.08781 19.9002C5.14978 19.8875 5.21367 19.8811 5.2777 19.8811C5.79516 19.8811 6.21614 20.302 6.21614 20.8195V21.2409H2.24677V20.8195ZM23.2969 22.8968C23.2969 23.1172 23.1176 23.2964 22.8972 23.2964H1.10273C0.882375 23.2964 0.703125 23.1172 0.703125 22.8968V22.3437C0.703125 22.1233 0.882422 21.9441 1.10273 21.9441H22.8972C23.1176 21.9441 23.2969 22.1233 23.2969 22.3437V22.8968Z" fill="#011E29"/>
<path d="M4.68057 18.2709C4.87473 18.2709 5.03213 18.1136 5.03213 17.9194V5.87217C5.03213 5.39559 5.41984 5.00789 5.89641 5.00789H12.6965C13.1731 5.00789 13.5608 5.39559 13.5608 5.87217V7.47136C13.5608 7.66556 13.7182 7.82292 13.9123 7.82292C14.1065 7.82292 14.2639 7.66556 14.2639 7.47136V5.87217C14.2639 5.00789 13.5608 4.30477 12.6965 4.30477H11.6476V3.72989C11.6476 3.12553 11.1559 2.63386 10.5515 2.63386H9.64805V0.351562C9.64805 0.157359 9.49065 0 9.29649 0C9.10234 0 8.94493 0.157359 8.94493 0.351562V2.63386H8.04146C7.4371 2.63386 6.94543 3.12553 6.94543 3.72989V4.30477H5.89651C5.03223 4.30477 4.3291 5.00789 4.3291 5.87217V17.9194C4.32901 18.1136 4.48641 18.2709 4.68057 18.2709ZM7.64851 3.72989C7.64851 3.51323 7.82476 3.33698 8.04141 3.33698H10.5515C10.7682 3.33698 10.9444 3.51323 10.9444 3.72989V4.30477H7.64851V3.72989Z" fill="#011E29"/>
</svg>
