<svg width="20" height="20" viewBox="0 0 20 20" fill="none" xmlns="http://www.w3.org/2000/svg">
<circle cx="10" cy="10" r="10" fill="#E8EBEC"/>
<path d="M9.05756 10.7444H10.1923C10.3123 10.7444 10.4097 10.8416 10.4097 10.9617V14.8078C10.4097 14.928 10.3123 15.0252 10.1923 15.0252H9.05756C8.3926 15.0252 7.72483 14.9591 7.07277 14.8286C6.44882 14.7038 5.80969 14.6405 5.17328 14.6405H4.0385C3.9185 14.6405 3.82119 14.5433 3.82119 14.4232V10.5771C3.82119 10.457 3.9185 10.3598 4.0385 10.3598H5.17328L9.05756 10.7444ZM9.05756 10.7444C8.42116 10.7444 7.78202 10.6811 7.15808 10.5563L9.05756 10.7444ZM9.05756 14.5905H9.97504V11.179H9.05756C8.39261 11.179 7.72484 11.1129 7.07277 10.9824L9.05756 14.5905ZM9.05756 14.5905C8.42116 14.5905 7.78202 14.5272 7.15807 14.4025M9.05756 14.5905L7.15807 14.4025M7.15807 14.4025C6.50601 14.272 5.83824 14.2059 5.17328 14.2059M7.15807 14.4025L5.17328 14.2059M5.17328 14.2059H4.25581M5.17328 14.2059H4.25581M4.25581 14.2059V10.7944H5.17328C5.80969 10.7944 6.44882 10.8577 7.07277 10.9824L4.25581 14.2059Z" fill="#549A9F" stroke="#549A9F" stroke-width="0.05"/>
<path d="M7.11542 11.706C6.67255 11.706 6.32119 12.154 6.32119 12.6925C6.32119 13.231 6.67255 13.679 7.11542 13.679C7.55829 13.679 7.90965 13.231 7.90965 12.6925C7.90965 12.154 7.55829 11.706 7.11542 11.706ZM7.11542 13.2444C7.02244 13.2444 6.93308 13.1853 6.86574 13.0843C6.79865 12.9837 6.75581 12.8444 6.75581 12.6925C6.75581 12.5406 6.79865 12.4013 6.86574 12.3006C6.93308 12.1996 7.02244 12.1406 7.11542 12.1406C7.2084 12.1406 7.29777 12.1996 7.3651 12.3006C7.4322 12.4013 7.47504 12.5406 7.47504 12.6925C7.47504 12.8444 7.4322 12.9837 7.3651 13.0843C7.29777 13.1853 7.2084 13.2444 7.11542 13.2444Z" fill="#549A9F" stroke="#549A9F" stroke-width="0.05"/>
<path d="M5.57692 12.475H5.19231C5.07231 12.475 4.975 12.5722 4.975 12.6923C4.975 12.8124 5.07231 12.9096 5.19231 12.9096H5.57692C5.69692 12.9096 5.79423 12.8124 5.79423 12.6923C5.79423 12.5722 5.69692 12.475 5.57692 12.475Z" fill="#549A9F" stroke="#549A9F" stroke-width="0.05"/>
<path d="M8.65386 12.475C8.53386 12.475 8.43655 12.5722 8.43655 12.6923C8.43655 12.8124 8.53386 12.9096 8.65386 12.9096H9.03847C9.15847 12.9096 9.25578 12.8124 9.25578 12.6923C9.25578 12.5722 9.15847 12.475 9.03847 12.475H8.65386Z" fill="#549A9F" stroke="#549A9F" stroke-width="0.05"/>
<path d="M15.577 4.975H8.26931C7.93736 4.975 7.66738 5.24498 7.66738 5.57692V10.1174C7.66738 10.2375 7.76469 10.3347 7.88469 10.3347C8.00469 10.3347 8.102 10.2375 8.102 10.1174V5.57692C8.102 5.48463 8.17709 5.40962 8.26931 5.40962H9.97508V7.11538C9.97508 7.23549 10.0724 7.33269 10.1924 7.33269H12.1155C12.2355 7.33269 12.3328 7.23549 12.3328 7.11538V5.40962H14.2058V11.5135H10.9616C10.8416 11.5135 10.7443 11.6107 10.7443 11.7308C10.7443 11.8509 10.8416 11.9481 10.9616 11.9481H15.577C15.9089 11.9481 16.1789 11.6781 16.1789 11.3462V5.57692C16.1789 5.24498 15.9089 4.975 15.577 4.975ZM11.8982 6.89808H10.4097V5.40962H11.8982V6.89808ZM15.7443 11.3462C15.7443 11.4384 15.6692 11.5135 15.577 11.5135H14.6405V5.40962H15.577C15.6692 5.40962 15.7443 5.48463 15.7443 5.57692V11.3462Z" fill="#549A9F" stroke="#549A9F" stroke-width="0.05"/>
<path d="M6.69206 6.76973L6.69208 6.76975L7.07669 7.15436C7.16158 7.23924 7.16158 7.37677 7.07669 7.46165L6.69208 7.84627C6.65049 7.88786 6.59498 7.90993 6.53843 7.90993L6.69206 6.76973ZM6.69206 6.76973C6.62987 6.70764 6.5366 6.68867 6.45522 6.72264M6.69206 6.76973L5.02497 9.23108M5.02497 9.23108C5.02497 9.35119 4.92766 9.44839 4.80766 9.44839C4.68766 9.44839 4.59036 9.35119 4.59036 9.23108C4.59036 8.19102 5.33647 7.32358 6.32113 7.13175V6.92339C6.32113 6.83557 6.37404 6.7562 6.45522 6.72264M5.02497 9.23108C5.02497 8.43193 5.57798 7.76059 6.32113 7.57652M5.02497 9.23108L6.32113 7.57652M6.45522 6.72264C6.45524 6.72264 6.45526 6.72263 6.45527 6.72262L6.46482 6.74573L6.45518 6.72266C6.45519 6.72266 6.45521 6.72265 6.45522 6.72264ZM6.32113 7.57652V7.69262C6.32113 7.78045 6.37404 7.85981 6.45523 7.89337C6.45522 7.89336 6.4552 7.89336 6.45519 7.89335L6.32113 7.57652Z" fill="#549A9F" stroke="#549A9F" stroke-width="0.05"/>
<path d="M11.6121 14.9853L11.6216 15.0084C11.7028 14.9748 11.7558 14.8955 11.7558 14.8076V14.5993C12.7404 14.4074 13.4865 13.54 13.4865 12.4999C13.4865 12.3798 13.3892 12.2826 13.2692 12.2826C13.1492 12.2826 13.0519 12.3798 13.0519 12.4999C13.0519 13.2991 12.4989 13.9704 11.7558 14.1545V14.0384C11.7558 13.9505 11.7028 13.8712 11.6216 13.8376L11.6121 13.8607L11.6217 13.8377C11.54 13.8035 11.4469 13.8226 11.3848 13.8847L11.0002 14.2694C10.9153 14.3542 10.9153 14.4918 11.0002 14.5766L11.3848 14.9613C11.4264 15.0029 11.4819 15.0249 11.5385 15.0249C11.5664 15.0249 11.5947 15.0196 11.6217 15.0083L11.6121 14.9853ZM11.6121 14.9853C11.6839 14.9556 11.7308 14.8854 11.7308 14.8076V14.5786L11.6121 14.9853Z" fill="#549A9F" stroke="#549A9F" stroke-width="0.05"/>
<path d="M9.99996 10.0249C10.12 10.0249 10.2173 9.92765 10.2173 9.80754C10.2173 9.68743 10.12 9.59023 9.99996 9.59023H8.84612C8.72612 9.59023 8.62881 9.68743 8.62881 9.80754C8.62881 9.92765 8.72612 10.0249 8.84612 10.0249H9.99996Z" fill="#549A9F" stroke="#549A9F" stroke-width="0.05"/>
</svg>
