<svg width="19" height="24" viewBox="0 0 19 24" fill="none" xmlns="http://www.w3.org/2000/svg">
<path d="M7.49121 16.5322H8.24268V17.2367H7.49121V16.5322Z" fill="#011E29"/>
<path d="M8.99414 16.5322H9.74561V17.2367H8.99414V16.5322Z" fill="#011E29"/>
<path d="M10.4971 16.5322H11.2485V17.2367H10.4971V16.5322Z" fill="#011E29"/>
<path d="M17.6741 10.2864C16.9996 8.99934 16.0181 7.86946 14.8359 7.01899L14.4244 7.59086C15.2511 8.1856 15.9714 8.92805 16.5434 9.76913H14.1789C13.9527 9.14475 13.6811 8.56119 13.3665 8.03009C13.9408 6.91778 14.2309 5.8576 14.2309 4.86106C14.2309 2.18067 12.0503 0 9.36986 0C6.68947 0 4.50881 2.18067 4.50881 4.86106C4.50881 5.8576 4.79892 6.91778 5.37323 8.03004C5.05865 8.56119 4.78708 9.1447 4.56089 9.76908H2.1964C2.76841 8.928 3.48869 8.18555 4.31535 7.59081L3.90392 7.01894C2.72168 7.86942 1.74021 8.9993 1.06563 10.2864C0.368501 11.6165 0 13.1186 0 14.6301C0 19.7967 4.20329 24 9.36986 24C14.5364 24 18.7397 19.7967 18.7397 14.6301C18.7397 13.1186 18.3712 11.6165 17.6741 10.2864ZM9.01761 23.273C7.87313 23.1271 6.79646 22.2723 5.95454 20.829C5.71336 20.4156 5.49933 19.9675 5.314 19.4912H9.01761V23.273ZM9.72211 23.273V19.4912H13.4257C13.2404 19.9675 13.0264 20.4156 12.7852 20.829C11.9433 22.2723 10.8666 23.1271 9.72211 23.273ZM9.72211 18.7867V18.0117H9.01761V18.7867H5.06734C4.70344 17.6268 4.49688 16.3324 4.46621 14.9824H9.01761V15.7573H9.72211V14.9824H14.2735C14.2429 16.3324 14.0363 17.6268 13.6724 18.7867H9.72211ZM0.712251 14.9824H3.76157C3.79083 16.3222 3.98611 17.6136 4.33146 18.7867H1.76844C1.14373 17.6488 0.767483 16.3563 0.712251 14.9824ZM7.02463 10.4736C7.88863 11.5174 8.70965 12.2674 9.01761 12.5373V14.2779H4.4664C4.49796 12.9394 4.70842 11.6372 5.07208 10.4736H7.02463ZM11.7151 10.4736H13.6676C14.0313 11.6372 14.2418 12.9394 14.2733 14.2779H9.72211V12.5373C10.0301 12.2674 10.8511 11.5174 11.7151 10.4736ZM14.9782 14.9824H18.0275C17.9722 16.3563 17.596 17.6488 16.9713 18.7867H14.4082C14.7536 17.6136 14.9489 16.3222 14.9782 14.9824ZM16.9742 10.4736C16.9997 10.5201 17.0255 10.5665 17.0501 10.6135C17.6404 11.7397 17.9749 12.9997 18.0271 14.2779H14.9782C14.9491 12.9334 14.7544 11.644 14.4097 10.4736H16.9742ZM13.4225 9.76908H12.2679C12.5236 9.42467 12.7545 9.0843 12.9605 8.74835C13.1295 9.06937 13.2839 9.41063 13.4225 9.76908ZM9.36986 0.704501C11.6618 0.704501 13.5264 2.56913 13.5264 4.86106C13.5264 7.93573 10.2662 11.096 9.36972 11.9067C8.47294 11.0966 5.21331 7.9394 5.21331 4.86106C5.21331 2.56913 7.07793 0.704501 9.36986 0.704501ZM5.77921 8.74835C5.98525 9.0843 6.21614 9.42463 6.47183 9.76908H5.31725C5.45584 9.41063 5.61022 9.06937 5.77921 8.74835ZM1.68963 10.6135C1.71424 10.5665 1.74007 10.5201 1.76562 10.4736H4.33005C3.98541 11.644 3.79064 12.9334 3.76161 14.2779H0.712579C0.764806 12.9997 1.0993 11.7397 1.68963 10.6135ZM2.19997 19.4912H4.56249C4.78192 20.0978 5.04376 20.6659 5.34604 21.1841C5.74079 21.8608 6.18693 22.424 6.67073 22.8645C4.83433 22.2611 3.26677 21.0597 2.19997 19.4912ZM12.069 22.8645C12.5528 22.424 12.9989 21.8608 13.3937 21.1841C13.6959 20.6659 13.9578 20.0978 14.1772 19.4912H16.5398C15.473 21.0597 13.9054 22.2611 12.069 22.8645Z" fill="#011E29"/>
<path d="M12.728 4.86105C12.728 3.00939 11.2215 1.50293 9.36984 1.50293C7.51818 1.50293 6.01172 3.00939 6.01172 4.86105C6.01172 6.71271 7.51818 8.21917 9.36984 8.21917C11.2215 8.21917 12.728 6.71271 12.728 4.86105ZM9.36984 2.20743C10.2857 2.20743 11.0946 2.67386 11.5717 3.3816H7.16799C7.64508 2.67386 8.45399 2.20743 9.36984 2.20743ZM6.83195 4.0861H11.9077C11.9828 4.33136 12.0235 4.59151 12.0235 4.86105C12.0235 5.13059 11.9828 5.39074 11.9077 5.636H6.83195C6.75689 5.39074 6.71622 5.13059 6.71622 4.86105C6.71622 4.59151 6.75689 4.33136 6.83195 4.0861ZM7.16799 6.3405H11.5717C11.0946 7.04824 10.2857 7.51467 9.36984 7.51467C8.45399 7.51467 7.64508 7.04824 7.16799 6.3405Z" fill="#011E29"/>
</svg>
