<svg width="30" height="30" viewBox="0 0 30 30" fill="none" xmlns="http://www.w3.org/2000/svg">
<rect x="0.5" y="0.5" width="29" height="29" rx="7.5" fill="#D0E4EE" stroke="#B1D2E3"/>
<path d="M17.5312 15.4375C17.6058 15.4375 17.6774 15.4079 17.7301 15.3551C17.7829 15.3024 17.8125 15.2308 17.8125 15.1562V14.3125C17.8125 14.0141 17.694 13.728 17.483 13.517C17.272 13.306 16.9859 13.1875 16.6875 13.1875H15.8438V10.9375C15.8438 9.89321 15.4289 8.89169 14.6905 8.15327C13.9521 7.41484 12.9505 7 11.9062 7C10.862 7 9.86044 7.41484 9.12202 8.15327C8.38359 8.89169 7.96875 9.89321 7.96875 10.9375V12.625C7.96875 12.6996 7.99838 12.7711 8.05113 12.8239C8.10387 12.8766 8.17541 12.9062 8.25 12.9062C8.32459 12.9062 8.39613 12.8766 8.44887 12.8239C8.50162 12.7711 8.53125 12.6996 8.53125 12.625V10.9375C8.53125 10.0424 8.88683 9.18395 9.51976 8.55101C10.1527 7.91808 11.0111 7.5625 11.9062 7.5625C12.8014 7.5625 13.6598 7.91808 14.2927 8.55101C14.9257 9.18395 15.2812 10.0424 15.2812 10.9375V13.1875H10.2188V10.9375C10.2188 10.4899 10.3965 10.0607 10.713 9.74426C11.0295 9.42779 11.4587 9.25 11.9062 9.25C12.3538 9.25 12.783 9.42779 13.0995 9.74426C13.416 10.0607 13.5938 10.4899 13.5938 10.9375V12.625C13.5938 12.6996 13.6234 12.7711 13.6761 12.8239C13.7289 12.8766 13.8004 12.9062 13.875 12.9062C13.9496 12.9062 14.0211 12.8766 14.0739 12.8239C14.1266 12.7711 14.1562 12.6996 14.1562 12.625V10.9375C14.1562 10.3408 13.9192 9.76847 13.4972 9.34651C13.0753 8.92455 12.503 8.6875 11.9062 8.6875C11.3095 8.6875 10.7372 8.92455 10.3153 9.34651C9.8933 9.76847 9.65625 10.3408 9.65625 10.9375V13.1875H7.125C6.82663 13.1875 6.54048 13.306 6.3295 13.517C6.11853 13.728 6 14.0141 6 14.3125V21.625C6 21.9234 6.11853 22.2095 6.3295 22.4205C6.54048 22.6315 6.82663 22.75 7.125 22.75H16.6875C16.9859 22.75 17.272 22.6315 17.483 22.4205C17.694 22.2095 17.8125 21.9234 17.8125 21.625V20.7812C17.8125 20.7067 17.7829 20.6351 17.7301 20.5824C17.6774 20.5296 17.6058 20.5 17.5312 20.5C17.4567 20.5 17.3851 20.5296 17.3324 20.5824C17.2796 20.6351 17.25 20.7067 17.25 20.7812V21.625C17.25 21.7742 17.1907 21.9173 17.0852 22.0227C16.9798 22.1282 16.8367 22.1875 16.6875 22.1875H7.125C6.97582 22.1875 6.83274 22.1282 6.72725 22.0227C6.62176 21.9173 6.5625 21.7742 6.5625 21.625V14.3125C6.5625 14.1633 6.62176 14.0202 6.72725 13.9148C6.83274 13.8093 6.97582 13.75 7.125 13.75H16.6875C16.8367 13.75 16.9798 13.8093 17.0852 13.9148C17.1907 14.0202 17.25 14.1633 17.25 14.3125V15.1562C17.25 15.2308 17.2796 15.3024 17.3324 15.3551C17.3851 15.4079 17.4567 15.4375 17.5312 15.4375Z" fill="#1679AB"/>
<path d="M23.1562 20.2188H11.3438C11.12 20.2188 10.9054 20.1299 10.7471 19.9716C10.5889 19.8134 10.5 19.5988 10.5 19.375V16.5625C10.5 16.3387 10.5889 16.1241 10.7471 15.9659C10.9054 15.8076 11.12 15.7188 11.3438 15.7188H23.1562C23.38 15.7188 23.5946 15.8076 23.7529 15.9659C23.9111 16.1241 24 16.3387 24 16.5625V19.375C24 19.5988 23.9111 19.8134 23.7529 19.9716C23.5946 20.1299 23.38 20.2188 23.1562 20.2188ZM11.3438 16.2812C11.2692 16.2812 11.1976 16.3109 11.1449 16.3636C11.0921 16.4164 11.0625 16.4879 11.0625 16.5625V19.375C11.0625 19.4496 11.0921 19.5211 11.1449 19.5739C11.1976 19.6266 11.2692 19.6562 11.3438 19.6562H23.1562C23.2308 19.6562 23.3024 19.6266 23.3551 19.5739C23.4079 19.5211 23.4375 19.4496 23.4375 19.375V16.5625C23.4375 16.4879 23.4079 16.4164 23.3551 16.3636C23.3024 16.3109 23.2308 16.2812 23.1562 16.2812H11.3438Z" fill="#1679AB"/>
<path d="M13.3125 17.6875H13.2051L13.2827 17.532C13.2995 17.4989 13.3097 17.4629 13.3125 17.4258C13.3154 17.3888 13.3108 17.3516 13.2992 17.3164C13.2876 17.2811 13.2692 17.2485 13.2449 17.2204C13.2206 17.1923 13.191 17.1693 13.1578 17.1527C13.1246 17.1361 13.0884 17.1263 13.0514 17.1237C13.0144 17.1212 12.9772 17.126 12.9421 17.1379C12.9069 17.1498 12.8744 17.1685 12.8465 17.193C12.8186 17.2175 12.7959 17.2472 12.7795 17.2806L12.75 17.3399L12.7202 17.2806C12.7039 17.2472 12.6811 17.2175 12.6532 17.193C12.6253 17.1685 12.5928 17.1498 12.5577 17.1379C12.5225 17.126 12.4853 17.1212 12.4483 17.1237C12.4113 17.1263 12.3751 17.1361 12.3419 17.1527C12.3087 17.1693 12.2791 17.1923 12.2548 17.2204C12.2306 17.2485 12.2121 17.2811 12.2005 17.3164C12.1889 17.3516 12.1844 17.3888 12.1872 17.4258C12.19 17.4629 12.2002 17.4989 12.217 17.532L12.2949 17.6875H12.1875C12.1129 17.6875 12.0414 17.7172 11.9886 17.7699C11.9359 17.8227 11.9062 17.8942 11.9062 17.9688C11.9062 18.0434 11.9359 18.1149 11.9886 18.1677C12.0414 18.2204 12.1129 18.25 12.1875 18.25H12.2949L12.217 18.4056C12.2002 18.4386 12.19 18.4747 12.1872 18.5117C12.1844 18.5487 12.1889 18.586 12.2005 18.6212C12.2121 18.6565 12.2306 18.6891 12.2548 18.7172C12.2791 18.7452 12.3087 18.7682 12.3419 18.7848C12.3751 18.8014 12.4113 18.8113 12.4483 18.8138C12.4853 18.8164 12.5225 18.8116 12.5577 18.7997C12.5928 18.7878 12.6253 18.7691 12.6532 18.7446C12.6811 18.7201 12.7039 18.6903 12.7202 18.657L12.75 18.5977L12.7795 18.657C12.7959 18.6903 12.8186 18.7201 12.8465 18.7446C12.8744 18.7691 12.9069 18.7878 12.9421 18.7997C12.9772 18.8116 13.0144 18.8164 13.0514 18.8138C13.0884 18.8113 13.1246 18.8014 13.1578 18.7848C13.191 18.7682 13.2206 18.7452 13.2449 18.7172C13.2692 18.6891 13.2876 18.6565 13.2992 18.6212C13.3108 18.586 13.3154 18.5487 13.3125 18.5117C13.3097 18.4747 13.2995 18.4386 13.2827 18.4056L13.2051 18.25H13.3125C13.3871 18.25 13.4586 18.2204 13.5114 18.1677C13.5641 18.1149 13.5938 18.0434 13.5938 17.9688C13.5938 17.8942 13.5641 17.8227 13.5114 17.7699C13.4586 17.7172 13.3871 17.6875 13.3125 17.6875Z" fill="#1679AB"/>
<path d="M15.5625 17.6875H15.4551L15.5327 17.532C15.5495 17.4989 15.5597 17.4629 15.5625 17.4258C15.5654 17.3888 15.5608 17.3516 15.5492 17.3164C15.5376 17.2811 15.5192 17.2485 15.4949 17.2204C15.4706 17.1923 15.441 17.1693 15.4078 17.1527C15.3746 17.1361 15.3384 17.1263 15.3014 17.1237C15.2644 17.1212 15.2272 17.126 15.1921 17.1379C15.1569 17.1498 15.1244 17.1685 15.0965 17.193C15.0686 17.2175 15.0459 17.2472 15.0295 17.2806L15.0014 17.3399L14.9716 17.2806C14.9553 17.2472 14.9325 17.2175 14.9046 17.193C14.8767 17.1685 14.8442 17.1498 14.8091 17.1379C14.7739 17.126 14.7367 17.1212 14.6997 17.1237C14.6627 17.1263 14.6265 17.1361 14.5933 17.1527C14.5601 17.1693 14.5305 17.1923 14.5062 17.2204C14.482 17.2485 14.4635 17.2811 14.4519 17.3164C14.4403 17.3516 14.4358 17.3888 14.4386 17.4258C14.4414 17.4629 14.4516 17.4989 14.4684 17.532L14.5463 17.6875H14.4375C14.3629 17.6875 14.2914 17.7172 14.2386 17.7699C14.1859 17.8227 14.1562 17.8942 14.1562 17.9688C14.1562 18.0434 14.1859 18.1149 14.2386 18.1677C14.2914 18.2204 14.3629 18.25 14.4375 18.25H14.5449L14.467 18.4056C14.4502 18.4386 14.44 18.4747 14.4372 18.5117C14.4344 18.5487 14.4389 18.586 14.4505 18.6212C14.4621 18.6565 14.4806 18.6891 14.5048 18.7172C14.5291 18.7452 14.5587 18.7682 14.5919 18.7848C14.6251 18.8014 14.6613 18.8113 14.6983 18.8138C14.7353 18.8164 14.7725 18.8116 14.8077 18.7997C14.8428 18.7878 14.8753 18.7691 14.9032 18.7446C14.9311 18.7201 14.9539 18.6903 14.9702 18.657L15 18.5977L15.0281 18.657C15.0445 18.6903 15.0672 18.7201 15.0951 18.7446C15.123 18.7691 15.1555 18.7878 15.1906 18.7997C15.2258 18.8116 15.263 18.8164 15.3 18.8138C15.337 18.8113 15.3732 18.8014 15.4064 18.7848C15.4396 18.7682 15.4692 18.7452 15.4935 18.7172C15.5177 18.6891 15.5362 18.6565 15.5478 18.6212C15.5594 18.586 15.5639 18.5487 15.5611 18.5117C15.5583 18.4747 15.5481 18.4386 15.5313 18.4056L15.4551 18.25H15.5625C15.6371 18.25 15.7086 18.2204 15.7614 18.1677C15.8141 18.1149 15.8438 18.0434 15.8438 17.9688C15.8438 17.8942 15.8141 17.8227 15.7614 17.7699C15.7086 17.7172 15.6371 17.6875 15.5625 17.6875Z" fill="#1679AB"/>
<path d="M17.8125 17.6875H17.7051L17.7827 17.532C17.7995 17.4989 17.8097 17.4629 17.8125 17.4258C17.8154 17.3888 17.8108 17.3516 17.7992 17.3164C17.7876 17.2811 17.7692 17.2485 17.7449 17.2204C17.7206 17.1923 17.691 17.1693 17.6578 17.1527C17.6246 17.1361 17.5884 17.1263 17.5514 17.1237C17.5144 17.1212 17.4772 17.126 17.4421 17.1379C17.4069 17.1498 17.3744 17.1685 17.3465 17.193C17.3186 17.2175 17.2959 17.2472 17.2795 17.2806L17.2514 17.3399L17.2216 17.2806C17.2053 17.2472 17.1825 17.2175 17.1546 17.193C17.1267 17.1685 17.0942 17.1498 17.0591 17.1379C17.0239 17.126 16.9867 17.1212 16.9497 17.1237C16.9127 17.1263 16.8765 17.1361 16.8433 17.1527C16.8101 17.1693 16.7805 17.1923 16.7562 17.2204C16.732 17.2485 16.7135 17.2811 16.7019 17.3164C16.6903 17.3516 16.6858 17.3888 16.6886 17.4258C16.6914 17.4629 16.7016 17.4989 16.7184 17.532L16.7963 17.6875H16.6875C16.6129 17.6875 16.5414 17.7172 16.4886 17.7699C16.4359 17.8227 16.4062 17.8942 16.4062 17.9688C16.4062 18.0434 16.4359 18.1149 16.4886 18.1677C16.5414 18.2204 16.6129 18.25 16.6875 18.25H16.7949L16.717 18.4056C16.7002 18.4386 16.69 18.4747 16.6872 18.5117C16.6844 18.5487 16.6889 18.586 16.7005 18.6212C16.7121 18.6565 16.7306 18.6891 16.7548 18.7172C16.7791 18.7452 16.8087 18.7682 16.8419 18.7848C16.8751 18.8014 16.9113 18.8113 16.9483 18.8138C16.9853 18.8164 17.0225 18.8116 17.0577 18.7997C17.0928 18.7878 17.1253 18.7691 17.1532 18.7446C17.1811 18.7201 17.2039 18.6903 17.2202 18.657L17.25 18.5977L17.2781 18.657C17.2945 18.6903 17.3172 18.7201 17.3451 18.7446C17.373 18.7691 17.4055 18.7878 17.4406 18.7997C17.4758 18.8116 17.513 18.8164 17.55 18.8138C17.587 18.8113 17.6232 18.8014 17.6564 18.7848C17.6896 18.7682 17.7192 18.7452 17.7435 18.7172C17.7677 18.6891 17.7862 18.6565 17.7978 18.6212C17.8094 18.586 17.8139 18.5487 17.8111 18.5117C17.8083 18.4747 17.7981 18.4386 17.7813 18.4056L17.7051 18.25H17.8125C17.8871 18.25 17.9586 18.2204 18.0114 18.1677C18.0641 18.1149 18.0938 18.0434 18.0938 17.9688C18.0938 17.8942 18.0641 17.8227 18.0114 17.7699C17.9586 17.7172 17.8871 17.6875 17.8125 17.6875Z" fill="#1679AB"/>
<path d="M20.0625 17.6875H19.9551L20.0327 17.532C20.0495 17.4989 20.0597 17.4629 20.0625 17.4258C20.0654 17.3888 20.0608 17.3516 20.0492 17.3164C20.0376 17.2811 20.0192 17.2485 19.9949 17.2204C19.9706 17.1923 19.941 17.1693 19.9078 17.1527C19.8746 17.1361 19.8384 17.1263 19.8014 17.1237C19.7644 17.1212 19.7272 17.126 19.6921 17.1379C19.6569 17.1498 19.6244 17.1685 19.5965 17.193C19.5686 17.2175 19.5459 17.2472 19.5295 17.2806L19.5014 17.3399L19.4716 17.2806C19.4553 17.2472 19.4325 17.2175 19.4046 17.193C19.3767 17.1685 19.3442 17.1498 19.3091 17.1379C19.2739 17.126 19.2367 17.1212 19.1997 17.1237C19.1627 17.1263 19.1265 17.1361 19.0933 17.1527C19.0601 17.1693 19.0305 17.1923 19.0062 17.2204C18.982 17.2485 18.9635 17.2811 18.9519 17.3164C18.9403 17.3516 18.9358 17.3888 18.9386 17.4258C18.9414 17.4629 18.9516 17.4989 18.9684 17.532L19.0463 17.6875H18.9375C18.8629 17.6875 18.7914 17.7172 18.7386 17.7699C18.6859 17.8227 18.6562 17.8942 18.6562 17.9688C18.6562 18.0434 18.6859 18.1149 18.7386 18.1677C18.7914 18.2204 18.8629 18.25 18.9375 18.25H19.0449L18.967 18.4056C18.9502 18.4386 18.94 18.4747 18.9372 18.5117C18.9344 18.5487 18.9389 18.586 18.9505 18.6212C18.9621 18.6565 18.9806 18.6891 19.0048 18.7172C19.0291 18.7452 19.0587 18.7682 19.0919 18.7848C19.1251 18.8014 19.1613 18.8113 19.1983 18.8138C19.2353 18.8164 19.2725 18.8116 19.3077 18.7997C19.3428 18.7878 19.3753 18.7691 19.4032 18.7446C19.4311 18.7201 19.4539 18.6903 19.4702 18.657L19.5 18.5977L19.5281 18.657C19.5445 18.6903 19.5672 18.7201 19.5951 18.7446C19.623 18.7691 19.6555 18.7878 19.6906 18.7997C19.7258 18.8116 19.763 18.8164 19.8 18.8138C19.837 18.8113 19.8732 18.8014 19.9064 18.7848C19.9396 18.7682 19.9692 18.7452 19.9935 18.7172C20.0177 18.6891 20.0362 18.6565 20.0478 18.6212C20.0594 18.586 20.0639 18.5487 20.0611 18.5117C20.0583 18.4747 20.0481 18.4386 20.0313 18.4056L19.9551 18.25H20.0625C20.1371 18.25 20.2086 18.2204 20.2614 18.1677C20.3141 18.1149 20.3438 18.0434 20.3438 17.9688C20.3438 17.8942 20.3141 17.8227 20.2614 17.7699C20.2086 17.7172 20.1371 17.6875 20.0625 17.6875Z" fill="#1679AB"/>
<path d="M22.3125 17.6875H22.2051L22.2827 17.532C22.2995 17.4989 22.3097 17.4629 22.3125 17.4258C22.3154 17.3888 22.3108 17.3516 22.2992 17.3164C22.2876 17.2811 22.2692 17.2485 22.2449 17.2204C22.2206 17.1923 22.191 17.1693 22.1578 17.1527C22.1246 17.1361 22.0884 17.1263 22.0514 17.1237C22.0144 17.1212 21.9772 17.126 21.9421 17.1379C21.9069 17.1498 21.8744 17.1685 21.8465 17.193C21.8186 17.2175 21.7959 17.2472 21.7795 17.2806L21.7514 17.3399L21.7216 17.2806C21.7053 17.2472 21.6825 17.2175 21.6546 17.193C21.6267 17.1685 21.5942 17.1498 21.5591 17.1379C21.5239 17.126 21.4867 17.1212 21.4497 17.1237C21.4127 17.1263 21.3765 17.1361 21.3433 17.1527C21.3101 17.1693 21.2805 17.1923 21.2562 17.2204C21.232 17.2485 21.2135 17.2811 21.2019 17.3164C21.1903 17.3516 21.1858 17.3888 21.1886 17.4258C21.1914 17.4629 21.2016 17.4989 21.2184 17.532L21.2963 17.6875H21.1875C21.1129 17.6875 21.0414 17.7172 20.9886 17.7699C20.9359 17.8227 20.9062 17.8942 20.9062 17.9688C20.9062 18.0434 20.9359 18.1149 20.9886 18.1677C21.0414 18.2204 21.1129 18.25 21.1875 18.25H21.2949L21.217 18.4056C21.2002 18.4386 21.19 18.4747 21.1872 18.5117C21.1844 18.5487 21.1889 18.586 21.2005 18.6212C21.2121 18.6565 21.2306 18.6891 21.2548 18.7172C21.2791 18.7452 21.3087 18.7682 21.3419 18.7848C21.3751 18.8014 21.4113 18.8113 21.4483 18.8138C21.4853 18.8164 21.5225 18.8116 21.5577 18.7997C21.5928 18.7878 21.6253 18.7691 21.6532 18.7446C21.6811 18.7201 21.7039 18.6903 21.7202 18.657L21.75 18.5977L21.7781 18.657C21.7945 18.6903 21.8172 18.7201 21.8451 18.7446C21.873 18.7691 21.9055 18.7878 21.9406 18.7997C21.9758 18.8116 22.013 18.8164 22.05 18.8138C22.087 18.8113 22.1232 18.8014 22.1564 18.7848C22.1896 18.7682 22.2192 18.7452 22.2435 18.7172C22.2677 18.6891 22.2862 18.6565 22.2978 18.6212C22.3094 18.586 22.3139 18.5487 22.3111 18.5117C22.3083 18.4747 22.2981 18.4386 22.2813 18.4056L22.2051 18.25H22.3125C22.3871 18.25 22.4586 18.2204 22.5114 18.1677C22.5641 18.1149 22.5938 18.0434 22.5938 17.9688C22.5938 17.8942 22.5641 17.8227 22.5114 17.7699C22.4586 17.7172 22.3871 17.6875 22.3125 17.6875Z" fill="#1679AB"/>
</svg>
