<svg width="28" height="28" viewBox="0 0 28 28" fill="none" xmlns="http://www.w3.org/2000/svg">
<path d="M12.8913 17.4416L10.733 19.6C10.278 20.055 9.55468 20.055 9.08801 19.6116C8.95967 19.4833 8.83134 19.3666 8.70301 19.2383C7.50134 18.025 6.41634 16.7533 5.44801 15.4233C4.49134 14.0933 3.72134 12.7633 3.16134 11.445C2.61301 10.115 2.33301 8.84331 2.33301 7.62998C2.33301 6.83665 2.47301 6.07831 2.75301 5.37831C3.03301 4.66665 3.47634 4.01331 4.09467 3.42998C4.84134 2.69498 5.65801 2.33331 6.52134 2.33331C6.84801 2.33331 7.17467 2.40331 7.46634 2.54331C7.76967 2.68331 8.03801 2.89331 8.24801 3.19665L10.9547 7.01165C11.1647 7.30331 11.3163 7.57165 11.4213 7.82831C11.5263 8.07331 11.5847 8.31831 11.5847 8.53998C11.5847 8.81998 11.503 9.09998 11.3397 9.36831C11.188 9.63664 10.9663 9.91665 10.6863 10.1966L9.79967 11.1183C9.67134 11.2466 9.61301 11.3983 9.61301 11.585C9.61301 11.6783 9.62468 11.76 9.64801 11.8533C9.68301 11.9466 9.71801 12.0166 9.74134 12.0866C9.95134 12.4716 10.313 12.9733 10.8263 13.58C11.3513 14.1866 11.9113 14.805 12.518 15.4233C12.6347 15.54 12.763 15.6566 12.8797 15.7733C13.3463 16.2283 13.358 16.975 12.8913 17.4416Z" fill="#40BDAF"/>
<path d="M25.6319 21.385C25.6319 21.7117 25.5735 22.05 25.4569 22.3767C25.4219 22.47 25.3869 22.5633 25.3402 22.6567C25.1419 23.0767 24.8852 23.4733 24.5469 23.8467C23.9752 24.4767 23.3452 24.9317 22.6335 25.2233C22.6219 25.2233 22.6102 25.235 22.5985 25.235C21.9102 25.515 21.1635 25.6667 20.3585 25.6667C19.1685 25.6667 17.8969 25.3867 16.5552 24.815C15.2135 24.2433 13.8719 23.4733 12.5419 22.505C12.0869 22.1667 11.6319 21.8283 11.2002 21.4667L15.0152 17.6517C15.3419 17.8967 15.6335 18.0833 15.8785 18.2117C15.9369 18.235 16.0069 18.27 16.0885 18.305C16.1819 18.34 16.2752 18.3517 16.3802 18.3517C16.5785 18.3517 16.7302 18.2817 16.8585 18.1533L17.7452 17.2783C18.0369 16.9867 18.3169 16.765 18.5852 16.625C18.8535 16.4617 19.1219 16.38 19.4135 16.38C19.6352 16.38 19.8685 16.4267 20.1252 16.5317C20.3819 16.6367 20.6502 16.7883 20.9419 16.9867L24.8035 19.7283C25.1069 19.9383 25.3169 20.1833 25.4452 20.475C25.5619 20.7667 25.6319 21.0583 25.6319 21.385Z" fill="#40BDAF"/>
</svg>
