<svg width="37" height="37" viewBox="0 0 37 37" fill="none" xmlns="http://www.w3.org/2000/svg">
<circle cx="18.5" cy="18.5" r="18" fill="#1679AB" stroke="#B1D2E3"/>
<path d="M15.1805 25.2916H22.8221C24.8346 25.2916 25.6367 24.0594 25.7315 22.5573L26.1107 16.5344C26.2128 14.9594 24.9586 13.625 23.3763 13.625C22.9315 13.625 22.5232 13.3698 22.319 12.976L21.794 11.9187C21.4586 11.2552 20.5836 10.7083 19.8398 10.7083H18.1701C17.419 10.7083 16.544 11.2552 16.2086 11.9187L15.6836 12.976C15.4794 13.3698 15.0711 13.625 14.6263 13.625C13.044 13.625 11.7898 14.9594 11.8919 16.5344L12.2711 22.5573C12.3586 24.0594 13.168 25.2916 15.1805 25.2916Z" stroke="white" stroke-width="1.2" stroke-linecap="round" stroke-linejoin="round"/>
<path d="M17.9062 15.0833H20.0938" stroke="white" stroke-width="1.2" stroke-linecap="round" stroke-linejoin="round"/>
<path d="M19 22.375C20.3052 22.375 21.3698 21.3104 21.3698 20.0052C21.3698 18.7 20.3052 17.6354 19 17.6354C17.6948 17.6354 16.6302 18.7 16.6302 20.0052C16.6302 21.3104 17.6948 22.375 19 22.375Z" stroke="white" stroke-width="1.2" stroke-linecap="round" stroke-linejoin="round"/>
</svg>
