<svg width="20" height="20" viewBox="0 0 20 20" fill="none" xmlns="http://www.w3.org/2000/svg">
<path fill-rule="evenodd" clip-rule="evenodd" d="M1.66667 0C1.36603 0 1.10259 0.201213 1.02349 0.491257L0.02349 4.15793C0.00790003 4.2151 0 4.27407 0 4.33333C0 5.22183 0.38625 6.02013 1 6.56943V16.6667C1 18.5076 2.49238 20 4.33333 20H10C10.3682 20 10.6667 19.7015 10.6667 19.3333C10.6667 18.9651 10.3682 18.6667 10 18.6667H4.33333C3.22877 18.6667 2.33333 17.7712 2.33333 16.6667V7.259C2.54774 7.30763 2.77087 7.33333 3 7.33333C3.94243 7.33333 4.78333 6.89877 5.33333 6.2191C5.88333 6.89877 6.72423 7.33333 7.66667 7.33333C8.6091 7.33333 9.45 6.89877 10 6.2191C10.55 6.89877 11.3909 7.33333 12.3333 7.33333C13.2758 7.33333 14.1167 6.89877 14.6667 6.2191C15.2167 6.89877 16.0576 7.33333 17 7.33333C17.2291 7.33333 17.4523 7.30763 17.6667 7.259V10.5C17.6667 10.8682 17.9651 11.1667 18.3333 11.1667C18.7015 11.1667 19 10.8682 19 10.5V6.56943C19.6137 6.02013 20 5.22183 20 4.33333C20 4.27407 19.9921 4.2151 19.9765 4.15793L18.9765 0.491257C18.8974 0.201213 18.634 0 18.3333 0H1.66667ZM7.66667 6C6.7462 6 6 5.2538 6 4.33333C6 3.96513 5.70153 3.66667 5.33333 3.66667C4.96513 3.66667 4.66667 3.96513 4.66667 4.33333C4.66667 5.2538 3.92047 6 3 6C2.10702 6 1.37807 5.29773 1.33532 4.41533L2.17586 1.33333H17.8241L18.6647 4.41533C18.6219 5.29773 17.893 6 17 6C16.0795 6 15.3333 5.2538 15.3333 4.33333C15.3333 3.96513 15.0349 3.66667 14.6667 3.66667C14.2985 3.66667 14 3.96513 14 4.33333C14 5.2538 13.2538 6 12.3333 6C11.4129 6 10.6667 5.2538 10.6667 4.33333C10.6667 3.96513 10.3682 3.66667 10 3.66667C9.6318 3.66667 9.33333 3.96513 9.33333 4.33333C9.33333 5.2538 8.58713 6 7.66667 6Z" fill="#011E29"/>
<path fill-rule="evenodd" clip-rule="evenodd" d="M18.3333 13.6667C18.3333 14.362 18.0671 14.9952 17.6312 15.4699C19.037 16.1862 19.9999 17.6473 19.9999 19.3333C19.9999 19.7015 19.7015 20 19.3333 20C18.9651 20 18.6666 19.7015 18.6666 19.3333C18.6666 17.6765 17.3235 16.3333 15.6666 16.3333C14.0097 16.3333 12.6666 17.6765 12.6666 19.3333C12.6666 19.7015 12.3681 20 11.9999 20C11.6317 20 11.3333 19.7015 11.3333 19.3333C11.3333 17.6473 12.2962 16.1862 13.702 15.4699C13.2661 14.9952 12.9999 14.362 12.9999 13.6667C12.9999 12.1939 14.1938 11 15.6666 11C17.1394 11 18.3333 12.1939 18.3333 13.6667ZM14.3333 13.6667C14.3333 12.9303 14.9302 12.3333 15.6666 12.3333C16.403 12.3333 16.9999 12.9303 16.9999 13.6667C16.9999 14.403 16.403 15 15.6666 15C14.9302 15 14.3333 14.403 14.3333 13.6667Z" fill="#011E29"/>
</svg>
