<svg width="54" height="54" viewBox="0 0 54 54" fill="none" xmlns="http://www.w3.org/2000/svg">
<rect width="54" height="54" rx="14" fill="url(#paint0_linear_5671_5374)"/>
<g filter="url(#filter0_d_5671_5374)">
<path d="M41.8755 28.2184C41.8755 27.7676 41.7403 27.3619 41.5149 27.0013L38.4945 21.9975C38.0437 21.2762 37.2774 20.8705 36.466 20.8705H32.0031V17.76C32.0031 17.4895 31.8228 17.3092 31.5523 17.3092C31.2818 17.3092 31.1015 17.4895 31.1015 17.76V29.5257H13.0246V17.76C13.0246 17.4895 12.8443 17.3092 12.5738 17.3092C12.3034 17.3092 12.123 17.4895 12.123 17.76C12.123 29.2102 12.123 36.5581 12.123 37.64C12.123 37.9105 12.3034 38.0908 12.5738 38.0908H17.3072C17.1269 40.1194 18.7047 41.8775 20.7332 41.8775C22.7618 41.8775 24.3847 40.1194 24.1593 38.0908H31.8228C31.6875 40.1194 33.3104 41.8775 35.339 41.8775C37.3676 41.8775 38.9904 40.1194 38.765 38.0908H41.4247C41.6952 38.0908 41.8755 37.9105 41.8755 37.64C41.8755 28.8045 41.8755 36.9188 41.8755 28.2184ZM36.466 21.727C36.9618 21.727 37.4577 21.9975 37.7282 22.4483L40.7485 27.4521C40.8838 27.6775 40.9739 27.948 40.9739 28.2184V32.3658H32.0031V21.727H36.466ZM31.1015 30.3823V32.3207H13.0246V30.3823H31.1015ZM20.7783 40.9759C19.3808 40.9759 18.2088 39.8489 18.2088 38.4064C18.2088 37.0089 19.3358 35.8369 20.7783 35.8369C22.1758 35.8369 23.3478 36.9639 23.3478 38.4064C23.3028 39.8489 22.1758 40.9759 20.7783 40.9759ZM35.339 40.9759C33.9415 40.9759 32.7694 39.8489 32.7694 38.4064C32.7694 37.0089 33.8964 35.8369 35.339 35.8369C36.7364 35.8369 37.9085 36.9639 37.9085 38.4064C37.9085 39.8489 36.7364 40.9759 35.339 40.9759ZM40.9739 37.1893H38.5847C38.0888 35.882 36.8266 34.9804 35.339 34.9804C33.8514 34.9804 32.5891 35.882 32.0933 37.1893H23.9789C23.4831 35.882 22.2208 34.9804 20.7332 34.9804C19.2456 34.9804 17.9834 35.882 17.4875 37.1893H13.0246V33.2673H40.9739V37.1893Z" fill="white"/>
<path d="M34.1209 28.2634H38.6288C38.8993 28.2634 39.0796 28.0831 39.0796 27.8126C39.0796 27.6774 39.0345 27.5872 38.9444 27.497L36.7355 23.9358C36.5101 23.5751 36.1044 23.3497 35.6987 23.3497H34.0758C33.8053 23.3497 33.625 23.53 33.625 23.8005V27.7675C33.6701 28.038 33.8504 28.2634 34.1209 28.2634ZM34.5717 24.2513H35.7437C35.8339 24.2513 35.9691 24.2964 36.0142 24.3866L37.8174 27.3167H34.5717V24.2513Z" fill="white"/>
<path d="M14.287 18.346H14.5575V27.7225C14.5575 27.993 14.7829 28.2634 15.0985 28.2634H29.2084C29.4788 28.2634 29.7493 28.038 29.7493 27.7225V18.346H30.0198C30.2903 18.346 30.5607 18.1206 30.5607 17.805V15.3256C30.5607 15.0552 30.3353 14.7847 30.0198 14.7847H27.0896C27.1798 14.5593 27.2249 14.3339 27.2249 14.0634C27.0445 11.9897 24.1144 11.4037 23.0325 13.1618L22.176 14.5142L21.3194 13.1618C20.1925 11.4037 17.3074 11.9897 17.1271 14.0634C17.082 14.3339 17.1721 14.5593 17.2623 14.7847H14.287C14.0166 14.7847 13.7461 15.0101 13.7461 15.3256V17.8501C13.7461 18.1206 13.9715 18.346 14.287 18.346ZM28.8477 27.3618H15.4591V18.346H28.8026V27.3618H28.8477ZM23.7537 13.6577C24.4299 12.6209 26.188 12.9815 26.3233 14.1536C26.3683 14.4691 26.0979 14.7847 25.6922 14.7847H23.0325L23.7537 13.6577ZM17.9836 14.1536C18.0737 12.9364 19.8769 12.5758 20.5531 13.6577L21.2744 14.7847H18.6598C18.254 14.7847 17.9385 14.5142 17.9836 14.1536ZM14.6477 15.6863C16.4959 15.6863 28.0814 15.6863 29.6592 15.6863V17.4444C24.3398 17.4444 19.8769 17.4444 14.6477 17.4444V15.6863Z" fill="white"/>
<path d="M17.7132 23.1699H18.9756V22.5838H17.7132V21.9977H19.0207V21.4567H17.082V24.2519H17.7132V23.1699Z" fill="white"/>
<path d="M20.1917 23.3498H20.6426L21.2738 24.2515H22.0402L21.3188 23.2597C21.6795 23.1244 21.8599 22.8539 21.8599 22.4031C21.8599 21.6366 21.409 21.4563 20.6426 21.4563H19.5605V24.2966H20.1917V23.3498ZM20.1917 21.9973H20.6426C21.0032 21.9973 21.1836 22.0424 21.1836 22.4031C21.1836 22.7637 21.0032 22.8539 20.6426 22.8539H20.1917V21.9973Z" fill="white"/>
<path d="M24.5661 23.7105H23.1234V23.1244H24.3857V22.5834H23.1234V21.9973H24.521V21.4563H22.4922V24.2515H24.5661V23.7105Z" fill="white"/>
<path d="M27.2243 23.7105H25.7816V23.1244H27.0439V22.5834H25.7816V21.9973H27.1792V21.4563H25.1504V24.2515H27.2243V23.7105Z" fill="white"/>
</g>
<defs>
<filter id="filter0_d_5671_5374" x="9.12305" y="12.1223" width="35.752" height="35.7552" filterUnits="userSpaceOnUse" color-interpolation-filters="sRGB">
<feFlood flood-opacity="0" result="BackgroundImageFix"/>
<feColorMatrix in="SourceAlpha" type="matrix" values="0 0 0 0 0 0 0 0 0 0 0 0 0 0 0 0 0 0 127 0" result="hardAlpha"/>
<feOffset dy="3"/>
<feGaussianBlur stdDeviation="1.5"/>
<feComposite in2="hardAlpha" operator="out"/>
<feColorMatrix type="matrix" values="0 0 0 0 0 0 0 0 0 0 0 0 0 0 0 0 0 0 0.25 0"/>
<feBlend mode="normal" in2="BackgroundImageFix" result="effect1_dropShadow_5671_5374"/>
<feBlend mode="normal" in="SourceGraphic" in2="effect1_dropShadow_5671_5374" result="shape"/>
</filter>
<linearGradient id="paint0_linear_5671_5374" x1="27" y1="0" x2="27" y2="54" gradientUnits="userSpaceOnUse">
<stop stop-color="#1679AB"/>
<stop offset="1" stop-color="#041822"/>
</linearGradient>
</defs>
</svg>
