<svg width="30" height="30" viewBox="0 0 30 30" fill="none" xmlns="http://www.w3.org/2000/svg">
<rect x="0.5" y="0.5" width="29" height="29" rx="7.5" fill="#D0E4EE" stroke="#B1D2E3"/>
<path fill-rule="evenodd" clip-rule="evenodd" d="M15.6001 9.60023C15.6001 9.26889 15.3313 9 15 9C14.6687 9 14.3998 9.26889 14.3998 9.60023V15.3517L12.4249 13.376C12.1903 13.1414 11.8107 13.1414 11.5761 13.376C11.3421 13.6106 11.3421 13.9903 11.5761 14.2243L14.559 17.2075C14.6681 17.3262 14.8256 17.401 15 17.401C15.0905 17.401 15.176 17.3807 15.2525 17.3453C15.315 17.316 15.3735 17.2761 15.4246 17.2249L18.4244 14.2243C18.6589 13.9903 18.6589 13.6106 18.4244 13.376C18.1904 13.1415 17.8101 13.1415 17.5761 13.376L15.6001 15.3523L15.6001 9.60023ZM9.60014 16.1999C9.93145 16.1999 10.2003 16.4688 10.2003 16.8001V19.1999C10.2003 19.3591 10.2633 19.5121 10.3758 19.6246C10.4883 19.7371 10.6407 19.8001 10.7999 19.8001H19.2C19.3592 19.8001 19.5117 19.7371 19.6242 19.6246C19.7366 19.5121 19.7997 19.3591 19.7997 19.1999V16.8001C19.7997 16.4688 20.0685 16.1999 20.3998 16.1999C20.7311 16.1999 21 16.4688 21 16.8001V19.1999C21 19.6775 20.8104 20.1354 20.4724 20.4729C20.1349 20.8104 19.677 21 19.2001 21H10.7999C10.323 21 9.8651 20.8104 9.52761 20.4729C9.18956 20.1354 9 19.6775 9 19.1999V16.8001C9 16.4688 9.26884 16.1999 9.60014 16.1999Z" fill="#1679AB"/>
</svg>
