<svg width="30" height="30" viewBox="0 0 30 30" fill="none" xmlns="http://www.w3.org/2000/svg">
<rect x="0.5" y="0.5" width="29" height="29" rx="7.5" stroke="#E52551"/>
<path d="M11.0694 22C10.703 22 10.3893 21.8532 10.1284 21.5597C9.86749 21.2662 9.73703 20.9133 9.73703 20.5011V9.97714H9.55278C9.39616 9.97714 9.2649 9.91751 9.15902 9.79825C9.05301 9.67899 9 9.53126 9 9.35506C9 9.17872 9.05301 9.03106 9.15902 8.91208C9.2649 8.79296 9.39616 8.73339 9.55278 8.73339H12.3167C12.3167 8.53039 12.3802 8.35737 12.5074 8.21434C12.6344 8.07145 12.7881 8 12.9686 8H16.0869C16.2674 8 16.4211 8.07145 16.5481 8.21434C16.6753 8.35737 16.7389 8.53039 16.7389 8.73339H19.5027C19.6593 8.73339 19.7906 8.79303 19.8965 8.91229C20.0025 9.03155 20.0555 9.17928 20.0555 9.35547C20.0555 9.53181 20.0025 9.67947 19.8965 9.79845C19.7906 9.91758 19.6593 9.97714 19.5027 9.97714H19.3185V20.5011C19.3185 20.9133 19.188 21.2662 18.9271 21.5597C18.6662 21.8532 18.3525 22 17.9861 22H11.0694ZM18.2129 9.97714H10.8426V20.5011C10.8426 20.5756 10.8638 20.6367 10.9063 20.6845C10.9488 20.7323 11.0032 20.7563 11.0694 20.7563H17.9861C18.0523 20.7563 18.1067 20.7323 18.1492 20.6845C18.1917 20.6367 18.2129 20.5756 18.2129 20.5011V9.97714ZM13.1674 19.0979C13.324 19.0979 13.4552 19.0384 13.5611 18.9192C13.6669 18.8 13.7198 18.6523 13.7198 18.4761V12.2573C13.7198 12.0811 13.6668 11.9334 13.5608 11.8141C13.4549 11.695 13.3236 11.6355 13.1668 11.6355C13.0102 11.6355 12.8789 11.695 12.7731 11.8141C12.6673 11.9334 12.6144 12.0811 12.6144 12.2573V18.4761C12.6144 18.6523 12.6674 18.8 12.7732 18.9192C12.8793 19.0384 13.0106 19.0979 13.1674 19.0979ZM15.8887 19.0979C16.0453 19.0979 16.1766 19.0384 16.2824 18.9192C16.3882 18.8 16.4411 18.6523 16.4411 18.4761V12.2573C16.4411 12.0811 16.3881 11.9334 16.2823 11.8141C16.1763 11.695 16.0449 11.6355 15.8881 11.6355C15.7315 11.6355 15.6003 11.695 15.4944 11.8141C15.3886 11.9334 15.3357 12.0811 15.3357 12.2573V18.4761C15.3357 18.6523 15.3887 18.8 15.4947 18.9192C15.6006 19.0384 15.7319 19.0979 15.8887 19.0979Z" fill="#E52551"/>
</svg>
