<svg width="30" height="30" viewBox="0 0 30 30" fill="none" xmlns="http://www.w3.org/2000/svg">
<rect width="30" height="30" rx="8" fill="url(#paint0_linear_4190_1104)"/>
<path d="M13.8239 20.6397L12.1479 18.602H10.5322C8.95204 18.602 7.66578 19.9056 7.66578 21.5079V23.6625C7.66578 23.8488 7.51664 23.9999 7.33289 23.9999C7.14914 23.9999 7 23.8488 7 23.6625V21.5079C7 19.5331 8.58461 17.9272 10.5332 17.9272H12.3042C12.4028 17.9272 12.4969 17.9722 12.5599 18.0486L14.3354 20.2078C14.4525 20.3509 14.4339 20.5641 14.2927 20.6828C14.1516 20.8025 13.9411 20.7828 13.8239 20.6397ZM13.3472 13.0465C13.3472 12.7614 13.1182 12.5292 12.8367 12.5292C12.5553 12.5292 12.3263 12.7614 12.3263 13.0465C12.3263 13.3317 12.5553 13.5639 12.8367 13.5639C13.1182 13.5639 13.3472 13.3317 13.3472 13.0465ZM15.3242 12.5292C15.0419 12.5292 14.8128 12.7614 14.8128 13.0465C14.8128 13.3317 15.0427 13.5639 15.3242 13.5639C15.6065 13.5639 15.8355 13.3317 15.8355 13.0465C15.8355 12.7614 15.6065 12.5292 15.3242 12.5292ZM10.1736 22.2457C9.9898 22.2457 9.84067 22.3968 9.84067 22.583V23.6626C9.84067 23.8489 9.98981 24 10.1736 24C10.3573 24 10.5064 23.8489 10.5064 23.6626V22.583C10.5064 22.3968 10.3573 22.2457 10.1736 22.2457ZM14.0822 21.8858H14.0795C13.8958 21.8858 13.7466 22.037 13.7466 22.2232C13.7466 22.4094 13.8975 22.5605 14.0804 22.5605C14.2642 22.5605 14.4142 22.4094 14.4142 22.2232C14.4151 22.037 14.2659 21.8858 14.0822 21.8858ZM14.7897 14.6885H13.3693C13.1856 14.6885 13.0365 14.8397 13.0365 15.0259C13.0365 15.2121 13.1856 15.3633 13.3693 15.3633H14.7897C14.9735 15.3633 15.1226 15.2121 15.1226 15.0259C15.1226 14.8397 14.9735 14.6885 14.7897 14.6885ZM9.59821 9.0719C9.44729 8.81639 9.43309 8.50423 9.56181 8.23702C9.68964 7.96891 9.94088 7.78719 10.232 7.7494L10.5046 7.71431C11.5592 7.57847 12.5543 7.08455 13.3062 6.32163L13.308 6.31984C13.7288 5.89339 14.4132 5.89339 14.834 6.31984C15.5868 7.08275 16.5828 7.57755 17.6393 7.71251L17.9269 7.7494C18.2181 7.78719 18.4693 7.96892 18.598 8.23702C18.7267 8.50513 18.7134 8.81729 18.5616 9.0728L17.9633 10.0813V13.5865C17.9633 15.7564 16.2216 17.5225 14.0794 17.5225C11.9382 17.5225 10.1956 15.7574 10.1956 13.5865V10.0813L9.59821 9.0719ZM17.2975 13.5865V11.3166C17.1688 11.4606 17.0223 11.5883 16.8616 11.699C16.4559 11.9779 15.9828 12.1246 15.4928 12.1246H12.6661C12.1761 12.1246 11.7029 11.977 11.2972 11.699C11.1357 11.5884 10.9901 11.4597 10.8614 11.3166V13.5865C10.8614 15.3849 12.3048 16.8477 14.0793 16.8477C15.8539 16.8477 17.2975 15.3849 17.2975 13.5865ZM12.6662 11.4498H15.4929C16.2208 11.4498 16.8662 11.009 17.1387 10.3252H11.0204C11.293 11.009 11.9383 11.4498 12.6662 11.4498ZM10.1691 8.72567L10.7168 9.65052H17.4414L17.9882 8.72567C18.0388 8.64021 18.0113 8.56193 17.9971 8.53225C17.9829 8.50256 17.9385 8.43149 17.8418 8.41979L17.5542 8.3829C16.3522 8.22906 15.2186 7.66587 14.3618 6.79771C14.2003 6.63397 13.9384 6.63397 13.7777 6.79771L13.7759 6.7995C12.9202 7.66677 11.7883 8.22906 10.5882 8.3838L10.3157 8.41889C10.218 8.43149 10.1745 8.50166 10.1603 8.53135C10.147 8.56104 10.1194 8.64021 10.1691 8.72567ZM23.9998 21.4523C23.9998 22.271 23.7868 23.0762 23.3847 23.7805C23.3225 23.8885 23.2107 23.9488 23.0961 23.9488C23.0393 23.9488 22.9825 23.9344 22.9293 23.9038C22.7703 23.8102 22.7162 23.6042 22.8076 23.4432C23.0961 22.9385 23.2692 22.3726 23.319 21.7905L20.7641 21.7896C20.6407 22.3006 20.243 22.7027 19.7397 22.8278V23.6105C19.7397 23.7967 19.5905 23.9478 19.4068 23.9478C19.223 23.9478 19.0739 23.7967 19.0739 23.6105V22.8278C18.5697 22.7027 18.1729 22.2997 18.0495 21.7896H15.4928C15.5416 22.3717 15.7156 22.9376 16.0041 23.4423C16.0965 23.6033 16.0414 23.8102 15.8825 23.9029C15.7236 23.9965 15.5194 23.9407 15.428 23.7796C15.0241 23.0752 14.8119 22.27 14.8119 21.4523C14.8119 18.8848 16.8732 16.7965 19.406 16.7965C21.9394 16.7965 23.9998 18.8846 23.9998 21.4523ZM15.4917 21.1149H18.0484C18.1984 20.496 18.7497 20.0353 19.4066 20.0353C20.0626 20.0353 20.6148 20.496 20.7649 21.1149H23.3215C23.152 19.0772 21.4617 17.4714 19.4074 17.4714C17.3514 17.4714 15.6613 19.0764 15.4917 21.1149ZM20.138 21.4523C20.138 21.043 19.8096 20.7101 19.4056 20.7101C19.0017 20.7101 18.6733 21.0429 18.6733 21.4523C18.6733 21.8617 19.0017 22.1945 19.4056 22.1945C19.8096 22.1945 20.138 21.8617 20.138 21.4523Z" fill="white"/>
<defs>
<linearGradient id="paint0_linear_4190_1104" x1="15" y1="0" x2="15" y2="30" gradientUnits="userSpaceOnUse">
<stop stop-color="#1679AB"/>
<stop offset="1" stop-color="#041822"/>
</linearGradient>
</defs>
</svg>
