<svg width="20" height="20" viewBox="0 0 20 20" fill="none" xmlns="http://www.w3.org/2000/svg">
<circle cx="10" cy="10" r="10" fill="#EA2251"/>
<path d="M8.1231 13.598C7.92423 13.598 7.754 13.5184 7.6124 13.3591C7.4708 13.1998 7.4 13.0083 7.4 12.7845V7.07303H7.3C7.215 7.07303 7.14377 7.04066 7.0863 6.97594C7.02877 6.91121 7 6.83104 7 6.73541C7 6.63971 7.02877 6.55958 7.0863 6.495C7.14377 6.43035 7.215 6.39803 7.3 6.39803H8.8C8.8 6.28785 8.8345 6.19395 8.9035 6.11633C8.97243 6.03878 9.05587 6 9.1538 6H10.8462C10.9441 6 11.0276 6.03878 11.0965 6.11633C11.1655 6.19395 11.2 6.28785 11.2 6.39803H12.7C12.785 6.39803 12.8562 6.43039 12.9137 6.49511C12.9712 6.55984 13 6.64001 13 6.73564C13 6.83134 12.9712 6.91148 12.9137 6.97605C12.8562 7.0407 12.785 7.07303 12.7 7.07303H12.6V12.7845C12.6 13.0083 12.5292 13.1998 12.3876 13.3591C12.246 13.5184 12.0758 13.598 11.8769 13.598H8.1231ZM12 7.07303H8V12.7845C8 12.825 8.01153 12.8581 8.0346 12.8841C8.05767 12.91 8.08717 12.923 8.1231 12.923H11.8769C11.9128 12.923 11.9423 12.91 11.9654 12.8841C11.9885 12.8581 12 12.825 12 12.7845V7.07303ZM9.2617 12.023C9.3467 12.023 9.41793 11.9907 9.4754 11.9261C9.5328 11.8613 9.5615 11.7811 9.5615 11.6855V8.31052C9.5615 8.2149 9.53273 8.13472 9.4752 8.07C9.41773 8.00535 9.34647 7.97302 9.2614 7.97302C9.1764 7.97302 9.10517 8.00535 9.0477 8.07C8.9903 8.13472 8.9616 8.2149 8.9616 8.31052V11.6855C8.9616 11.7811 8.99033 11.8613 9.0478 11.9261C9.10533 11.9907 9.17663 12.023 9.2617 12.023ZM10.7386 12.023C10.8236 12.023 10.8948 11.9907 10.9523 11.9261C11.0097 11.8613 11.0384 11.7811 11.0384 11.6855V8.31052C11.0384 8.2149 11.0097 8.13472 10.9522 8.07C10.8947 8.00535 10.8234 7.97302 10.7383 7.97302C10.6533 7.97302 10.5821 8.00535 10.5246 8.07C10.4672 8.13472 10.4385 8.2149 10.4385 8.31052V11.6855C10.4385 11.7811 10.4673 11.8613 10.5248 11.9261C10.5823 11.9907 10.6535 12.023 10.7386 12.023Z" fill="white"/>
</svg>
