<svg width="16" height="16" viewBox="0 0 16 16" fill="none" xmlns="http://www.w3.org/2000/svg">
<path d="M8.00147 0C6.89495 0 5.85488 0.209965 4.88126 0.629894C3.90765 1.04982 3.06077 1.61972 2.34063 2.33958C1.62049 3.05944 1.05032 3.90596 0.630105 4.87916C0.210035 5.85235 0 6.89214 0 7.99853C0 9.10505 0.209965 10.1451 0.629895 11.1187C1.04982 12.0924 1.61972 12.9392 2.33958 13.6594C3.05944 14.3795 3.90596 14.9497 4.87916 15.3699C5.85235 15.79 6.89214 16 7.99853 16C9.10505 16 10.1451 15.79 11.1187 15.3701C12.0924 14.9502 12.9392 14.3803 13.6594 13.6604C14.3795 12.9406 14.9497 12.094 15.3699 11.1208C15.79 10.1476 16 9.10786 16 8.00147C16 6.89495 15.79 5.85488 15.3701 4.88126C14.9502 3.90765 14.3803 3.06077 13.6604 2.34063C12.9406 1.62049 12.094 1.05031 11.1208 0.630104C10.1476 0.210033 9.10786 0 8.00147 0ZM8 1.26316C9.8807 1.26316 11.4737 1.91579 12.7789 3.22105C14.0842 4.52632 14.7368 6.1193 14.7368 8C14.7368 9.8807 14.0842 11.4737 12.7789 12.7789C11.4737 14.0842 9.8807 14.7368 8 14.7368C6.1193 14.7368 4.52632 14.0842 3.22105 12.7789C1.91579 11.4737 1.26316 9.8807 1.26316 8C1.26316 6.1193 1.91579 4.52632 3.22105 3.22105C4.52632 1.91579 6.1193 1.26316 8 1.26316Z" fill="#549A9F"/>
<path d="M4.93432 7L7.96716 10.0242L11 7" stroke="#549A9F" stroke-width="1.00362" stroke-linecap="round" stroke-linejoin="round"/>
</svg>
