<svg width="12" height="12" viewBox="0 0 12 12" fill="none" xmlns="http://www.w3.org/2000/svg">
<path d="M5.4 6.72L3.8616 5.1816C3.74253 5.06267 3.60127 5.00393 3.4378 5.0054C3.2742 5.007 3.13033 5.0698 3.0062 5.1938C2.89033 5.31793 2.83033 5.45847 2.8262 5.6154C2.82207 5.77233 2.88207 5.91287 3.0062 6.037L5.4938 8.5246C5.56873 8.59953 5.64773 8.65233 5.7308 8.683C5.81387 8.7138 5.9036 8.7292 6 8.7292C6.0964 8.7292 6.18613 8.7138 6.2692 8.683C6.35227 8.65233 6.43127 8.59953 6.5062 8.5246L8.9938 6.037C9.11273 5.91793 9.17147 5.77867 9.17 5.6192C9.1684 5.45973 9.10967 5.31793 8.9938 5.1938C8.86967 5.0698 8.72713 5.00573 8.5662 5.0016C8.40513 4.99747 8.26253 5.05747 8.1384 5.1816L6.6 6.72V0.599999C6.6 0.429733 6.54253 0.2872 6.4276 0.1724C6.3128 0.0574665 6.17027 0 6 0C5.82973 0 5.6872 0.0574665 5.5724 0.1724C5.45747 0.2872 5.4 0.429733 5.4 0.599999V6.72ZM0 8.9846V10.5538C0 10.9579 0.14 11.3 0.42 11.58C0.7 11.86 1.04207 12 1.4462 12H10.5538C10.9579 12 11.3 11.86 11.58 11.58C11.86 11.3 12 10.9579 12 10.5538V8.9846C12 8.81433 11.9425 8.6718 11.8276 8.557C11.7128 8.44207 11.5703 8.3846 11.4 8.3846C11.2297 8.3846 11.0872 8.44207 10.9724 8.557C10.8575 8.6718 10.8 8.81433 10.8 8.9846V10.5538C10.8 10.6154 10.7743 10.6718 10.723 10.723C10.6718 10.7743 10.6154 10.8 10.5538 10.8H1.4462C1.3846 10.8 1.3282 10.7743 1.277 10.723C1.22567 10.6718 1.2 10.6154 1.2 10.5538V8.9846C1.2 8.81433 1.14253 8.6718 1.0276 8.557C0.9128 8.44207 0.770267 8.3846 0.6 8.3846C0.429733 8.3846 0.2872 8.44207 0.1724 8.557C0.0574666 8.6718 0 8.81433 0 8.9846Z" fill="white"/>
</svg>
