<svg width="36" height="36" viewBox="0 0 36 36" fill="none" xmlns="http://www.w3.org/2000/svg">
<rect x="0.375" y="0.375" width="35.25" height="35.25" rx="17.625" fill="#E52551" stroke="#E52551" stroke-width="0.75"/>
<path d="M12.8385 27.75C12.2916 27.75 11.8235 27.5456 11.4341 27.1367C11.0447 26.7279 10.85 26.2364 10.85 25.6622V11.0039H10.575C10.3413 11.0039 10.1454 10.9208 9.98733 10.7547C9.82911 10.5886 9.75 10.3828 9.75 10.1374C9.75 9.89179 9.82911 9.68612 9.98733 9.5204C10.1454 9.35447 10.3413 9.27151 10.575 9.27151H14.7C14.7 8.98875 14.7949 8.74776 14.9846 8.54854C15.1742 8.34952 15.4036 8.25 15.673 8.25H20.3271C20.5964 8.25 20.8258 8.34952 21.0154 8.54854C21.2051 8.74776 21.3 8.98875 21.3 9.27151H25.425C25.6588 9.27151 25.8546 9.35457 26.0127 9.52068C26.1709 9.6868 26.25 9.89256 26.25 10.138C26.25 10.3836 26.1709 10.5893 26.0127 10.755C25.8546 10.9209 25.6588 11.0039 25.425 11.0039H25.15V25.6622C25.15 26.2364 24.9553 26.7279 24.5659 27.1367C24.1765 27.5456 23.7084 27.75 23.1615 27.75H12.8385ZM23.5 11.0039H12.5V25.6622C12.5 25.766 12.5317 25.8511 12.5951 25.9177C12.6586 25.9843 12.7397 26.0176 12.8385 26.0176H23.1615C23.2603 26.0176 23.3414 25.9843 23.4049 25.9177C23.4683 25.8511 23.5 25.766 23.5 25.6622V11.0039ZM15.9697 23.7078C16.2034 23.7078 16.3993 23.6249 16.5574 23.4589C16.7152 23.2928 16.7941 23.0871 16.7941 22.8417V14.1799C16.7941 13.9344 16.715 13.7287 16.5568 13.5626C16.3988 13.3966 16.2028 13.3137 15.9689 13.3137C15.7351 13.3137 15.5392 13.3966 15.3812 13.5626C15.2233 13.7287 15.1444 13.9344 15.1444 14.1799V22.8417C15.1444 23.0871 15.2234 23.2928 15.3815 23.4589C15.5397 23.6249 15.7357 23.7078 15.9697 23.7078ZM20.0311 23.7078C20.2649 23.7078 20.4608 23.6249 20.6188 23.4589C20.7767 23.2928 20.8556 23.0871 20.8556 22.8417V14.1799C20.8556 13.9344 20.7766 13.7287 20.6186 13.5626C20.4603 13.3966 20.2643 13.3137 20.0303 13.3137C19.7966 13.3137 19.6007 13.3966 19.4427 13.5626C19.2848 13.7287 19.2059 13.9344 19.2059 14.1799V22.8417C19.2059 23.0871 19.285 23.2928 19.4432 23.4589C19.6012 23.6249 19.7972 23.7078 20.0311 23.7078Z" fill="white"/>
</svg>
