<svg width="28" height="28" viewBox="0 0 28 28" fill="none" xmlns="http://www.w3.org/2000/svg">
<path d="M19.833 4.08334H8.16634C4.66634 4.08334 2.33301 5.83334 2.33301 9.91668V18.0833C2.33301 22.1667 4.66634 23.9167 8.16634 23.9167H19.833C23.333 23.9167 25.6663 22.1667 25.6663 18.0833V9.91668C25.6663 5.83334 23.333 4.08334 19.833 4.08334ZM20.3813 11.1883L16.7297 14.105C15.9597 14.7233 14.9797 15.0267 13.9997 15.0267C13.0197 15.0267 12.028 14.7233 11.2697 14.105L7.61801 11.1883C7.24467 10.885 7.18634 10.325 7.47801 9.95168C7.78134 9.57834 8.32967 9.50834 8.70301 9.81168L12.3547 12.7283C13.2413 13.44 14.7463 13.44 15.633 12.7283L19.2847 9.81168C19.658 9.50834 20.218 9.56668 20.5097 9.95168C20.813 10.325 20.7547 10.885 20.3813 11.1883Z" fill="#40BDAF"/>
</svg>
