<svg width="60" height="60" viewBox="0 0 60 60" fill="none" xmlns="http://www.w3.org/2000/svg">
<rect width="60" height="60" rx="16" fill="url(#paint0_linear_5010_2894)"/>
<path d="M33.2017 14.75C33.6061 14.75 33.994 14.9107 34.28 15.1967L39.4867 20.4033C39.7727 20.6893 39.9334 21.0772 39.9334 21.4817V26.7806H44V38.3028H39.9334V43.725C39.9334 44.5672 39.2506 45.25 38.4084 45.25H18.4139C17.5717 45.25 16.8889 44.5672 16.8889 43.725V16.275C16.8889 15.4328 17.5717 14.75 18.4139 14.75H33.2017ZM32.6472 15.7667H18.4139C18.1332 15.7667 17.9056 15.9943 17.9056 16.275V43.725C17.9056 44.0057 18.1332 44.2333 18.4139 44.2333H38.4084C38.6891 44.2333 38.9167 44.0057 38.9167 43.725V38.3028H23.8361V26.7806H38.9167V22.375H33.1556C32.8748 22.375 32.6472 22.1474 32.6472 21.8667V15.7667ZM42.9834 27.7972H24.8528V37.2861H42.9834V27.7972ZM38.597 30.0907C38.8485 30.0907 39.0885 30.1205 39.3168 30.18C39.5452 30.2396 39.784 30.3234 40.0333 30.4316L39.7024 31.2291C39.4442 31.1232 39.2308 31.0493 39.062 31.0074C38.8932 30.9655 38.7272 30.9445 38.5639 30.9445C38.3697 30.9445 38.2208 30.9897 38.1171 31.0802C38.0134 31.1707 37.9616 31.2887 37.9616 31.4343C37.9616 31.5248 37.9825 31.6037 38.0245 31.6709C38.0664 31.7382 38.1331 31.8033 38.2247 31.8662C38.3162 31.9291 38.533 32.0422 38.875 32.2054C39.3273 32.4216 39.6373 32.6384 39.805 32.8557C39.9726 33.0731 40.0565 33.3395 40.0565 33.655C40.0565 34.0918 39.8993 34.436 39.5849 34.6875C39.2705 34.939 38.8331 35.0648 38.2727 35.0648C37.7564 35.0648 37.2997 34.9677 36.9026 34.7736V33.8204C37.2291 33.9661 37.5054 34.0686 37.7316 34.1282C37.9577 34.1878 38.1646 34.2176 38.3521 34.2176C38.5771 34.2176 38.7498 34.1746 38.87 34.0885C38.9903 34.0025 39.0504 33.8745 39.0504 33.7046C39.0504 33.6097 39.0239 33.5253 38.971 33.4514C38.918 33.3775 38.8402 33.3064 38.7377 33.238C38.6351 33.1696 38.426 33.0604 38.1105 32.9103C37.8149 32.7713 37.5931 32.6379 37.4453 32.5099C37.2975 32.3819 37.1794 32.233 37.0912 32.0631C37.0029 31.8932 36.9588 31.6947 36.9588 31.4674C36.9588 31.0394 37.1039 30.7029 37.394 30.458C37.6841 30.2131 38.0851 30.0907 38.597 30.0907ZM29.4761 30.1602L30.5186 31.901L31.5412 30.1602H32.6466L31.1275 32.5595L32.7624 34.9986H31.5909L30.4657 33.1685L29.3404 34.9986H28.2417L29.8468 32.5033L28.3443 30.1602H29.4761ZM34.3973 30.1602V34.1514H36.3598V34.9986H33.3714V30.1602H34.3973ZM38.7678 21.1222L33.6639 16.0185V21.3583L38.9015 21.3584C38.8794 21.2698 38.8335 21.1879 38.7678 21.1222Z" fill="white"/>
<defs>
<linearGradient id="paint0_linear_5010_2894" x1="30" y1="0" x2="30" y2="60" gradientUnits="userSpaceOnUse">
<stop stop-color="#1679AB"/>
<stop offset="1" stop-color="#041822"/>
</linearGradient>
</defs>
</svg>
