<svg width="30" height="30" viewBox="0 0 30 30" fill="none" xmlns="http://www.w3.org/2000/svg">
<rect x="0.5" y="0.5" width="29" height="29" rx="7.5" fill="#EEF5F5" stroke="#CAE0E1"/>
<path d="M9.23529 20.7647H10.2742L18.7042 12.3346L17.6654 11.2958L9.23529 19.7258V20.7647ZM8.74447 22C8.53351 22 8.35673 21.9286 8.21412 21.7859C8.07137 21.6433 8 21.4665 8 21.2555V19.8288C8 19.628 8.03857 19.4366 8.11571 19.2546C8.19271 19.0726 8.2988 18.914 8.434 18.7788L18.8628 8.35473C18.9873 8.24164 19.1247 8.15427 19.2751 8.09265C19.4257 8.03088 19.5836 8 19.7487 8C19.9138 8 20.0737 8.0293 20.2284 8.08791C20.3832 8.14652 20.5203 8.23972 20.6395 8.3675L21.6453 9.38579C21.773 9.50507 21.8641 9.64232 21.9185 9.79756C21.9728 9.95279 22 10.108 22 10.2633C22 10.4289 21.9717 10.587 21.9152 10.7374C21.8586 10.888 21.7687 11.0255 21.6453 11.15L11.2212 21.566C11.086 21.7012 10.9274 21.8073 10.7454 21.8843C10.5634 21.9614 10.372 22 10.1712 22H8.74447ZM18.1757 11.8243L17.6654 11.2958L18.7042 12.3346L18.1757 11.8243Z" fill="#1B3843"/>
</svg>
