<svg width="40" height="40" viewBox="0 0 40 40" fill="none" xmlns="http://www.w3.org/2000/svg">
<rect width="40" height="40" rx="12" fill="#1679AB"/>
<path d="M14 24.8421C14 23.9579 14.2856 23.2105 14.8568 22.6C15.428 21.9895 16.1273 21.6842 16.9545 21.6842C17.7818 21.6842 18.4811 21.9895 19.0523 22.6C19.6235 23.2105 19.9091 23.9579 19.9091 24.8421C19.9091 25.7263 19.6235 26.4737 19.0523 27.0842C18.4811 27.6947 17.7818 28 16.9545 28C16.1273 28 15.428 27.6947 14.8568 27.0842C14.2856 26.4737 14 25.7263 14 24.8421ZM15.5758 24.8421C15.5758 25.2491 15.7104 25.5965 15.9795 25.8842C16.2487 26.1719 16.5737 26.3158 16.9545 26.3158C17.3354 26.3158 17.6604 26.1719 17.9295 25.8842C18.1987 25.5965 18.3333 25.2491 18.3333 24.8421C18.3333 24.4351 18.1987 24.0877 17.9295 23.8C17.6604 23.5123 17.3354 23.3684 16.9545 23.3684C16.5737 23.3684 16.2487 23.5123 15.9795 23.8C15.7104 24.0877 15.5758 24.4351 15.5758 24.8421ZM16.1667 19.1579L16.1667 12.8421C16.1667 12.6035 16.2422 12.4035 16.3932 12.2421C16.5442 12.0807 16.7313 12 16.9545 12C17.1778 12 17.3649 12.0807 17.5159 12.2421C17.6669 12.4035 17.7424 12.6035 17.7424 12.8421L17.7424 19.1579C17.7424 19.3965 17.6669 19.5965 17.5159 19.7579C17.3649 19.9193 17.1778 20 16.9545 20C16.7313 20 16.5442 19.9193 16.3932 19.7579C16.2422 19.5965 16.1667 19.3965 16.1667 19.1579ZM21.0909 15.1579C21.0909 14.2737 21.3765 13.5263 21.9477 12.9158C22.5189 12.3053 23.2182 12 24.0455 12C24.8727 12 25.572 12.3053 26.1432 12.9158C26.7144 13.5263 27 14.2737 27 15.1579C27 16.0421 26.7144 16.7895 26.1432 17.4C25.572 18.0105 24.8727 18.3158 24.0455 18.3158C23.2182 18.3158 22.5189 18.0105 21.9477 17.4C21.3765 16.7895 21.0909 16.0421 21.0909 15.1579ZM22.6667 15.1579C22.6667 15.5649 22.8013 15.9123 23.0705 16.2C23.3396 16.4877 23.6646 16.6316 24.0455 16.6316C24.4263 16.6316 24.7513 16.4877 25.0205 16.2C25.2896 15.9123 25.4242 15.5649 25.4242 15.1579C25.4242 14.7509 25.2896 14.4035 25.0205 14.1158C24.7513 13.8281 24.4263 13.6842 24.0455 13.6842C23.6646 13.6842 23.3396 13.8281 23.0705 14.1158C22.8013 14.4035 22.6667 14.7509 22.6667 15.1579ZM23.2576 27.1579L23.2576 20.8421C23.2576 20.6035 23.3331 20.4035 23.4841 20.2421C23.6351 20.0807 23.8222 20 24.0455 20C24.2687 20 24.4558 20.0807 24.6068 20.2421C24.7578 20.4035 24.8333 20.6035 24.8333 20.8421L24.8333 27.1579C24.8333 27.3965 24.7578 27.5965 24.6068 27.7579C24.4558 27.9193 24.2687 28 24.0455 28C23.8222 28 23.6351 27.9193 23.4841 27.7579C23.3331 27.5965 23.2576 27.3965 23.2576 27.1579Z" fill="white"/>
</svg>
