<svg width="18" height="18" viewBox="0 0 18 18" fill="none" xmlns="http://www.w3.org/2000/svg">
<path d="M6.78865 0H1.28434C0.576118 0 0 0.576117 0 1.28434V4.58692C0 5.29514 0.576118 5.87126 1.28434 5.87126H6.78865C7.49687 5.87126 8.07299 5.29514 8.07299 4.58692V1.28434C8.07299 0.576117 7.49687 0 6.78865 0Z" fill="white"/>
<path d="M6.78865 7.72607H1.28434C0.576118 7.72607 0 8.30219 0 9.01041V16.7164C0 17.4247 0.576118 18.0008 1.28434 18.0008H6.78865C7.49687 18.0008 8.07299 17.4247 8.07299 16.7164V9.01041C8.07299 8.30219 7.49687 7.72607 6.78865 7.72607Z" fill="white"/>
<path d="M16.7156 12.1289H11.2113C10.5031 12.1289 9.927 12.705 9.927 13.4132V16.7158C9.927 17.424 10.5031 18.0002 11.2113 18.0002H16.7156C17.4239 18.0002 18 17.424 18 16.7158V13.4132C18 12.705 17.4239 12.1289 16.7156 12.1289Z" fill="white"/>
<path d="M16.7156 0H11.2113C10.5031 0 9.927 0.576117 9.927 1.28434V8.99037C9.927 9.69859 10.5031 10.2747 11.2113 10.2747H16.7156C17.4239 10.2747 18 9.69859 18 8.99037V1.28434C18 0.576117 17.4239 0 16.7156 0Z" fill="white"/>
</svg>
