<svg width="18" height="18" viewBox="0 0 18 18" fill="none" xmlns="http://www.w3.org/2000/svg">
<path d="M7.125 6H1.125C0.50475 6 0 5.49525 0 4.875V1.125C0 0.50475 0.50475 0 1.125 0H7.125C7.74525 0 8.25 0.50475 8.25 1.125V4.875C8.25 5.49525 7.74525 6 7.125 6ZM1.125 0.75C0.91875 0.75 0.75 0.918 0.75 1.125V4.875C0.75 5.082 0.91875 5.25 1.125 5.25H7.125C7.33125 5.25 7.5 5.082 7.5 4.875V1.125C7.5 0.918 7.33125 0.75 7.125 0.75H1.125Z" fill="#549A9F"/>
<path d="M7.125 18.0005H1.125C0.50475 18.0005 0 17.4957 0 16.8755V8.62549C0 8.00524 0.50475 7.50049 1.125 7.50049H7.125C7.74525 7.50049 8.25 8.00524 8.25 8.62549V16.8755C8.25 17.4957 7.74525 18.0005 7.125 18.0005ZM1.125 8.25049C0.91875 8.25049 0.75 8.41849 0.75 8.62549V16.8755C0.75 17.0825 0.91875 17.2505 1.125 17.2505H7.125C7.33125 17.2505 7.5 17.0825 7.5 16.8755V8.62549C7.5 8.41849 7.33125 8.25049 7.125 8.25049H1.125Z" fill="#549A9F"/>
<path d="M16.875 18.0005H10.875C10.2547 18.0005 9.75 17.4957 9.75 16.8755V13.1255C9.75 12.5052 10.2547 12.0005 10.875 12.0005H16.875C17.4952 12.0005 18 12.5052 18 13.1255V16.8755C18 17.4957 17.4952 18.0005 16.875 18.0005ZM10.875 12.7505C10.6687 12.7505 10.5 12.9185 10.5 13.1255V16.8755C10.5 17.0825 10.6687 17.2505 10.875 17.2505H16.875C17.0812 17.2505 17.25 17.0825 17.25 16.8755V13.1255C17.25 12.9185 17.0812 12.7505 16.875 12.7505H10.875Z" fill="#549A9F"/>
<path d="M16.875 10.5H10.875C10.2547 10.5 9.75 9.99525 9.75 9.375V1.125C9.75 0.50475 10.2547 0 10.875 0H16.875C17.4952 0 18 0.50475 18 1.125V9.375C18 9.99525 17.4952 10.5 16.875 10.5ZM10.875 0.75C10.6687 0.75 10.5 0.918 10.5 1.125V9.375C10.5 9.582 10.6687 9.75 10.875 9.75H16.875C17.0812 9.75 17.25 9.582 17.25 9.375V1.125C17.25 0.918 17.0812 0.75 16.875 0.75H10.875Z" fill="#549A9F"/>
</svg>
