<svg width="14" height="14" viewBox="0 0 14 14" fill="none" xmlns="http://www.w3.org/2000/svg">
<path d="M7 10.4858C7.16861 10.4858 7.30996 10.4288 7.42405 10.3147C7.53814 10.2006 7.59518 10.0592 7.59518 9.89063C7.59518 9.72202 7.53814 9.58067 7.42405 9.46658C7.30996 9.35261 7.16861 9.29563 7 9.29563C6.83139 9.29563 6.69004 9.35261 6.57595 9.46658C6.46186 9.58067 6.40482 9.72202 6.40482 9.89063C6.40482 10.0592 6.46186 10.2006 6.57595 10.3147C6.69004 10.4288 6.83139 10.4858 7 10.4858ZM7.00018 7.79358C7.15689 7.79358 7.28811 7.74059 7.39384 7.63461C7.4997 7.52875 7.55263 7.39753 7.55263 7.24095V3.92516C7.55263 3.76858 7.49964 3.6373 7.39366 3.53132C7.28768 3.42546 7.15639 3.37253 6.99982 3.37253C6.84311 3.37253 6.71189 3.42546 6.60616 3.53132C6.5003 3.6373 6.44737 3.76858 6.44737 3.92516V7.24095C6.44737 7.39753 6.50036 7.52875 6.60634 7.63461C6.71233 7.74059 6.84361 7.79358 7.00018 7.79358ZM7.00129 14C6.03308 14 5.12302 13.8163 4.2711 13.4488C3.41919 13.0814 2.67818 12.5827 2.04805 11.9529C1.41793 11.323 0.919026 10.5823 0.551342 9.73074C0.183781 8.87919 0 7.96938 0 7.00129C0 6.03308 0.183719 5.12302 0.551158 4.2711C0.918596 3.41919 1.41725 2.67818 2.04713 2.04805C2.67701 1.41793 3.41772 0.919026 4.26926 0.551342C5.12081 0.183781 6.03062 0 6.99871 0C7.96692 0 8.87698 0.183719 9.7289 0.551158C10.5808 0.918596 11.3218 1.41725 11.9519 2.04713C12.5821 2.67701 13.081 3.41772 13.4487 4.26926C13.8162 5.12081 14 6.03062 14 6.99871C14 7.96692 13.8163 8.87698 13.4488 9.7289C13.0814 10.5808 12.5827 11.3218 11.9529 11.9519C11.323 12.5821 10.5823 13.081 9.73074 13.4487C8.87919 13.8162 7.96938 14 7.00129 14ZM7 12.8947C8.64561 12.8947 10.0395 12.3237 11.1816 11.1816C12.3237 10.0395 12.8947 8.64561 12.8947 7C12.8947 5.35439 12.3237 3.96053 11.1816 2.81842C10.0395 1.67632 8.64561 1.10526 7 1.10526C5.35439 1.10526 3.96053 1.67632 2.81842 2.81842C1.67632 3.96053 1.10526 5.35439 1.10526 7C1.10526 8.64561 1.67632 10.0395 2.81842 11.1816C3.96053 12.3237 5.35439 12.8947 7 12.8947Z" fill="#EA2251"/>
</svg>
