<svg width="16" height="16" viewBox="0 0 16 16" fill="none" xmlns="http://www.w3.org/2000/svg">
<path d="M7.1235 6.9652L5.09409 8.99461C4.93703 9.1515 4.75067 9.22898 4.53503 9.22704C4.31922 9.22493 4.12943 9.14209 3.96568 8.97851C3.81283 8.81476 3.73368 8.62937 3.72823 8.42235C3.72278 8.21533 3.80193 8.02994 3.96568 7.86619L7.24724 4.58463C7.34609 4.48578 7.4503 4.41613 7.55988 4.37568C7.66946 4.33504 7.78783 4.31473 7.915 4.31473C8.04217 4.31473 8.16054 4.33504 8.27012 4.37568C8.3797 4.41613 8.48391 4.48578 8.58276 4.58463L11.8643 7.86619C12.0212 8.02326 12.0987 8.20698 12.0968 8.41734C12.0946 8.6277 12.0172 8.81476 11.8643 8.97851C11.7006 9.14209 11.5125 9.2266 11.3002 9.23206C11.0878 9.23751 10.8997 9.15836 10.7359 8.99461L8.7065 6.9652V15.0385C8.7065 15.2631 8.63069 15.4511 8.47908 15.6026C8.32764 15.7542 8.13961 15.83 7.915 15.83C7.69039 15.83 7.50236 15.7542 7.35092 15.6026C7.19931 15.4511 7.1235 15.2631 7.1235 15.0385V6.9652ZM0 3.97782V1.90778C0 1.37466 0.184683 0.923417 0.55405 0.55405C0.923417 0.184683 1.37466 0 1.90778 0H13.9222C14.4553 0 14.9066 0.184683 15.276 0.55405C15.6453 0.923417 15.83 1.37466 15.83 1.90778V3.97782C15.83 4.20243 15.7542 4.39045 15.6026 4.54189C15.4511 4.69351 15.2631 4.76932 15.0385 4.76932C14.8139 4.76932 14.6259 4.69351 14.4744 4.54189C14.3228 4.39045 14.247 4.20243 14.247 3.97782V1.90778C14.247 1.82652 14.2131 1.75212 14.1454 1.68458C14.0779 1.61686 14.0035 1.583 13.9222 1.583H1.90778C1.82652 1.583 1.75212 1.61686 1.68458 1.68458C1.61686 1.75212 1.583 1.82652 1.583 1.90778V3.97782C1.583 4.20243 1.50719 4.39045 1.35558 4.54189C1.20414 4.69351 1.01611 4.76932 0.7915 4.76932C0.56689 4.76932 0.378865 4.69351 0.227424 4.54189C0.075808 4.39045 0 4.20243 0 3.97782Z" fill="white"/>
</svg>
