<svg width="14" height="14" viewBox="0 0 14 14" fill="none" xmlns="http://www.w3.org/2000/svg">
<path d="M10.7274 1.98742C10.7335 1.98786 10.7396 1.98831 10.7458 1.98831C10.7563 1.98831 10.7668 1.98742 10.7771 1.98598C11.0528 1.99163 11.2734 2.21646 11.2737 2.49212C11.2737 2.61738 11.3753 2.71894 11.5006 2.71894C11.6258 2.71894 11.7274 2.61738 11.7274 2.49212C11.7268 2.04125 11.4129 1.65118 10.9726 1.55416V1.3362C10.9726 1.21094 10.871 1.10938 10.7458 1.10938C10.6205 1.10938 10.519 1.21094 10.519 1.3362V1.56446C10.0533 1.68894 9.7521 2.13937 9.8149 2.61727C9.87769 3.09517 10.285 3.45245 10.767 3.45245C11.0469 3.45245 11.2737 3.67939 11.2737 3.95926C11.2737 4.23902 11.0469 4.46595 10.767 4.46595C10.4872 4.46595 10.2603 4.23902 10.2603 3.95926C10.2603 3.834 10.1588 3.73244 10.0335 3.73244C9.90826 3.73244 9.8067 3.834 9.8067 3.95926C9.80726 4.39385 10.0992 4.77406 10.519 4.88692V5.13545C10.519 5.26071 10.6205 5.36227 10.7458 5.36227C10.871 5.36227 10.9726 5.26071 10.9726 5.13545V4.89733C11.4516 4.79245 11.7747 4.34346 11.7218 3.85593C11.6691 3.36839 11.2574 2.99892 10.767 2.99903C10.4949 2.99914 10.2713 2.78428 10.2606 2.51239C10.2499 2.24049 10.456 2.00869 10.7274 1.98753V1.98742Z" fill="#201E43"/>
<path d="M10.7799 0C9.3845 0 8.19369 0.910496 7.74758 2.12966H2.11792C1.99321 2.12966 1.89198 2.24207 1.8911 2.36667L1.83749 10.3236H0.232802C0.107541 10.3236 0 10.4143 0 10.5398V11.5495C0.00287955 12.5001 0.751566 13.281 1.70116 13.324V13.329H8.70426V13.3223C8.76096 13.3244 8.78433 13.329 8.82022 13.329H8.82509C9.80791 13.3274 10.6039 12.5302 10.6039 11.5474V6.44214C10.6606 6.44524 10.7206 6.4469 10.7793 6.4469C12.555 6.4469 14 4.99915 14 3.22334C14 1.44765 12.5557 0 10.7799 0ZM1.78743 12.8753H1.78599C1.05226 12.8743 0.456965 12.281 0.453642 11.5472V10.7772H7.03145V11.544C7.03179 12.0173 7.22084 12.4711 7.55664 12.8048C7.58045 12.8286 7.61002 12.847 7.63494 12.8753H1.78743ZM10.1502 11.5472C10.1504 12.2797 9.55727 12.8739 8.82487 12.8753H8.82055C8.08515 12.874 7.48875 12.2795 7.4851 11.5442V10.5398C7.48698 10.4817 7.46483 10.4256 7.42374 10.3846C7.38265 10.3436 7.3265 10.3216 7.26857 10.3236H2.29114L2.34319 2.5833H7.62165C7.58145 2.79096 7.56063 3.00184 7.55952 3.21326C7.55908 3.66037 7.65233 4.10249 7.8333 4.51128H5.69091C5.56553 4.51128 5.46408 4.61284 5.46408 4.7381C5.46408 4.86336 5.56553 4.96492 5.69091 4.96492H8.07939C8.54732 5.70076 9.29535 6.21377 10.1502 6.38543V11.5472ZM10.7799 5.99337C9.25193 5.99337 8.01316 4.75471 8.01327 3.22666C8.01327 1.69861 9.25193 0.459955 10.78 0.459955C12.3079 0.459955 13.5466 1.69872 13.5466 3.22666C13.5449 4.75394 12.3073 5.99171 10.7799 5.99337Z" fill="#201E43"/>
<path d="M4.23477 6.02051C3.8344 6.02051 3.50879 6.33582 3.50879 6.72345C3.50879 7.11109 3.8344 7.4264 4.23477 7.4264C4.63514 7.4264 4.96086 7.11109 4.96086 6.72345C4.96086 6.33582 4.63514 6.02051 4.23477 6.02051ZM4.23477 6.97276C4.08448 6.97276 3.96243 6.8609 3.96243 6.72345C3.96243 6.5859 4.08459 6.47415 4.23477 6.47415C4.38495 6.47415 4.50722 6.58601 4.50722 6.72345C4.50722 6.8609 4.38495 6.97276 4.23477 6.97276Z" fill="#201E43"/>
<path d="M5.46387 6.72291C5.46387 6.84818 5.56532 6.94974 5.69069 6.94974H8.71467C8.83994 6.94974 8.9415 6.84818 8.9415 6.72291C8.9415 6.59765 8.83994 6.49609 8.71467 6.49609H5.69069C5.56532 6.49609 5.46387 6.59765 5.46387 6.72291Z" fill="#201E43"/>
<path d="M4.23477 4.04883C3.8344 4.04883 3.50879 4.36425 3.50879 4.75188C3.50879 5.13952 3.8344 5.45483 4.23477 5.45483C4.63514 5.45483 4.96086 5.13952 4.96086 4.75188C4.96086 4.36425 4.63514 4.04883 4.23477 4.04883ZM4.23477 5.00119C4.08448 5.00119 3.96243 4.88933 3.96243 4.75188C3.96243 4.61444 4.08459 4.50247 4.23477 4.50247C4.38495 4.50247 4.50722 4.61433 4.50722 4.75188C4.50722 4.88933 4.38495 5.0013 4.23477 5.0013V5.00119Z" fill="#201E43"/>
<path d="M4.23477 7.99219C3.8344 7.99219 3.50879 8.3075 3.50879 8.69513C3.50879 9.08277 3.8344 9.39808 4.23477 9.39808C4.63514 9.39808 4.96086 9.08277 4.96086 8.69513C4.96086 8.3075 4.63514 7.99219 4.23477 7.99219ZM4.23477 8.94444C4.08448 8.94444 3.96243 8.83269 3.96243 8.69513C3.96243 8.55769 4.08459 8.44583 4.23477 8.44583C4.38495 8.44583 4.50722 8.55769 4.50722 8.69513C4.50722 8.83258 4.38495 8.94444 4.23477 8.94444Z" fill="#201E43"/>
<path d="M8.71467 8.48047H5.69069C5.56532 8.48047 5.46387 8.58203 5.46387 8.70729C5.46387 8.83255 5.56532 8.93411 5.69069 8.93411H8.71467C8.83994 8.93411 8.9415 8.83255 8.9415 8.70729C8.9415 8.58203 8.83994 8.48047 8.71467 8.48047Z" fill="#201E43"/>
</svg>
