<svg width="16" height="24" viewBox="0 0 16 24" fill="none" xmlns="http://www.w3.org/2000/svg">
<path d="M1.81864 23.9332L2.95859 23.0138L4.09853 23.9332C4.20881 24.0211 4.36411 24.0211 4.47439 23.9332L5.61434 23.0138L6.75429 23.9332C6.86457 24.0223 7.02212 24.0223 7.1324 23.9332L8.27234 23.0138L9.41229 23.9332H9.41341C9.52257 24.0211 9.67899 24.0211 9.78815 23.9332L11.1172 22.8605H11.1183C11.1881 22.8031 11.2297 22.7163 11.2286 22.6261L11.25 18.4706H14.1994C15.1941 18.4706 15.9999 17.6627 15.9999 16.6678V0.309034C16.0033 0.189595 15.9357 0.079168 15.8277 0.0284629C15.7197 -0.0222422 15.5914 -0.00421359 15.5025 0.0746623L14.3625 0.997496L13.2305 0.0746623C13.1202 -0.0143529 12.9626 -0.0143529 12.8523 0.0746623L11.7124 0.997496L10.5713 0.0746623C10.4622 -0.0132279 10.3058 -0.0132279 10.1966 0.0746623L9.05665 0.997496L7.91558 0.0746623C7.80529 -0.0143529 7.64775 -0.0143529 7.53747 0.0746623L6.39977 0.997496L5.25982 0.0746623C5.17092 0.00141999 5.04713 -0.0132281 4.94247 0.036352C4.83669 0.0859322 4.77029 0.192976 4.77142 0.309034V8.74412H1.46969C1.08257 8.74412 0.711227 8.89285 0.432131 9.16103C0.154177 9.43596 -0.00111747 9.81005 6.05415e-06 10.2011V22.6261C6.05415e-06 22.7174 0.0416431 22.803 0.113664 22.8605L1.44043 23.9332C1.55071 24.0222 1.70836 24.0223 1.81864 23.9332ZM5.37128 0.93767L6.19952 1.61601C6.30868 1.7039 6.4651 1.7039 6.57426 1.61601L7.71421 0.693173L8.85416 1.61601H8.85528C8.96556 1.70615 9.12311 1.70615 9.23339 1.61601L10.4004 0.694298L11.5403 1.61713L11.5414 1.61601C11.6506 1.7039 11.807 1.7039 11.9162 1.61601L13.0561 0.693171L14.1961 1.61601H14.1972C14.3075 1.70615 14.465 1.70615 14.5753 1.61601L15.4159 0.936543L15.4148 16.6676C15.4148 16.9865 15.2888 17.2918 15.0637 17.5172C14.8386 17.7425 14.5337 17.8688 14.2152 17.8688H5.05615C5.26096 17.6028 5.37126 17.2761 5.37126 16.9403L5.37128 0.93767ZM2.62887 9.35141H4.77149V16.9404C4.77149 17.4531 4.35625 17.8689 3.84421 17.8689C3.3322 17.8689 2.91693 17.4531 2.91693 16.9404V10.2012C2.91468 9.89247 2.81452 9.59161 2.62885 9.34483L2.62887 9.35141ZM0.599902 10.201C0.604403 9.7221 0.994894 9.33788 1.47314 9.34125C1.94015 9.35252 2.31377 9.73338 2.31602 10.201V16.9402C2.31827 17.7842 3.00134 18.4682 3.84421 18.4704H10.6502L10.6322 22.4817L9.60026 23.3144L8.46256 22.3916C8.35228 22.3014 8.19474 22.3014 8.08446 22.3916L6.94451 23.3144L5.80456 22.3916H5.80344C5.69428 22.3037 5.53786 22.3037 5.4287 22.3916L4.28875 23.3144L3.14881 22.3916H3.14768C3.0374 22.3014 2.87985 22.3014 2.76957 22.3916L1.62962 23.3144L0.599957 22.4817L0.599902 10.201ZM6.76114 3.68041C6.76114 3.51478 6.89506 3.38068 7.06049 3.38068H13.8642C14.0296 3.38068 14.1635 3.51476 14.1635 3.68041C14.1635 3.84718 14.0296 3.98127 13.8642 3.98127H7.06049C6.89619 3.98127 6.76227 3.84831 6.76114 3.68382V3.68041ZM6.76114 5.18241V5.18354C6.76114 5.01678 6.89506 4.88268 7.06049 4.88268H13.8642C14.0296 4.88268 14.1635 5.01677 14.1635 5.18354C14.1635 5.34918 14.0296 5.48328 13.8642 5.48328H7.06049C6.89619 5.48328 6.76227 5.35144 6.76114 5.18582V5.18241ZM6.76114 6.68441V6.68554C6.76114 6.5199 6.89506 6.38468 7.06049 6.38468H13.8642C14.0296 6.38468 14.1635 6.51989 14.1635 6.68554C14.1635 6.85119 14.0296 6.9864 13.8642 6.9864H7.06049C6.89619 6.9864 6.76227 6.85344 6.76114 6.68894V6.68441ZM6.76114 8.18641V8.18754C6.76114 8.0219 6.89506 7.8878 7.06049 7.8878H13.8642C14.0296 7.8878 14.1635 8.02189 14.1635 8.18754C14.1635 8.3543 14.0296 8.4884 13.8642 8.4884H7.06049C6.89619 8.4884 6.76227 8.35544 6.76114 8.19094V8.18641ZM14.1646 11.1916L14.1635 11.1927C14.1635 11.2727 14.132 11.3493 14.0757 11.4057C14.0194 11.462 13.9429 11.4935 13.8641 11.4935H9.12199C8.95657 11.4935 8.82265 11.3583 8.82265 11.1927C8.82265 11.027 8.95656 10.8918 9.12199 10.8918H13.8641C13.944 10.8918 14.0206 10.9245 14.0768 10.9808C14.1331 11.0383 14.1646 11.1149 14.1635 11.1961L14.1646 11.1916ZM14.1646 12.6936L14.1635 12.6947C14.1635 12.7747 14.132 12.8513 14.0757 12.9077C14.0194 12.964 13.9429 12.9955 13.8641 12.9955H9.12199C8.95657 12.9955 8.82265 12.8615 8.82265 12.6947C8.82265 12.529 8.95656 12.3949 9.12199 12.3949H13.8641C13.944 12.3949 14.0206 12.4265 14.0768 12.484C14.1331 12.5403 14.1646 12.618 14.1635 12.6981L14.1646 12.6936ZM14.1646 14.1956L14.1635 14.1978C14.1635 14.2767 14.132 14.3533 14.0757 14.4097C14.0194 14.466 13.9429 14.4975 13.8641 14.4975H9.12199C8.95657 14.4975 8.82265 14.3635 8.82265 14.1978C8.82265 14.031 8.95656 13.8969 9.12199 13.8969H13.8641C13.944 13.8969 14.0206 13.9285 14.0768 13.986C14.1331 14.0434 14.1646 14.12 14.1635 14.2001L14.1646 14.1956ZM14.1646 15.6976L14.1635 15.6998C14.1635 15.7798 14.132 15.8564 14.0757 15.9128C14.0194 15.9691 13.9429 16.0007 13.8641 16.0007H9.12199C8.95657 16.0007 8.82265 15.8655 8.82265 15.6998C8.82265 15.5342 8.95656 15.3989 9.12199 15.3989H13.8641C13.944 15.3989 14.0206 15.4316 14.0768 15.488C14.1331 15.5454 14.1646 15.622 14.1635 15.7032L14.1646 15.6976ZM6.76114 11.1904V11.1927C6.76114 11.027 6.89506 10.8918 7.06049 10.8918H7.87073C8.03727 10.8918 8.1712 11.027 8.1712 11.1927C8.1712 11.3583 8.03728 11.4935 7.87073 11.4935H7.06049C6.89619 11.4935 6.76227 11.3606 6.76114 11.1961V11.1904ZM6.76114 12.6924V12.6947C6.76114 12.529 6.89506 12.3949 7.06049 12.3949H7.87073C8.03727 12.3949 8.1712 12.529 8.1712 12.6947C8.1712 12.8614 8.03728 12.9955 7.87073 12.9955H7.06049C6.89619 12.9955 6.76227 12.8626 6.76114 12.6981V12.6924ZM6.76114 14.1944V14.1978C6.76114 14.031 6.89506 13.8969 7.06049 13.8969H7.87073C8.03727 13.8969 8.1712 14.031 8.1712 14.1978C8.1712 14.3634 8.03728 14.4975 7.87073 14.4975H7.06049C6.89619 14.4975 6.76227 14.3657 6.76114 14.2001V14.1944ZM6.76114 15.6964V15.6998C6.76114 15.5342 6.89506 15.3989 7.06049 15.3989H7.87073C8.03727 15.3989 8.1712 15.5341 8.1712 15.6998C8.1712 15.8654 8.03728 16.0007 7.87073 16.0007H7.06049C6.89619 16.0007 6.76227 15.8677 6.76114 15.7032V15.6964Z" fill="#1B3843"/>
</svg>
