<svg width="16" height="16" viewBox="0 0 16 16" fill="none" xmlns="http://www.w3.org/2000/svg">
<path d="M12.1796 7.99058C12.1427 7.99079 12.1062 7.98201 12.0734 7.965L8.54693 6.26475C8.50584 6.24487 8.47114 6.21386 8.44679 6.17525C8.42244 6.13663 8.40941 6.09196 8.40918 6.04631V2.24239C8.40935 2.20114 8.4199 2.1606 8.43984 2.12449C8.45979 2.08839 8.48849 2.05787 8.52332 2.03576C8.55649 2.01647 8.59377 2.00533 8.63209 2.00328C8.67042 2.00122 8.70868 2.00831 8.74372 2.02396L12.2859 3.72224C12.327 3.74212 12.3617 3.77313 12.3861 3.81174C12.4104 3.85036 12.4234 3.89503 12.4237 3.94068V7.74656C12.4221 7.78617 12.4108 7.82479 12.3909 7.85907C12.371 7.89336 12.3431 7.92229 12.3095 7.94335C12.2714 7.97071 12.2265 7.98705 12.1796 7.99058ZM8.88934 5.88691L11.9356 7.35299V4.09811L8.88934 2.63007V5.88691Z" fill="#201E43"/>
<path d="M12.1796 4.18544C12.1429 4.18534 12.1067 4.17729 12.0734 4.16182L8.54693 2.46157C8.50554 2.44155 8.47064 2.41023 8.44627 2.37124C8.4219 2.33224 8.40904 2.28715 8.40918 2.24117C8.40918 2.19547 8.42212 2.1507 8.44649 2.11205C8.47087 2.07339 8.50569 2.04243 8.54693 2.02273L12.0891 0.32445C12.122 0.308865 12.158 0.300781 12.1944 0.300781C12.2308 0.300781 12.2668 0.308865 12.2997 0.32445L15.8419 2.0247C15.8833 2.04473 15.9182 2.07604 15.9425 2.11504C15.9669 2.15403 15.9798 2.19912 15.9796 2.24511C15.979 2.29246 15.9642 2.33853 15.9372 2.37744C15.9102 2.41635 15.8722 2.44633 15.8281 2.46354L12.2859 4.16182C12.2526 4.17729 12.2164 4.18534 12.1796 4.18544ZM9.20814 2.24117L12.1796 3.67182L15.1531 2.24511L12.1816 0.814453L9.20814 2.24117Z" fill="#201E43"/>
<path d="M12.1805 7.9903C12.1347 7.98971 12.0898 7.97679 12.0507 7.95291C12.0171 7.93185 11.9891 7.90292 11.9693 7.86863C11.9494 7.83434 11.9381 7.79573 11.9365 7.75612V3.94433C11.9365 3.89863 11.9495 3.85386 11.9738 3.81521C11.9982 3.77655 12.033 3.74559 12.0743 3.7259L15.6165 2.02368C15.6533 2.00564 15.6941 1.99727 15.7351 1.99933C15.776 2.0014 15.8158 2.01384 15.8506 2.03548C15.8855 2.05759 15.9142 2.0881 15.9341 2.12421C15.9541 2.16032 15.9646 2.20086 15.9648 2.24211V6.04603C15.9646 6.09168 15.9515 6.13635 15.9272 6.17496C15.9028 6.21358 15.8681 6.24459 15.827 6.26447L12.2868 7.96472C12.254 7.98173 12.2175 7.99051 12.1805 7.9903ZM12.4246 4.09783V7.35861L15.4708 5.88663V2.62978L12.4246 4.09783Z" fill="#201E43"/>
<path d="M10.413 3.32946C10.3611 3.32446 10.3122 3.30298 10.2734 3.26817C10.2346 3.23336 10.208 3.18705 10.1974 3.13601C10.1869 3.08497 10.1929 3.0319 10.2147 2.98456C10.2365 2.93721 10.2729 2.89809 10.3185 2.87291L13.8607 1.17463C13.9164 1.16035 13.9754 1.16622 14.0272 1.1912C14.0791 1.21618 14.1204 1.25867 14.1439 1.31116C14.1675 1.36366 14.1717 1.42278 14.1559 1.47809C14.1401 1.53341 14.1052 1.58135 14.0575 1.61347L10.5153 3.31175C10.4827 3.32448 10.4479 3.33051 10.413 3.32946Z" fill="#201E43"/>
<path d="M10.887 5.00338C10.8503 5.00311 10.8141 4.99506 10.7807 4.97977L9.73776 4.47796C9.70654 4.46569 9.67819 4.44711 9.65447 4.4234C9.63076 4.39968 9.61219 4.37132 9.59992 4.34011C9.58765 4.30889 9.58195 4.27548 9.58317 4.24196C9.58439 4.20844 9.59251 4.17553 9.60702 4.14529C9.62153 4.11505 9.64212 4.08813 9.6675 4.0662C9.69288 4.04427 9.72252 4.02781 9.75454 4.01785C9.78657 4.00789 9.82031 4.00463 9.85365 4.00829C9.88699 4.01195 9.91922 4.02245 9.94832 4.03912L10.9933 4.54093C11.0423 4.56535 11.0817 4.60557 11.1051 4.65511C11.1286 4.70464 11.1346 4.76062 11.1223 4.81403C11.1101 4.86743 11.0802 4.91515 11.0375 4.9495C10.9948 4.98385 10.9418 5.00283 10.887 5.00338Z" fill="#201E43"/>
<path d="M7.01219 3.56892H4.06036C3.99754 3.56739 3.93777 3.54148 3.8937 3.49668C3.84963 3.45187 3.82471 3.39168 3.82422 3.32884V1.12284C3.82422 1.05812 3.84993 0.996057 3.89569 0.950295C3.94145 0.904533 4.00352 0.878824 4.06824 0.878824H5.17419C5.34154 0.599573 5.58118 0.370676 5.8678 0.216288C6.15442 0.0618995 6.47741 -0.0122546 6.80267 0.00165069C7.12793 0.015556 7.44341 0.117005 7.71581 0.295292C7.98822 0.473579 8.20744 0.722093 8.35035 1.01461C8.37574 1.0721 8.37797 1.13718 8.35657 1.19627C8.33517 1.25537 8.29179 1.30393 8.23547 1.33183C8.17915 1.35974 8.11424 1.36484 8.05426 1.34607C7.99428 1.3273 7.94385 1.2861 7.91348 1.23108C7.80507 1.00781 7.63601 0.819562 7.42564 0.687856C7.21528 0.55615 6.97209 0.486303 6.7239 0.486303C6.4757 0.486303 6.23252 0.55615 6.02215 0.687856C5.81178 0.819562 5.64272 1.00781 5.53431 1.23108C5.51453 1.2721 5.48349 1.30664 5.44481 1.33069C5.40613 1.35473 5.36141 1.36727 5.31587 1.36686H4.31225V3.08089H7.01219C7.07691 3.08089 7.13898 3.1066 7.18474 3.15236C7.2305 3.19812 7.25621 3.26019 7.25621 3.3249C7.25621 3.38962 7.2305 3.45169 7.18474 3.49745C7.13898 3.54321 7.07691 3.56892 7.01219 3.56892Z" fill="#201E43"/>
<path d="M11.9262 15.9069H1.18749C1.1557 15.9069 1.12423 15.9007 1.09486 15.8885C1.0655 15.8763 1.03881 15.8585 1.01634 15.836C0.993859 15.8136 0.97603 15.7869 0.963866 15.7575C0.951701 15.7281 0.945441 15.6967 0.945441 15.6649V2.00384C0.944385 1.97139 0.949865 1.93907 0.961556 1.90879C0.973247 1.87851 0.990909 1.85089 1.01349 1.82757C1.03607 1.80425 1.06311 1.78572 1.09301 1.77306C1.1229 1.76041 1.15503 1.7539 1.18749 1.75391H4.06847C4.10223 1.75087 4.13624 1.7549 4.16836 1.76573C4.20047 1.77656 4.22997 1.79396 4.25499 1.81683C4.28001 1.83969 4.29998 1.86752 4.31365 1.89853C4.32732 1.92954 4.33438 1.96306 4.33438 1.99695C4.33438 2.03084 4.32732 2.06436 4.31365 2.09537C4.29998 2.12638 4.28001 2.1542 4.25499 2.17707C4.22997 2.19993 4.20047 2.21733 4.16836 2.22817C4.13624 2.239 4.10223 2.24302 4.06847 2.23998H1.43151V15.4248H11.9262C12.1929 15.4248 12.4487 15.3189 12.6373 15.1303C12.8259 14.9417 12.9318 14.6859 12.9318 14.4192V8.72219C12.9288 8.68844 12.9328 8.65442 12.9436 8.62231C12.9545 8.5902 12.9719 8.56069 12.9947 8.53568C13.0176 8.51066 13.0454 8.49068 13.0764 8.47701C13.1074 8.46334 13.141 8.45628 13.1749 8.45628C13.2087 8.45628 13.2423 8.46334 13.2733 8.47701C13.3043 8.49068 13.3321 8.51066 13.355 8.53568C13.3778 8.56069 13.3952 8.5902 13.4061 8.62231C13.4169 8.65442 13.4209 8.68844 13.4179 8.72219V14.4153C13.4174 14.8107 13.26 15.1898 12.9804 15.4695C12.7008 15.7491 12.3217 15.9064 11.9262 15.9069Z" fill="#201E43"/>
<path d="M3.72778 8.94675H3.71794C3.67901 8.94617 3.64079 8.93621 3.60653 8.91771C3.57227 8.89921 3.54298 8.87272 3.52115 8.84049L2.98982 8.06907C2.96453 8.0439 2.94508 8.01349 2.93282 7.97998C2.92056 7.94647 2.9158 7.91068 2.91888 7.87513C2.92195 7.83958 2.93278 7.80514 2.95061 7.77424C2.96843 7.74333 2.99282 7.7167 3.02205 7.69624C3.05128 7.67578 3.08464 7.66198 3.11979 7.65581C3.15493 7.64964 3.191 7.65125 3.22545 7.66053C3.2599 7.66981 3.2919 7.68653 3.31919 7.70952C3.34648 7.73251 3.3684 7.7612 3.3834 7.79357L3.72974 8.29735L4.87702 6.89818C4.89629 6.8706 4.92106 6.84731 4.94977 6.82976C4.97848 6.81221 5.01051 6.80079 5.04385 6.79621C5.07719 6.79164 5.11111 6.794 5.14348 6.80317C5.17586 6.81233 5.20599 6.82809 5.23199 6.84946C5.25798 6.87082 5.27927 6.89733 5.29453 6.92733C5.30979 6.95732 5.31868 6.99014 5.32064 7.02373C5.3226 7.05732 5.3176 7.09095 5.30594 7.12252C5.29428 7.15408 5.27621 7.18289 5.25289 7.20714L3.91669 8.8582C3.89344 8.8857 3.86452 8.90785 3.83192 8.92313C3.79931 8.93842 3.76379 8.94647 3.72778 8.94675Z" fill="#201E43"/>
<path d="M3.72795 11.371H3.71811C3.67928 11.37 3.64124 11.3598 3.60705 11.3413C3.57287 11.3229 3.5435 11.2967 3.52132 11.2648L2.98999 10.4953C2.96517 10.4701 2.94613 10.4398 2.9342 10.4064C2.92227 10.3731 2.91773 10.3376 2.9209 10.3023C2.92408 10.2671 2.93488 10.2329 2.95257 10.2023C2.97026 10.1716 2.9944 10.1451 3.02334 10.1247C3.05227 10.1044 3.08529 10.0905 3.12011 10.0841C3.15494 10.0778 3.19073 10.0791 3.225 10.0879C3.25927 10.0968 3.29121 10.113 3.31859 10.1354C3.34597 10.1579 3.36814 10.186 3.38357 10.2178L3.72992 10.7216L4.87719 9.32049C4.91764 9.26882 4.97696 9.23534 5.0421 9.2274C5.10723 9.21947 5.17285 9.23773 5.22452 9.27818C5.27619 9.31863 5.30968 9.37795 5.31761 9.44309C5.32555 9.50822 5.30728 9.57384 5.26683 9.62551L3.91686 11.2766C3.89437 11.3054 3.86574 11.3288 3.83306 11.3451C3.80038 11.3614 3.76448 11.3703 3.72795 11.371Z" fill="#201E43"/>
<path d="M3.72795 13.7964H3.71811C3.67932 13.7962 3.64116 13.7866 3.60689 13.7684C3.57262 13.7502 3.54326 13.7241 3.52132 13.6921L2.98999 12.9226C2.96517 12.8974 2.94613 12.8671 2.9342 12.8337C2.92227 12.8004 2.91773 12.7649 2.9209 12.7296C2.92408 12.6944 2.93488 12.6602 2.95257 12.6296C2.97026 12.5989 2.9944 12.5724 3.02334 12.552C3.05227 12.5317 3.08529 12.5178 3.12011 12.5114C3.15494 12.5051 3.19073 12.5064 3.225 12.5152C3.25927 12.5241 3.29121 12.5403 3.31859 12.5627C3.34597 12.5852 3.36814 12.6133 3.38357 12.6451L3.72992 13.1489L4.87719 11.7478C4.89647 11.7202 4.92124 11.6969 4.94995 11.6794C4.97866 11.6618 5.01069 11.6504 5.04402 11.6458C5.07736 11.6412 5.11128 11.6436 5.14366 11.6528C5.17603 11.6619 5.20617 11.6777 5.23216 11.6991C5.25815 11.7204 5.27945 11.7469 5.2947 11.7769C5.30996 11.8069 5.31885 11.8397 5.32081 11.8733C5.32277 11.9069 5.31777 11.9406 5.30611 11.9721C5.29445 12.0037 5.27639 12.0325 5.25306 12.0568L3.90309 13.7078C3.88154 13.7338 3.85486 13.7551 3.82473 13.7703C3.7946 13.7855 3.76166 13.7944 3.72795 13.7964Z" fill="#201E43"/>
<path d="M9.62173 8.947H6.21138C6.1507 8.94154 6.09426 8.91357 6.05315 8.8686C6.01205 8.82362 5.98926 8.7649 5.98926 8.70397C5.98926 8.64304 6.01205 8.58432 6.05315 8.53935C6.09426 8.49437 6.1507 8.4664 6.21138 8.46094H9.62173C9.68241 8.4664 9.73885 8.49437 9.77996 8.53935C9.82106 8.58432 9.84385 8.64304 9.84385 8.70397C9.84385 8.7649 9.82106 8.82362 9.77996 8.8686C9.73885 8.91357 9.68241 8.94154 9.62173 8.947Z" fill="#201E43"/>
<path d="M11.283 11.1511H6.21179C6.14707 11.1511 6.08501 11.1254 6.03924 11.0797C5.99348 11.0339 5.96777 10.9718 5.96777 10.9071C5.96777 10.8424 5.99348 10.7803 6.03924 10.7346C6.08501 10.6888 6.14707 10.6631 6.21179 10.6631H11.283C11.3477 10.6631 11.4098 10.6888 11.4556 10.7346C11.5013 10.7803 11.527 10.8424 11.527 10.9071C11.527 10.9718 11.5013 11.0339 11.4556 11.0797C11.4098 11.1254 11.3477 11.1511 11.283 11.1511Z" fill="#201E43"/>
<path d="M11.2826 13.3533H6.21138C6.1507 13.3478 6.09426 13.3198 6.05315 13.2749C6.01205 13.2299 5.98926 13.1712 5.98926 13.1102C5.98926 13.0493 6.01205 12.9906 6.05315 12.9456C6.09426 12.9006 6.1507 12.8727 6.21138 12.8672H11.2826C11.3164 12.8642 11.3504 12.8682 11.3825 12.879C11.4146 12.8898 11.4441 12.9072 11.4691 12.9301C11.4942 12.953 11.5141 12.9808 11.5278 13.0118C11.5415 13.0428 11.5485 13.0763 11.5485 13.1102C11.5485 13.1441 11.5415 13.1776 11.5278 13.2086C11.5141 13.2397 11.4942 13.2675 11.4691 13.2903C11.4441 13.3132 11.4146 13.3306 11.3825 13.3414C11.3504 13.3523 11.3164 13.3563 11.2826 13.3533Z" fill="#201E43"/>
</svg>
