<svg width="22" height="22" viewBox="0 0 22 22" fill="none" xmlns="http://www.w3.org/2000/svg">
<path d="M15.5833 19.25H6.41662C2.74995 19.25 1.83328 18.3333 1.83328 14.6667V7.33333C1.83328 3.66667 2.74995 2.75 6.41662 2.75H15.5833C19.2499 2.75 20.1666 3.66667 20.1666 7.33333V14.6667C20.1666 18.3333 19.2499 19.25 15.5833 19.25Z" stroke="#356475" stroke-width="1.5" stroke-linecap="round" stroke-linejoin="round"/>
<path d="M12.8333 7.33301H17.4166" stroke="#356475" stroke-width="1.5" stroke-linecap="round" stroke-linejoin="round"/>
<path d="M13.75 11H17.4167" stroke="#356475" stroke-width="1.5" stroke-linecap="round" stroke-linejoin="round"/>
<path d="M15.5833 14.667H17.4166" stroke="#356475" stroke-width="1.5" stroke-linecap="round" stroke-linejoin="round"/>
<path d="M7.79175 10.3496C8.70808 10.3496 9.45092 9.60675 9.45092 8.69042C9.45092 7.77408 8.70808 7.03125 7.79175 7.03125C6.87542 7.03125 6.13258 7.77408 6.13258 8.69042C6.13258 9.60675 6.87542 10.3496 7.79175 10.3496Z" stroke="#356475" stroke-width="1.5" stroke-linecap="round" stroke-linejoin="round"/>
<path d="M10.9999 14.9691C10.8716 13.6399 9.81745 12.5949 8.48828 12.4758C8.02995 12.4299 7.56245 12.4299 7.09495 12.4758C5.76578 12.6041 4.71162 13.6399 4.58328 14.9691" stroke="#356475" stroke-width="1.5" stroke-linecap="round" stroke-linejoin="round"/>
</svg>
