<svg width="151" height="52" viewBox="0 0 151 52" fill="none" xmlns="http://www.w3.org/2000/svg">
<path d="M56.2196 28.7682C59.7991 28.7682 61.931 27.0613 61.931 24.1588C61.931 21.0402 59.3526 20.3632 57.4368 19.859C56.2988 19.5493 55.3841 19.3188 55.3841 18.6634C55.3841 18.2745 55.6578 18.044 56.1188 18.044C56.6085 18.044 56.875 18.3321 56.875 18.8579H61.4485C61.4485 16.085 59.4678 14.4429 56.1188 14.4429C52.7121 14.4429 50.717 16.049 50.717 18.7354C50.717 21.9909 53.1946 22.5887 55.06 23.0568C56.1764 23.3449 57.0911 23.561 57.0911 24.274C57.0911 24.7566 56.7238 25.0302 56.2196 25.0302C55.6578 25.0302 55.2905 24.6845 55.2905 24.0795H50.5442C50.5442 27.0253 52.6545 28.7682 56.2196 28.7682Z" fill="#1679AB"/>
<path d="M70.5635 28.7682C75.209 28.7682 78.306 25.9017 78.306 21.6019C78.306 17.3022 75.209 14.4429 70.5635 14.4429C65.918 14.4429 62.821 17.3022 62.821 21.6019C62.821 25.9017 65.918 28.7682 70.5635 28.7682ZM70.5635 24.6269C68.7989 24.6269 67.6178 23.4241 67.6178 21.6019C67.6178 19.787 68.7989 18.5842 70.5635 18.5842C72.3281 18.5842 73.5092 19.787 73.5092 21.6019C73.5092 23.4241 72.3281 24.6269 70.5635 24.6269Z" fill="#1679AB"/>
<path d="M85.9335 28.7683C89.6931 28.7683 92.2067 26.4852 92.2067 22.9561V14.8247H87.5252V22.9777C87.5252 23.9428 86.9058 24.627 85.9335 24.627C84.9684 24.627 84.349 23.9428 84.349 22.9777V14.8247H79.6603V22.9561C79.6603 26.4852 82.1811 28.7683 85.9335 28.7683Z" fill="#1679AB"/>
<path d="M109.69 30.7777L106.709 26.9821C108.178 25.7289 109.049 23.8707 109.049 21.6019C109.049 17.3022 105.952 14.4429 101.307 14.4429C96.6613 14.4429 93.5643 17.3022 93.5643 21.6019C93.5643 25.9017 96.6613 28.7682 101.307 28.7682C101.869 28.7682 102.43 28.725 102.956 28.653L104.62 30.7777H109.69ZM98.3611 21.6019C98.3611 19.787 99.5422 18.5842 101.307 18.5842C103.071 18.5842 104.253 19.787 104.253 21.6019C104.253 23.4241 103.071 24.6269 101.307 24.6269C99.5422 24.6269 98.3611 23.4241 98.3611 21.6019Z" fill="#1679AB"/>
<path d="M122.773 14.8247V20.9611L118.128 14.8247H114.318V28.3794H118.618V21.991L123.4 28.3794H127.073V14.8247H122.773Z" fill="#1679AB"/>
<path d="M136.329 28.7682C140.974 28.7682 144.071 25.9017 144.071 21.6019C144.071 17.3022 140.974 14.4429 136.329 14.4429C131.683 14.4429 128.586 17.3022 128.586 21.6019C128.586 25.9017 131.683 28.7682 136.329 28.7682ZM136.329 24.6269C134.564 24.6269 133.383 23.4241 133.383 21.6019C133.383 19.787 134.564 18.5842 136.329 18.5842C138.093 18.5842 139.274 19.787 139.274 21.6019C139.274 23.4241 138.093 24.6269 136.329 24.6269Z" fill="#1679AB"/>
<path d="M144.921 15.5015V18.8361H146.823V28.3792H151V15.5015H144.921Z" fill="#1679AB"/>
<path d="M55.1356 38.9737C55.6325 38.628 55.935 38.0662 55.935 37.454C55.935 36.4097 55.0275 35.6318 53.8032 35.6318H50.8718V42.7189H53.8824C55.1212 42.7189 56.1223 41.8114 56.1223 40.6734C56.1223 39.9172 55.755 39.3122 55.1356 38.9737ZM54.4514 37.6917C54.4514 38.131 54.1345 38.4479 53.6591 38.4479H52.3771V36.9427H53.6591C54.1345 36.9427 54.4514 37.2451 54.4514 37.6917ZM53.7383 41.3144H52.3771V39.7227H53.7383C54.2497 39.7227 54.581 40.0612 54.581 40.515C54.581 40.9831 54.2497 41.3144 53.7383 41.3144Z" fill="#1D1D1D"/>
<path d="M61.0718 41.3579C62.6491 39.5429 63.002 38.7795 63.002 37.9656C63.002 36.7196 62.0729 35.8481 60.7477 35.8481C59.4009 35.8481 58.5366 36.734 58.5366 37.9728V38.1241H59.9843V37.9944C59.9843 37.5191 60.294 37.195 60.7765 37.195C61.2303 37.195 61.5472 37.5047 61.5472 37.9728C61.5472 38.6714 61.1799 39.1972 58.407 42.395V42.7119H63.1245V41.3579H61.0718Z" fill="#1D1D1D"/>
<path d="M70.2193 38.9737C70.7163 38.628 71.0188 38.0662 71.0188 37.454C71.0188 36.4097 70.1113 35.6318 68.8869 35.6318H65.9556V42.7189H68.9661C70.2049 42.7189 71.206 41.8114 71.206 40.6734C71.206 39.9172 70.8387 39.3122 70.2193 38.9737ZM69.5351 37.6917C69.5351 38.131 69.2182 38.4479 68.7429 38.4479H67.4608V36.9427H68.7429C69.2182 36.9427 69.5351 37.2451 69.5351 37.6917ZM68.8221 41.3144H67.4608V39.7227H68.8221C69.3334 39.7227 69.6647 40.0612 69.6647 40.515C69.6647 40.9831 69.3334 41.3144 68.8221 41.3144Z" fill="#1D1D1D"/>
<path d="M85.8914 35.625L84.5302 40.3353L82.6216 35.7042H82.1102L80.2448 40.3425L78.8476 35.625H77.2271L79.4526 42.7121H80.821L82.3623 38.7436L83.9396 42.7121H85.308L87.4975 35.625H85.8914Z" fill="#1D1D1D"/>
<path d="M94.174 35.625V38.3547H91.502V35.625H89.9679V42.7121H91.502V39.7879H94.174V42.7121H95.7009V35.625H94.174Z" fill="#1D1D1D"/>
<path d="M102.21 42.8704C104.37 42.8704 105.976 41.2859 105.976 39.1684C105.976 37.0581 104.37 35.4736 102.21 35.4736C100.042 35.4736 98.4211 37.0725 98.4211 39.1684C98.4211 41.2715 100.042 42.8704 102.21 42.8704ZM102.21 41.4227C100.949 41.4227 99.984 40.4432 99.984 39.1684C99.984 37.8936 100.949 36.9213 102.21 36.9213C103.477 36.9213 104.421 37.8792 104.421 39.1684C104.421 40.4504 103.477 41.4227 102.21 41.4227Z" fill="#1D1D1D"/>
<path d="M110.23 41.2932V35.625H108.696V42.7121H112.952V41.2932H110.23Z" fill="#1D1D1D"/>
<path d="M117.033 41.2932V39.8383H119.489V38.4483H117.033V37.0439H119.755V35.625H115.499V42.7121H119.863V41.2932H117.033Z" fill="#1D1D1D"/>
<path d="M125.031 42.8559C126.501 42.8559 127.711 42.114 127.711 40.5871C127.711 38.9954 126.357 38.6641 125.284 38.3904C124.52 38.2032 123.915 38.0519 123.915 37.555C123.915 37.094 124.412 36.878 124.909 36.878C125.485 36.878 125.989 37.166 125.989 37.7782H127.502C127.502 36.3594 126.58 35.4951 124.945 35.4951C123.375 35.4951 122.374 36.2586 122.374 37.6198C122.374 39.1467 123.67 39.4636 124.743 39.7229C125.514 39.8957 126.162 40.047 126.162 40.6087C126.162 41.1345 125.593 41.437 125.017 41.437C124.39 41.437 123.821 41.0985 123.821 40.4215H122.273C122.273 41.9412 123.397 42.8559 125.031 42.8559Z" fill="#1D1D1D"/>
<path d="M135.164 42.7121H136.835L133.968 35.625H132.521L129.734 42.7121H131.368L131.851 41.3724H134.667L135.164 42.7121ZM133.263 37.4976L134.192 40.04H132.326L133.263 37.4976Z" fill="#1D1D1D"/>
<path d="M140.782 41.2932V35.625H139.248V42.7121H143.504V41.2932H140.782Z" fill="#1D1D1D"/>
<path d="M147.585 41.2932V39.8383H150.041V38.4483H147.585V37.0439H150.307V35.625H146.051V42.7121H150.415V41.2932H147.585Z" fill="#1D1D1D"/>
<mask id="mask0_4132_3256" style="mask-type:luminance" maskUnits="userSpaceOnUse" x="0" y="0" width="45" height="52">
<path d="M0 0H44.2509V51.1651H0V0Z" fill="white"/>
</mask>
<g mask="url(#mask0_4132_3256)">
<path fill-rule="evenodd" clip-rule="evenodd" d="M20.9244 47.5873L12.3681 42.6484L3.81358 37.7094L11.7397 33.1323L20.9244 38.435V47.5873ZM23.474 38.435L41.8525 27.8207V35.5019L36.5408 32.4283L34.002 33.8904L40.5831 37.6878L32.0286 42.6268L23.474 47.5873V38.435ZM32.6588 18.1246L23.474 12.8111V3.65876L40.5831 13.5367L32.6588 18.1246ZM41.8525 15.746L44.3913 14.2731V12.8219L43.7521 12.4492L33.298 6.41184L22.833 0.363716L22.1938 0L21.5528 0.363716L11.0987 6.41184L0.644575 12.4492L0.00537109 12.8219V26.3478L0.644575 26.7223L2.54418 27.8207L9.2009 31.6613L2.54418 35.5019L0.00537109 36.973V38.4242L0.644575 38.797L11.0987 44.8343L21.5636 50.8734L22.2046 51.2353L22.8438 50.8734L33.3088 44.8343L43.7629 38.797L44.4021 38.4242V24.8983L41.8633 23.4255L35.2084 19.5848L41.8525 15.746ZM22.2046 15.0096L15.6217 18.807L13.0829 17.3449L20.9352 12.8111V3.65876L12.3789 8.59774L3.81358 13.5475L31.3245 29.4322L28.7857 30.8924L2.55498 15.746V23.4255L7.86667 20.3645L10.4055 21.8247L3.82439 25.624L22.2154 36.2365L40.6047 25.624L22.2046 15.0096Z" fill="#1679AB"/>
</g>
</svg>
