<svg width="48" height="86" viewBox="0 0 48 86" fill="none" xmlns="http://www.w3.org/2000/svg">
<rect opacity="0.12" y="38" width="48" height="48" rx="24" fill="#356475"/>
<rect opacity="0.48" x="14" y="52" width="20" height="20" rx="10" fill="#356475"/>
<path d="M23.9907 0C10.7401 0 0 10.8136 0 24.1548C0 37.496 23.9907 63.1579 23.9907 63.1579C23.9907 63.1579 48 37.4948 48 24.1548C48 10.8149 37.2404 0 23.9907 0Z" fill="url(#paint0_linear_4709_5332)"/>
<mask id="mask0_4709_5332" style="mask-type:luminance" maskUnits="userSpaceOnUse" x="11" y="9" width="26" height="31">
<path d="M11 9H37V39.0625H11V9Z" fill="white"/>
</mask>
<g mask="url(#mask0_4709_5332)">
<path fill-rule="evenodd" clip-rule="evenodd" d="M23.2942 36.9604L18.2669 34.0584L13.2406 31.1565L17.8977 28.4672L23.2942 31.5828V36.9604ZM24.7923 31.5828L35.5907 25.3463V29.8595L32.4698 28.0535L30.9781 28.9126L34.8448 31.1438L29.8186 34.0457L24.7923 36.9604V31.5828ZM30.1888 19.6493L24.7923 16.5273V11.1497L34.8448 16.9536L30.1888 19.6493ZM35.5907 18.2517L37.0824 17.3863V16.5336L36.7068 16.3146L30.5644 12.7673L24.4156 9.2137L24.0401 9L23.6635 9.2137L17.521 12.7673L11.3786 16.3146L11.0031 16.5336V24.4809L11.3786 24.7009L12.4948 25.3463L16.406 27.6029L12.4948 29.8595L11.0031 30.7238V31.5765L11.3786 31.7955L17.521 35.3428L23.6698 38.8911L24.0464 39.1038L24.422 38.8911L30.5708 35.3428L36.7132 31.7955L37.0887 31.5765V23.6292L35.597 22.7638L31.6869 20.5072L35.5907 18.2517ZM24.0464 17.819L20.1786 20.0502L18.6869 19.1912L23.3006 16.5273V11.1497L18.2732 14.0517L13.2406 16.96L29.4049 26.2931L27.9132 27.1511L12.5011 18.2517V22.7638L15.622 20.9653L17.1137 21.8233L13.2469 24.0556L24.0528 30.2911L34.8575 24.0556L24.0464 17.819Z" fill="white"/>
</g>
<defs>
<linearGradient id="paint0_linear_4709_5332" x1="24" y1="0" x2="24" y2="63.1579" gradientUnits="userSpaceOnUse">
<stop stop-color="#1679AB"/>
<stop offset="1" stop-color="#041822"/>
</linearGradient>
</defs>
</svg>
