<svg width="28" height="28" viewBox="0 0 28 28" fill="none" xmlns="http://www.w3.org/2000/svg">
<path d="M24.0563 9.85835C22.8313 4.46835 18.1296 2.04169 13.9996 2.04169C13.9996 2.04169 13.9996 2.04169 13.988 2.04169C9.86962 2.04169 5.15629 4.45669 3.93129 9.84669C2.56629 15.8667 6.25296 20.965 9.58962 24.1734C10.8263 25.3634 12.413 25.9584 13.9996 25.9584C15.5863 25.9584 17.173 25.3634 18.398 24.1734C21.7346 20.965 25.4213 15.8784 24.0563 9.85835ZM13.9996 15.7034C11.9696 15.7034 10.3246 14.0584 10.3246 12.0284C10.3246 9.99835 11.9696 8.35335 13.9996 8.35335C16.0296 8.35335 17.6746 9.99835 17.6746 12.0284C17.6746 14.0584 16.0296 15.7034 13.9996 15.7034Z" fill="#40BDAF"/>
</svg>
