<svg width="24" height="25" viewBox="0 0 24 25" fill="none" xmlns="http://www.w3.org/2000/svg">
<path d="M11.7769 24.0117C11.0496 24.0117 8.61499 21.8673 6.8613 19.6827C4.95351 17.3054 2.67896 13.5314 2.67896 9.05402C2.67896 9.02546 2.67992 8.99858 2.68208 8.97265C2.75505 4.02364 6.81737 0.0117188 11.7769 0.0117188C16.7636 0.0117188 20.8445 4.06925 20.8733 9.05667L20.8723 9.15748C20.8723 13.5741 18.5675 17.3316 16.6347 19.706C14.9312 21.7984 12.4337 24.0117 11.7769 24.0117ZM3.88296 9.11187C3.91777 16.3604 10.5108 21.9337 11.7625 22.7393C13.0707 21.8752 19.6685 16.2937 19.6685 9.15748L19.6695 9.05162C19.6443 4.7363 16.1036 1.21573 11.7769 1.21573C7.44962 1.21573 3.90961 4.7363 3.88512 9.06339C3.88488 9.07995 3.88416 9.09579 3.88296 9.11187ZM11.7772 13.3967C9.36533 13.3967 7.4033 11.4352 7.4033 9.02354C7.4033 6.61192 9.36533 4.64989 11.7772 4.64989C14.1886 4.64989 16.1504 6.61192 16.1504 9.02354C16.1506 11.4354 14.1888 13.3967 11.7772 13.3967ZM11.7772 5.8539C10.0293 5.8539 8.60706 7.27562 8.60706 9.02378C8.60706 10.7715 10.0293 12.1929 11.7772 12.1929C13.5249 12.1929 14.9468 10.7715 14.9468 9.02378C14.9468 7.27562 13.5249 5.8539 11.7772 5.8539Z" fill="#011E29"/>
</svg>
