<svg width="24" height="25" viewBox="0 0 24 25" fill="none" xmlns="http://www.w3.org/2000/svg">
<path d="M11.7769 24.0117C11.0496 24.0117 8.61499 21.8673 6.8613 19.6827C4.95351 17.3054 2.67896 13.5314 2.67896 9.05402C2.67896 9.02546 2.67992 8.99858 2.68208 8.97265C2.75505 4.02364 6.81737 0.0117188 11.7769 0.0117188C16.7636 0.0117188 20.8445 4.06925 20.8733 9.05667L20.8723 9.15748C20.8723 13.5741 18.5675 17.3316 16.6347 19.706C14.9312 21.7984 12.4337 24.0117 11.7769 24.0117ZM3.88296 9.11187C3.91777 16.3604 10.5108 21.9337 11.7625 22.7393C13.0707 21.8752 19.6685 16.2937 19.6685 9.15748L19.6695 9.05162C19.6443 4.7363 16.1036 1.21573 11.7769 1.21573C7.44962 1.21573 3.90961 4.7363 3.88512 9.06339C3.88488 9.07995 3.88416 9.09579 3.88296 9.11187Z" fill="#011E29"/>
<path d="M11.8686 5.9H11.8687C12.0641 5.90026 12.2396 6.00964 12.3258 6.18489L12.3257 6.18479L12.2361 6.22905L12.3258 6.18492L13.3734 8.30739L15.7153 8.64778L15.7154 8.64778L15.701 8.74674C15.8566 8.76929 15.9835 8.87606 16.0322 9.02554L11.8686 5.9ZM11.8686 5.9H11.8686H11.8686H11.8686H11.8686H11.8686H11.8686H11.8686H11.8685H11.8685H11.8685H11.8685H11.8685H11.8685H11.8685H11.8685H11.8685H11.8685H11.8685H11.8685H11.8685H11.8685H11.8685H11.8685H11.8685H11.8685H11.8685H11.8685H11.8685H11.8685H11.8685H11.8685H11.8684H11.8684H11.8684H11.8684H11.8684H11.8684H11.8684H11.8684H11.8684H11.8684H11.8684H11.8684H11.8684H11.8684H11.8684H11.8684H11.8684H11.8684H11.8684H11.8684H11.8684H11.8684H11.8684H11.8684H11.8683H11.8683H11.8683H11.8683H11.8683H11.8683H11.8683H11.8683H11.8683H11.8683H11.8683H11.8683H11.8683H11.8683H11.8683H11.8683H11.8683H11.8683H11.8683H11.8683H11.8683H11.8683H11.8683H11.8682H11.8682H11.8682H11.8682H11.8682H11.8682H11.8682H11.8682H11.8682H11.8682H11.8682H11.8682H11.8682H11.8682H11.8682H11.8682H11.8682H11.8682H11.8682H11.8682H11.8682H11.8682H11.8682H11.8682H11.8681H11.8681H11.8681H11.8681H11.8681H11.8681H11.8681H11.8681H11.8681H11.8681H11.8681H11.8681H11.8681H11.8681H11.8681H11.8681H11.8681H11.8681H11.8681H11.8681H11.8681H11.8681H11.8681H11.8681H11.868H11.868C11.6726 5.9 11.4968 6.00925 11.4103 6.18459L11.4103 6.1846M11.8686 5.9L11.4103 6.1846M11.4103 6.1846L10.3627 8.30739M11.4103 6.1846L10.3627 8.30739M13.6563 10.7109L13.6568 10.7104L13.6563 10.7109ZM13.6563 10.7109C13.5364 10.8282 13.4817 10.9967 13.51 11.162L13.51 11.1621L13.8415 13.0951L12.1064 12.183C12.1063 12.183 12.1063 12.1829 12.1063 12.1829M13.6563 10.7109L12.1063 12.1829M13.1191 9.05918C13.1199 9.0593 13.1206 9.0594 13.1212 9.05948L15.0613 9.34147L13.6596 10.7076L13.1166 9.05876C13.1174 9.05891 13.1183 9.05906 13.1191 9.05918ZM13.1191 9.05918C12.9534 9.03456 12.8103 8.93016 12.7362 8.77985L11.868 7.02093L11 8.77997C11 8.77999 11 8.78 10.9999 8.78001C10.926 8.93004 10.7829 9.03441 10.6173 9.05914L10.6171 9.05917L10.617 9.05918L10.6155 9.05941L10.6155 9.0594L8.67481 9.34144L10.0789 10.7102L10.079 10.7103L10.0092 10.7819L13.1191 9.05918ZM12.1063 12.1829L12.1062 12.1829L12.0596 12.2714L12.1063 12.1829ZM10.3627 8.30739L8.02067 8.64776L8.02061 8.64777L8.03499 8.74673M10.3627 8.30739L7.60846 8.99517L7.70358 9.02605M8.03499 8.74673C7.87917 8.76927 7.75219 8.87626 7.70358 9.02605M8.03499 8.74673L10.4291 8.39879L8.03499 8.74673ZM7.70358 9.02605L7.60846 8.99517L7.70358 9.02605ZM14.201 14.1C14.3067 14.1 14.4115 14.0668 14.5005 14.0021L7.80771 9.44661L7.7379 9.51822L7.73798 9.5183L9.43254 11.1702L9.03247 13.503C9.03246 13.503 9.03246 13.503 9.03246 13.503C8.99943 13.6955 9.07736 13.8872 9.23537 14.002L9.29417 13.9211L9.23537 14.002C9.39343 14.1169 9.59984 14.1319 9.77286 14.041L9.77287 14.041L11.8681 12.9396L13.9633 14.041L13.9633 14.041C14.0383 14.0804 14.1197 14.1 14.201 14.1ZM13.6559 10.7113C13.6557 10.7115 13.6558 10.7114 13.6562 10.711L13.6559 10.7113Z" fill="#011E29" stroke="#011E29" stroke-width="0.2"/>
</svg>
