<svg width="16" height="16" viewBox="0 0 16 16" fill="none" xmlns="http://www.w3.org/2000/svg">
<circle cx="8" cy="8" r="8" transform="rotate(90 8 8)" fill="#D0E4EE"/>
<path d="M11.0527 7C11.3277 7 11.5631 7.09794 11.7589 7.29383C11.9548 7.48961 12.0527 7.725 12.0527 8C12.0527 8.275 11.9548 8.51039 11.7589 8.70617C11.5631 8.90206 11.3277 9 11.0527 9C10.7777 9 10.5423 8.90206 10.3464 8.70617C10.1506 8.51039 10.0527 8.275 10.0527 8C10.0527 7.725 10.1506 7.48961 10.3464 7.29383C10.5423 7.09794 10.7777 7 11.0527 7ZM7.99881 7C8.27381 7 8.5092 7.09794 8.70498 7.29383C8.90086 7.48961 8.99881 7.725 8.99881 8C8.99881 8.275 8.90086 8.51039 8.70498 8.70617C8.5092 8.90206 8.27381 9 7.99881 9C7.72381 9 7.48842 8.90206 7.29264 8.70617C7.09675 8.51039 6.99881 8.275 6.99881 8C6.99881 7.725 7.09675 7.48961 7.29264 7.29383C7.48842 7.09794 7.72381 7 7.99881 7ZM4.94725 7C5.22225 7 5.4577 7.09794 5.65359 7.29383C5.84936 7.48961 5.94725 7.725 5.94725 8C5.94725 8.275 5.84936 8.51039 5.65359 8.70617C5.4577 8.90205 5.22225 9 4.94725 9C4.67225 9 4.43686 8.90205 4.24109 8.70617C4.0452 8.51039 3.94725 8.275 3.94725 8C3.94725 7.725 4.0452 7.48961 4.24109 7.29383C4.43686 7.09794 4.67225 7 4.94725 7Z" fill="#041822"/>
</svg>
