<svg width="40" height="40" viewBox="0 0 40 40" fill="none" xmlns="http://www.w3.org/2000/svg">
<rect x="0.5" y="0.5" width="39" height="39" rx="11.5" fill="white" stroke="#D0E4EE"/>
<path d="M19.9933 28.9998C21.1656 28.9998 22.2106 28.4405 22.8402 27.5791H17.1396C17.7693 28.4405 18.8143 28.9998 19.9931 28.9998H19.9933Z" fill="#1679AB"/>
<path d="M27 24.5899C27 23.8442 26.4909 23.2014 25.7876 22.9828V18.7721C25.7876 16.5479 24.4345 14.5871 22.3646 13.7064C22.3914 13.5778 22.4048 13.4493 22.4048 13.3143C22.4048 12.0414 21.3196 11 19.9933 11C18.6603 11 17.5818 12.0414 17.5818 13.3143C17.5818 13.4493 17.5885 13.5843 17.6153 13.7193C15.5588 14.6 14.2124 16.5606 14.2124 18.772V22.9827C13.5091 23.2013 13 23.8441 13 24.5898C13 25.5284 13.7904 26.2934 14.7684 26.2934H25.2314C26.2094 26.2934 27 25.5285 27 24.5899ZM22.8469 19.415C22.4785 19.415 22.177 19.1258 22.177 18.7722C22.177 17.6215 21.1991 16.6893 19.9932 16.6893C19.6181 16.6893 19.3234 16.4001 19.3234 16.0465C19.3234 15.6929 19.6181 15.4036 19.9932 15.4036C21.9358 15.4036 23.5168 16.9143 23.5168 18.7722C23.5168 19.1258 23.2153 19.415 22.8469 19.415Z" fill="#1679AB"/>
</svg>
