<svg width="840" height="760" viewBox="0 0 840 760" fill="none" xmlns="http://www.w3.org/2000/svg">
<path d="M211.52 759.423H65.1208C60.5498 759.423 56.8438 755.717 56.8438 751.146V430.283C56.8438 425.712 60.5498 422.006 65.1208 422.006H211.52C216.091 422.006 219.797 425.712 219.797 430.283V751.145C219.797 755.717 216.091 759.423 211.52 759.423Z" fill="#F0EFEF"/>
<path d="M618.177 739.199H169.669C147.098 739.199 128.801 720.902 128.801 698.331V82.2139C128.801 59.6429 147.098 41.3459 169.669 41.3459H618.178C640.749 41.3459 659.046 59.6429 659.046 82.2139V698.331C659.045 720.902 640.748 739.199 618.177 739.199Z" fill="#C6E9F1" stroke="#59BBEA" stroke-width="2" stroke-miterlimit="10" stroke-linecap="round" stroke-linejoin="round"/>
<path d="M76.3306 191.863H5.44461C2.97561 191.863 0.974609 189.862 0.974609 187.393V82.3909C0.974609 79.9219 2.97561 77.9209 5.44461 77.9209H76.3306C78.7996 77.9209 80.8006 79.9219 80.8006 82.3909V187.393C80.8006 189.862 78.7986 191.863 76.3306 191.863Z" fill="#F0EFEF"/>
<path d="M170.32 191.863H99.4339C96.9649 191.863 94.9639 189.862 94.9639 187.393V82.3909C94.9639 79.9219 96.9649 77.9209 99.4339 77.9209H170.32C172.789 77.9209 174.79 79.9219 174.79 82.3909V187.393C174.791 189.862 172.789 191.863 170.32 191.863Z" fill="#F0EFEF"/>
<path d="M76.3306 319.984H5.44461C2.97561 319.984 0.974609 317.983 0.974609 315.514V210.511C0.974609 208.042 2.97561 206.041 5.44461 206.041H76.3306C78.7996 206.041 80.8006 208.042 80.8006 210.511V315.513C80.8006 317.982 78.7986 319.984 76.3306 319.984Z" fill="#F0EFEF"/>
<path d="M170.32 319.984H99.4339C96.9649 319.984 94.9639 317.983 94.9639 315.514V210.511C94.9639 208.042 96.9649 206.041 99.4339 206.041H170.32C172.789 206.041 174.79 208.042 174.79 210.511V315.513C174.791 317.982 172.789 319.984 170.32 319.984Z" fill="#F0EFEF"/>
<path d="M808.982 263.839H580.521C570.979 263.839 563.244 256.104 563.244 246.562V18.1C563.244 8.55801 570.979 0.822998 580.521 0.822998H808.982C818.524 0.822998 826.259 8.55801 826.259 18.1V246.561C826.26 256.103 818.524 263.839 808.982 263.839Z" fill="#F0EFEF"/>
<path d="M751.986 236.621H638.774C635.752 236.621 633.303 234.172 633.303 231.15V217.261C633.303 214.239 635.752 211.79 638.774 211.79H751.987C755.009 211.79 757.458 214.239 757.458 217.261V231.15C757.457 234.172 755.008 236.621 751.986 236.621Z" fill="#E5E5E5"/>
<path d="M792.525 188.311H639.62C636.131 188.311 633.303 185.483 633.303 181.994V169.798C633.303 166.309 636.131 163.481 639.62 163.481H792.525C796.014 163.481 798.842 166.309 798.842 169.798V181.994C798.842 185.483 796.014 188.311 792.525 188.311Z" fill="#E5E5E5"/>
<path d="M792.525 140.001H639.62C636.131 140.001 633.303 137.173 633.303 133.684V121.488C633.303 117.999 636.131 115.171 639.62 115.171H792.525C796.014 115.171 798.842 117.999 798.842 121.488V133.684C798.842 137.173 796.014 140.001 792.525 140.001Z" fill="#E5E5E5"/>
<path d="M618.555 716.067H169.291C146.929 716.067 128.801 697.939 128.801 675.577V71.5391C128.801 49.1771 146.929 31.0491 169.291 31.0491H618.555C640.917 31.0491 659.045 49.1771 659.045 71.5391V675.577C659.045 697.939 640.917 716.067 618.555 716.067Z" fill="white" stroke="#59BBEA" stroke-width="2" stroke-miterlimit="10" stroke-linecap="round" stroke-linejoin="round"/>
<path d="M822.64 487.314H750.477L713.231 517.063L717.111 487.314H695.382C686.24 487.314 678.83 479.903 678.83 470.762V343.503C678.83 334.361 686.241 326.951 695.382 326.951H822.64C831.782 326.951 839.192 334.362 839.192 343.503V470.762C839.192 479.903 831.782 487.314 822.64 487.314Z" fill="#F0EFEF"/>
<path d="M811.001 404.439H732.628C726.2 404.439 720.988 399.228 720.988 392.799V357.105C720.988 350.677 726.199 345.465 732.628 345.465H811.001C817.429 345.465 822.641 350.676 822.641 357.105V392.8C822.641 399.228 817.429 404.439 811.001 404.439Z" fill="#E5E5E5"/>
<path d="M266.047 180.903H213.276C204.821 180.903 197.968 174.049 197.968 165.595V112.824C197.968 104.369 204.822 97.5161 213.276 97.5161H266.047C274.502 97.5161 281.355 104.37 281.355 112.824V165.595C281.356 174.049 274.502 180.903 266.047 180.903Z" fill="#E7F6FD" stroke="#1679AB" stroke-width="2" stroke-miterlimit="10" stroke-linecap="round" stroke-linejoin="round"/>
<path d="M590.999 117.186H321.541V129.601H590.999V117.186Z" fill="#E5E5E5"/>
<path d="M553.277 148.816H321.541V161.231H553.277V148.816Z" fill="#E5E5E5"/>
<path d="M266.047 334.255H213.276C204.821 334.255 197.968 327.401 197.968 318.947V266.176C197.968 257.721 204.822 250.868 213.276 250.868H266.047C274.502 250.868 281.355 257.722 281.355 266.176V318.947C281.356 327.401 274.502 334.255 266.047 334.255Z" fill="#E7F6FD" stroke="#1679AB" stroke-width="2" stroke-miterlimit="10" stroke-linecap="round" stroke-linejoin="round"/>
<path d="M590.999 270.538H321.541V282.953H590.999V270.538Z" fill="#E5E5E5"/>
<path d="M553.277 302.168H321.541V314.583H553.277V302.168Z" fill="#E5E5E5"/>
<path d="M266.047 487.606H213.276C204.821 487.606 197.968 480.752 197.968 472.298V419.527C197.968 411.072 204.822 404.219 213.276 404.219H266.047C274.502 404.219 281.355 411.073 281.355 419.527V472.298C281.356 480.753 274.502 487.606 266.047 487.606Z" fill="#E7F6FD" stroke="#1679AB" stroke-width="2" stroke-miterlimit="10" stroke-linecap="round" stroke-linejoin="round"/>
<path d="M590.999 423.89H321.541V436.305H590.999V423.89Z" fill="#E5E5E5"/>
<path d="M553.277 455.52H321.541V467.935H553.277V455.52Z" fill="#E5E5E5"/>
<path d="M266.047 640.958H213.276C204.821 640.958 197.968 634.104 197.968 625.65V572.879C197.968 564.424 204.822 557.571 213.276 557.571H266.047C274.502 557.571 281.355 564.425 281.355 572.879V625.65C281.356 634.104 274.502 640.958 266.047 640.958Z" fill="#E7F6FD" stroke="#1679AB" stroke-width="2" stroke-miterlimit="10" stroke-linecap="round" stroke-linejoin="round"/>
<path d="M590.999 577.241H321.541V589.656H590.999V577.241Z" fill="#E5E5E5"/>
<path d="M553.277 608.871H321.541V621.286H553.277V608.871Z" fill="#E5E5E5"/>
<path d="M197.968 429.037L232.529 463.598L300.535 395.593" stroke="#55BD91" stroke-width="10" stroke-miterlimit="10" stroke-linecap="round" stroke-linejoin="bevel"/>
<path d="M616.866 88.27C625.944 88.27 633.303 80.9109 633.303 71.833C633.303 62.7551 625.944 55.396 616.866 55.396C607.788 55.396 600.429 62.7551 600.429 71.833C600.429 80.9109 607.788 88.27 616.866 88.27Z" fill="#F0EFEF"/>
</svg>
