<svg width="160" height="144" viewBox="0 0 160 144" fill="none" xmlns="http://www.w3.org/2000/svg">
<path d="M136.954 102.324C131.8 96.4155 128.952 88.8674 128.994 81.0269C128.994 80.9798 128.994 80.9327 128.994 80.8855C128.994 63.0571 110.777 48.6045 88.3043 48.6045C72.2111 48.6045 58.301 56.0168 51.7006 66.7728C47.9337 72.9113 42.1894 77.6184 35.389 79.9908C21.0652 84.9875 11.063 96.3432 11.063 109.553C11.063 127.381 29.2805 141.834 51.7528 141.834C57.8508 141.834 63.6351 140.769 68.827 138.862C76.6504 135.988 85.2774 136.509 92.8321 140.03C97.7593 142.326 103.499 143.643 109.627 143.643C127.967 143.643 142.835 131.848 142.835 117.297C142.835 111.735 140.663 106.576 136.954 102.324Z" fill="#EEF5F5"/>
<path d="M81.8185 39.4182L31.2275 66.133L78.582 84.8224L129.173 58.1076L81.8185 39.4182Z" fill="#EEF5F5"/>
<path d="M129.173 58.1076L81.8184 39.4182V83.1133L129.173 58.1076Z" fill="#E8EBEC"/>
<path d="M129.173 115.293L78.582 142.008V84.8224L129.173 58.1077V115.293Z" fill="#FFEDE2"/>
<path d="M129.173 115.293L78.582 142.008V84.8224L129.173 58.1077V115.293Z" fill="#97A3A9" stroke="#1679AB" stroke-width="0.355464" stroke-miterlimit="10" stroke-linecap="round" stroke-linejoin="round"/>
<path d="M81.8184 39.4183L31.2275 66.1331L1 55.1967L51.5909 28.4819L81.8184 39.4183Z" fill="#8ABCD5" stroke="#1679AB" stroke-width="0.355464" stroke-miterlimit="10" stroke-linecap="round" stroke-linejoin="round"/>
<path d="M159.401 69.0442L108.81 95.759L78.582 84.8224L129.173 58.1077L159.401 69.0442Z" fill="#8ABCD5" stroke="#1679AB" stroke-width="0.355464" stroke-miterlimit="10" stroke-linecap="round" stroke-linejoin="round"/>
<path d="M31.2275 123.319L78.582 142.008V84.8225L31.2275 66.1331V123.319Z" fill="#B9C1C5" stroke="#1679AB" stroke-width="0.355464" stroke-miterlimit="10" stroke-linecap="round" stroke-linejoin="round"/>
<path d="M31.2279 66.1331L4.5542 80.3333L51.9086 99.0228L78.5823 84.8225L31.2279 66.1331Z" fill="#8ABCD5" stroke="#1679AB" stroke-width="0.355464" stroke-miterlimit="10" stroke-linecap="round" stroke-linejoin="round"/>
<path d="M108.492 25.218L81.8184 39.4181L129.173 58.1075L155.846 43.9074L108.492 25.218Z" fill="#8ABCD5" stroke="#1679AB" stroke-width="0.355464" stroke-miterlimit="10" stroke-linecap="round" stroke-linejoin="round"/>
<path d="M81.8184 32.0873C81.8184 32.0873 82.0858 31.8532 82.524 31.4343" stroke="#3D8FB9" stroke-width="0.355464" stroke-linecap="round" stroke-linejoin="round"/>
<path d="M83.874 30.0786C87.9138 25.8219 95.4987 15.9878 83.4575 12.3614C72.9982 9.21124 74.3443 18.8221 79.6041 20.3435C86.4762 22.3313 91.7399 11.8474 86.1406 6.22534" stroke="#3D8FB9" stroke-width="0.355464" stroke-linecap="round" stroke-linejoin="round" stroke-dasharray="1.91 1.91"/>
<path d="M85.4293 5.58589C85.1856 5.3895 84.9259 5.20093 84.6499 5.02124" stroke="#3D8FB9" stroke-width="0.355464" stroke-linecap="round" stroke-linejoin="round"/>
<path d="M81.4444 5.35758C82.1841 5.35758 82.7838 4.91945 82.7838 4.37898C82.7838 3.83852 82.1841 3.40039 81.4444 3.40039C80.7046 3.40039 80.105 3.83852 80.105 4.37898C80.105 4.91945 80.7046 5.35758 81.4444 5.35758Z" stroke="#3D8FB9" stroke-width="0.355464" stroke-miterlimit="10" stroke-linecap="round" stroke-linejoin="round"/>
<path d="M83.1223 2.87866C83.4639 2.33526 83.5206 1.7563 83.2489 1.58553C82.9773 1.41476 82.4801 1.71684 82.1385 2.26024C81.7969 2.80364 81.7402 3.38258 82.0119 3.55335C82.2836 3.72412 82.7807 3.42206 83.1223 2.87866Z" stroke="#3D8FB9" stroke-width="0.355464" stroke-miterlimit="10" stroke-linecap="round" stroke-linejoin="round"/>
<path d="M81.5249 3.36227C81.8448 3.33756 82.064 2.79876 82.0146 2.15883C81.9652 1.51889 81.6658 1.02015 81.3459 1.04486C81.026 1.06957 80.8067 1.60837 80.8561 2.2483C80.9055 2.88824 81.2049 3.38698 81.5249 3.36227Z" stroke="#3D8FB9" stroke-width="0.355464" stroke-miterlimit="10" stroke-linecap="round" stroke-linejoin="round"/>
</svg>
