<svg width="22" height="20" viewBox="0 0 22 20" fill="none" xmlns="http://www.w3.org/2000/svg">
<path d="M16.9606 1.30303V2.71818H13.5242V1.30303C13.5242 1.08044 13.3438 0.9 13.1212 0.9C12.8986 0.9 12.7182 1.08044 12.7182 1.30303V2.71818H9.28182V1.30303C9.28182 1.08044 9.10138 0.9 8.87879 0.9C8.6562 0.9 8.47576 1.08044 8.47576 1.30303V2.71818H5.03939V1.30303C5.03939 1.08044 4.85895 0.9 4.63636 0.9C4.41378 0.9 4.23333 1.08044 4.23333 1.30303V2.71818H2.51515C1.62313 2.71818 0.9 3.44131 0.9 4.33333V17.6667C0.9 18.5587 1.62313 19.2818 2.51515 19.2818H19.4848C20.3769 19.2818 21.1 18.5587 21.1 17.6667V4.33333C21.1 3.44131 20.3769 2.71818 19.4848 2.71818H17.7667V1.30303C17.7667 1.08044 17.5862 0.9 17.3636 0.9C17.141 0.9 16.9606 1.08044 16.9606 1.30303ZM13.5242 4.93939V3.52424H16.9606V4.93939C16.9606 5.16198 17.141 5.34242 17.3636 5.34242C17.5862 5.34242 17.7667 5.16198 17.7667 4.93939V3.52424H19.4848C19.9317 3.52424 20.2939 3.88648 20.2939 4.33333V17.6667C20.2939 18.1135 19.9317 18.4758 19.4848 18.4758H2.51515C2.0683 18.4758 1.70606 18.1135 1.70606 17.6667V4.33333C1.70606 3.88648 2.0683 3.52424 2.51515 3.52424H4.23333V4.93939C4.23333 5.16198 4.41378 5.34242 4.63636 5.34242C4.85895 5.34242 5.03939 5.16198 5.03939 4.93939V3.52424H8.47576V4.93939C8.47576 5.16198 8.6562 5.34242 8.87879 5.34242C9.10138 5.34242 9.28182 5.16198 9.28182 4.93939V3.52424H12.7182V4.93939C12.7182 5.16198 12.8986 5.34242 13.1212 5.34242C13.3438 5.34242 13.5242 5.16198 13.5242 4.93939ZM17.6667 6.65758H15.2424C14.6851 6.65758 14.2333 7.10936 14.2333 7.66667V10.0909C14.2333 10.6482 14.6851 11.1 15.2424 11.1H17.6667C18.224 11.1 18.6758 10.6482 18.6758 10.0909V7.66667C18.6758 7.10936 18.224 6.65758 17.6667 6.65758ZM15.0394 7.66667C15.0394 7.55454 15.1303 7.46364 15.2424 7.46364H17.6667C17.7788 7.46364 17.8697 7.55454 17.8697 7.66667V10.0909C17.8697 10.203 17.7788 10.2939 17.6667 10.2939H15.2424C15.1303 10.2939 15.0394 10.203 15.0394 10.0909V7.66667Z" fill="#1B3843" stroke="#1B3843" stroke-width="0.2"/>
</svg>
