<svg width="30" height="30" viewBox="0 0 30 30" fill="none" xmlns="http://www.w3.org/2000/svg">
<rect width="30" height="30" rx="8" fill="url(#paint0_linear_4115_2398)"/>
<g filter="url(#filter0_d_4115_2398)">
<path d="M11.2099 12.624C11.1261 12.624 11.0458 12.6573 10.9865 12.7165C10.9273 12.7758 10.894 12.8561 10.894 12.9399V13.6258C10.894 13.7095 10.9273 13.7899 10.9865 13.8491C11.0458 13.9083 11.1261 13.9416 11.2099 13.9416C11.2936 13.9416 11.374 13.9083 11.4332 13.8491C11.4924 13.7899 11.5257 13.7095 11.5257 13.6258V12.9399C11.5257 12.8561 11.4924 12.7758 11.4332 12.7165C11.374 12.6573 11.2936 12.624 11.2099 12.624Z" fill="white"/>
<path d="M11.2099 14.3394C11.1261 14.3394 11.0458 14.3726 10.9865 14.4319C10.9273 14.4911 10.894 14.5714 10.894 14.6552V15.3411C10.894 15.4249 10.9273 15.5052 10.9865 15.5644C11.0458 15.6237 11.1261 15.6569 11.2099 15.6569C11.2936 15.6569 11.374 15.6237 11.4332 15.5644C11.4924 15.5052 11.5257 15.4249 11.5257 15.3411V14.6552C11.5257 14.5714 11.4924 14.4911 11.4332 14.4319C11.374 14.3726 11.2936 14.3394 11.2099 14.3394Z" fill="white"/>
<path d="M11.2099 16.0547C11.1261 16.0547 11.0458 16.088 10.9865 16.1472C10.9273 16.2064 10.894 16.2868 10.894 16.3705V17.0565C10.894 17.1402 10.9273 17.2205 10.9865 17.2798C11.0458 17.339 11.1261 17.3723 11.2099 17.3723C11.2936 17.3723 11.374 17.339 11.4332 17.2798C11.4924 17.2205 11.5257 17.1402 11.5257 17.0565V16.3705C11.5257 16.2868 11.4924 16.2064 11.4332 16.1472C11.374 16.088 11.2936 16.0547 11.2099 16.0547Z" fill="white"/>
<path d="M10.2206 9C9.85274 9.0308 9.51761 9.27597 9.39526 9.64584L8.97457 10.9159C8.46164 10.9588 8.05176 11.3896 8.05176 11.9128V13.1693C8.05186 13.3063 8.14031 13.4277 8.27074 13.4697C8.66474 13.5969 8.9991 14.0918 8.99924 14.6978C8.99929 15.304 8.66486 15.7994 8.27074 15.9266C8.14031 15.9686 8.05186 16.09 8.05176 16.227V18.1146C8.05176 18.6658 8.50538 19.1194 9.05661 19.1194H14.0426L19.4049 20.9502C19.8999 21.1193 20.4415 20.8426 20.6046 20.3494L21.0142 19.112C21.5324 19.0745 21.9481 18.6416 21.9481 18.1146V16.2264C21.948 16.0894 21.8596 15.968 21.7292 15.926C21.3352 15.7988 21.0008 15.3038 21.0007 14.6978C21.0006 14.0917 21.335 13.5963 21.7292 13.4691C21.8596 13.427 21.948 13.3057 21.9481 13.1687V11.9128C21.9481 11.3615 21.4945 10.9079 20.9433 10.9079H15.9585L10.5969 9.04503C10.4728 9.00156 10.3375 9.00706 10.2206 9ZM10.2669 9.62672C10.3078 9.62393 10.3505 9.62932 10.3933 9.64337C11.6065 10.0646 12.8196 10.4863 14.0327 10.9079H9.64261L9.99483 9.84385C10.0373 9.71554 10.144 9.6351 10.2669 9.62672ZM9.05661 11.5396H10.8942V11.84C10.8942 12.0144 11.0356 12.1558 11.21 12.1558C11.3845 12.1558 11.5259 12.0144 11.5259 11.84V11.5396H20.9433C21.1556 11.5396 21.3165 11.7005 21.3165 11.9128V12.9879C20.7332 13.2952 20.3689 13.9575 20.369 14.6978C20.3692 15.4379 20.7334 16.0999 21.3165 16.4071V18.1146C21.3165 18.3268 21.1556 18.4878 20.9433 18.4878H11.5252C11.5268 18.3788 11.5259 18.2666 11.5259 18.1565C11.5259 17.9821 11.3845 17.8407 11.21 17.8407C11.0356 17.8407 10.8942 17.9821 10.8942 18.1565C10.8936 18.2661 10.8945 18.3794 10.8948 18.4878H9.05662C8.84428 18.4878 8.68341 18.3268 8.68341 18.1146V16.4077C9.26671 16.1004 9.63096 15.4382 9.63089 14.6978C9.63073 13.9577 9.26654 13.2957 8.68341 12.9885V11.9128C8.68341 11.7005 8.84433 11.5396 9.05661 11.5396ZM15.9974 19.1194H20.3462L20.0051 20.1508C19.9484 20.3221 19.7764 20.4096 19.6091 20.3525L15.9974 19.1194Z" fill="white"/>
<path d="M17.7674 15.4922C18.3296 15.4922 18.792 15.9546 18.792 16.5168C18.792 17.079 18.3296 17.542 17.7674 17.542C17.2052 17.542 16.7422 17.079 16.7422 16.5168C16.7422 15.9546 17.2052 15.4922 17.7674 15.4922ZM17.7674 16.1238C17.5465 16.1238 17.3738 16.2959 17.3738 16.5168C17.3738 16.7376 17.5465 16.9103 17.7674 16.9103C17.9882 16.9103 18.1603 16.7376 18.1603 16.5168C18.1603 16.2959 17.9882 16.1238 17.7674 16.1238Z" fill="white"/>
<path d="M14.7596 12.4849C15.3218 12.4849 15.7842 12.9472 15.7842 13.5095C15.7842 14.0717 15.3218 14.534 14.7596 14.534C14.1974 14.534 13.7344 14.0717 13.7344 13.5095C13.7344 12.9472 14.1974 12.4849 14.7596 12.4849ZM14.7596 13.1165C14.5387 13.1165 14.366 13.2886 14.366 13.5095C14.366 13.7303 14.5387 13.9024 14.7596 13.9024C14.9804 13.9024 15.1525 13.7303 15.1525 13.5095C15.1525 13.2886 14.9804 13.1165 14.7596 13.1165Z" fill="white"/>
<path d="M17.5436 13.2864L14.5358 16.2942C14.4125 16.4175 14.4125 16.6174 14.5358 16.7408C14.6592 16.8641 14.8591 16.8641 14.9824 16.7408L17.9902 13.733C18.1135 13.6097 18.1135 13.4097 17.9902 13.2864C17.8612 13.1717 17.6652 13.1597 17.5436 13.2864Z" fill="white"/>
</g>
<defs>
<filter id="filter0_d_4115_2398" x="3.25176" y="4.2" width="23.4965" height="21.6" filterUnits="userSpaceOnUse" color-interpolation-filters="sRGB">
<feFlood flood-opacity="0" result="BackgroundImageFix"/>
<feColorMatrix in="SourceAlpha" type="matrix" values="0 0 0 0 0 0 0 0 0 0 0 0 0 0 0 0 0 0 127 0" result="hardAlpha"/>
<feOffset/>
<feGaussianBlur stdDeviation="2.4"/>
<feComposite in2="hardAlpha" operator="out"/>
<feColorMatrix type="matrix" values="0 0 0 0 0.792157 0 0 0 0 0.878431 0 0 0 0 0.882353 0 0 0 0.2 0"/>
<feBlend mode="normal" in2="BackgroundImageFix" result="effect1_dropShadow_4115_2398"/>
<feBlend mode="normal" in="SourceGraphic" in2="effect1_dropShadow_4115_2398" result="shape"/>
</filter>
<linearGradient id="paint0_linear_4115_2398" x1="15" y1="0" x2="15" y2="30" gradientUnits="userSpaceOnUse">
<stop stop-color="#1679AB"/>
<stop offset="1" stop-color="#041822"/>
</linearGradient>
</defs>
</svg>
