<svg width="16" height="16" viewBox="0 0 16 16" fill="none" xmlns="http://www.w3.org/2000/svg">
<circle cx="8" cy="8" r="8" fill="#1679AB"/>
<path d="M10.2258 5.66972V4.97764C10.2258 4.71811 10.1228 4.46957 9.93948 4.28629C9.75619 4.10301 9.50765 4 9.24849 4H5.97764C5.43769 4 5 4.43769 5 4.97764V11.0224C5 11.2819 5.10301 11.5304 5.28629 11.7137C5.46957 11.897 5.71848 12 5.97764 12H9.24849C9.50765 12 9.75619 11.897 9.93948 11.7137C10.1228 11.5304 10.2258 11.2819 10.2258 11.0224V10.3589C11.0216 10.298 11.7324 9.83797 12.1136 9.13705C12.4948 8.4358 12.4948 7.58941 12.1136 6.88851C11.7323 6.18726 11.0215 5.7276 10.2258 5.66669V5.66972ZM7.03224 4.43589H8.16238V5.00004C8.16861 5.154 8.11216 5.30356 8.00548 5.41463C7.89918 5.52571 7.75182 5.58839 7.59786 5.58839C7.44389 5.58839 7.29654 5.52571 7.19023 5.41463C7.08356 5.30356 7.0271 5.15401 7.03333 5.00004L7.03224 4.43589ZM9.83501 11.0225C9.83501 11.3465 9.57218 11.609 9.2485 11.609H5.97765C5.65361 11.609 5.39114 11.3465 5.39114 11.0225V4.97774C5.39114 4.65369 5.65361 4.39123 5.97765 4.39123H6.64151V5.0001C6.63307 5.2589 6.73022 5.51 6.9102 5.69585C7.09019 5.8817 7.33799 5.98654 7.59679 5.98654C7.85558 5.98654 8.10338 5.8817 8.28373 5.69585C8.46372 5.51 8.56086 5.2589 8.55243 5.0001V4.39123H9.24744C9.57149 4.39123 9.83395 4.65369 9.83395 4.97774V5.66982C9.03813 5.73067 8.3277 6.19035 7.94651 6.89164C7.56492 7.59252 7.56492 8.4389 7.94651 9.14018C8.32775 9.84106 9.03817 10.3011 9.83395 10.362L9.83501 11.0225ZM10.0304 9.97659C9.50986 9.97659 9.01061 9.76984 8.64219 9.40144C8.27415 9.0334 8.06741 8.53414 8.06741 8.01324C8.06778 7.49271 8.27452 6.99346 8.64292 6.62542C9.01096 6.25738 9.51023 6.05064 10.0311 6.051C10.5517 6.051 11.0509 6.25811 11.4189 6.62651C11.787 6.99455 11.9934 7.49418 11.9934 8.01471C11.9926 8.53488 11.7855 9.03374 11.4175 9.40141C11.0494 9.76908 10.5505 9.97622 10.0304 9.97659ZM8.36874 10.5884C8.4765 10.5884 8.56411 10.676 8.56411 10.7841C8.56411 10.8919 8.47651 10.9795 8.36874 10.9795H6.85263C6.7445 10.9795 6.65689 10.8919 6.65689 10.7841C6.65689 10.676 6.7445 10.5884 6.85263 10.5884H8.36874ZM9.64921 7.50522C9.64921 7.65881 9.82112 7.78784 10.0257 7.78784C10.4491 7.78784 10.7929 8.091 10.7929 8.46233C10.7929 8.77428 10.5495 9.03711 10.221 9.11336V9.32083C10.221 9.4286 10.1334 9.51621 10.0257 9.51621C9.91754 9.51621 9.82993 9.4286 9.82993 9.32083V9.11336C9.50148 9.03711 9.25807 8.77428 9.25807 8.46233C9.25807 8.35456 9.34568 8.26695 9.45382 8.26695C9.56159 8.26695 9.6492 8.35456 9.6492 8.46233C9.6492 8.61592 9.82111 8.74495 10.0257 8.74495C10.2298 8.74495 10.4021 8.61592 10.4021 8.46233C10.4021 8.30874 10.2291 8.17897 10.0257 8.17897C9.60228 8.17897 9.25843 7.87692 9.25843 7.50559C9.25843 7.19291 9.50184 6.93081 9.83028 6.85456V6.70793H9.82992C9.82992 6.5998 9.91753 6.51219 10.0257 6.51219C10.1334 6.51219 10.221 6.5998 10.221 6.70793V6.85456C10.5495 6.93081 10.7929 7.19291 10.7929 7.50559C10.7929 7.61335 10.7053 7.70096 10.5975 7.70096C10.4894 7.70096 10.4018 7.61335 10.4018 7.50559C10.4018 7.352 10.2287 7.22223 10.0253 7.22223C9.82222 7.22186 9.65397 7.352 9.65397 7.50559L9.64921 7.50522Z" fill="white"/>
</svg>
