<svg width="20" height="20" viewBox="0 0 20 20" fill="none" xmlns="http://www.w3.org/2000/svg">
<circle cx="10" cy="10" r="10" fill="#E8EBEC"/>
<path d="M12.7822 7.08716V6.22205C12.7822 5.89764 12.6534 5.58697 12.4243 5.35787C12.1952 5.12876 11.8846 5 11.5606 5H7.47205C6.79711 5 6.25 5.54711 6.25 6.22205V13.7779C6.25 14.1024 6.37876 14.413 6.60787 14.6421C6.83697 14.8712 7.1481 15 7.47205 15H11.5606C11.8846 15 12.1952 14.8712 12.4243 14.6421C12.6534 14.413 12.7822 14.1024 12.7822 13.7779V12.9486C13.777 12.8725 14.6655 12.2975 15.142 11.4213C15.6185 10.5448 15.6185 9.48677 15.142 8.61064C14.6654 7.73408 13.7769 7.1595 12.7822 7.08337V7.08716ZM8.79031 5.54487H10.203V6.25005C10.2108 6.4425 10.1402 6.62945 10.0069 6.76829C9.87398 6.90713 9.68978 6.98549 9.49732 6.98549C9.30486 6.98549 9.12067 6.90714 8.98778 6.76829C8.85445 6.62945 8.78388 6.44251 8.79167 6.25005L8.79031 5.54487ZM12.2938 13.7781C12.2938 14.1831 11.9652 14.5112 11.5606 14.5112H7.47206C7.06701 14.5112 6.73893 14.1831 6.73893 13.7781V6.22217C6.73893 5.81711 7.06701 5.48903 7.47206 5.48903H8.30188V6.25012C8.29134 6.57362 8.41277 6.8875 8.63775 7.11981C8.86274 7.35213 9.17249 7.48318 9.49598 7.48318C9.81948 7.48318 10.1292 7.35213 10.3547 7.11981C10.5797 6.8875 10.7011 6.57363 10.6905 6.25012V5.48903H11.5593C11.9644 5.48903 12.2924 5.81711 12.2924 6.22217V7.08727C11.2977 7.16334 10.4096 7.73794 9.93314 8.61455C9.45615 9.49065 9.45615 10.5486 9.93314 11.4252C10.4097 12.3013 11.2977 12.8764 12.2924 12.9525L12.2938 13.7781ZM12.538 12.4707C11.8873 12.4707 11.2633 12.2123 10.8027 11.7518C10.3427 11.2918 10.0843 10.6677 10.0843 10.0166C10.0847 9.36589 10.3431 8.74183 10.8037 8.28177C11.2637 7.82172 11.8878 7.5633 12.5389 7.56375C13.1896 7.56375 13.8136 7.82264 14.2737 8.28314C14.7337 8.74319 14.9917 9.36773 14.9917 10.0184C14.9908 10.6686 14.7319 11.2922 14.2719 11.7518C13.8118 12.2114 13.1882 12.4703 12.538 12.4707ZM10.4609 13.2355C10.5956 13.2355 10.7051 13.345 10.7051 13.4802C10.7051 13.6149 10.5956 13.7244 10.4609 13.7244H8.56579C8.43062 13.7244 8.32111 13.6149 8.32111 13.4802C8.32111 13.345 8.43062 13.2355 8.56579 13.2355H10.4609ZM12.0615 9.38153C12.0615 9.57351 12.2764 9.7348 12.5321 9.7348C13.0613 9.7348 13.4911 10.1137 13.4911 10.5779C13.4911 10.9678 13.1869 11.2964 12.7763 11.3917V11.651C12.7763 11.7857 12.6668 11.8953 12.5321 11.8953C12.3969 11.8953 12.2874 11.7857 12.2874 11.651V11.3917C11.8769 11.2964 11.5726 10.9678 11.5726 10.5779C11.5726 10.4432 11.6821 10.3337 11.8173 10.3337C11.952 10.3337 12.0615 10.4432 12.0615 10.5779C12.0615 10.7699 12.2764 10.9312 12.5321 10.9312C12.7873 10.9312 13.0027 10.7699 13.0027 10.5779C13.0027 10.3859 12.7864 10.2237 12.5321 10.2237C12.0028 10.2237 11.573 9.84615 11.573 9.38198C11.573 8.99113 11.8773 8.66351 12.2879 8.5682V8.38491H12.2874C12.2874 8.24975 12.3969 8.14023 12.5321 8.14023C12.6668 8.14023 12.7763 8.24975 12.7763 8.38491V8.5682C13.1869 8.66351 13.4911 8.99113 13.4911 9.38198C13.4911 9.51669 13.3816 9.62621 13.2469 9.62621C13.1117 9.62621 13.0022 9.51669 13.0022 9.38198C13.0022 9.18999 12.7859 9.02779 12.5316 9.02779C12.2778 9.02733 12.0675 9.18999 12.0675 9.38198L12.0615 9.38153Z" fill="#549A9F"/>
</svg>
