<svg width="24" height="21" viewBox="0 0 24 21" fill="none" xmlns="http://www.w3.org/2000/svg">
<path d="M5.45415 6.25879C5.30948 6.25879 5.17074 6.31626 5.06845 6.41855C4.96616 6.52084 4.90869 6.65958 4.90869 6.80424V7.9889C4.90869 8.13357 4.96616 8.27231 5.06845 8.3746C5.17074 8.47689 5.30948 8.53436 5.45415 8.53436C5.59881 8.53436 5.73755 8.47689 5.83984 8.3746C5.94213 8.27231 5.9996 8.13357 5.9996 7.9889V6.80424C5.9996 6.65958 5.94213 6.52084 5.83984 6.41855C5.73755 6.31626 5.59881 6.25879 5.45415 6.25879Z" fill="#1B3843"/>
<path d="M5.45415 9.22144C5.30948 9.22144 5.17074 9.2789 5.06845 9.3812C4.96616 9.48349 4.90869 9.62223 4.90869 9.76689V10.9515C4.90869 11.0962 4.96616 11.235 5.06845 11.3372C5.17074 11.4395 5.30948 11.497 5.45415 11.497C5.59881 11.497 5.73755 11.4395 5.83984 11.3372C5.94213 11.235 5.9996 11.0962 5.9996 10.9515V9.76689C5.9996 9.62223 5.94213 9.48349 5.83984 9.3812C5.73755 9.2789 5.59881 9.22144 5.45415 9.22144Z" fill="#1B3843"/>
<path d="M5.45415 12.1838C5.30948 12.1838 5.17074 12.2413 5.06845 12.3436C4.96616 12.4459 4.90869 12.5846 4.90869 12.7293V13.914C4.90869 14.0586 4.96616 14.1974 5.06845 14.2996C5.17074 14.4019 5.30948 14.4594 5.45415 14.4594C5.59881 14.4594 5.73755 14.4019 5.83984 14.2996C5.94213 14.1974 5.9996 14.0586 5.9996 13.914V12.7293C5.9996 12.5846 5.94213 12.4459 5.83984 12.3436C5.73755 12.2413 5.59881 12.1838 5.45415 12.1838Z" fill="#1B3843"/>
<path d="M3.74574 0C3.11042 0.0531944 2.53162 0.47662 2.32031 1.11541L1.59375 3.30895C0.707902 3.38303 0 4.12692 0 5.03054V7.20064C0.000174545 7.43731 0.152935 7.64687 0.378196 7.71946C1.05866 7.93908 1.63613 8.79396 1.63636 9.84055C1.63646 10.8875 1.05887 11.743 0.378196 11.9627C0.152935 12.0353 0.000174545 12.2449 0 12.4815V15.7415C0 16.6935 0.783442 17.4769 1.73544 17.4769H10.3466L19.6076 20.6388C20.4625 20.9308 21.3979 20.4529 21.6797 19.6012L22.3871 17.4641C23.2819 17.3994 24 16.6516 24 15.7415V12.4805C23.9998 12.2438 23.8471 12.0342 23.6218 11.9616C22.9413 11.742 22.3639 10.8871 22.3636 9.84055C22.3635 8.79362 22.9411 7.93808 23.6218 7.71839C23.8471 7.64581 23.9998 7.43624 24 7.19957V5.03054C24 4.07854 23.2166 3.2951 22.2646 3.2951H13.6555L4.39559 0.0777699C4.18122 0.00269625 3.94756 0.0121869 3.74574 0ZM3.82564 1.08239C3.89637 1.07756 3.97017 1.08687 4.04403 1.11115C6.13926 1.83871 8.23438 2.56701 10.3295 3.2951H2.74751L3.35582 1.45739C3.42913 1.23578 3.61343 1.09686 3.82564 1.08239ZM1.73544 4.38601H4.90909V4.90483C4.90909 5.20608 5.1533 5.45028 5.45455 5.45028C5.75579 5.45028 6 5.20608 6 4.90483V4.38601H22.2646C22.6312 4.38601 22.9091 4.66393 22.9091 5.03054V6.88743C21.9017 7.41816 21.2726 8.56196 21.2727 9.84055C21.273 11.1187 21.902 12.2621 22.9091 12.7926V15.7415C22.9091 16.1081 22.6312 16.386 22.2646 16.386H5.99894C6.00165 16.1978 6 16.0041 6 15.8139C6 15.5127 5.75579 15.2685 5.45455 15.2685C5.1533 15.2685 4.90909 15.5127 4.90909 15.8139C4.908 16.0032 4.90955 16.1989 4.91018 16.386H1.73547C1.36875 16.386 1.09091 16.1081 1.09091 15.7415V12.7937C2.0983 12.2629 2.72739 11.1191 2.72727 9.84055C2.72699 8.56236 2.09801 7.41902 1.09091 6.88849V5.03054C1.09091 4.66393 1.36883 4.38601 1.73544 4.38601ZM13.7227 17.4769H21.2333L20.6442 19.2582C20.5463 19.554 20.2492 19.7052 19.9602 19.6065L13.7227 17.4769Z" fill="#1B3843"/>
<path d="M16.7799 11.2129C17.7509 11.2129 18.5494 12.0114 18.5494 12.9824C18.5494 13.9534 17.7509 14.753 16.7799 14.753C15.8089 14.753 15.0093 13.9534 15.0093 12.9824C15.0093 12.0114 15.8089 11.2129 16.7799 11.2129ZM16.7799 12.3038C16.3985 12.3038 16.1002 12.601 16.1002 12.9824C16.1002 13.3638 16.3985 13.6621 16.7799 13.6621C17.1613 13.6621 17.4585 13.3638 17.4585 12.9824C17.4585 12.601 17.1613 12.3038 16.7799 12.3038Z" fill="#1B3843"/>
<path d="M11.585 6.0188C12.556 6.0188 13.3546 6.81735 13.3546 7.78833C13.3546 8.75931 12.556 9.55786 11.585 9.55786C10.6141 9.55786 9.81445 8.75931 9.81445 7.78833C9.81445 6.81735 10.6141 6.0188 11.585 6.0188ZM11.585 7.10971C11.2036 7.10971 10.9054 7.40692 10.9054 7.78833C10.9054 8.16974 11.2036 8.46695 11.585 8.46695C11.9665 8.46695 12.2637 8.16974 12.2637 7.78833C12.2637 7.40692 11.9665 7.10971 11.585 7.10971Z" fill="#1B3843"/>
<path d="M16.3934 7.40328L11.1988 12.5979C10.9858 12.8109 10.9858 13.1562 11.1988 13.3692C11.4118 13.5822 11.7571 13.5822 11.9701 13.3692L17.1647 8.17459C17.3776 7.96159 17.3776 7.61629 17.1647 7.40328C16.9419 7.20518 16.6035 7.18442 16.3934 7.40328Z" fill="#1B3843"/>
</svg>
