<svg width="18" height="15" viewBox="0 0 18 15" fill="none" xmlns="http://www.w3.org/2000/svg">
<path d="M15.8569 0.000822798H3.85714C2.67429 0.000822798 1.71401 0.961097 1.71401 2.14395V3.47225C0.736869 3.66913 0 4.53538 0 5.57198V12.4288C0 13.6117 0.960274 14.572 2.14313 14.572H14.1429C15.3257 14.572 16.286 13.6117 16.286 12.4288V11.1005C17.2631 10.9037 18 10.0374 18 9.00082V2.14313C18 0.960275 17.0397 0 15.8569 0V0.000822798ZM2.57143 2.14313C2.57143 1.43198 3.14599 0.857417 3.85714 0.857417H15.8569C16.568 0.857417 17.1426 1.43198 17.1426 2.14313V3.42885H2.57143V2.14313ZM15.4286 12.4288C15.4286 13.14 14.854 13.7146 14.1429 13.7146H2.14313C1.43198 13.7146 0.857417 13.14 0.857417 12.4288V5.57198C0.857417 4.86082 1.43198 4.28626 2.14313 4.28626H14.1429C14.854 4.28626 15.4286 4.86082 15.4286 5.57198V12.4288ZM16.286 10.2094V5.57198C16.286 5.08341 16.1148 4.64626 15.8488 4.28626H17.1434V9.00082C17.1434 9.55769 16.7834 10.0382 16.286 10.2094Z" fill="#1B3843"/>
<path d="M2.14314 10.2864H5.57199C5.81226 10.2864 6.00028 10.0976 6.00028 9.85812V7.28669C6.00028 7.04642 5.81144 6.8584 5.57199 6.8584H2.14314C1.90287 6.8584 1.71484 7.04724 1.71484 7.28669V9.85812C1.71484 10.0984 1.90368 10.2864 2.14314 10.2864ZM2.57144 7.71499H5.14287V9.429H2.57144V7.71499Z" fill="#1B3843"/>
<path d="M3.85715 11.1431H2.14314C1.90287 11.1431 1.71484 11.3319 1.71484 11.5714C1.71484 11.8116 1.90368 11.9997 2.14314 11.9997H3.85715C4.09743 11.9997 4.28545 11.8108 4.28545 11.5714C4.28545 11.3311 4.09661 11.1431 3.85715 11.1431Z" fill="#1B3843"/>
<path d="M7.28598 11.1431H5.57197C5.3317 11.1431 5.14368 11.3319 5.14368 11.5714C5.14368 11.8116 5.33252 11.9997 5.57197 11.9997H7.28598C7.52626 11.9997 7.71428 11.8108 7.71428 11.5714C7.71428 11.3311 7.52544 11.1431 7.28598 11.1431Z" fill="#1B3843"/>
<path d="M10.714 11.1431H8.99998C8.75971 11.1431 8.57169 11.3319 8.57169 11.5714C8.57169 11.8116 8.76053 11.9997 8.99998 11.9997H10.714C10.9543 11.9997 11.1423 11.8108 11.1423 11.5714C11.1423 11.3311 10.9535 11.1431 10.714 11.1431Z" fill="#1B3843"/>
<path d="M14.1429 11.1431H12.4288C12.1886 11.1431 12.0005 11.3319 12.0005 11.5714C12.0005 11.8116 12.1894 11.9997 12.4288 11.9997H14.1429C14.3831 11.9997 14.5712 11.8108 14.5712 11.5714C14.5712 11.3311 14.3823 11.1431 14.1429 11.1431Z" fill="#1B3843"/>
</svg>
