<svg width="22" height="22" viewBox="0 0 22 22" fill="none" xmlns="http://www.w3.org/2000/svg">
<path d="M19.1675 10.193C19.1675 14.6754 15.9133 18.8738 11.4675 20.1021C11.165 20.1846 10.835 20.1846 10.5325 20.1021C6.08665 18.8738 2.83249 14.6754 2.83249 10.193V6.16877C2.83249 5.4171 3.40084 4.56461 4.10667 4.28044L9.21248 2.19047C10.3583 1.72297 11.6508 1.72297 12.7967 2.19047L17.9025 4.28044C18.5992 4.56461 19.1767 5.4171 19.1767 6.16877L19.1675 10.193Z" stroke="#356475" stroke-width="1.5" stroke-linecap="round" stroke-linejoin="round"/>
<path d="M11 11.4587C12.0125 11.4587 12.8333 10.6378 12.8333 9.62533C12.8333 8.6128 12.0125 7.79199 11 7.79199C9.98748 7.79199 9.16667 8.6128 9.16667 9.62533C9.16667 10.6378 9.98748 11.4587 11 11.4587Z" stroke="#356475" stroke-width="1.5" stroke-miterlimit="10" stroke-linecap="round" stroke-linejoin="round"/>
<path d="M11 11.459V14.209" stroke="#356475" stroke-width="1.5" stroke-miterlimit="10" stroke-linecap="round" stroke-linejoin="round"/>
</svg>
