<svg width="24" height="25" viewBox="0 0 24 25" fill="none" xmlns="http://www.w3.org/2000/svg">
<path d="M12.1601 11.7477C12.0601 11.7377 11.9401 11.7377 11.8301 11.7477C9.45006 11.6677 7.56006 9.71769 7.56006 7.31769C7.56006 4.86769 9.54006 2.87769 12.0001 2.87769C14.4501 2.87769 16.4401 4.86769 16.4401 7.31769C16.4301 9.71769 14.5401 11.6677 12.1601 11.7477Z" stroke="#011E29" stroke-width="1.5" stroke-linecap="round" stroke-linejoin="round"/>
<path d="M7.15973 15.4377C4.73973 17.0577 4.73973 19.6977 7.15973 21.3077C9.90973 23.1477 14.4197 23.1477 17.1697 21.3077C19.5897 19.6877 19.5897 17.0477 17.1697 15.4377C14.4297 13.6077 9.91973 13.6077 7.15973 15.4377Z" stroke="#011E29" stroke-width="1.5" stroke-linecap="round" stroke-linejoin="round"/>
</svg>
