<svg width="26" height="26" viewBox="0 0 26 26" fill="none" xmlns="http://www.w3.org/2000/svg">
<path d="M23.8333 13.0003C23.8333 7.03116 18.9692 2.16699 13 2.16699C7.03083 2.16699 2.16666 7.03116 2.16666 13.0003C2.16666 16.142 3.52083 18.9695 5.66583 20.952C5.66583 20.9628 5.66583 20.9628 5.655 20.9737C5.76333 21.082 5.89333 21.1687 6.00166 21.2662C6.06666 21.3203 6.12083 21.3745 6.18583 21.4178C6.38083 21.5803 6.5975 21.732 6.80333 21.8837C6.87916 21.9378 6.94416 21.9812 7.02 22.0353C7.22583 22.1762 7.4425 22.3062 7.67 22.4253C7.74583 22.4687 7.8325 22.5228 7.90833 22.5662C8.125 22.6853 8.3525 22.7937 8.59083 22.8912C8.6775 22.9345 8.76416 22.9778 8.85083 23.0103C9.08916 23.1078 9.3275 23.1945 9.56583 23.2703C9.6525 23.3028 9.73916 23.3353 9.82583 23.357C10.0858 23.4328 10.3458 23.4978 10.6058 23.5628C10.6817 23.5845 10.7575 23.6062 10.8442 23.617C11.1475 23.682 11.4508 23.7253 11.765 23.7578C11.8083 23.7578 11.8517 23.7687 11.895 23.7795C12.2633 23.812 12.6317 23.8337 13 23.8337C13.3683 23.8337 13.7367 23.812 14.0942 23.7795C14.1375 23.7795 14.1808 23.7687 14.2242 23.7578C14.5383 23.7253 14.8417 23.682 15.145 23.617C15.2208 23.6062 15.2967 23.5737 15.3833 23.5628C15.6433 23.4978 15.9142 23.4437 16.1633 23.357C16.25 23.3245 16.3367 23.292 16.4233 23.2703C16.6617 23.1837 16.9108 23.1078 17.1383 23.0103C17.225 22.9778 17.3117 22.9345 17.3983 22.8912C17.6258 22.7937 17.8533 22.6853 18.0808 22.5662C18.1675 22.5228 18.2433 22.4687 18.3192 22.4253C18.5358 22.2953 18.7525 22.1762 18.9692 22.0353C19.045 21.992 19.11 21.9378 19.1858 21.8837C19.4025 21.732 19.6083 21.5803 19.8033 21.4178C19.8683 21.3637 19.9225 21.3095 19.9875 21.2662C20.1067 21.1687 20.2258 21.0712 20.3342 20.9737C20.3342 20.9628 20.3342 20.9628 20.3233 20.952C22.4792 18.9695 23.8333 16.142 23.8333 13.0003ZM18.3517 18.3845C15.4158 16.4128 10.6058 16.4128 7.64833 18.3845C7.17166 18.6987 6.78166 19.067 6.45666 19.4678C4.81 17.7995 3.79166 15.5137 3.79166 13.0003C3.79166 7.91949 7.91916 3.79199 13 3.79199C18.0808 3.79199 22.2083 7.91949 22.2083 13.0003C22.2083 15.5137 21.19 17.7995 19.5433 19.4678C19.2292 19.067 18.8283 18.6987 18.3517 18.3845Z" fill="white"/>
<path d="M13 7.50684C10.7575 7.50684 8.9375 9.32684 8.9375 11.5693C8.9375 13.7685 10.66 15.556 12.9458 15.621C12.9783 15.621 13.0217 15.621 13.0433 15.621C13.065 15.621 13.0975 15.621 13.1192 15.621C13.13 15.621 13.1408 15.621 13.1408 15.621C15.3292 15.5452 17.0517 13.7685 17.0625 11.5693C17.0625 9.32684 15.2425 7.50684 13 7.50684Z" fill="white"/>
</svg>
