<svg width="14" height="14" viewBox="0 0 14 14" fill="none" xmlns="http://www.w3.org/2000/svg">
<path d="M7 0C3.14027 0 0 3.14027 0 7C0 10.8597 3.14027 14 7 14C10.8597 14 14 10.8597 14 7C14 3.14027 10.8597 0 7 0ZM7 13.125C3.62261 13.125 0.875 10.3774 0.875 7C0.875 3.62261 3.62261 0.875 7 0.875C10.3774 0.875 13.125 3.62261 13.125 7C13.125 10.3774 10.3774 13.125 7 13.125ZM9.93431 6.69069C10.1053 6.86164 10.1053 7.13847 9.93431 7.30931L7.74681 9.49681C7.66139 9.58223 7.54939 9.625 7.4375 9.625C7.32561 9.625 7.21361 9.58223 7.12819 9.49681C6.95723 9.32586 6.95723 9.04903 7.12819 8.87819L8.56888 7.4375H4.375C4.13339 7.4375 3.9375 7.24183 3.9375 7C3.9375 6.75817 4.13339 6.5625 4.375 6.5625H8.56888L7.12819 5.12181C6.95723 4.95086 6.95723 4.67403 7.12819 4.50319C7.29914 4.33234 7.57597 4.33223 7.74681 4.50319L9.93431 6.69069Z" fill="#201E43"/>
</svg>
