<svg width="24" height="24" viewBox="0 0 24 24" fill="none" xmlns="http://www.w3.org/2000/svg">
<path d="M9.66667 14.33H6.67997C6.51998 14.33 6.38664 14.4581 6.38664 14.6117V21H9.96663V14.6117C9.96663 14.4581 9.83333 14.33 9.66667 14.33ZM9.34664 17.8251H9.04663C8.85998 17.8251 8.71329 17.6778 8.71329 17.505C8.71329 17.3257 8.85998 17.1849 9.04663 17.1849H9.34664C9.53332 17.1849 9.67997 17.3257 9.67997 17.505C9.67997 17.6778 9.53332 17.8251 9.34664 17.8251ZM17.62 14.6117V18.4588C17.62 18.6124 17.4933 18.7404 17.3267 18.7404H13.3267C13.16 18.7404 13.0267 18.6124 13.0267 18.4588V14.6117C13.0267 14.4581 13.16 14.33 13.3267 14.33H17.3267C17.4933 14.33 17.62 14.4581 17.62 14.6117ZM20.14 12.7233H20C19.1933 12.7233 18.4733 12.3777 17.9867 11.8336C17.5267 12.3457 16.8667 12.6913 16.1466 12.7233H16.0066C15.2933 12.7233 14.62 12.4609 14.12 11.9744L14 11.8592C13.5133 12.3905 12.8 12.7233 12.0066 12.7233C11.2133 12.7233 10.4933 12.3841 10.0066 11.8528C9.51998 12.3905 8.79997 12.7233 8.00663 12.7233C7.82666 12.7233 7.64665 12.7041 7.46663 12.6722C6.88664 12.5633 6.37997 12.2625 6.00663 11.84C5.6333 12.2561 5.12663 12.5569 4.54663 12.6722C4.36666 12.7041 4.17997 12.7233 4.00663 12.7233C3.80664 12.7233 3.61332 12.7042 3.42664 12.6593V19.7326C3.42664 20.4303 4.01998 21 4.74667 21H5.71997V14.6117C5.71997 14.106 6.15332 13.6899 6.67998 13.6899H9.66667C10.2 13.6899 10.6333 14.106 10.6333 14.6117V21H19.2666C19.9933 21 20.58 20.4303 20.58 19.7326V12.6593C20.44 12.6977 20.2933 12.7169 20.14 12.7233ZM18.2867 18.4588C18.2867 18.9644 17.86 19.3805 17.3267 19.3805H13.3267C12.7933 19.3805 12.36 18.9644 12.36 18.4588V14.6117C12.36 14.106 12.7933 13.6899 13.3267 13.6899H17.3267C17.86 13.6899 18.2867 14.106 18.2867 14.6117V18.4588ZM2.01331 9.29874H5.67997V11.1871C5.39998 11.6159 4.95333 11.936 4.41333 12.0448C3.1333 12.2881 2 11.3599 2 10.1629V9.49717C2 9.43318 2 9.36914 2.01331 9.29874ZM7.41333 3L5.7533 8.65862H2.16667C2.18664 8.60741 2.20666 8.56259 2.23332 8.51141L4.56665 3.76815C4.79329 3.30088 5.27999 3 5.81999 3L7.41333 3ZM6.34664 9.29874H9.6733V11.2255C9.23999 11.84 8.45333 12.2048 7.59997 12.0448C7.06665 11.9424 6.62663 11.6224 6.34663 11.1999L6.34664 9.29874ZM8.11332 3H10.26L9.70667 8.65862H6.44666L8.11332 3ZM13.6333 8.65862H10.3733L10.9266 3.03204V3H13.0866L13.6333 8.65862ZM10.34 9.29874H13.66V11.2447C13.3 11.7504 12.6933 12.0832 12.0066 12.0832C11.3066 12.0832 10.7 11.744 10.34 11.2255L10.34 9.29874ZM17.56 8.65862H14.3066L13.7533 3H15.8933L17.56 8.65862ZM14.3267 9.29874H17.6733V11.1743C17.3333 11.6928 16.7733 12.0512 16.1133 12.0832C15.36 12.1216 14.7 11.7632 14.3267 11.2063V9.29874ZM21.8333 8.65862H18.2533L16.5866 3H18.1866C18.72 3 19.2133 3.30088 19.4467 3.76815L21.7733 8.51141C21.8 8.56259 21.82 8.60741 21.8333 8.65862ZM22 9.49076V10.0541C22 11.0975 21.1933 12.032 20.1066 12.0832C19.3667 12.1216 18.7133 11.7696 18.34 11.2255V9.29874H21.9933C22 9.36273 22 9.42677 22 9.49076Z" fill="white"/>
</svg>
