<svg width="112" height="63" viewBox="0 0 112 63" fill="none" xmlns="http://www.w3.org/2000/svg">
<path d="M77.328 0.392162L75.856 2.94356L55.6901 37.6327L53.0897 42.1467L43.2276 59.1724C42.4425 60.4972 41.0196 61.3313 39.4986 61.3313H2.15988C0.491657 61.3313 -0.538715 59.5159 0.295395 58.093L30.5687 5.93654L33.3654 1.12814C33.4636 0.980946 33.5617 0.833748 33.6598 0.735617C33.7579 0.588422 33.9051 0.490292 34.0523 0.392162C34.3958 0.146835 34.7883 0.0487061 35.2299 0.0487061H76.1995C76.592 0.0487061 76.9845 0.146835 77.328 0.392162Z" fill="white"/>
<path d="M55.6909 37.6334L53.0905 42.1474L34.8872 3.33674L33.6606 0.736278C33.7587 0.589082 33.9059 0.490953 34.0531 0.392822L35.5251 2.94422L55.6909 37.6334Z" fill="#F3F3F3"/>
<path d="M109.27 61.3317H71.9311C70.4101 61.3317 68.9872 60.4976 68.2022 59.1728L55.6905 37.6331L35.5246 2.89486L34.0527 0.343456C34.3961 0.0981292 34.7887 0 35.2303 0H76.1998C76.5923 0 77.0339 0.0981292 77.3283 0.343456C77.6227 0.539717 77.868 0.785044 78.0152 1.07944L80.8119 5.88784L111.085 58.0443C111.968 59.5162 110.889 61.3317 109.27 61.3317Z" fill="white"/>
<path d="M87.0919 63C86.6012 63 86.2087 62.7547 85.9634 62.3131L80.1736 51.9603C78.9961 49.8014 79.7321 47.1029 81.8909 45.9253C84.0498 44.7477 86.7484 45.4837 87.926 47.6426L96.1199 62.3622C96.2671 62.6565 96.0708 63 95.7274 63H87.0919Z" fill="#D6D6D6"/>
<path d="M86.6012 49.3596C86.7974 50.7334 85.8161 52.0091 84.4423 52.1563C83.0685 52.3525 81.7928 51.3712 81.6456 49.9974C81.4493 48.6236 82.4306 47.3479 83.8045 47.2007C85.1292 47.0535 86.4049 47.9857 86.6012 49.3596Z" fill="white"/>
</svg>
