<svg width="24" height="24" viewBox="0 0 24 24" fill="none" xmlns="http://www.w3.org/2000/svg">
<path d="M22.9998 19.3017L15.0194 19.3073L2.61694 6.90625" stroke="#356475" stroke-width="1.3" stroke-miterlimit="10"/>
<path d="M16.3527 10.4463H13.4065" stroke="#356475" stroke-width="1.3" stroke-miterlimit="10"/>
<path d="M16.8938 13.1387H13.9374" stroke="#356475" stroke-width="1.3" stroke-miterlimit="10"/>
<path d="M17.2719 15.0206H18.9747C21.198 15.0206 23.0003 16.823 23.0003 19.0463V19.6897C23.0003 21.0019 21.9365 22.0656 20.6243 22.0656H13.904L2.36038 10.5234C1.43253 9.59559 1.43253 8.09132 2.36038 7.16356L8.52456 1L9.87323 2.34855C9.81843 3.61648 10.2982 4.84923 11.1957 5.74662L11.4471 5.99801C12.2704 6.82121 13.6051 6.82121 14.4284 5.99801L15.7188 7.2883L17.2719 15.0206Z" stroke="#356475" stroke-width="1.3" stroke-miterlimit="10"/>
<path d="M5.18268 16.7539H1" stroke="#356475" stroke-width="1.3" stroke-miterlimit="10"/>
<path d="M7.83909 19.4092H3.6564" stroke="#356475" stroke-width="1.3" stroke-miterlimit="10"/>
<path d="M10.495 22.0654H6.31226" stroke="#356475" stroke-width="1.3" stroke-miterlimit="10"/>
</svg>
