<svg width="40" height="40" viewBox="0 0 40 40" fill="none" xmlns="http://www.w3.org/2000/svg">
<rect width="40" height="40" rx="12" fill="#1679AB"/>
<path d="M17.8225 20.8355C17.5857 20.8355 17.3873 20.7554 17.2272 20.5953C17.067 20.4352 16.9869 20.2367 16.9869 20V14.8407L15.4204 16.4073C15.2672 16.5605 15.0757 16.6371 14.846 16.6371C14.6162 16.6371 14.4178 16.5605 14.2507 16.4073C14.0836 16.2402 14 16.0418 14 15.812C14 15.5822 14.0836 15.3838 14.2507 15.2167L17.2376 12.2298C17.3211 12.1462 17.4117 12.087 17.5091 12.0522C17.6066 12.0174 17.7111 12 17.8225 12C17.9339 12 18.0383 12.0174 18.1358 12.0522C18.2332 12.087 18.3238 12.1462 18.4073 12.2298L21.4151 15.2376C21.5822 15.4047 21.6623 15.5997 21.6554 15.8225C21.6484 16.0453 21.5614 16.2402 21.3943 16.4073C21.2272 16.5605 21.0322 16.6406 20.8094 16.6475C20.5866 16.6545 20.3916 16.5744 20.2245 16.4073L18.658 14.8407V20C18.658 20.2367 18.5779 20.4352 18.4178 20.5953C18.2576 20.7554 18.0592 20.8355 17.8225 20.8355ZM22.8355 28C22.7241 28 22.6197 27.9826 22.5222 27.9478C22.4247 27.913 22.3342 27.8538 22.2507 27.7702L19.2428 24.7624C19.0757 24.5953 18.9956 24.4003 19.0026 24.1775C19.0096 23.9547 19.0966 23.7598 19.2637 23.5927C19.4308 23.4395 19.6258 23.3594 19.8486 23.3525C20.0714 23.3455 20.2663 23.4256 20.4334 23.5927L22 25.1593V20C22 19.7633 22.0801 19.5648 22.2402 19.4047C22.4003 19.2446 22.5988 19.1645 22.8355 19.1645C23.0722 19.1645 23.2707 19.2446 23.4308 19.4047C23.5909 19.5648 23.671 19.7633 23.671 20V25.1593L25.2376 23.5927C25.3908 23.4395 25.5822 23.3629 25.812 23.3629C26.0418 23.3629 26.2402 23.4395 26.4073 23.5927C26.5744 23.7598 26.658 23.9582 26.658 24.188C26.658 24.4178 26.5744 24.6162 26.4073 24.7833L23.4204 27.7702C23.3368 27.8538 23.2463 27.913 23.1488 27.9478C23.0513 27.9826 22.9469 28 22.8355 28Z" fill="white"/>
</svg>
