<svg width="24" height="24" viewBox="0 0 24 24" fill="none" xmlns="http://www.w3.org/2000/svg">
<path d="M23.6162 14.6667H19.1898V12.7606C19.1898 12.5341 18.9873 12.359 18.7612 12.359H17.2964V9.83754C17.2964 9.61098 17.1387 9.4359 16.9126 9.4359H16.3317C16.183 7.81551 15.1461 6.41306 13.6427 5.79848C13.592 5.45333 13.4314 5.13381 13.185 4.88762C12.9745 4.6847 12.7166 4.53786 12.435 4.46054V2.97436H15.2273C15.3824 2.97656 15.5249 2.88942 15.5943 2.7506C15.6638 2.61158 15.6477 2.44491 15.5529 2.32192L14.9232 1.49459L15.5529 0.666667C15.6473 0.541466 15.6632 0.373998 15.5945 0.233173C15.5257 0.0923477 15.3838 0.00220353 15.2273 0H12.0034C11.7773 0 11.6162 0.192107 11.6162 0.41887V4.47196C11.3306 4.54087 11.0711 4.69131 10.869 4.90485C10.6287 5.14824 10.4698 5.46054 10.4146 5.79828C8.90945 6.41226 7.8706 7.8145 7.71948 9.4359H7.13859C6.91251 9.4359 6.70362 9.61098 6.70362 9.83754V12.359H5.30277C5.19703 12.3578 5.09548 12.4 5.02172 12.476C4.94796 12.5519 4.90858 12.6548 4.91258 12.7606V14.6667H0.434968C0.208889 14.6667 0 14.8417 0 15.0683V23.5811C0 23.8079 0.208889 24 0.434968 24H5.29638H5.29957H5.30277H23.6162C23.8423 24 24 23.8079 24 23.5811V15.0683C24 14.8417 23.8423 14.6667 23.6162 14.6667ZM12.435 0.820513H14.4007L14.0827 1.24279C13.9709 1.38882 13.9709 1.59195 14.0827 1.73798L14.4007 2.15385H12.435V0.820513ZM16.4776 12.359H15.7612V10.2564H16.4776V12.359ZM9.92751 10.2564V12.359H9.10874V10.2564H9.92751ZM10.7463 10.2564H11.6162V12.359H10.7463V10.2564ZM12.435 10.2564H13.2537V12.359H12.435V10.2564ZM14.0725 10.2564H14.9424V12.359H14.0725V10.2564ZM11.4417 5.47817C11.5928 5.32111 11.8009 5.23197 12.0188 5.23077H12.0258C12.2409 5.23097 12.4474 5.31631 12.5999 5.46835C12.6173 5.48558 12.6337 5.50481 12.6495 5.52324C12.2359 5.46314 11.8159 5.46294 11.4023 5.52304C11.4151 5.50801 11.4277 5.49239 11.4417 5.47817ZM12.0256 6.30769C13.8286 6.30769 15.3176 7.69231 15.5095 9.4359H8.54164C8.73354 7.69231 10.2225 6.30769 12.0256 6.30769ZM7.52239 10.2564H8.28998V12.359H7.52239V10.2564ZM4.86141 23.1795H0.818763V15.4872H4.86141V23.1795ZM5.73134 13.1795H18.371V14.9984C18.371 15.021 18.3198 15.0445 18.3198 15.0683V23.1795H17.3475V19.1819C17.3475 18.3464 16.6717 17.6691 15.838 17.6691C15.0042 17.6691 14.3284 18.3464 14.3284 19.1819V23.1795H13.5096V19.1819C13.5096 18.3606 12.8451 17.6947 12.0256 17.6947C11.206 17.6947 10.5416 18.3606 10.5416 19.1819V23.1795H9.72281V19.1819C9.72281 18.3464 9.04698 17.6691 8.21322 17.6691C7.37946 17.6691 6.70362 18.3464 6.70362 19.1819V23.1795H5.73134V13.1795ZM16.5288 23.1795H15.1471V19.1819C15.1471 18.7995 15.4564 18.4896 15.838 18.4896C16.2195 18.4896 16.5288 18.7995 16.5288 19.1819V23.1795ZM12.6908 23.1795H11.3603V19.1819C11.3603 18.8137 11.6582 18.5152 12.0256 18.5152C12.393 18.5152 12.6908 18.8137 12.6908 19.1819V23.1795ZM8.90405 23.1795H7.52239V19.1819C7.52239 18.7995 7.83162 18.4896 8.21322 18.4896C8.59482 18.4896 8.90405 18.7995 8.90405 19.1819V23.1795ZM23.1812 23.1795H19.1898V15.4872H23.1812V23.1795Z" fill="#011E29"/>
</svg>
