<svg width="24" height="24" viewBox="0 0 24 24" fill="none" xmlns="http://www.w3.org/2000/svg">
<mask id="path-1-outside-1_5010_2270" maskUnits="userSpaceOnUse" x="1" y="2" width="22" height="20" fill="black">
<rect fill="white" x="1" y="2" width="22" height="20"/>
<path d="M9.43121 17.6259H9.13762C8.95932 17.6259 8.81504 17.4876 8.81504 17.3167C8.81504 17.1459 8.95932 17.0076 9.13762 17.0076H9.43121C9.60951 17.0076 9.75378 17.1459 9.75378 17.3167C9.75378 17.4876 9.60951 17.6259 9.43121 17.6259ZM17.1519 19.1311H13.2785C12.7644 19.1311 12.3467 18.7308 12.3467 18.2381V14.526C12.3467 14.0333 12.7644 13.6324 13.2785 13.6324H17.1519C17.666 13.6324 18.0837 14.0333 18.0837 14.526V18.2381C18.0837 18.7308 17.666 19.1311 17.1519 19.1311ZM13.2785 14.2507C13.1203 14.2507 12.9918 14.3745 12.9918 14.526V18.2381C12.9918 18.3897 13.1204 18.5128 13.2785 18.5128H17.1519C17.3101 18.5128 17.4386 18.3897 17.4386 18.2381V14.526C17.4386 14.3745 17.3101 14.2507 17.1519 14.2507H13.2785ZM21.9274 9.02711C21.9273 9.02607 21.9202 8.99538 21.9199 8.9955C21.8848 8.82719 21.8265 8.65862 21.7448 8.49689L19.4956 3.91806C19.2197 3.36046 18.6256 3 17.9829 3H16.1023H13.3692H10.6365H7.89741H6.01707C5.37791 3 4.78631 3.36046 4.51003 3.91867L2.25547 8.49477C2.17349 8.65822 2.11123 8.83116 2.06966 9.00797C2.06924 9.00973 2.06828 9.01545 2.06806 9.01645C2.02312 9.19729 2 9.38834 2 9.58462V10.2276C2 10.8779 2.30085 11.4872 2.82535 11.8992C2.99371 12.0315 3.18179 12.1313 3.37812 12.2108V19.4696C3.37812 20.3142 4.09375 21 4.97501 21H19.0281C19.9094 21 20.625 20.3142 20.625 19.4696V12.2133C21.4357 11.8683 22 11.0618 22 10.1235V9.57857C22 9.37648 21.975 9.19645 21.9274 9.02711ZM17.9829 3.61829C18.378 3.61829 18.7427 3.83987 18.9122 4.18222L21.1627 8.76316C21.164 8.76588 21.1652 8.76859 21.1671 8.77131H18.0513L16.5291 3.61829H17.9829ZM17.4846 9.59608V10.1235C17.4846 10.9914 16.8004 11.7314 15.9599 11.773C15.5132 11.7996 15.0829 11.6435 14.7597 11.3483C14.4377 11.0542 14.2601 10.6563 14.2601 10.2276V9.38958H17.4703C17.4744 9.45875 17.4846 9.52646 17.4846 9.59608ZM15.8582 3.61829C15.8582 3.61829 17.3663 8.74208 17.3741 8.77131H14.2312L13.7238 3.61829H15.8582ZM10.9303 3.61829H13.0754L13.581 8.77131H10.4253L10.9303 3.61829ZM10.3907 9.38958H13.6149V10.2276C13.6149 11.0796 12.8916 11.7727 12.003 11.7727C11.114 11.7727 10.3907 11.0796 10.3907 10.2276V9.38958ZM8.1417 3.61829H10.2821L9.77475 8.77131H6.63202C6.64071 8.73852 6.64418 8.70485 6.65395 8.67206L8.1417 3.61829ZM9.74559 9.3896V10.2277C9.74559 10.6902 9.53044 11.1252 9.15525 11.4213C8.77977 11.7175 8.28676 11.8337 7.8032 11.7441C7.06041 11.6025 6.5211 10.9332 6.5211 10.1525V10.1467V9.59036C6.5211 9.52412 6.53123 9.45687 6.53529 9.38958C6.56988 9.38958 9.74559 9.3896 9.74559 9.3896ZM2.83794 8.76044L5.09313 4.18313C5.26292 3.83987 5.62551 3.61829 6.01707 3.61829H7.47109L5.95422 8.77131H2.83258C2.83448 8.76769 2.83605 8.76408 2.83794 8.76044ZM3.23423 11.421C2.85998 11.127 2.64514 10.692 2.64514 10.2276V9.58462C2.64514 9.51759 2.64831 9.453 2.65491 9.38958C2.65491 9.38958 5.79013 9.3896 5.87594 9.3896V10.1467C5.87594 10.9274 5.33664 11.5967 4.59321 11.7383C4.10588 11.8316 3.61005 11.716 3.23423 11.421ZM6.56457 20.3828V14.526C6.56457 14.3745 6.69341 14.2507 6.85155 14.2507H9.73929C9.89743 14.2507 10.026 14.3745 10.026 14.526V20.3828H6.56457ZM19.9812 19.4696C19.9812 19.9728 19.5531 20.3831 19.0281 20.3831H10.6711V14.526C10.6711 14.0333 10.2531 13.6324 9.7393 13.6324H6.85155C6.33745 13.6324 5.91941 14.0333 5.91941 14.526V20.3831H4.97501C4.45001 20.3831 4.02187 19.9728 4.02187 19.4696V12.369C4.10113 12.3769 4.17987 12.3883 4.26023 12.3883C4.4124 12.3883 4.56643 12.3741 4.71952 12.3445C5.35283 12.224 5.8794 11.8355 6.19674 11.3093C6.51376 11.8385 7.04212 12.2294 7.67816 12.3506C7.82714 12.3786 7.97679 12.3922 8.12517 12.3922C8.64839 12.3922 9.1562 12.2211 9.5651 11.8986C9.76863 11.7381 9.93738 11.5477 10.069 11.3376C10.4642 11.9674 11.1821 12.391 12.003 12.391C12.8231 12.391 13.5403 11.9682 13.9356 11.3394C14.0392 11.5048 14.1646 11.659 14.3149 11.796C14.7389 12.1836 15.2896 12.3934 15.8767 12.3934C15.9152 12.3934 15.9536 12.3925 15.992 12.3907C16.7572 12.3528 17.4151 11.9324 17.7919 11.3189C17.8977 11.4922 18.028 11.6533 18.1845 11.796C18.6085 12.1836 19.1592 12.3934 19.7464 12.3934C19.7848 12.3934 19.8232 12.3925 19.8617 12.3907C19.9021 12.3887 19.9414 12.383 19.9812 12.3788L19.9812 19.4696ZM21.3548 10.1235C21.3548 10.9914 20.67 11.7314 19.8296 11.773C19.3816 11.7996 18.9525 11.6435 18.6293 11.3483C18.3074 11.0542 18.1297 10.6563 18.1297 10.2277V9.38958H21.3448C21.3517 9.44906 21.3548 9.51185 21.3548 9.57857L21.3548 10.1235Z"/>
</mask>
<path d="M9.43121 17.6259H9.13762C8.95932 17.6259 8.81504 17.4876 8.81504 17.3167C8.81504 17.1459 8.95932 17.0076 9.13762 17.0076H9.43121C9.60951 17.0076 9.75378 17.1459 9.75378 17.3167C9.75378 17.4876 9.60951 17.6259 9.43121 17.6259ZM17.1519 19.1311H13.2785C12.7644 19.1311 12.3467 18.7308 12.3467 18.2381V14.526C12.3467 14.0333 12.7644 13.6324 13.2785 13.6324H17.1519C17.666 13.6324 18.0837 14.0333 18.0837 14.526V18.2381C18.0837 18.7308 17.666 19.1311 17.1519 19.1311ZM13.2785 14.2507C13.1203 14.2507 12.9918 14.3745 12.9918 14.526V18.2381C12.9918 18.3897 13.1204 18.5128 13.2785 18.5128H17.1519C17.3101 18.5128 17.4386 18.3897 17.4386 18.2381V14.526C17.4386 14.3745 17.3101 14.2507 17.1519 14.2507H13.2785ZM21.9274 9.02711C21.9273 9.02607 21.9202 8.99538 21.9199 8.9955C21.8848 8.82719 21.8265 8.65862 21.7448 8.49689L19.4956 3.91806C19.2197 3.36046 18.6256 3 17.9829 3H16.1023H13.3692H10.6365H7.89741H6.01707C5.37791 3 4.78631 3.36046 4.51003 3.91867L2.25547 8.49477C2.17349 8.65822 2.11123 8.83116 2.06966 9.00797C2.06924 9.00973 2.06828 9.01545 2.06806 9.01645C2.02312 9.19729 2 9.38834 2 9.58462V10.2276C2 10.8779 2.30085 11.4872 2.82535 11.8992C2.99371 12.0315 3.18179 12.1313 3.37812 12.2108V19.4696C3.37812 20.3142 4.09375 21 4.97501 21H19.0281C19.9094 21 20.625 20.3142 20.625 19.4696V12.2133C21.4357 11.8683 22 11.0618 22 10.1235V9.57857C22 9.37648 21.975 9.19645 21.9274 9.02711ZM17.9829 3.61829C18.378 3.61829 18.7427 3.83987 18.9122 4.18222L21.1627 8.76316C21.164 8.76588 21.1652 8.76859 21.1671 8.77131H18.0513L16.5291 3.61829H17.9829ZM17.4846 9.59608V10.1235C17.4846 10.9914 16.8004 11.7314 15.9599 11.773C15.5132 11.7996 15.0829 11.6435 14.7597 11.3483C14.4377 11.0542 14.2601 10.6563 14.2601 10.2276V9.38958H17.4703C17.4744 9.45875 17.4846 9.52646 17.4846 9.59608ZM15.8582 3.61829C15.8582 3.61829 17.3663 8.74208 17.3741 8.77131H14.2312L13.7238 3.61829H15.8582ZM10.9303 3.61829H13.0754L13.581 8.77131H10.4253L10.9303 3.61829ZM10.3907 9.38958H13.6149V10.2276C13.6149 11.0796 12.8916 11.7727 12.003 11.7727C11.114 11.7727 10.3907 11.0796 10.3907 10.2276V9.38958ZM8.1417 3.61829H10.2821L9.77475 8.77131H6.63202C6.64071 8.73852 6.64418 8.70485 6.65395 8.67206L8.1417 3.61829ZM9.74559 9.3896V10.2277C9.74559 10.6902 9.53044 11.1252 9.15525 11.4213C8.77977 11.7175 8.28676 11.8337 7.8032 11.7441C7.06041 11.6025 6.5211 10.9332 6.5211 10.1525V10.1467V9.59036C6.5211 9.52412 6.53123 9.45687 6.53529 9.38958C6.56988 9.38958 9.74559 9.3896 9.74559 9.3896ZM2.83794 8.76044L5.09313 4.18313C5.26292 3.83987 5.62551 3.61829 6.01707 3.61829H7.47109L5.95422 8.77131H2.83258C2.83448 8.76769 2.83605 8.76408 2.83794 8.76044ZM3.23423 11.421C2.85998 11.127 2.64514 10.692 2.64514 10.2276V9.58462C2.64514 9.51759 2.64831 9.453 2.65491 9.38958C2.65491 9.38958 5.79013 9.3896 5.87594 9.3896V10.1467C5.87594 10.9274 5.33664 11.5967 4.59321 11.7383C4.10588 11.8316 3.61005 11.716 3.23423 11.421ZM6.56457 20.3828V14.526C6.56457 14.3745 6.69341 14.2507 6.85155 14.2507H9.73929C9.89743 14.2507 10.026 14.3745 10.026 14.526V20.3828H6.56457ZM19.9812 19.4696C19.9812 19.9728 19.5531 20.3831 19.0281 20.3831H10.6711V14.526C10.6711 14.0333 10.2531 13.6324 9.7393 13.6324H6.85155C6.33745 13.6324 5.91941 14.0333 5.91941 14.526V20.3831H4.97501C4.45001 20.3831 4.02187 19.9728 4.02187 19.4696V12.369C4.10113 12.3769 4.17987 12.3883 4.26023 12.3883C4.4124 12.3883 4.56643 12.3741 4.71952 12.3445C5.35283 12.224 5.8794 11.8355 6.19674 11.3093C6.51376 11.8385 7.04212 12.2294 7.67816 12.3506C7.82714 12.3786 7.97679 12.3922 8.12517 12.3922C8.64839 12.3922 9.1562 12.2211 9.5651 11.8986C9.76863 11.7381 9.93738 11.5477 10.069 11.3376C10.4642 11.9674 11.1821 12.391 12.003 12.391C12.8231 12.391 13.5403 11.9682 13.9356 11.3394C14.0392 11.5048 14.1646 11.659 14.3149 11.796C14.7389 12.1836 15.2896 12.3934 15.8767 12.3934C15.9152 12.3934 15.9536 12.3925 15.992 12.3907C16.7572 12.3528 17.4151 11.9324 17.7919 11.3189C17.8977 11.4922 18.028 11.6533 18.1845 11.796C18.6085 12.1836 19.1592 12.3934 19.7464 12.3934C19.7848 12.3934 19.8232 12.3925 19.8617 12.3907C19.9021 12.3887 19.9414 12.383 19.9812 12.3788L19.9812 19.4696ZM21.3548 10.1235C21.3548 10.9914 20.67 11.7314 19.8296 11.773C19.3816 11.7996 18.9525 11.6435 18.6293 11.3483C18.3074 11.0542 18.1297 10.6563 18.1297 10.2277V9.38958H21.3448C21.3517 9.44906 21.3548 9.51185 21.3548 9.57857L21.3548 10.1235Z" fill="#549A9F"/>
<path d="M2.06966 8.90797C2.06966 8.90797 2.06966 8.90797 2.06966 8.90797C2.06966 8.90797 2.06966 8.90797 2.06966 8.90797C2.06966 8.90797 2.06966 8.90797 2.06966 8.90797C2.06966 8.90797 2.06966 8.90797 2.06966 8.90797C2.06966 8.90797 2.06966 8.90797 2.06966 8.90797C2.06966 8.90797 2.06966 8.90797 2.06966 8.90797C2.06966 8.90797 2.06966 8.90797 2.06966 8.90797C2.06966 8.90797 2.06966 8.90797 2.06966 8.90797C2.06966 8.90797 2.06966 8.90797 2.06966 8.90797C2.06966 8.90797 2.06966 8.90797 2.06966 8.90797C2.06966 8.90797 2.06966 8.90797 2.06966 8.90797C2.06966 8.90797 2.06966 8.90797 2.06966 8.90797C2.06965 8.90797 2.06965 8.90797 2.06965 8.90797C2.06965 8.90797 2.06965 8.90797 2.06965 8.90797C2.06965 8.90797 2.06965 8.90797 2.06965 8.90797C2.06965 8.90797 2.06965 8.90797 2.06965 8.90797C2.06965 8.90797 2.06965 8.90797 2.06965 8.90797C2.06965 8.90797 2.06965 8.90797 2.06965 8.90797C2.06965 8.90797 2.06965 8.90797 2.06965 8.90797C2.06965 8.90797 2.06965 8.90797 2.06965 8.90797C2.06965 8.90797 2.06965 8.90797 2.06965 8.90797C2.06965 8.90797 2.06965 8.90797 2.06965 8.90797C2.06965 8.90797 2.06965 8.90797 2.06965 8.90797C2.06965 8.90797 2.06965 8.90797 2.06965 8.90797C2.06965 8.90797 2.06965 8.90797 2.06965 8.90797C2.06965 8.90797 2.06965 8.90797 2.06965 8.90797C2.06965 8.90797 2.06965 8.90797 2.06965 8.90797C2.06965 8.90797 2.06965 8.90797 2.06965 8.90797C2.06965 8.90797 2.06965 8.90797 2.06965 8.90797C2.06965 8.90797 2.06965 8.90797 2.06965 8.90797C2.06965 8.90797 2.06965 8.90797 2.06965 8.90797C2.06965 8.90797 2.06965 8.90797 2.06965 8.90797C2.06965 8.90797 2.06965 8.90797 2.06965 8.90797C2.06965 8.90797 2.06965 8.90797 2.06965 8.90797C2.06965 8.90797 2.06965 8.90797 2.06965 8.90797C2.06965 8.90797 2.06965 8.90797 2.06965 8.90797C2.06965 8.90797 2.06965 8.90797 2.06965 8.90797C2.06965 8.90797 2.06965 8.90797 2.06965 8.90797C2.06965 8.90797 2.06965 8.90797 2.06965 8.90797C2.06965 8.90797 2.06965 8.90797 2.06965 8.90797C2.06965 8.90797 2.06965 8.90797 2.06965 8.90797C2.06965 8.90797 2.06965 8.90797 2.06965 8.90797C2.06965 8.90797 2.06965 8.90797 2.06965 8.90797C2.06965 8.90797 2.06965 8.90797 2.06965 8.90797C2.06965 8.90797 2.06965 8.90797 2.06965 8.90797C2.06965 8.90797 2.06965 8.90797 2.06965 8.90797C2.06965 8.90797 2.06965 8.90797 2.06965 8.90797C2.06965 8.90797 2.06965 8.90797 2.06965 8.90797C2.06965 8.90797 2.06965 8.90797 2.06965 8.90797C2.06965 8.90797 2.06965 8.90797 2.06965 8.90797C2.06965 8.90797 2.06965 8.90797 2.06965 8.90797C2.06965 8.90797 2.06965 8.90797 2.06965 8.90797C2.06965 8.90797 2.06965 8.90797 2.06965 8.90797C2.06965 8.90797 2.06965 8.90797 2.06965 8.90797C2.06965 8.90797 2.06965 8.90797 2.06965 8.90797C2.06965 8.90797 2.06965 8.90797 2.06965 8.90797C2.06965 8.90797 2.06965 8.90797 2.06965 8.90797C2.06965 8.90797 2.06965 8.90797 2.06965 8.90797C2.06965 8.90797 2.06965 8.90797 2.06965 8.90797C2.06965 8.90797 2.06965 8.90797 2.06965 8.90797C2.06965 8.90797 2.06965 8.90797 2.06965 8.90797C2.06965 8.90797 2.06965 8.90797 2.06965 8.90797C2.06965 8.90797 2.06965 8.90797 2.06965 8.90797C2.06965 8.90797 2.06965 8.90797 2.06965 8.90797C2.06965 8.90797 2.06965 8.90797 2.06965 8.90797C2.06965 8.90797 2.06965 8.90797 2.06965 8.90797C2.06965 8.90797 2.06965 8.90797 2.06965 8.90797C2.06965 8.90797 2.06965 8.90797 2.06965 8.90797C2.06965 8.90797 2.06965 8.90797 2.06965 8.90797C2.06965 8.90797 2.06965 8.90797 2.06965 8.90797C2.06965 8.90797 2.06965 8.90797 2.06965 8.90797C2.06965 8.90797 2.06965 8.90797 2.06965 8.90797C2.06965 8.90797 2.06965 8.90797 2.06965 8.90797C2.06965 8.90797 2.06965 8.90797 2.06965 8.90797C2.06965 8.90797 2.06965 8.90797 2.06965 8.90797C2.06965 8.90797 2.06965 8.90797 2.06965 8.90797C2.06965 8.90797 2.06965 8.90797 2.06965 8.90797C2.06965 8.90797 2.06965 8.90797 2.06965 8.90797C2.06965 8.90797 2.06965 8.90797 2.06965 8.90797C2.06965 8.90797 2.06965 8.90797 2.06965 8.90797C2.06965 8.90797 2.06965 8.90797 2.06965 8.90797C2.06965 8.90797 2.06965 8.90797 2.06965 8.90797C2.06965 8.90797 2.06965 8.90797 2.06965 8.90797C2.06965 8.90797 2.06965 8.90797 2.06965 8.90797C2.06965 8.90797 2.06965 8.90797 2.06965 8.90797C2.06965 8.90797 2.06965 8.90797 2.06965 8.90797C2.06965 8.90797 2.06965 8.90797 2.06965 8.90797C2.06965 8.90797 2.06965 8.90797 2.06965 8.90797C2.06965 8.90797 2.06965 8.90797 2.06965 8.90797C2.06965 8.90797 2.06965 8.90797 2.06965 8.90797H2.06965C2.06965 8.90797 2.06965 8.90797 2.06965 8.90797C2.06965 8.90797 2.06965 8.90797 2.06965 8.90797H2.06965C2.06965 8.90797 2.06965 8.90797 2.06965 8.90797H2.06965C2.06965 8.90797 2.06965 8.90797 2.06965 8.90797C2.06965 8.90797 2.06965 8.90797 2.06965 8.90797C2.06965 8.90797 2.06965 8.90797 2.06965 8.90797C2.06965 8.90797 2.06965 8.90797 2.06965 8.90797C2.06965 8.90797 2.06965 8.90797 2.06965 8.90797H2.06965C2.06965 8.90797 2.06965 8.90797 2.06965 8.90797C2.06965 8.90797 2.06965 8.90797 2.06965 8.90797C2.06965 9.00797 2.06965 9.10797 2.06965 9.10797H2.06965C2.06965 9.10797 2.06965 9.10797 2.06965 9.10797C2.06965 9.10797 2.06965 9.10797 2.06965 9.10797C2.06965 9.10797 2.06965 9.10797 2.06965 9.10797H2.06965H2.06965H2.06965H2.06965C2.06965 9.10797 2.06965 9.10797 2.06965 9.10797C2.06965 9.10797 2.06965 9.10797 2.06965 9.10797H2.06965C2.06965 9.10797 2.06965 9.10797 2.06965 9.10797H2.06965C2.06965 9.10797 2.06965 9.10797 2.06965 9.10797C2.06965 9.10797 2.06965 9.10797 2.06965 9.10797C2.06965 9.10797 2.06965 9.10797 2.06965 9.10797C2.06965 9.10797 2.06965 9.10797 2.06965 9.10797C2.06965 9.10797 2.06965 9.10797 2.06965 9.10797C2.06965 9.10797 2.06965 9.10797 2.06965 9.10797C2.06965 9.10797 2.06965 9.10797 2.06965 9.10797C2.06965 9.10797 2.06965 9.10797 2.06965 9.10797C2.06965 9.10797 2.06965 9.10797 2.06965 9.10797C2.06965 9.10797 2.06965 9.10797 2.06965 9.10797C2.06965 9.10797 2.06965 9.10797 2.06965 9.10797C2.06965 9.10797 2.06965 9.10797 2.06965 9.10797C2.06965 9.10797 2.06965 9.10797 2.06965 9.10797C2.06965 9.10797 2.06965 9.10797 2.06965 9.10797C2.06965 9.10797 2.06965 9.10797 2.06965 9.10797C2.06965 9.10797 2.06965 9.10797 2.06965 9.10797C2.06965 9.10797 2.06965 9.10797 2.06965 9.10797C2.06965 9.10797 2.06965 9.10797 2.06965 9.10797C2.06965 9.10797 2.06965 9.10797 2.06965 9.10797C2.06965 9.10797 2.06965 9.10797 2.06965 9.10797C2.06965 9.10797 2.06965 9.10797 2.06965 9.10797C2.06965 9.10797 2.06965 9.10797 2.06965 9.10797C2.06965 9.10797 2.06965 9.10797 2.06965 9.10797C2.06965 9.10797 2.06965 9.10797 2.06965 9.10797C2.06965 9.10797 2.06965 9.10797 2.06965 9.10797C2.06965 9.10797 2.06965 9.10797 2.06965 9.10797C2.06965 9.10797 2.06965 9.10797 2.06965 9.10797C2.06965 9.10797 2.06965 9.10797 2.06965 9.10797C2.06965 9.10797 2.06965 9.10797 2.06965 9.10797C2.06965 9.10797 2.06965 9.10797 2.06965 9.10797C2.06965 9.10797 2.06965 9.10797 2.06965 9.10797C2.06965 9.10797 2.06965 9.10797 2.06965 9.10797C2.06965 9.10797 2.06965 9.10797 2.06965 9.10797C2.06965 9.10797 2.06965 9.10797 2.06965 9.10797C2.06965 9.10797 2.06965 9.10797 2.06965 9.10797C2.06965 9.10797 2.06965 9.10797 2.06965 9.10797C2.06965 9.10797 2.06965 9.10797 2.06965 9.10797C2.06965 9.10797 2.06965 9.10797 2.06965 9.10797C2.06965 9.10797 2.06965 9.10797 2.06965 9.10797C2.06965 9.10797 2.06965 9.10797 2.06965 9.10797C2.06965 9.10797 2.06965 9.10797 2.06965 9.10797C2.06965 9.10797 2.06965 9.10797 2.06965 9.10797C2.06965 9.10797 2.06965 9.10797 2.06965 9.10797C2.06965 9.10797 2.06965 9.10797 2.06965 9.10797C2.06965 9.10797 2.06965 9.10797 2.06965 9.10797C2.06965 9.10797 2.06965 9.10797 2.06965 9.10797C2.06965 9.10797 2.06965 9.10797 2.06965 9.10797C2.06965 9.10797 2.06965 9.10797 2.06965 9.10797C2.06965 9.10797 2.06965 9.10797 2.06965 9.10797C2.06965 9.10797 2.06965 9.10797 2.06965 9.10797C2.06965 9.10797 2.06965 9.10797 2.06965 9.10797C2.06965 9.10797 2.06965 9.10797 2.06965 9.10797C2.06965 9.10797 2.06965 9.10797 2.06965 9.10797C2.06965 9.10797 2.06965 9.10797 2.06965 9.10797C2.06965 9.10797 2.06965 9.10797 2.06965 9.10797C2.06965 9.10797 2.06965 9.10797 2.06965 9.10797C2.06965 9.10797 2.06965 9.10797 2.06965 9.10797C2.06965 9.10797 2.06965 9.10797 2.06965 9.10797C2.06965 9.10797 2.06965 9.10797 2.06965 9.10797C2.06965 9.10797 2.06965 9.10797 2.06965 9.10797C2.06965 9.10797 2.06965 9.10797 2.06965 9.10797C2.06965 9.10797 2.06965 9.10797 2.06965 9.10797C2.06965 9.10797 2.06965 9.10797 2.06965 9.10797C2.06965 9.10797 2.06965 9.10797 2.06965 9.10797C2.06965 9.10797 2.06965 9.10797 2.06965 9.10797C2.06965 9.10797 2.06965 9.10797 2.06965 9.10797C2.06965 9.10797 2.06965 9.10797 2.06965 9.10797C2.06965 9.10797 2.06965 9.10797 2.06965 9.10797C2.06965 9.10797 2.06965 9.10797 2.06965 9.10797C2.06965 9.10797 2.06965 9.10797 2.06965 9.10797C2.06965 9.10797 2.06965 9.10797 2.06965 9.10797C2.06965 9.10797 2.06965 9.10797 2.06965 9.10797C2.06965 9.10797 2.06965 9.10797 2.06965 9.10797C2.06965 9.10797 2.06965 9.10797 2.06965 9.10797C2.06965 9.10797 2.06965 9.10797 2.06965 9.10797C2.06965 9.10797 2.06965 9.10797 2.06965 9.10797C2.06965 9.10797 2.06965 9.10797 2.06965 9.10797C2.06965 9.10797 2.06965 9.10797 2.06965 9.10797C2.06965 9.10797 2.06965 9.10797 2.06965 9.10797C2.06965 9.10797 2.06965 9.10797 2.06965 9.10797C2.06965 9.10797 2.06965 9.10797 2.06965 9.10797C2.06965 9.10797 2.06965 9.10797 2.06965 9.10797C2.06965 9.10797 2.06965 9.10797 2.06965 9.10797C2.06965 9.10797 2.06965 9.10797 2.06965 9.10797C2.06965 9.10797 2.06965 9.10797 2.06965 9.10797C2.06965 9.10797 2.06965 9.10797 2.06965 9.10797C2.06965 9.10797 2.06965 9.10797 2.06965 9.10797C2.06965 9.10797 2.06965 9.10797 2.06965 9.10797C2.06965 9.10797 2.06965 9.10797 2.06965 9.10797C2.06965 9.10797 2.06965 9.10797 2.06965 9.10797C2.06965 9.10797 2.06965 9.10797 2.06965 9.10797C2.06965 9.10797 2.06965 9.10797 2.06965 9.10797C2.06965 9.10797 2.06965 9.10797 2.06965 9.10797C2.06965 9.10797 2.06965 9.10797 2.06965 9.10797C2.06965 9.10797 2.06965 9.10797 2.06965 9.10797C2.06965 9.10797 2.06965 9.10797 2.06965 9.10797C2.06965 9.10797 2.06965 9.10797 2.06965 9.10797C2.06965 9.10797 2.06965 9.10797 2.06965 9.10797C2.06965 9.10797 2.06965 9.10797 2.06965 9.10797C2.06965 9.10797 2.06965 9.10797 2.06965 9.10797C2.06965 9.10797 2.06965 9.10797 2.06965 9.10797C2.06965 9.10797 2.06965 9.10797 2.06965 9.10797C2.06965 9.10797 2.06965 9.10797 2.06965 9.10797C2.06965 9.10797 2.06965 9.10797 2.06965 9.10797C2.06965 9.10797 2.06965 9.10797 2.06965 9.10797C2.06965 9.10797 2.06965 9.10797 2.06965 9.10797C2.06965 9.10797 2.06965 9.10797 2.06966 9.10797C2.06966 9.10797 2.06966 9.10797 2.06966 9.10797C2.06966 9.10797 2.06966 9.10797 2.06966 9.10797C2.06966 9.10797 2.06966 9.10797 2.06966 9.10797C2.06966 9.10797 2.06966 9.10797 2.06966 9.10797C2.06966 9.10797 2.06966 9.10797 2.06966 9.10797C2.06966 9.10797 2.06966 9.10797 2.06966 9.10797C2.06966 9.10797 2.06966 9.10797 2.06966 9.10797C2.06966 9.10797 2.06966 9.10797 2.06966 9.10797C2.06966 9.10797 2.06966 9.10797 2.06966 9.10797C2.06966 9.10797 2.06966 9.10797 2.06966 9.10797C2.06966 9.10797 2.06966 9.10797 2.06966 9.10797C2.06966 9.10797 2.06966 9.10797 2.06966 9.10797C2.06966 9.10797 2.06966 9.10797 2.06966 9.10797C2.06966 9.10797 2.06966 9.10797 2.06966 9.10797C2.06966 9.10797 2.06966 9.10797 2.06966 9.10797C2.06966 9.10797 2.06966 9.10797 2.06966 9.10797C2.06966 9.10797 2.06966 9.10797 2.06966 9.10797C2.06966 9.10797 2.06966 9.10797 2.06966 9.10797C2.06966 9.10797 2.06966 9.10797 2.06966 9.10797C2.06966 9.10797 2.06966 9.10797 2.06966 9.10797C2.06966 9.10797 2.06966 9.10797 2.06966 9.10797C2.06966 9.10797 2.06966 9.10797 2.06966 9.10797C2.06966 9.10797 2.06966 9.10797 2.06966 9.10797C2.06966 9.10797 2.06966 9.10797 2.06966 9.10797C2.06966 9.10797 2.06966 9.10797 2.06966 9.10797C2.06966 9.10797 2.06966 9.10797 2.06966 9.10797C2.06966 9.10797 2.06966 9.10797 2.06966 9.10797C2.06966 9.10797 2.06966 9.10797 2.06966 9.10797C2.06966 9.10797 2.06966 9.10797 2.06966 9.10797C2.06966 9.10797 2.06966 9.10797 2.06966 9.10797C2.06966 9.10797 2.06966 9.10797 2.06966 9.10797C2.06966 9.10797 2.06966 9.10797 2.06966 9.10797C2.06966 9.10797 2.06966 9.10797 2.06966 9.10797C2.06966 9.10797 2.06966 9.10797 2.06966 9.10797C2.06966 9.10797 2.06966 9.10797 2.06966 9.10797C2.06966 9.10797 2.06966 9.10797 2.06966 9.10797C2.06966 9.10797 2.06966 9.10797 2.06966 9.10797C2.06966 9.10797 2.06966 9.10797 2.06966 9.10797C2.06966 9.10797 2.06966 9.10797 2.06966 9.10797C2.06966 9.10797 2.06966 9.10797 2.06966 9.10797C2.06966 9.10797 2.06966 9.10797 2.06966 9.10797C2.06966 9.10797 2.06966 9.10797 2.06966 9.10797C2.06966 9.10797 2.06966 9.10797 2.06966 9.10797C2.06966 9.10797 2.06966 9.10797 2.06966 9.10797C2.06966 9.10797 2.06966 9.10797 2.06966 9.10797C2.06966 9.10797 2.06966 9.10797 2.06966 9.10797C2.06966 9.10797 2.06966 9.10797 2.06966 9.10797C2.06966 9.10797 2.06966 9.10797 2.06966 9.10797C2.06966 9.10797 2.06966 9.10797 2.06966 9.10797C2.06966 9.10797 2.06966 9.10797 2.06966 9.10797C2.06966 9.10797 2.06966 9.10797 2.06966 9.10797C2.06966 9.10797 2.06966 9.10797 2.06966 9.10797C2.06966 9.10797 2.06966 9.10797 2.06966 9.10797C2.06966 9.10797 2.06966 9.10797 2.06966 9.10797C2.06966 9.10797 2.06966 9.10797 2.06966 9.10797C2.06966 9.10797 2.06966 9.10797 2.06966 9.10797C2.06966 9.10797 2.06966 9.10797 2.06966 9.10797C2.06966 9.10797 2.06966 9.10797 2.06966 9.10797C2.06966 9.10797 2.06966 9.10797 2.06966 9.10797C2.06966 9.10797 2.06966 9.10797 2.06966 9.10797C2.06966 9.10797 2.06966 9.10797 2.06966 9.10797C2.06966 9.10797 2.06966 9.10797 2.06966 9.10797C2.06966 9.10797 2.06966 9.10797 2.06966 9.10797C2.06966 9.10797 2.06966 9.10797 2.06966 9.10797C2.06966 9.10797 2.06966 9.10797 2.06966 9.10797C2.06966 9.10797 2.06966 9.10797 2.06966 9.10797C2.06966 9.10797 2.06966 9.10797 2.06966 9.10797C2.06966 9.10797 2.06966 9.10797 2.06966 9.10797C2.06966 9.10797 2.06966 9.10797 2.06966 9.10797C2.06966 9.10797 2.06966 9.10797 2.06966 9.10797C2.06966 9.10797 2.06966 9.10797 2.06966 9.10797C2.06966 9.10797 2.06966 9.10797 2.06966 9.10797C2.06966 9.10797 2.06966 9.10797 2.06966 9.10797C2.06966 9.10797 2.06966 9.10797 2.06966 9.10797C2.06966 9.10797 2.06966 9.10797 2.06966 9.10797C2.06966 9.10797 2.06966 9.10797 2.06966 9.10797C2.06966 9.10797 2.06966 9.10797 2.06966 9.10797C2.06966 9.10797 2.06966 9.10797 2.06966 9.10797C2.06966 9.10797 2.06966 9.10797 2.06966 9.10797C2.06966 9.10797 2.06966 9.10797 2.06966 9.10797C2.06966 9.10797 2.06966 9.10797 2.06966 9.10797C2.06966 9.10797 2.06966 9.10797 2.06966 9.10797C2.06966 9.10797 2.06966 9.10797 2.06966 9.10797C2.06966 9.10797 2.06966 9.10797 2.06966 9.10797C2.06966 9.10797 2.06966 9.10797 2.06966 9.10797C2.06966 9.10797 2.06966 9.10797 2.06966 9.10797C2.06966 9.10797 2.06966 9.10797 2.06966 9.10797C2.06966 9.10797 2.06966 9.10797 2.06966 9.10797C2.06966 9.10797 2.06966 9.10797 2.06966 9.10797C2.06966 9.10797 2.06966 9.10797 2.06966 9.10797C2.06966 9.10797 2.06966 9.10797 2.06966 9.10797C2.06966 9.10797 2.06966 9.10797 2.06966 9.10797C2.06966 9.10797 2.06966 9.10797 2.06966 9.10797C2.06966 9.10797 2.06966 9.10797 2.06966 9.10797C2.06966 9.10797 2.06966 9.10797 2.06966 9.10797C2.06966 9.10797 2.06966 9.10797 2.06966 9.10797C2.06966 9.10797 2.06966 9.10797 2.06966 9.10797C2.06966 9.10797 2.06966 9.10797 2.06966 9.10797C2.06966 9.10797 2.06966 9.10797 2.06966 9.10797C2.06966 9.10797 2.06966 9.10797 2.06966 9.10797C2.06966 9.10797 2.06966 9.10797 2.06966 9.10797C2.06966 9.10797 2.06966 9.10797 2.06966 9.10797C2.06966 9.10797 2.06966 9.10797 2.06966 9.10797C2.06966 9.10797 2.06966 9.10797 2.06966 9.10797C2.06966 9.10797 2.06966 9.10797 2.06966 9.10797C2.06966 9.10797 2.06966 9.10797 2.06966 9.10797C2.06966 9.10797 2.06966 9.10797 2.06966 9.10797C2.06966 9.10797 2.06966 9.10797 2.06966 9.10797C2.06966 9.10797 2.06966 9.10797 2.06966 9.10797C2.06966 9.10797 2.06966 9.10797 2.06966 9.10797C2.06966 9.10797 2.06966 9.10797 2.06966 9.10797C2.06966 9.10797 2.06966 9.10797 2.06966 9.10797C2.06966 9.10797 2.06966 9.10797 2.06966 9.10797C2.06966 9.10797 2.06966 9.10797 2.06966 9.10797C2.06966 9.10797 2.06966 9.10797 2.06966 9.10797C2.06966 9.10797 2.06966 9.10797 2.06966 9.10797C2.06966 9.10797 2.06966 9.10797 2.06966 9.10797C2.06966 9.10797 2.06966 9.10797 2.06966 9.10797C2.06966 9.10797 2.06966 9.10797 2.06966 9.10797C2.06966 9.10797 2.06966 9.10797 2.06966 9.10797C2.06966 9.10797 2.06966 9.10797 2.06966 9.10797C2.06966 9.10797 2.06966 9.10797 2.06966 9.10797C2.06966 9.10797 2.06966 9.10797 2.06966 9.10797C2.06966 9.10797 2.06966 9.10797 2.06966 9.10797C2.06966 9.10797 2.06966 9.10797 2.06966 9.10797C2.06966 9.10797 2.06966 9.10797 2.06966 9.10797C2.06966 9.10797 2.06966 9.10797 2.06966 9.10797C2.06966 9.10797 2.06966 9.10797 2.06966 9.10797C2.06966 9.10797 2.06966 9.10797 2.06966 9.10797C2.06966 9.10797 2.06966 9.10797 2.06966 9.10797C2.06966 9.10797 2.06966 9.10797 2.06966 9.10797C2.06966 9.10797 2.06966 9.10797 2.06966 9.10797C2.06966 9.10797 2.06966 9.10797 2.06966 9.10797C2.06966 9.10797 2.06966 9.10797 2.06966 9.10797C2.06966 9.10797 2.06966 9.10797 2.06966 9.10797C2.06966 9.10797 2.06966 9.10797 2.06966 9.10797C2.06966 9.10797 2.06966 9.10797 2.06966 9.10797C2.06966 9.10797 2.06966 9.10797 2.06966 9.10797C2.06966 9.10797 2.06966 9.10797 2.06966 9.10797C2.06966 9.10797 2.06966 9.10797 2.06966 9.10797C2.06966 9.10797 2.06966 9.10797 2.06966 9.10797C2.06966 9.10797 2.06966 9.10797 2.06966 9.10797C2.06966 9.10797 2.06966 9.10797 2.06966 9.10797C2.06966 9.10797 2.06966 9.10797 2.06966 9.10797C2.06966 9.10797 2.06966 9.10797 2.06966 9.10797C2.06966 9.10797 2.06966 9.10797 2.06966 9.10797C2.06966 9.10797 2.06966 9.10797 2.06966 9.10797C2.06966 9.10797 2.06966 9.10797 2.06966 9.10797C2.06966 9.10797 2.06966 9.10797 2.06966 9.10797C2.06966 9.10797 2.06966 9.10797 2.06966 9.10797C2.06966 9.10797 2.06966 9.10797 2.06966 9.10797H2.06966C2.06966 9.10797 2.06966 9.10797 2.06966 9.10797C2.06966 9.10797 2.06966 9.10797 2.06966 9.10797H2.06966C2.06966 9.10797 2.06966 9.10797 2.06966 9.10797H2.06966H2.06966C2.06966 9.10797 2.06966 9.10797 2.06966 9.10797C2.06966 9.10797 2.06966 9.10797 2.06966 9.10797C2.06966 9.10797 2.06966 9.10797 2.06966 9.10797C2.06966 9.10797 2.06966 9.10797 2.06966 9.10797H2.06966C2.06966 9.10797 2.06966 9.10797 2.06966 9.10797C2.06966 9.10797 2.06966 9.10797 2.06966 9.10797C2.06966 9.10797 2.06966 9.00797 2.06966 8.90797H2.06966H2.06966C2.06966 8.90797 2.06966 8.90797 2.06966 8.90797H2.06966H2.06966H2.06966C2.06966 8.90797 2.06966 8.90797 2.06966 8.90797C2.06966 8.90797 2.06966 8.90797 2.06966 8.90797H2.06966C2.06966 8.90797 2.06966 8.90797 2.06966 8.90797H2.06966C2.06966 8.90797 2.06966 8.90797 2.06966 8.90797C2.06966 8.90797 2.06966 8.90797 2.06966 8.90797C2.06966 8.90797 2.06966 8.90797 2.06966 8.90797C2.06966 8.90797 2.06966 8.90797 2.06966 8.90797C2.06966 8.90797 2.06966 8.90797 2.06966 8.90797C2.06966 8.90797 2.06966 8.90797 2.06966 8.90797C2.06966 8.90797 2.06966 8.90797 2.06966 8.90797C2.06966 8.90797 2.06966 8.90797 2.06966 8.90797C2.06966 8.90797 2.06966 8.90797 2.06966 8.90797C2.06966 8.90797 2.06966 8.90797 2.06966 8.90797C2.06966 8.90797 2.06966 8.90797 2.06966 8.90797C2.06966 8.90797 2.06966 8.90797 2.06966 8.90797C2.06966 8.90797 2.06966 8.90797 2.06966 8.90797C2.06966 8.90797 2.06966 8.90797 2.06966 8.90797C2.06966 8.90797 2.06966 8.90797 2.06966 8.90797C2.06966 8.90797 2.06966 8.90797 2.06966 8.90797C2.06966 8.90797 2.06966 8.90797 2.06966 8.90797C2.06966 8.90797 2.06966 8.90797 2.06966 8.90797C2.06966 8.90797 2.06966 8.90797 2.06966 8.90797C2.06966 8.90797 2.06966 8.90797 2.06966 8.90797C2.06966 8.90797 2.06966 8.90797 2.06966 8.90797C2.06966 8.90797 2.06966 8.90797 2.06966 8.90797C2.06966 8.90797 2.06966 8.90797 2.06966 8.90797C2.06966 8.90797 2.06966 8.90797 2.06966 8.90797C2.06966 8.90797 2.06966 8.90797 2.06966 8.90797C2.06966 8.90797 2.06966 8.90797 2.06966 8.90797C2.06966 8.90797 2.06966 8.90797 2.06966 8.90797C2.06966 8.90797 2.06966 8.90797 2.06966 8.90797C2.06966 8.90797 2.06966 8.90797 2.06966 8.90797C2.06966 8.90797 2.06966 8.90797 2.06966 8.90797C2.06966 8.90797 2.06966 8.90797 2.06966 8.90797C2.06966 8.90797 2.06966 8.90797 2.06966 8.90797C2.06966 8.90797 2.06966 8.90797 2.06966 8.90797C2.06966 8.90797 2.06966 8.90797 2.06966 8.90797C2.06966 8.90797 2.06966 8.90797 2.06966 8.90797C2.06966 8.90797 2.06966 8.90797 2.06966 8.90797C2.06966 8.90797 2.06966 8.90797 2.06966 8.90797C2.06966 8.90797 2.06966 8.90797 2.06966 8.90797C2.06966 8.90797 2.06966 8.90797 2.06966 8.90797C2.06966 8.90797 2.06966 8.90797 2.06966 8.90797C2.06966 8.90797 2.06966 8.90797 2.06966 8.90797C2.06966 8.90797 2.06966 8.90797 2.06966 8.90797C2.06966 8.90797 2.06966 8.90797 2.06966 8.90797C2.06966 8.90797 2.06966 8.90797 2.06966 8.90797C2.06966 8.90797 2.06966 8.90797 2.06966 8.90797C2.06966 8.90797 2.06966 8.90797 2.06966 8.90797C2.06966 8.90797 2.06966 8.90797 2.06966 8.90797C2.06966 8.90797 2.06966 8.90797 2.06966 8.90797C2.06966 8.90797 2.06966 8.90797 2.06966 8.90797C2.06966 8.90797 2.06966 8.90797 2.06966 8.90797C2.06966 8.90797 2.06966 8.90797 2.06966 8.90797C2.06966 8.90797 2.06966 8.90797 2.06966 8.90797C2.06966 8.90797 2.06966 8.90797 2.06966 8.90797C2.06966 8.90797 2.06966 8.90797 2.06966 8.90797C2.06966 8.90797 2.06966 8.90797 2.06966 8.90797C2.06966 8.90797 2.06966 8.90797 2.06966 8.90797C2.06966 8.90797 2.06966 8.90797 2.06966 8.90797C2.06966 8.90797 2.06966 8.90797 2.06966 8.90797C2.06966 8.90797 2.06966 8.90797 2.06966 8.90797C2.06966 8.90797 2.06966 8.90797 2.06966 8.90797C2.06966 8.90797 2.06966 8.90797 2.06966 8.90797C2.06966 8.90797 2.06966 8.90797 2.06966 8.90797C2.06966 8.90797 2.06966 8.90797 2.06966 8.90797C2.06966 8.90797 2.06966 8.90797 2.06966 8.90797C2.06966 8.90797 2.06966 8.90797 2.06966 8.90797C2.06966 8.90797 2.06966 8.90797 2.06966 8.90797C2.06966 8.90797 2.06966 8.90797 2.06966 8.90797C2.06966 8.90797 2.06966 8.90797 2.06966 8.90797C2.06966 8.90797 2.06966 8.90797 2.06966 8.90797C2.06966 8.90797 2.06966 8.90797 2.06966 8.90797C2.06966 8.90797 2.06966 8.90797 2.06966 8.90797C2.06966 8.90797 2.06966 8.90797 2.06966 8.90797C2.06966 8.90797 2.06966 8.90797 2.06966 8.90797C2.06966 8.90797 2.06966 8.90797 2.06966 8.90797C2.06966 8.90797 2.06966 8.90797 2.06966 8.90797C2.06966 8.90797 2.06966 8.90797 2.06966 8.90797C2.06966 8.90797 2.06966 8.90797 2.06966 8.90797C2.06966 8.90797 2.06966 8.90797 2.06966 8.90797C2.06966 8.90797 2.06966 8.90797 2.06966 8.90797C2.06966 8.90797 2.06966 8.90797 2.06966 8.90797C2.06966 8.90797 2.06966 8.90797 2.06966 8.90797C2.06966 8.90797 2.06966 8.90797 2.06966 8.90797C2.06966 8.90797 2.06966 8.90797 2.06966 8.90797C2.06966 8.90797 2.06966 8.90797 2.06966 8.90797C2.06966 8.90797 2.06966 8.90797 2.06966 8.90797C2.06966 8.90797 2.06966 8.90797 2.06966 8.90797C2.06966 8.90797 2.06966 8.90797 2.06966 8.90797C2.06966 8.90797 2.06966 8.90797 2.06966 8.90797C2.06966 8.90797 2.06966 8.90797 2.06966 8.90797C2.06966 8.90797 2.06966 8.90797 2.06966 8.90797C2.06966 8.90797 2.06966 8.90797 2.06966 8.90797C2.06966 8.90797 2.06966 8.90797 2.06966 8.90797V9.10797C2.06966 9.10797 2.06966 9.10797 2.06966 9.10797C2.06966 9.10797 2.06966 9.10797 2.06966 9.10797C2.06966 9.10797 2.06966 9.10797 2.06966 9.10797C2.06966 9.10797 2.06966 9.10797 2.06966 9.10797C2.06966 9.10797 2.06966 9.10797 2.06966 9.10797C2.06966 9.10797 2.06966 9.10797 2.06966 9.10797C2.06966 9.10797 2.06966 9.10797 2.06966 9.10797C2.06966 9.10797 2.06966 9.10797 2.06966 9.10797C2.06966 9.10797 2.06966 9.10797 2.06966 9.10797C2.06966 9.10797 2.06966 9.10797 2.06966 9.10797C2.06966 9.10797 2.06966 9.10797 2.06966 9.10797C2.06966 9.10797 2.06966 9.10797 2.06966 9.10797C2.06966 9.10797 2.06966 9.10797 2.06966 9.10797C2.06966 9.10797 2.06966 9.10797 2.06966 9.10797C2.06966 9.10797 2.06966 9.10797 2.06966 9.10797C2.06966 9.10797 2.06966 9.10797 2.06966 9.10797C2.06966 9.10797 2.06966 9.10797 2.06966 9.10797C2.06966 9.10797 2.06966 9.10797 2.06966 9.10797C2.06966 9.10797 2.06966 9.10797 2.06966 9.10797C2.06966 9.10797 2.06966 9.10797 2.06966 9.10797C2.06966 9.10797 2.06966 9.10797 2.06966 9.10797C2.06966 9.10797 2.06966 9.10797 2.06966 9.10797C2.06966 9.10797 2.06966 9.10797 2.06966 9.10797C2.06966 9.10797 2.06966 9.10797 2.06966 9.10797C2.06966 9.10797 2.06966 9.10797 2.06966 9.10797C2.06966 9.10797 2.06966 9.10797 2.06966 9.10797C2.06966 9.10797 2.06966 9.10797 2.06966 9.10797C2.06966 9.10797 2.06966 9.10797 2.06966 9.10797C2.06966 9.10797 2.06966 9.10797 2.06966 9.10797C2.06966 9.10797 2.06966 9.10797 2.06966 9.10797C2.06966 9.10797 2.06966 9.10797 2.06966 9.10797C2.06966 9.10797 2.06966 9.10797 2.06966 9.10797C2.06966 9.10797 2.06966 9.10797 2.06966 9.10797C2.06966 9.10797 2.06966 9.10797 2.06966 9.10797C2.06966 9.10797 2.06966 9.10797 2.06966 9.10797C2.06966 9.10797 2.06966 9.10797 2.06966 9.10797C2.06966 9.10797 2.06966 9.10797 2.06966 9.10797C2.06966 9.10797 2.06966 9.10797 2.06966 9.10797C2.06966 9.10797 2.06966 9.10797 2.06966 9.10797C2.06966 9.10797 2.06966 9.10797 2.06966 9.10797C2.06966 9.10797 2.06966 9.10797 2.06966 9.10797C2.06966 9.10797 2.06966 9.10797 2.06966 9.10797C2.06966 9.10797 2.06966 9.10797 2.06966 9.10797C2.06966 9.10797 2.06966 9.10797 2.06966 9.10797C2.06966 9.10797 2.06966 9.10797 2.06966 9.10797C2.06966 9.10797 2.06966 9.10797 2.06966 9.10797C2.06966 9.10797 2.06966 9.10797 2.06966 9.10797C2.06966 9.10797 2.06966 9.10797 2.06966 9.10797C2.06966 9.10797 2.06966 9.10797 2.06966 9.10797C2.06966 9.10797 2.06966 9.10797 2.06966 9.10797C2.06966 9.10797 2.06966 9.10797 2.06966 9.10797C2.06966 9.10797 2.06966 9.10797 2.06966 9.10797C2.06966 9.10797 2.06966 9.10797 2.06966 9.10797C2.06966 9.10797 2.06966 9.10797 2.06966 9.10797C2.06966 9.10797 2.06966 9.10797 2.06966 9.10797C2.06966 9.10797 2.06966 9.10797 2.06966 9.10797C2.06966 9.10797 2.06966 9.10797 2.06966 9.10797C2.06966 9.10797 2.06966 9.10797 2.06966 9.10797C2.06966 9.10797 2.06966 9.10797 2.06966 9.10797C2.06966 9.10797 2.06966 9.10797 2.06966 9.10797C2.06966 9.10797 2.06966 9.10797 2.06966 9.10797C2.06966 9.10797 2.06966 9.10797 2.06966 9.10797C2.06966 9.10797 2.06966 9.10797 2.06966 9.10797C2.06966 9.10797 2.06966 9.10797 2.06966 9.10797C2.06966 9.10797 2.06966 9.10797 2.06966 9.10797C2.06966 9.10797 2.06966 9.10797 2.06966 9.10797C2.06966 9.10797 2.06966 9.10797 2.06966 9.10797C2.06966 9.10797 2.06966 9.10797 2.06966 9.10797C2.06966 9.10797 2.06966 9.10797 2.06966 9.10797C2.06966 9.10797 2.06966 9.10797 2.06966 9.10797C2.06966 9.10797 2.06966 9.10797 2.06966 9.10797C2.06966 9.10797 2.06966 9.10797 2.06966 9.10797C2.06966 9.10797 2.06966 9.10797 2.06966 9.10797C2.06966 9.10797 2.06966 9.10797 2.06966 9.10797C2.06966 9.10797 2.06966 9.10797 2.06966 9.10797C2.06966 9.10797 2.06966 9.10797 2.06966 9.10797C2.06966 9.10797 2.06966 9.10797 2.06966 9.10797C2.06966 9.10797 2.06966 9.10797 2.06966 9.10797C2.06966 9.10797 2.06966 9.10797 2.06966 9.10797C2.06966 9.10797 2.06966 9.10797 2.06966 9.10797C2.06966 9.10797 2.06966 9.10797 2.06966 9.10797C2.06966 9.10797 2.06966 9.10797 2.06966 9.10797C2.06966 9.10797 2.06966 9.10797 2.06966 9.10797C2.06966 9.10797 2.06966 9.10797 2.06966 9.10797C2.06966 9.10797 2.06966 9.10797 2.06966 9.10797C2.06966 9.10797 2.06966 9.10797 2.06966 9.10797C2.06966 9.10797 2.06966 9.10797 2.06966 9.10797C2.06966 9.10797 2.06966 9.10797 2.06966 9.10797C2.06966 9.10797 2.06966 9.10797 2.06966 9.10797C2.06966 9.10797 2.06966 9.10797 2.06966 9.10797C2.06966 9.10797 2.06966 9.10797 2.06966 9.10797C2.06966 9.10797 2.06966 9.10797 2.06966 9.10797H2.06966C2.06966 9.10797 2.06966 9.10797 2.06966 9.10797H2.06966C2.06966 9.10797 2.06966 9.10797 2.06966 9.10797C2.06966 9.10797 2.06966 9.10797 2.06966 9.10797H2.06966H2.06966H2.06966C2.06966 9.10797 2.06966 9.10797 2.06966 9.10797H2.06966H2.06966C2.06966 9.00797 2.06966 8.90797 2.06966 8.90797C2.06966 8.90797 2.06966 8.90797 2.06966 8.90797C2.06966 8.90797 2.06966 8.90797 2.06966 8.90797H2.06966C2.06966 8.90797 2.06966 8.90797 2.06966 8.90797C2.06966 8.90797 2.06966 8.90797 2.06966 8.90797C2.06966 8.90797 2.06966 8.90797 2.06966 8.90797C2.06966 8.90797 2.06966 8.90797 2.06966 8.90797H2.06966H2.06966C2.06966 8.90797 2.06966 8.90797 2.06966 8.90797H2.06966C2.06966 8.90797 2.06966 8.90797 2.06966 8.90797C2.06966 8.90797 2.06966 8.90797 2.06966 8.90797H2.06966C2.06966 8.90797 2.06966 8.90797 2.06966 8.90797C2.06966 8.90797 2.06966 8.90797 2.06966 8.90797C2.06966 8.90797 2.06966 8.90797 2.06966 8.90797C2.06966 8.90797 2.06966 8.90797 2.06966 8.90797C2.06966 8.90797 2.06966 8.90797 2.06966 8.90797C2.06966 8.90797 2.06966 8.90797 2.06966 8.90797C2.06966 8.90797 2.06966 8.90797 2.06966 8.90797C2.06966 8.90797 2.06966 8.90797 2.06966 8.90797C2.06966 8.90797 2.06966 8.90797 2.06966 8.90797C2.06966 8.90797 2.06966 8.90797 2.06966 8.90797C2.06966 8.90797 2.06966 8.90797 2.06966 8.90797C2.06966 8.90797 2.06966 8.90797 2.06966 8.90797C2.06966 8.90797 2.06966 8.90797 2.06966 8.90797C2.06966 8.90797 2.06966 8.90797 2.06966 8.90797C2.06966 8.90797 2.06966 8.90797 2.06966 8.90797C2.06966 8.90797 2.06966 8.90797 2.06966 8.90797C2.06966 8.90797 2.06966 8.90797 2.06966 8.90797C2.06966 8.90797 2.06966 8.90797 2.06966 8.90797C2.06966 8.90797 2.06966 8.90797 2.06966 8.90797C2.06966 8.90797 2.06966 8.90797 2.06966 8.90797C2.06966 8.90797 2.06966 8.90797 2.06966 8.90797C2.06966 8.90797 2.06966 8.90797 2.06966 8.90797C2.06966 8.90797 2.06966 8.90797 2.06966 8.90797C2.06966 8.90797 2.06966 8.90797 2.06966 8.90797C2.06966 8.90797 2.06966 8.90797 2.06966 8.90797C2.06966 8.90797 2.06966 8.90797 2.06966 8.90797C2.06966 8.90797 2.06966 8.90797 2.06966 8.90797C2.06966 8.90797 2.06966 8.90797 2.06966 8.90797C2.06966 8.90797 2.06966 8.90797 2.06966 8.90797C2.06966 8.90797 2.06966 8.90797 2.06966 8.90797C2.06966 8.90797 2.06966 8.90797 2.06966 8.90797C2.06966 8.90797 2.06966 8.90797 2.06966 8.90797C2.06966 8.90797 2.06966 8.90797 2.06966 8.90797C2.06966 8.90797 2.06966 8.90797 2.06966 8.90797C2.06966 8.90797 2.06966 8.90797 2.06966 8.90797C2.06966 8.90797 2.06966 8.90797 2.06966 8.90797C2.06966 8.90797 2.06966 8.90797 2.06966 8.90797C2.06966 8.90797 2.06966 8.90797 2.06966 8.90797C2.06966 8.90797 2.06966 8.90797 2.06966 8.90797C2.06966 8.90797 2.06966 8.90797 2.06966 8.90797C2.06966 8.90797 2.06966 8.90797 2.06966 8.90797C2.06966 8.90797 2.06966 8.90797 2.06966 8.90797C2.06966 8.90797 2.06966 8.90797 2.06966 8.90797C2.06966 8.90797 2.06966 8.90797 2.06966 8.90797C2.06966 8.90797 2.06966 8.90797 2.06966 8.90797C2.06966 8.90797 2.06966 8.90797 2.06966 8.90797C2.06966 8.90797 2.06966 8.90797 2.06966 8.90797C2.06966 8.90797 2.06966 8.90797 2.06966 8.90797C2.06966 8.90797 2.06966 8.90797 2.06966 8.90797C2.06966 8.90797 2.06966 8.90797 2.06966 8.90797C2.06966 8.90797 2.06966 8.90797 2.06966 8.90797C2.06966 8.90797 2.06966 8.90797 2.06966 8.90797C2.06966 8.90797 2.06966 8.90797 2.06966 8.90797C2.06966 8.90797 2.06966 8.90797 2.06966 8.90797C2.06966 8.90797 2.06966 8.90797 2.06966 8.90797C2.06966 8.90797 2.06966 8.90797 2.06966 8.90797C2.06966 8.90797 2.06966 8.90797 2.06966 8.90797C2.06966 8.90797 2.06966 8.90797 2.06966 8.90797C2.06966 8.90797 2.06966 8.90797 2.06966 8.90797C2.06966 8.90797 2.06966 8.90797 2.06966 8.90797C2.06966 8.90797 2.06966 8.90797 2.06966 8.90797C2.06966 8.90797 2.06966 8.90797 2.06966 8.90797C2.06966 8.90797 2.06966 8.90797 2.06966 8.90797C2.06966 8.90797 2.06966 8.90797 2.06966 8.90797C2.06966 8.90797 2.06966 8.90797 2.06966 8.90797C2.06966 8.90797 2.06966 8.90797 2.06966 8.90797C2.06966 8.90797 2.06966 8.90797 2.06966 8.90797C2.06966 8.90797 2.06966 8.90797 2.06966 8.90797C2.06966 8.90797 2.06966 8.90797 2.06966 8.90797C2.06966 8.90797 2.06966 8.90797 2.06966 8.90797C2.06966 8.90797 2.06966 8.90797 2.06966 8.90797C2.06966 8.90797 2.06966 8.90797 2.06966 8.90797C2.06966 8.90797 2.06966 8.90797 2.06966 8.90797C2.06966 8.90797 2.06966 8.90797 2.06966 8.90797C2.06966 8.90797 2.06966 8.90797 2.06966 8.90797C2.06966 8.90797 2.06966 8.90797 2.06966 8.90797C2.06966 8.90797 2.06966 8.90797 2.06966 8.90797C2.06966 8.90797 2.06966 8.90797 2.06966 8.90797C2.06966 8.90797 2.06966 8.90797 2.06966 8.90797C2.06966 8.90797 2.06966 8.90797 2.06966 8.90797C2.06966 8.90797 2.06966 8.90797 2.06966 8.90797C2.06966 8.90797 2.06966 8.90797 2.06966 8.90797C2.06966 8.90797 2.06966 8.90797 2.06966 8.90797C2.06966 8.90797 2.06966 8.90797 2.06966 8.90797C2.06966 8.90797 2.06966 8.90797 2.06966 8.90797C2.06966 8.90797 2.06966 8.90797 2.06966 8.90797C2.06966 8.90797 2.06966 8.90797 2.06966 8.90797C2.06966 8.90797 2.06966 8.90797 2.06966 8.90797C2.06966 8.90797 2.06966 8.90797 2.06966 8.90797C2.06966 8.90797 2.06966 8.90797 2.06966 8.90797C2.06966 8.90797 2.06966 8.90797 2.06966 8.90797C2.06966 8.90797 2.06966 8.90797 2.06966 8.90797C2.06966 8.90797 2.06966 8.90797 2.06966 8.90797C2.06966 8.90797 2.06966 8.90797 2.06966 8.90797C2.06966 8.90797 2.06966 8.90797 2.06966 8.90797C2.06966 8.90797 2.06966 8.90797 2.06966 8.90797C2.06966 8.90797 2.06966 8.90797 2.06966 8.90797C2.06966 8.90797 2.06966 8.90797 2.06966 8.90797C2.06966 8.90797 2.06966 8.90797 2.06966 8.90797C2.06966 8.90797 2.06966 8.90797 2.06966 8.90797C2.06966 8.90797 2.06966 8.90797 2.06966 8.90797C2.06966 8.90797 2.06966 8.90797 2.06966 8.90797C2.06966 8.90797 2.06966 8.90797 2.06966 8.90797C2.06966 8.90797 2.06966 8.90797 2.06966 8.90797C2.06966 8.90797 2.06966 8.90797 2.06966 8.90797C2.06966 8.90797 2.06966 8.90797 2.06966 8.90797C2.06966 8.90797 2.06966 8.90797 2.06966 8.90797C2.06966 8.90797 2.06966 8.90797 2.06966 8.90797C2.06966 8.90797 2.06966 8.90797 2.06966 8.90797C2.06966 8.90797 2.06966 8.90797 2.06966 8.90797C2.06966 8.90797 2.06966 8.90797 2.06966 8.90797C2.06966 8.90797 2.06966 8.90797 2.06966 8.90797C2.06966 8.90797 2.06966 8.90797 2.06966 8.90797C2.06966 8.90797 2.06966 8.90797 2.06966 8.90797C2.06966 8.90797 2.06966 8.90797 2.06966 8.90797C2.06966 8.90797 2.06966 8.90797 2.06966 8.90797C2.06966 8.90797 2.06966 8.90797 2.06966 8.90797C2.06966 8.90797 2.06966 8.90797 2.06966 8.90797C2.06966 8.90797 2.06966 8.90797 2.06966 8.90797C2.06966 8.90797 2.06966 8.90797 2.06966 8.90797C2.06966 8.90797 2.06966 8.90797 2.06966 8.90797C2.06966 8.90797 2.06966 8.90797 2.06966 8.90797C2.06966 8.90797 2.06966 8.90797 2.06966 8.90797C2.06966 8.90797 2.06966 8.90797 2.06966 8.90797C2.06966 8.90797 2.06966 8.90797 2.06966 8.90797C2.06966 8.90797 2.06966 8.90797 2.06966 8.90797C2.06966 8.90797 2.06966 8.90797 2.06966 8.90797C2.06966 8.90797 2.06966 8.90797 2.06966 8.90797C2.06966 8.90797 2.06966 8.90797 2.06966 8.90797C2.06966 8.90797 2.06966 8.90797 2.06966 8.90797C2.06966 8.90797 2.06966 8.90797 2.06966 8.90797C2.06966 8.90797 2.06966 8.90797 2.06966 8.90797C2.06966 8.90797 2.06966 8.90797 2.06966 8.90797C2.06966 8.90797 2.06966 8.90797 2.06966 8.90797C2.06966 8.90797 2.06966 8.90797 2.06966 8.90797C2.06966 8.90797 2.06966 8.90797 2.06966 8.90797C2.06966 8.90797 2.06966 8.90797 2.06966 8.90797C2.06966 8.90797 2.06966 8.90797 2.06966 8.90797C2.06966 8.90797 2.06966 8.90797 2.06966 8.90797C2.06966 8.90797 2.06966 8.90797 2.06966 8.90797C2.06966 8.90797 2.06966 8.90797 2.06966 8.90797C2.06966 8.90797 2.06966 8.90797 2.06966 8.90797C2.06966 8.90797 2.06966 8.90797 2.06966 8.90797C2.06966 8.90797 2.06966 8.90797 2.06966 8.90797C2.06966 8.90797 2.06966 8.90797 2.06966 8.90797C2.06966 8.90797 2.06966 8.90797 2.06966 8.90797C2.06966 8.90797 2.06966 8.90797 2.06966 8.90797C2.06966 8.90797 2.06966 8.90797 2.06966 8.90797C2.06966 8.90797 2.06966 8.90797 2.06966 8.90797C2.06966 8.90797 2.06966 8.90797 2.06966 8.90797C2.06966 8.90797 2.06966 8.90797 2.06966 8.90797C2.06965 8.90797 2.06965 8.90797 2.06965 8.90797C2.06965 8.90797 2.06965 8.90797 2.06965 8.90797C2.06965 8.90797 2.06965 8.90797 2.06965 8.90797C2.06965 8.90797 2.06965 8.90797 2.06965 8.90797C2.06965 8.90797 2.06965 8.90797 2.06965 8.90797C2.06965 8.90797 2.06965 8.90797 2.06965 8.90797C2.06965 8.90797 2.06965 8.90797 2.06965 8.90797C2.06965 8.90797 2.06965 8.90797 2.06965 8.90797C2.06965 8.90797 2.06965 8.90797 2.06965 8.90797C2.06965 8.90797 2.06965 8.90797 2.06965 8.90797C2.06965 8.90797 2.06965 8.90797 2.06965 8.90797C2.06965 8.90797 2.06965 8.90797 2.06965 8.90797C2.06965 8.90797 2.06965 8.90797 2.06965 8.90797C2.06965 8.90797 2.06965 8.90797 2.06965 8.90797C2.06965 8.90797 2.06965 8.90797 2.06965 8.90797C2.06965 8.90797 2.06965 8.90797 2.06965 8.90797C2.06965 8.90797 2.06965 8.90797 2.06965 8.90797C2.06965 8.90797 2.06965 8.90797 2.06965 8.90797C2.06965 8.90797 2.06965 8.90797 2.06965 8.90797C2.06965 8.90797 2.06965 8.90797 2.06965 8.90797C2.06965 8.90797 2.06965 8.90797 2.06965 8.90797C2.06965 8.90797 2.06965 8.90797 2.06965 8.90797C2.06965 8.90797 2.06965 8.90797 2.06965 8.90797C2.06965 8.90797 2.06965 8.90797 2.06965 8.90797C2.06965 8.90797 2.06965 8.90797 2.06965 8.90797C2.06965 8.90797 2.06965 8.90797 2.06965 8.90797C2.06965 8.90797 2.06965 8.90797 2.06965 8.90797C2.06965 8.90797 2.06965 8.90797 2.06965 8.90797C2.06965 8.90797 2.06965 8.90797 2.06965 8.90797C2.06965 8.90797 2.06965 8.90797 2.06965 8.90797C2.06965 8.90797 2.06965 8.90797 2.06965 8.90797C2.06965 8.90797 2.06965 8.90797 2.06965 8.90797C2.06965 8.90797 2.06965 8.90797 2.06965 8.90797C2.06965 8.90797 2.06965 8.90797 2.06965 8.90797C2.06965 8.90797 2.06965 8.90797 2.06965 8.90797C2.06965 8.90797 2.06965 8.90797 2.06965 8.90797C2.06965 8.90797 2.06965 8.90797 2.06965 8.90797C2.06965 8.90797 2.06965 8.90797 2.06965 8.90797C2.06965 8.90797 2.06965 8.90797 2.06965 8.90797C2.06965 8.90797 2.06965 8.90797 2.06965 8.90797C2.06965 8.90797 2.06965 8.90797 2.06965 8.90797C2.06965 8.90797 2.06965 8.90797 2.06965 8.90797C2.06965 8.90797 2.06965 8.90797 2.06965 8.90797C2.06965 8.90797 2.06965 8.90797 2.06965 8.90797C2.06965 8.90797 2.06965 8.90797 2.06965 8.90797C2.06965 8.90797 2.06965 8.90797 2.06965 8.90797C2.06965 8.90797 2.06965 8.90797 2.06965 8.90797C2.06965 8.90797 2.06965 8.90797 2.06965 8.90797C2.06965 8.90797 2.06965 8.90797 2.06965 8.90797C2.06965 8.90797 2.06965 8.90797 2.06965 8.90797C2.06965 8.90797 2.06965 8.90797 2.06965 8.90797C2.06965 8.90797 2.06965 8.90797 2.06965 8.90797C2.06965 8.90797 2.06965 8.90797 2.06965 8.90797C2.06965 8.90797 2.06965 8.90797 2.06965 8.90797C2.06965 8.90797 2.06965 8.90797 2.06965 8.90797C2.06965 8.90797 2.06965 8.90797 2.06965 8.90797C2.06965 8.90797 2.06965 8.90797 2.06965 8.90797C2.06965 8.90797 2.06965 8.90797 2.06965 8.90797C2.06965 8.90797 2.06965 8.90797 2.06965 8.90797C2.06965 8.90797 2.06965 8.90797 2.06965 8.90797C2.06965 8.90797 2.06965 8.90797 2.06965 8.90797C2.06965 8.90797 2.06965 8.90797 2.06965 8.90797C2.06965 8.90797 2.06965 8.90797 2.06965 8.90797C2.06965 8.90797 2.06965 8.90797 2.06965 8.90797C2.06965 8.90797 2.06965 8.90797 2.06965 8.90797C2.06965 8.90797 2.06965 8.90797 2.06965 8.90797C2.06965 8.90797 2.06965 8.90797 2.06965 8.90797C2.06965 8.90797 2.06965 8.90797 2.06965 8.90797C2.06965 8.90797 2.06965 8.90797 2.06965 8.90797C2.06965 8.90797 2.06965 8.90797 2.06965 8.90797C2.06965 8.90797 2.06965 8.90797 2.06965 8.90797C2.06965 8.90797 2.06965 8.90797 2.06965 8.90797C2.06965 8.90797 2.06965 8.90797 2.06965 8.90797C2.06965 8.90797 2.06965 8.90797 2.06965 8.90797C2.06965 8.90797 2.06965 8.90797 2.06965 8.90797C2.06965 8.90797 2.06965 8.90797 2.06965 8.90797C2.06965 8.90797 2.06965 8.90797 2.06965 8.90797C2.06965 8.90797 2.06965 8.90797 2.06965 8.90797C2.06965 8.90797 2.06965 8.90797 2.06965 8.90797C2.06965 8.90797 2.06965 8.90797 2.06965 8.90797C2.06965 8.90797 2.06965 8.90797 2.06965 8.90797C2.06965 8.90797 2.06965 8.90797 2.06965 8.90797C2.06965 8.90797 2.06965 8.90797 2.06965 8.90797C2.06965 8.90797 2.06965 8.90797 2.06965 8.90797C2.06965 8.90797 2.06965 8.90797 2.06965 8.90797C2.06965 8.90797 2.06965 8.90797 2.06965 8.90797C2.06965 8.90797 2.06965 8.90797 2.06965 8.90797C2.06965 8.90797 2.06965 8.90797 2.06965 8.90797C2.06965 8.90797 2.06965 8.90797 2.06965 8.90797C2.06965 8.90797 2.06965 8.90797 2.06965 8.90797C2.06965 8.90797 2.06965 8.90797 2.06965 8.90797C2.06965 8.90797 2.06965 8.90797 2.06965 8.90797C2.06965 8.90797 2.06965 8.90797 2.06965 8.90797C2.06965 8.90797 2.06965 8.90797 2.06965 8.90797C2.06965 8.90797 2.06965 8.90797 2.06965 8.90797C2.06965 8.90797 2.06965 8.90797 2.06965 8.90797C2.06965 8.90797 2.06965 8.90797 2.06965 8.90797C2.06965 8.90797 2.06965 8.90797 2.06965 8.90797C2.06965 8.90797 2.06965 8.90797 2.06965 8.90797C2.06965 8.90797 2.06965 8.90797 2.06965 8.90797C2.06965 8.90797 2.06965 8.90797 2.06965 8.90797C2.06965 8.90797 2.06965 8.90797 2.06965 8.90797C2.06965 8.90797 2.06965 8.90797 2.06965 8.90797C2.06965 8.90797 2.06965 8.90797 2.06965 8.90797C2.06965 8.90797 2.06965 8.90797 2.06965 8.90797C2.06965 8.90797 2.06965 8.90797 2.06965 8.90797C2.06965 8.90797 2.06965 8.90797 2.06965 8.90797H2.06965C2.06965 8.90797 2.06965 8.90797 2.06965 8.90797H2.06965C2.06965 8.90797 2.06965 8.90797 2.06965 8.90797C2.06965 8.90797 2.06965 8.90797 2.06965 8.90797H2.06965H2.06965H2.06965H2.06965C2.06965 8.90797 2.06965 8.90797 2.06965 8.90797C2.06965 8.90797 2.06965 8.90797 2.06965 8.90797C2.06965 8.90797 2.06965 8.90797 2.06965 8.90797H2.06965C2.06965 8.90797 2.06965 9.00797 2.06965 9.10797C2.06965 9.10797 2.06965 9.10797 2.06965 9.10797C2.06965 9.10797 2.06965 9.10797 2.06965 9.10797H2.06965C2.06965 9.10797 2.06965 9.10797 2.06965 9.10797C2.06965 9.10797 2.06965 9.10797 2.06965 9.10797C2.06965 9.10797 2.06965 9.10797 2.06965 9.10797C2.06965 9.10797 2.06965 9.10797 2.06965 9.10797C2.06965 9.10797 2.06965 9.10797 2.06965 9.10797H2.06965C2.06965 9.10797 2.06965 9.10797 2.06965 9.10797H2.06965C2.06965 9.10797 2.06965 9.10797 2.06965 9.10797C2.06965 9.10797 2.06965 9.10797 2.06965 9.10797H2.06965C2.06965 9.10797 2.06965 9.10797 2.06965 9.10797C2.06965 9.10797 2.06965 9.10797 2.06965 9.10797C2.06965 9.10797 2.06965 9.10797 2.06965 9.10797C2.06965 9.10797 2.06965 9.10797 2.06965 9.10797C2.06965 9.10797 2.06965 9.10797 2.06965 9.10797C2.06965 9.10797 2.06965 9.10797 2.06965 9.10797C2.06965 9.10797 2.06965 9.10797 2.06965 9.10797C2.06965 9.10797 2.06965 9.10797 2.06965 9.10797C2.06965 9.10797 2.06965 9.10797 2.06965 9.10797C2.06965 9.10797 2.06965 9.10797 2.06965 9.10797C2.06965 9.10797 2.06965 9.10797 2.06965 9.10797C2.06965 9.10797 2.06965 9.10797 2.06965 9.10797C2.06965 9.10797 2.06965 9.10797 2.06965 9.10797C2.06965 9.10797 2.06965 9.10797 2.06965 9.10797C2.06965 9.10797 2.06965 9.10797 2.06965 9.10797C2.06965 9.10797 2.06965 9.10797 2.06965 9.10797C2.06965 9.10797 2.06965 9.10797 2.06965 9.10797C2.06965 9.10797 2.06965 9.10797 2.06965 9.10797C2.06965 9.10797 2.06965 9.10797 2.06965 9.10797C2.06965 9.10797 2.06965 9.10797 2.06965 9.10797C2.06965 9.10797 2.06965 9.10797 2.06965 9.10797C2.06965 9.10797 2.06965 9.10797 2.06965 9.10797C2.06965 9.10797 2.06965 9.10797 2.06965 9.10797C2.06965 9.10797 2.06965 9.10797 2.06965 9.10797C2.06965 9.10797 2.06965 9.10797 2.06965 9.10797C2.06965 9.10797 2.06965 9.10797 2.06965 9.10797C2.06965 9.10797 2.06965 9.10797 2.06965 9.10797C2.06965 9.10797 2.06965 9.10797 2.06965 9.10797C2.06965 9.10797 2.06965 9.10797 2.06965 9.10797C2.06965 9.10797 2.06965 9.10797 2.06965 9.10797C2.06965 9.10797 2.06965 9.10797 2.06965 9.10797C2.06965 9.10797 2.06965 9.10797 2.06965 9.10797C2.06965 9.10797 2.06965 9.10797 2.06965 9.10797C2.06965 9.10797 2.06965 9.10797 2.06965 9.10797C2.06965 9.10797 2.06965 9.10797 2.06965 9.10797C2.06965 9.10797 2.06965 9.10797 2.06965 9.10797C2.06965 9.10797 2.06965 9.10797 2.06965 9.10797C2.06965 9.10797 2.06965 9.10797 2.06965 9.10797C2.06965 9.10797 2.06965 9.10797 2.06965 9.10797C2.06965 9.10797 2.06965 9.10797 2.06965 9.10797C2.06965 9.10797 2.06965 9.10797 2.06965 9.10797C2.06965 9.10797 2.06965 9.10797 2.06965 9.10797C2.06965 9.10797 2.06965 9.10797 2.06965 9.10797C2.06965 9.10797 2.06965 9.10797 2.06965 9.10797C2.06965 9.10797 2.06965 9.10797 2.06965 9.10797C2.06965 9.10797 2.06965 9.10797 2.06965 9.10797C2.06965 9.10797 2.06965 9.10797 2.06965 9.10797C2.06965 9.10797 2.06965 9.10797 2.06965 9.10797C2.06965 9.10797 2.06965 9.10797 2.06965 9.10797C2.06965 9.10797 2.06965 9.10797 2.06965 9.10797C2.06965 9.10797 2.06965 9.10797 2.06965 9.10797C2.06965 9.10797 2.06965 9.10797 2.06965 9.10797C2.06965 9.10797 2.06965 9.10797 2.06965 9.10797C2.06965 9.10797 2.06965 9.10797 2.06965 9.10797C2.06965 9.10797 2.06965 9.10797 2.06965 9.10797C2.06965 9.10797 2.06965 9.10797 2.06965 9.10797C2.06965 9.10797 2.06965 9.10797 2.06965 9.10797C2.06965 9.10797 2.06965 9.10797 2.06965 9.10797C2.06965 9.10797 2.06965 9.10797 2.06965 9.10797C2.06965 9.10797 2.06965 9.10797 2.06965 9.10797C2.06965 9.10797 2.06965 9.10797 2.06965 9.10797C2.06965 9.10797 2.06965 9.10797 2.06965 9.10797C2.06965 9.10797 2.06965 9.10797 2.06965 9.10797C2.06965 9.10797 2.06965 9.10797 2.06965 9.10797C2.06965 9.10797 2.06965 9.10797 2.06965 9.10797C2.06965 9.10797 2.06965 9.10797 2.06965 9.10797C2.06965 9.10797 2.06965 9.10797 2.06965 9.10797C2.06965 9.10797 2.06965 9.10797 2.06965 9.10797C2.06965 9.10797 2.06965 9.10797 2.06965 9.10797C2.06965 9.10797 2.06965 9.10797 2.06965 9.10797C2.06965 9.10797 2.06965 9.10797 2.06965 9.10797C2.06965 9.10797 2.06965 9.10797 2.06965 9.10797C2.06965 9.10797 2.06965 9.10797 2.06965 9.10797C2.06965 9.10797 2.06965 9.10797 2.06965 9.10797C2.06965 9.10797 2.06965 9.10797 2.06965 9.10797C2.06965 9.10797 2.06965 9.10797 2.06965 9.10797C2.06965 9.10797 2.06965 9.10797 2.06965 9.10797C2.06965 9.10797 2.06965 9.10797 2.06966 9.10797C2.06966 9.10797 2.06966 9.10797 2.06966 9.10797C2.06966 9.10797 2.06966 9.10797 2.06966 9.10797C2.06966 9.10797 2.06966 9.10797 2.06966 9.10797C2.06966 9.10797 2.06966 9.10797 2.06966 9.10797C2.06966 9.10797 2.06966 9.10797 2.06966 9.10797C2.06966 9.10797 2.06966 9.10797 2.06966 9.10797C2.06966 9.10797 2.06966 9.10797 2.06966 9.10797C2.06966 9.10797 2.06966 9.10797 2.06966 9.10797C2.06966 9.10797 2.06966 9.10797 2.06966 9.10797C2.06966 9.10797 2.06966 9.10797 2.06966 9.10797C2.06966 9.10797 2.06966 9.10797 2.06966 9.10797C2.06966 9.10797 2.06966 9.10797 2.06966 9.10797V8.90797ZM21.9274 9.02711L21.7307 9.06309L21.7324 9.07221L21.7349 9.08114L21.9274 9.02711ZM21.9199 8.9955L21.7241 9.03631L21.775 9.28066L22.0024 9.17769L21.9199 8.9955ZM21.7448 8.49689L21.5653 8.58507L21.5663 8.58707L21.7448 8.49689ZM19.4956 3.91806L19.6751 3.82988L19.6749 3.82935L19.4956 3.91806ZM4.51003 3.91867L4.33078 3.82995L4.33062 3.83028L4.51003 3.91867ZM2.25547 8.49477L2.43425 8.58444L2.43488 8.58316L2.25547 8.49477ZM2.06966 9.00797L2.2642 9.05439L2.26435 9.05375L2.06966 9.00797ZM2.06806 9.01645L2.26219 9.0647L2.26308 9.06079L2.06806 9.01645ZM2.82535 11.8992L2.70179 12.0565L2.7018 12.0565L2.82535 11.8992ZM3.37812 12.2108H3.57812V12.076L3.45315 12.0254L3.37812 12.2108ZM20.625 12.2133L20.5467 12.0293L20.425 12.081V12.2133H20.625ZM18.9122 4.18222L19.0917 4.09403L19.0915 4.09348L18.9122 4.18222ZM21.1627 8.76316L21.3443 8.67917L21.3422 8.67498L21.1627 8.76316ZM21.1671 8.77131V8.97131H21.5491L21.3315 8.65736L21.1671 8.77131ZM18.0513 8.77131L17.8595 8.82797L17.9019 8.97131H18.0513V8.77131ZM16.5291 3.61829V3.41829H16.2615L16.3373 3.67495L16.5291 3.61829ZM15.9599 11.773L15.95 11.5733L15.948 11.5734L15.9599 11.773ZM14.7597 11.3483L14.8946 11.2006L14.8946 11.2006L14.7597 11.3483ZM14.2601 9.38958V9.18958H14.0601V9.38958H14.2601ZM17.4703 9.38958L17.6699 9.37769L17.6587 9.18958H17.4703V9.38958ZM15.8582 3.61829L16.05 3.56182L16.0078 3.41829H15.8582V3.61829ZM17.3741 8.77131V8.97131H17.6341L17.5674 8.71998L17.3741 8.77131ZM14.2312 8.77131L14.0322 8.79091L14.05 8.97131H14.2312V8.77131ZM13.7238 3.61829V3.41829H13.5032L13.5248 3.63789L13.7238 3.61829ZM10.9303 3.61829V3.41829H10.7489L10.7313 3.59878L10.9303 3.61829ZM13.0754 3.61829L13.2744 3.59876L13.2567 3.41829H13.0754V3.61829ZM13.581 8.77131V8.97131H13.8015L13.78 8.75179L13.581 8.77131ZM10.4253 8.77131L10.2262 8.75181L10.2047 8.97131H10.4253V8.77131ZM10.3907 9.38958V9.18958H10.1908V9.38958H10.3907ZM13.6149 9.38958H13.8149V9.18958H13.6149V9.38958ZM8.1417 3.61829V3.41829H7.99209L7.94984 3.56181L8.1417 3.61829ZM10.2821 3.61829L10.4811 3.63789L10.5027 3.41829H10.2821V3.61829ZM9.77475 8.77131V8.97131H9.95603L9.97379 8.79091L9.77475 8.77131ZM6.63202 8.77131L6.4387 8.72005L6.37206 8.97131H6.63202V8.77131ZM6.65395 8.67206L6.84563 8.72914L6.84581 8.72854L6.65395 8.67206ZM9.74559 9.3896H9.94559V9.1896L9.74559 9.1896L9.74559 9.3896ZM9.15525 11.4213L9.2791 11.5784L9.27916 11.5783L9.15525 11.4213ZM7.8032 11.7441L7.76575 11.9405L7.76674 11.9407L7.8032 11.7441ZM6.53529 9.38958V9.18958H6.34701L6.33566 9.37753L6.53529 9.38958ZM2.83794 8.76044L3.01545 8.85267L3.01734 8.84883L2.83794 8.76044ZM5.09313 4.18313L4.91386 4.09446L4.91372 4.09474L5.09313 4.18313ZM7.47109 3.61829L7.66295 3.67476L7.73845 3.41829H7.47109V3.61829ZM5.95422 8.77131V8.97131H6.10383L6.14608 8.82779L5.95422 8.77131ZM2.83258 8.77131L2.65564 8.67808L2.50113 8.97131H2.83258V8.77131ZM3.23423 11.421L3.11066 11.5783L3.11075 11.5784L3.23423 11.421ZM2.65491 9.38958L2.65491 9.18958L2.47464 9.18958L2.45598 9.36888L2.65491 9.38958ZM5.87594 9.3896H6.07594V9.1896H5.87594V9.3896ZM4.59321 11.7383L4.55579 11.5419L4.55561 11.5419L4.59321 11.7383ZM6.56457 20.3828H6.36457V20.5828H6.56457V20.3828ZM10.026 20.3828V20.5828H10.226V20.3828H10.026ZM19.9812 19.4696H19.7812H19.9812ZM10.6711 20.3831H10.4711V20.5831H10.6711V20.3831ZM5.91941 20.3831V20.5831H6.11941V20.3831H5.91941ZM4.02187 12.369L4.04183 12.17L3.82187 12.1479V12.369H4.02187ZM4.71952 12.3445L4.68213 12.1481L4.68158 12.1482L4.71952 12.3445ZM6.19674 11.3093L6.36831 11.2065L6.19731 10.921L6.02547 11.206L6.19674 11.3093ZM7.67816 12.3506L7.64074 12.547L7.64112 12.5471L7.67816 12.3506ZM9.5651 11.8986L9.68894 12.0557L9.68895 12.0557L9.5651 11.8986ZM10.069 11.3376L10.2385 11.2313L10.0689 10.9611L9.89957 11.2314L10.069 11.3376ZM13.9356 11.3394L14.1051 11.2332L13.9359 10.9632L13.7663 11.233L13.9356 11.3394ZM14.3149 11.796L14.4498 11.6484L14.4496 11.6482L14.3149 11.796ZM15.992 12.3907L16.0014 12.5905L16.0019 12.5905L15.992 12.3907ZM17.7919 11.3189L17.9626 11.2147L17.7924 10.9359L17.6215 11.2142L17.7919 11.3189ZM18.1845 11.796L18.3195 11.6484L18.3193 11.6482L18.1845 11.796ZM19.8617 12.3907L19.8711 12.5905L19.8716 12.5905L19.8617 12.3907ZM19.9812 12.3788H20.1812L20.1812 12.1571L19.9607 12.1799L19.9812 12.3788ZM21.3548 10.1235L21.1548 10.1235V10.1235H21.3548ZM19.8296 11.773L19.8197 11.5733L19.8177 11.5734L19.8296 11.773ZM18.6293 11.3483L18.7642 11.2006L18.7642 11.2006L18.6293 11.3483ZM18.1297 9.38958V9.18958H17.9297V9.38958H18.1297ZM21.3448 9.38958L21.5434 9.36645L21.5228 9.18958H21.3448V9.38958ZM21.3548 9.57857L21.5548 9.57857V9.57857H21.3548ZM9.43121 17.4259H9.13762V17.8259H9.43121V17.4259ZM9.13762 17.4259C9.06167 17.4259 9.01504 17.3692 9.01504 17.3167H8.61504C8.61504 17.606 8.85696 17.8259 9.13762 17.8259V17.4259ZM9.01504 17.3167C9.01504 17.2642 9.06167 17.2076 9.13762 17.2076V16.8076C8.85697 16.8076 8.61504 17.0275 8.61504 17.3167H9.01504ZM9.13762 17.2076H9.43121V16.8076H9.13762V17.2076ZM9.43121 17.2076C9.50716 17.2076 9.55378 17.2642 9.55378 17.3167H9.95378C9.95378 17.0275 9.71186 16.8076 9.43121 16.8076V17.2076ZM9.55378 17.3167C9.55378 17.3692 9.50715 17.4259 9.43121 17.4259V17.8259C9.71186 17.8259 9.95378 17.606 9.95378 17.3167H9.55378ZM17.1519 18.9311H13.2785V19.3311H17.1519V18.9311ZM13.2785 18.9311C12.8667 18.9311 12.5467 18.6124 12.5467 18.2381H12.1467C12.1467 18.8492 12.662 19.3311 13.2785 19.3311V18.9311ZM12.5467 18.2381V14.526H12.1467V18.2381H12.5467ZM12.5467 14.526C12.5467 14.1515 12.8669 13.8324 13.2785 13.8324V13.4324C12.6618 13.4324 12.1467 13.9151 12.1467 14.526H12.5467ZM13.2785 13.8324H17.1519V13.4324H13.2785V13.8324ZM17.1519 13.8324C17.5635 13.8324 17.8837 14.1515 17.8837 14.526H18.2837C18.2837 13.9151 17.7686 13.4324 17.1519 13.4324V13.8324ZM17.8837 14.526V18.2381H18.2837V14.526H17.8837ZM17.8837 18.2381C17.8837 18.6124 17.5637 18.9311 17.1519 18.9311V19.3311C17.7684 19.3311 18.2837 18.8492 18.2837 18.2381H17.8837ZM13.2785 14.0507C13.0174 14.0507 12.7918 14.2566 12.7918 14.526H13.1918C13.1918 14.4923 13.2233 14.4507 13.2785 14.4507V14.0507ZM12.7918 14.526V18.2381H13.1918V14.526H12.7918ZM12.7918 18.2381C12.7918 18.5081 13.018 18.7128 13.2785 18.7128V18.3128C13.2227 18.3128 13.1918 18.2713 13.1918 18.2381H12.7918ZM13.2785 18.7128H17.1519V18.3128H13.2785V18.7128ZM17.1519 18.7128C17.4124 18.7128 17.6386 18.508 17.6386 18.2381H17.2386C17.2386 18.2713 17.2077 18.3128 17.1519 18.3128V18.7128ZM17.6386 18.2381V14.526H17.2386V18.2381H17.6386ZM17.6386 14.526C17.6386 14.2566 17.413 14.0507 17.1519 14.0507V14.4507C17.2071 14.4507 17.2386 14.4923 17.2386 14.526H17.6386ZM17.1519 14.0507H13.2785V14.4507H17.1519V14.0507ZM22.1242 8.99113C22.1229 8.98412 22.1192 8.96861 22.1184 8.96503C22.1174 8.96095 22.1163 8.9563 22.1153 8.95241C22.1149 8.95069 22.1142 8.94793 22.1135 8.94513C22.1132 8.94416 22.1123 8.9407 22.111 8.93655C22.1106 8.93535 22.1087 8.92898 22.1056 8.92118C22.1047 8.9189 22.0998 8.90662 22.0912 8.89229C22.088 8.88702 22.0757 8.8666 22.0533 8.84649C22.0383 8.83309 21.9513 8.76173 21.8374 8.81331L22.0024 9.17769C21.8885 9.22927 21.8014 9.15792 21.7865 9.14452C21.764 9.12442 21.7518 9.10401 21.7486 9.09875C21.74 9.08445 21.7352 9.07221 21.7343 9.06998C21.7312 9.06228 21.7293 9.05608 21.729 9.0551C21.7278 9.05138 21.7271 9.04858 21.7271 9.04844C21.7268 9.04729 21.7267 9.04692 21.727 9.04807C21.7274 9.04994 21.7281 9.053 21.729 9.0567C21.7318 9.0687 21.7318 9.06906 21.7307 9.06309L22.1242 8.99113ZM22.1157 8.9547C22.077 8.76931 22.013 8.58413 21.9233 8.4067L21.5663 8.58707C21.6401 8.73311 21.6926 8.88507 21.7241 9.03631L22.1157 8.9547ZM21.9243 8.40871L19.6751 3.82988L19.3161 4.00624L21.5653 8.58507L21.9243 8.40871ZM19.6749 3.82935C19.3638 3.20075 18.6984 2.8 17.9829 2.8V3.2C18.5527 3.2 19.0756 3.52017 19.3164 4.00677L19.6749 3.82935ZM17.9829 2.8H16.1023V3.2H17.9829V2.8ZM16.1023 2.8H13.3692V3.2H16.1023V2.8ZM13.3692 2.8H10.6365V3.2H13.3692V2.8ZM10.6365 2.8H7.89741V3.2H10.6365V2.8ZM7.89741 2.8H6.01707V3.2H7.89741V2.8ZM6.01707 2.8C5.30446 2.8 4.64193 3.20129 4.33078 3.82995L4.68928 4.00738C4.93069 3.51963 5.45136 3.2 6.01707 3.2V2.8ZM4.33062 3.83028L2.07606 8.40638L2.43488 8.58316L4.68944 4.00706L4.33062 3.83028ZM2.07669 8.40511C1.9876 8.58275 1.92006 8.77044 1.87497 8.96219L2.26435 9.05375C2.30241 8.89188 2.35938 8.73369 2.43424 8.58443L2.07669 8.40511ZM1.87512 8.96155C1.87433 8.96487 1.87377 8.96758 1.87351 8.96881C1.87321 8.97031 1.87296 8.97162 1.87278 8.97255C1.87243 8.97437 1.87212 8.97609 1.87194 8.9771C1.87167 8.97861 1.87166 8.97867 1.87156 8.97921C1.87153 8.97937 1.87159 8.97903 1.8717 8.97846C1.87176 8.97817 1.87188 8.97755 1.87204 8.97674C1.87217 8.97611 1.87252 8.97437 1.87303 8.97211L2.26308 9.06079C2.26362 9.05841 2.26401 9.0565 2.26417 9.05568C2.26438 9.05467 2.26454 9.05383 2.26464 9.05328C2.26485 9.05219 2.26503 9.05123 2.26513 9.05068C2.26528 9.04982 2.26558 9.04815 2.26563 9.04789C2.26577 9.04712 2.26579 9.04702 2.26574 9.04724C2.26572 9.04737 2.26561 9.04794 2.26544 9.04878C2.26532 9.04936 2.26488 9.05152 2.2642 9.05439L1.87512 8.96155ZM1.87396 8.96821C1.82495 9.16542 1.8 9.3727 1.8 9.58462H2.2C2.2 9.40398 2.22128 9.22916 2.26215 9.06469L1.87396 8.96821ZM1.8 9.58462V10.2276H2.2V9.58462H1.8ZM1.8 10.2276C1.8 10.9411 2.13049 11.6077 2.70179 12.0565L2.94891 11.742C2.47121 11.3667 2.2 10.8147 2.2 10.2276H1.8ZM2.7018 12.0565C2.88856 12.2032 3.09421 12.3117 3.30308 12.3962L3.45315 12.0254C3.26938 11.951 3.09886 11.8598 2.94889 11.742L2.7018 12.0565ZM3.17812 12.2108V19.4696H3.57812V12.2108H3.17812ZM3.17812 19.4696C3.17812 20.4326 3.9914 21.2 4.97501 21.2V20.8C4.1961 20.8 3.57812 20.1958 3.57812 19.4696H3.17812ZM4.97501 21.2H19.0281V20.8H4.97501V21.2ZM19.0281 21.2C20.0117 21.2 20.825 20.4326 20.825 19.4696H20.425C20.425 20.1958 19.807 20.8 19.0281 20.8V21.2ZM20.825 19.4696V12.2133H20.425V19.4696H20.825ZM20.7033 12.3973C21.5861 12.0216 22.2 11.1438 22.2 10.1235H21.8C21.8 10.9797 21.2853 11.7149 20.5467 12.0293L20.7033 12.3973ZM22.2 10.1235V9.57857H21.8V10.1235H22.2ZM22.2 9.57857C22.2 9.35934 22.1728 9.16106 22.12 8.97308L21.7349 9.08114C21.7772 9.23184 21.8 9.39361 21.8 9.57857H22.2ZM17.9829 3.81829C18.3051 3.81829 18.5986 3.99954 18.733 4.27095L19.0915 4.09348C18.8869 3.6802 18.4508 3.41829 17.9829 3.41829V3.81829ZM18.7327 4.2704L20.9832 8.85135L21.3422 8.67498L19.0917 4.09403L18.7327 4.2704ZM20.9812 8.84713C20.9819 8.84875 20.9897 8.86643 21.0027 8.88527L21.3315 8.65736C21.3364 8.66448 21.3399 8.67065 21.342 8.67473C21.3438 8.67821 21.3451 8.68102 21.3442 8.67919L20.9812 8.84713ZM21.1671 8.57131H18.0513V8.97131H21.1671V8.57131ZM18.2431 8.71465L16.7209 3.56163L16.3373 3.67495L17.8595 8.82797L18.2431 8.71465ZM16.5291 3.81829H17.9829V3.41829H16.5291V3.81829ZM17.2846 9.59608V10.1235H17.6846V9.59608H17.2846ZM17.2846 10.1235C17.2846 10.8902 16.6787 11.5372 15.95 11.5733L15.9698 11.9728C16.922 11.9256 17.6846 11.0927 17.6846 10.1235H17.2846ZM15.948 11.5734C15.5558 11.5967 15.1783 11.4598 14.8946 11.2006L14.6248 11.4959C14.9875 11.8273 15.4706 12.0025 15.9718 11.9727L15.948 11.5734ZM14.8946 11.2006C14.6132 10.9436 14.4601 10.5989 14.4601 10.2276H14.0601C14.0601 10.7137 14.2623 11.1649 14.6248 11.496L14.8946 11.2006ZM14.4601 10.2276V9.38958H14.0601V10.2276H14.4601ZM14.2601 9.58958H17.4703V9.18958H14.2601V9.58958ZM17.2707 9.40147C17.2764 9.49811 17.2846 9.5305 17.2846 9.59608H17.6846C17.6846 9.52241 17.6724 9.41939 17.6699 9.37769L17.2707 9.40147ZM15.8582 3.61829C15.6663 3.67476 15.6663 3.67478 15.6663 3.67482C15.6663 3.67486 15.6664 3.67492 15.6664 3.675C15.6664 3.67515 15.6665 3.67539 15.6666 3.6757C15.6668 3.67632 15.667 3.67724 15.6674 3.67848C15.6681 3.68094 15.6692 3.68461 15.6706 3.68946C15.6735 3.69916 15.6777 3.71354 15.6832 3.73231C15.6943 3.76985 15.7105 3.8249 15.7311 3.89498C15.7724 4.03514 15.8313 4.2354 15.9021 4.47581C16.0436 4.95662 16.2323 5.598 16.4213 6.2403C16.6103 6.8826 16.7996 7.5258 16.9421 8.01025C17.0133 8.25248 17.0728 8.455 17.1148 8.59788C17.1358 8.66932 17.1524 8.72581 17.1638 8.76489C17.1761 8.80676 17.1812 8.82411 17.1808 8.82265L17.5674 8.71998C17.5626 8.70194 17.1821 7.40866 16.8051 6.12738C16.6161 5.48508 16.4273 4.84369 16.2858 4.36287C16.215 4.12246 16.1561 3.9222 16.1148 3.78204C16.0942 3.71196 16.078 3.6569 16.067 3.61937C16.0614 3.6006 16.0572 3.58621 16.0544 3.57652C16.0529 3.57167 16.0518 3.56799 16.0511 3.56553C16.0508 3.5643 16.0505 3.56337 16.0503 3.56275C16.0502 3.56244 16.0501 3.56221 16.0501 3.56205C16.0501 3.56197 16.0501 3.56192 16.05 3.56188C16.05 3.56184 16.05 3.56182 15.8582 3.61829ZM17.3741 8.57131H14.2312V8.97131H17.3741V8.57131ZM14.4303 8.75172L13.9229 3.59869L13.5248 3.63789L14.0322 8.79091L14.4303 8.75172ZM13.7238 3.81829H15.8582V3.41829H13.7238V3.81829ZM10.9303 3.81829H13.0754V3.41829H10.9303V3.81829ZM12.8763 3.63782L13.3819 8.79084L13.78 8.75179L13.2744 3.59876L12.8763 3.63782ZM13.581 8.57131H10.4253V8.97131H13.581V8.57131ZM10.6243 8.79082L11.1293 3.6378L10.7313 3.59878L10.2262 8.75181L10.6243 8.79082ZM10.3907 9.58958H13.6149V9.18958H10.3907V9.58958ZM13.4149 9.38958V10.2276H13.8149V9.38958H13.4149ZM13.4149 10.2276C13.4149 10.9612 12.7893 11.5727 12.003 11.5727V11.9727C12.994 11.9727 13.8149 11.198 13.8149 10.2276H13.4149ZM12.003 11.5727C11.2164 11.5727 10.5908 10.9612 10.5908 10.2276H10.1908C10.1908 11.198 11.0117 11.9727 12.003 11.9727V11.5727ZM10.5908 10.2276V9.38958H10.1908V10.2276H10.5908ZM8.1417 3.81829H10.2821V3.41829H8.1417V3.81829ZM10.083 3.59869L9.57572 8.75172L9.97379 8.79091L10.4811 3.63789L10.083 3.59869ZM9.77475 8.57131H6.63202V8.97131H9.77475V8.57131ZM6.82533 8.82258C6.8319 8.79781 6.83637 8.77313 6.83903 8.75923C6.84222 8.74251 6.84393 8.73484 6.84563 8.72914L6.46227 8.61498C6.4542 8.64207 6.44929 8.66763 6.44614 8.68414C6.44244 8.70347 6.44082 8.71203 6.4387 8.72005L6.82533 8.82258ZM6.84581 8.72854L8.33356 3.67477L7.94984 3.56181L6.46209 8.61558L6.84581 8.72854ZM9.54559 9.3896V10.2277H9.94559V9.3896H9.54559ZM9.54559 10.2277C9.54559 10.6266 9.36035 11.0046 9.03133 11.2643L9.27916 11.5783C9.70053 11.2457 9.94559 10.7537 9.94559 10.2277H9.54559ZM9.03139 11.2643C8.70312 11.5232 8.26909 11.627 7.83966 11.5474L7.76674 11.9407C8.30442 12.0404 8.85641 11.9118 9.2791 11.5784L9.03139 11.2643ZM7.84065 11.5476C7.19658 11.4248 6.7211 10.8417 6.7211 10.1525H6.3211C6.3211 11.0246 6.92423 11.7801 7.76575 11.9405L7.84065 11.5476ZM6.7211 10.1525V10.1467H6.3211V10.1525H6.7211ZM6.7211 10.1467V9.59036H6.3211V10.1467H6.7211ZM6.7211 9.59036C6.7211 9.56669 6.72293 9.54074 6.72586 9.50843C6.72854 9.47883 6.73266 9.4393 6.73493 9.40164L6.33566 9.37753C6.33387 9.40716 6.33089 9.43489 6.32749 9.47229C6.32434 9.507 6.3211 9.54779 6.3211 9.59036H6.7211ZM6.53529 9.58958C6.55258 9.58958 7.35516 9.58959 8.15341 9.58959C8.55254 9.58959 8.95058 9.5896 9.24884 9.5896C9.39798 9.5896 9.52216 9.5896 9.60907 9.5896C9.65252 9.5896 9.68665 9.5896 9.70992 9.5896C9.72155 9.5896 9.73047 9.5896 9.73648 9.5896C9.73948 9.5896 9.74176 9.5896 9.74329 9.5896C9.74406 9.5896 9.74462 9.5896 9.74501 9.5896C9.74521 9.5896 9.74535 9.5896 9.74544 9.5896C9.74549 9.5896 9.74553 9.5896 9.74555 9.5896C9.74558 9.5896 9.74559 9.5896 9.74559 9.3896C9.74559 9.1896 9.74558 9.1896 9.74556 9.1896C9.74553 9.1896 9.7455 9.1896 9.74545 9.1896C9.74535 9.1896 9.74521 9.1896 9.74501 9.1896C9.74462 9.1896 9.74406 9.1896 9.74329 9.1896C9.74176 9.1896 9.73949 9.1896 9.73648 9.1896C9.73047 9.1896 9.72155 9.1896 9.70992 9.1896C9.68665 9.1896 9.65252 9.1896 9.60907 9.1896C9.52216 9.1896 9.39798 9.1896 9.24885 9.1896C8.95058 9.1896 8.55254 9.18959 8.15341 9.18959C7.35516 9.18959 6.55259 9.18958 6.53529 9.18958V9.58958ZM3.01734 8.84883L5.27254 4.27152L4.91372 4.09474L2.65853 8.67205L3.01734 8.84883ZM5.2724 4.2718C5.40749 3.99869 5.69934 3.81829 6.01707 3.81829V3.41829C5.55167 3.41829 5.11835 3.68104 4.91386 4.09446L5.2724 4.2718ZM6.01707 3.81829H7.47109V3.41829H6.01707V3.81829ZM7.27923 3.56181L5.76236 8.71483L6.14608 8.82779L7.66295 3.67476L7.27923 3.56181ZM5.95422 8.57131H2.83258V8.97131H5.95422V8.57131ZM3.00952 8.86454C3.01255 8.85878 3.015 8.85361 3.01573 8.85209C3.01694 8.84956 3.01631 8.85093 3.01541 8.85265L2.66046 8.66822C2.65768 8.67359 2.65532 8.67858 2.6548 8.67968C2.65379 8.68178 2.65451 8.68022 2.65564 8.67808L3.00952 8.86454ZM3.35779 11.2638C3.03036 11.0065 2.84514 10.6288 2.84514 10.2276H2.44514C2.44514 10.7552 2.68961 11.2475 3.11066 11.5783L3.35779 11.2638ZM2.84514 10.2276V9.58462H2.44514V10.2276H2.84514ZM2.84514 9.58462C2.84514 9.52394 2.848 9.46628 2.85383 9.41029L2.45598 9.36888C2.44861 9.43971 2.44514 9.51125 2.44514 9.58462H2.84514ZM2.65491 9.38958C2.65491 9.58958 2.65492 9.58958 2.65494 9.58958C2.65496 9.58958 2.655 9.58958 2.65505 9.58958C2.65515 9.58958 2.65528 9.58958 2.65548 9.58958C2.65586 9.58958 2.65642 9.58958 2.65718 9.58958C2.65868 9.58958 2.66093 9.58958 2.6639 9.58958C2.66984 9.58958 2.67864 9.58958 2.69014 9.58958C2.71312 9.58958 2.74684 9.58958 2.78979 9.58958C2.87569 9.58958 2.99849 9.58958 3.14612 9.58959C3.44139 9.58959 3.83598 9.58959 4.23324 9.58959C5.02777 9.5896 5.83303 9.5896 5.87594 9.5896V9.1896C5.83304 9.1896 5.02778 9.1896 4.23324 9.18959C3.83598 9.18959 3.44139 9.18959 3.14613 9.18959C2.99849 9.18959 2.87569 9.18958 2.78979 9.18958C2.74684 9.18958 2.71312 9.18958 2.69014 9.18958C2.67865 9.18958 2.66984 9.18958 2.6639 9.18958C2.66094 9.18958 2.65869 9.18958 2.65718 9.18958C2.65642 9.18958 2.65586 9.18958 2.65548 9.18958C2.65529 9.18958 2.65514 9.18958 2.65505 9.18958C2.655 9.18958 2.65497 9.18958 2.65494 9.18958C2.65492 9.18958 2.65491 9.18958 2.65491 9.38958ZM5.67594 9.3896V10.1467H6.07594V9.3896H5.67594ZM5.67594 10.1467C5.67594 10.8359 5.20051 11.4191 4.55579 11.5419L4.63063 11.9348C5.47277 11.7744 6.07594 11.0189 6.07594 10.1467H5.67594ZM4.55561 11.5419C4.12253 11.6248 3.686 11.5214 3.3577 11.2637L3.11075 11.5784C3.5341 11.9106 4.08924 12.0384 4.63081 11.9348L4.55561 11.5419ZM6.76457 20.3828V14.526H6.36457V20.3828H6.76457ZM6.76457 14.526C6.76457 14.4926 6.79606 14.4507 6.85155 14.4507V14.0507C6.59077 14.0507 6.36457 14.2564 6.36457 14.526H6.76457ZM6.85155 14.4507H9.73929V14.0507H6.85155V14.4507ZM9.73929 14.4507C9.79449 14.4507 9.82595 14.4923 9.82595 14.526H10.226C10.226 14.2567 10.0004 14.0507 9.73929 14.0507V14.4507ZM9.82595 14.526V20.3828H10.226V14.526H9.82595ZM10.026 20.1828H6.56457V20.5828H10.026V20.1828ZM19.7812 19.4696C19.7812 19.8544 19.4508 20.1831 19.0281 20.1831V20.5831C19.6555 20.5831 20.1812 20.0912 20.1812 19.4696H19.7812ZM19.0281 20.1831H10.6711V20.5831H19.0281V20.1831ZM10.8711 20.3831V14.526H10.4711V20.3831H10.8711ZM10.8711 14.526C10.8711 13.9151 10.3556 13.4324 9.7393 13.4324V13.8324C10.1506 13.8324 10.4711 14.1516 10.4711 14.526H10.8711ZM9.7393 13.4324H6.85155V13.8324H9.7393V13.4324ZM6.85155 13.4324C6.235 13.4324 5.71941 13.915 5.71941 14.526H6.11941C6.11941 14.1516 6.43989 13.8324 6.85155 13.8324V13.4324ZM5.71941 14.526V20.3831H6.11941V14.526H5.71941ZM5.91941 20.1831H4.97501V20.5831H5.91941V20.1831ZM4.97501 20.1831C4.55236 20.1831 4.22187 19.8544 4.22187 19.4696H3.82187C3.82187 20.0912 4.34766 20.5831 4.97501 20.5831V20.1831ZM4.22187 19.4696V12.369H3.82187V19.4696H4.22187ZM4.0019 12.568C4.0696 12.5747 4.16656 12.5883 4.26023 12.5883V12.1883C4.19318 12.1883 4.13267 12.1791 4.04183 12.17L4.0019 12.568ZM4.26023 12.5883C4.42481 12.5883 4.59156 12.573 4.75746 12.5409L4.68158 12.1482C4.5413 12.1753 4.39998 12.1883 4.26023 12.1883V12.5883ZM4.75691 12.541C5.44881 12.4093 6.02279 11.985 6.36801 11.4125L6.02547 11.206C5.73601 11.686 5.25685 12.0387 4.68213 12.1481L4.75691 12.541ZM6.02517 11.412C6.37006 11.9878 6.94596 12.4147 7.64074 12.547L7.71558 12.1541C7.13827 12.0441 6.65747 11.6892 6.36831 11.2065L6.02517 11.412ZM7.64112 12.5471C7.80253 12.5775 7.96459 12.5922 8.12517 12.5922V12.1922C7.989 12.1922 7.85176 12.1798 7.7152 12.154L7.64112 12.5471ZM8.12517 12.5922C8.69191 12.5922 9.24367 12.4068 9.68894 12.0557L9.44126 11.7416C9.06874 12.0353 8.60487 12.1922 8.12517 12.1922V12.5922ZM9.68895 12.0557C9.91076 11.8807 10.0948 11.6731 10.2385 11.4438L9.89957 11.2314C9.77991 11.4224 9.62651 11.5955 9.44125 11.7416L9.68895 12.0557ZM9.89963 11.4439C10.3309 12.1312 11.1123 12.591 12.003 12.591V12.191C11.2518 12.191 10.5975 11.8035 10.2385 11.2313L9.89963 11.4439ZM12.003 12.591C12.8928 12.591 13.6735 12.1321 14.1049 11.4459L13.7663 11.233C13.4071 11.8043 12.7535 12.191 12.003 12.191V12.591ZM13.7661 11.4456C13.8786 11.6252 14.0155 11.7937 14.1802 11.9438L14.4496 11.6482C14.3137 11.5243 14.1997 11.3844 14.1051 11.2332L13.7661 11.4456ZM14.1799 11.9436C14.6419 12.366 15.2411 12.5934 15.8767 12.5934V12.1934C15.338 12.1934 14.8359 12.0013 14.4498 11.6484L14.1799 11.9436ZM15.8767 12.5934C15.9183 12.5934 15.9599 12.5925 16.0014 12.5905L15.9826 12.191C15.9474 12.1926 15.9121 12.1934 15.8767 12.1934V12.5934ZM16.0019 12.5905C16.8363 12.5491 17.5527 12.0905 17.9623 11.4236L17.6215 11.2142C17.2775 11.7743 16.6782 12.1564 15.9821 12.191L16.0019 12.5905ZM17.6212 11.4231C17.7364 11.6118 17.8786 11.7877 18.0498 11.9438L18.3193 11.6482C18.1774 11.5188 18.059 11.3726 17.9626 11.2147L17.6212 11.4231ZM18.0496 11.9436C18.5116 12.366 19.1108 12.5934 19.7464 12.5934V12.1934C19.2076 12.1934 18.7055 12.0013 18.3195 11.6484L18.0496 11.9436ZM19.7464 12.5934C19.7879 12.5934 19.8295 12.5925 19.8711 12.5905L19.8523 12.191C19.817 12.1926 19.7817 12.1934 19.7464 12.1934V12.5934ZM19.8716 12.5905C19.9188 12.5881 19.9734 12.5807 20.0018 12.5778L19.9607 12.1799C19.9095 12.1852 19.8854 12.1893 19.8517 12.191L19.8716 12.5905ZM19.7812 12.3788L19.7812 19.4696H20.1812L20.1812 12.3788H19.7812ZM21.1548 10.1235C21.1548 10.8901 20.5484 11.5372 19.8197 11.5733L19.8395 11.9728C20.7916 11.9256 21.5548 11.0928 21.5548 10.1235H21.1548ZM19.8177 11.5734C19.4242 11.5967 19.048 11.4598 18.7642 11.2006L18.4944 11.496C18.8571 11.8272 19.3389 12.0025 19.8414 11.9727L19.8177 11.5734ZM18.7642 11.2006C18.4828 10.9436 18.3297 10.5989 18.3297 10.2277H17.9297C17.9297 10.7137 18.1319 11.1648 18.4945 11.496L18.7642 11.2006ZM18.3297 10.2277V9.38958H17.9297V10.2277H18.3297ZM18.1297 9.58958H21.3448V9.18958H18.1297V9.58958ZM21.1461 9.41271C21.152 9.46313 21.1548 9.51804 21.1548 9.57857H21.5548C21.5548 9.50566 21.5514 9.435 21.5434 9.36645L21.1461 9.41271ZM21.1548 9.57857L21.1548 10.1235L21.5548 10.1235L21.5548 9.57857L21.1548 9.57857Z" fill="#549A9F" mask="url(#path-1-outside-1_5010_2270)"/>
</svg>
