<svg width="26" height="17" viewBox="0 0 26 17" fill="none" xmlns="http://www.w3.org/2000/svg">
<path d="M6.77287 14.9686H22.5217C22.7248 14.9686 22.8895 14.8041 22.8895 14.6008C22.8895 14.3975 22.7249 14.233 22.5218 14.233H6.77287C6.56976 14.233 6.40513 14.3976 6.40513 14.6008C6.40513 14.8041 6.56977 14.9686 6.77287 14.9686Z" fill="#011E29" stroke="#011E29" stroke-width="0.2"/>
<path d="M7.56265 4.78312H1.2678C1.06472 4.78312 0.9 4.61863 0.9 4.41533C0.9 2.47697 2.47686 0.9 4.41517 0.9C4.61825 0.9 4.78297 1.06449 4.78297 1.2678C4.78297 1.4711 4.61825 1.6356 4.41517 1.6356C3.00729 1.6356 1.84026 2.68804 1.6597 4.04758H7.5626C7.76566 4.04758 7.93037 4.21205 7.93039 4.41534L7.56265 4.78312ZM7.56265 4.78312C7.76569 4.78312 7.93044 4.61866 7.93039 4.41538L7.56265 4.78312Z" fill="#011E29" stroke="#011E29" stroke-width="0.2"/>
<path d="M21.3642 12.8352V14.2329H7.93043V12.8352C7.93043 12.6319 7.7657 12.4674 7.56263 12.4674H4.56241C4.35934 12.4674 4.19462 12.6319 4.19462 12.8352V16.3658C4.19462 16.5691 4.35934 16.7336 4.56241 16.7336H24.7321C24.9352 16.7336 25.0999 16.5691 25.1 16.3658V16.3658V12.8352C25.1 12.6319 24.9353 12.4674 24.7322 12.4674H21.732C21.5289 12.4674 21.3642 12.6319 21.3642 12.8352ZM24.3643 13.203V15.9981H4.93021L4.93026 13.203H7.19483V14.6007C7.19483 14.804 7.35955 14.9685 7.56263 14.9685H21.7319C21.935 14.9685 22.0997 14.804 22.0997 14.6007V13.203H24.3643Z" fill="#011E29" stroke="#011E29" stroke-width="0.2"/>
<path d="M22.0998 14.6009V14.6009V4.41533C22.0998 2.47697 20.5229 0.9 18.5845 0.9H4.4152C4.21211 0.9 4.0474 1.06456 4.0474 1.2678C4.0474 1.4711 4.21212 1.6356 4.4152 1.6356C5.94784 1.6356 7.19482 2.88267 7.19482 4.41538V14.601C7.19482 14.8043 7.35955 14.9688 7.56262 14.9688H21.7319C21.935 14.9688 22.0997 14.8043 22.0998 14.6009ZM21.3642 4.41533V14.2332H7.93037V4.41533C7.93037 3.28553 7.39486 2.27892 6.56474 1.63554H18.5845C20.1172 1.63554 21.3642 2.88262 21.3642 4.41533Z" fill="#011E29" stroke="#011E29" stroke-width="0.2"/>
<path d="M12.5062 7.46991H12.6062L12.6062 7.36991L12.6063 6.7588L12.6063 6.65879H12.5063H9.21191H9.11191V6.75879V7.36991V7.46991H9.21191H10.3242V11.2148V11.3148H10.4242H11.2855H11.3855V11.2148V7.46991H12.5062Z" fill="#011E29" stroke="#011E29" stroke-width="0.2"/>
<path d="M13.276 11.3148H13.3505L13.3718 11.2434L13.6181 10.4173H15.0165L15.2707 11.2442L15.2924 11.3148H15.3662H16.2442H16.3825L16.3391 11.1835L14.8675 6.72743L14.8448 6.65879H14.7725H13.8612H13.7889L13.7662 6.72743L12.2947 11.1835L12.2513 11.3148H12.3896H13.276ZM14.4507 8.54962L14.4507 8.54963L14.4513 8.55154L14.7794 9.61896H13.862L14.1826 8.55152C14.2321 8.39372 14.279 8.19919 14.3184 8.01597C14.359 8.19907 14.406 8.3929 14.4507 8.54962Z" fill="#011E29" stroke="#011E29" stroke-width="0.2"/>
<path d="M19.0588 11.2635L19.0874 11.3148H19.1462H20.0826H20.2599L20.1682 11.1631L18.8033 8.90439L20.0842 6.81098L20.1773 6.65879H19.9989H19.0709H19.0122L18.9836 6.70994L18.2259 8.06359L17.4606 6.70958L17.4319 6.65879H17.3735H16.4453H16.2669L16.36 6.81099L17.641 8.9044L16.2761 11.1631L16.1844 11.3148H16.3617H17.2983H17.3567L17.3854 11.2639L18.2259 9.77066L19.0588 11.2635Z" fill="#011E29" stroke="#011E29" stroke-width="0.2"/>
<path d="M9.75779 4.69028H19.5369C19.7399 4.69028 19.9047 4.52579 19.9047 4.32248C19.9047 4.11918 19.7399 3.95469 19.5369 3.95469H9.75779C9.55471 3.95469 9.38999 4.11918 9.38999 4.32248C9.38999 4.52579 9.55471 4.69028 9.75779 4.69028Z" fill="#011E29" stroke="#011E29" stroke-width="0.2"/>
<path d="M9.78092 13.1454H19.5136C19.7167 13.1454 19.8814 12.9809 19.8814 12.7776C19.8814 12.5743 19.7167 12.4098 19.5136 12.4098H9.78092C9.57783 12.4098 9.41312 12.5743 9.41312 12.7776C9.41312 12.9809 9.57785 13.1454 9.78092 13.1454Z" fill="#011E29" stroke="#011E29" stroke-width="0.2"/>
</svg>
