<svg width="22" height="22" viewBox="0 0 22 22" fill="none" xmlns="http://www.w3.org/2000/svg">
<path d="M18.3333 7.56217V16.4997C18.3333 19.2497 16.6925 20.1663 14.6667 20.1663H7.33334C5.3075 20.1663 3.66667 19.2497 3.66667 16.4997V7.56217C3.66667 4.58301 5.3075 3.89551 7.33334 3.89551C7.33334 4.46384 7.56248 4.97717 7.93831 5.353C8.31415 5.72884 8.8275 5.95801 9.39584 5.95801H12.6042C13.7408 5.95801 14.6667 5.03217 14.6667 3.89551C16.6925 3.89551 18.3333 4.58301 18.3333 7.56217Z" stroke="#356475" stroke-width="1.5" stroke-linecap="round" stroke-linejoin="round"/>
<path d="M14.6667 3.89551C14.6667 5.03217 13.7408 5.95801 12.6042 5.95801H9.39583C8.82749 5.95801 8.31414 5.72884 7.9383 5.353C7.56247 4.97717 7.33333 4.46384 7.33333 3.89551C7.33333 2.75884 8.25916 1.83301 9.39583 1.83301H12.6042C13.1725 1.83301 13.6859 2.06218 14.0617 2.43801C14.4375 2.81384 14.6667 3.32717 14.6667 3.89551Z" stroke="#356475" stroke-width="1.5" stroke-linecap="round" stroke-linejoin="round"/>
<path d="M7.33333 11.917H11" stroke="#356475" stroke-width="1.5" stroke-linecap="round" stroke-linejoin="round"/>
<path d="M7.33333 15.583H14.6667" stroke="#356475" stroke-width="1.5" stroke-linecap="round" stroke-linejoin="round"/>
</svg>
