<svg width="20" height="20" viewBox="0 0 20 20" fill="none" xmlns="http://www.w3.org/2000/svg">
<path d="M7.06506 19.5999C3.17241 19.5999 -6.10352e-05 16.4275 -6.10352e-05 12.5348C-6.10352e-05 12.161 0.309893 11.8511 0.683661 11.8511C1.05743 11.8511 1.36738 12.161 1.36738 12.5348C1.36738 15.2332 3.24534 17.4941 5.77055 18.0866L5.52441 17.6764C5.33297 17.3482 5.43325 16.9288 5.76143 16.7374C6.0805 16.546 6.50897 16.6462 6.70041 16.9744L7.65762 18.5698C7.78525 18.7795 7.78525 19.0438 7.66674 19.2535C7.53911 19.4632 7.3112 19.5999 7.06506 19.5999Z" fill="#1B3843"/>
<path d="M18.9163 7.74885C18.5425 7.74885 18.2326 7.43889 18.2326 7.06513C18.2326 4.3667 16.3546 2.10586 13.8294 1.5133L14.0756 1.92354C14.267 2.25172 14.1667 2.67107 13.8385 2.86252C13.5195 3.05396 13.091 2.95368 12.8996 2.62549L11.9424 1.03014C11.8147 0.820466 11.8147 0.556094 11.9332 0.346419C12.0609 0.136744 12.2888 0 12.5349 0C16.4276 0 19.6 3.17247 19.6 7.06513C19.6 7.43889 19.2901 7.74885 18.9163 7.74885Z" fill="#1B3843"/>
<path d="M14.2849 9.66333C11.7324 9.66333 9.65387 11.7327 9.65387 14.2944C9.65387 16.847 11.7233 18.9255 14.2849 18.9255C16.8375 18.9255 18.916 16.8561 18.916 14.2944C18.916 11.7327 16.8466 9.66333 14.2849 9.66333ZM16.5458 16.4914C16.2085 16.6555 15.7982 16.5279 15.625 16.1815L15.4701 15.8715H13.1089L12.954 16.1815C12.8355 16.4185 12.5893 16.5552 12.3432 16.5552C12.2429 16.5552 12.1335 16.5279 12.0423 16.4823C11.705 16.3091 11.5683 15.8989 11.7324 15.5616L13.6833 11.6689C13.8018 11.441 14.0388 11.2951 14.2941 11.2951C14.5493 11.2951 14.7863 11.441 14.9049 11.678L16.8557 15.5707C17.0198 15.908 16.8831 16.3182 16.5458 16.4914Z" fill="#1B3843"/>
<path d="M13.7928 14.5039H14.7865L14.2851 13.5103L13.7928 14.5039Z" fill="#1B3843"/>
<path fill-rule="evenodd" clip-rule="evenodd" d="M3.43653 0.683594H7.001C8.88807 0.683594 9.7997 1.59522 9.75412 3.43671V7.00118C9.7997 8.88826 8.88807 9.79988 7.01012 9.7543H3.43653C1.59504 9.79988 0.683411 8.88825 0.683411 7.0103V3.43671C0.683411 1.59522 1.59504 0.683594 3.43653 0.683594ZM5.06233 7.18927C5.76671 7.24144 6.43847 7.13057 7.04176 6.73273C7.13633 6.66751 7.22764 6.59902 7.30916 6.49793C7.27329 6.49467 7.25373 6.49467 7.23416 6.49467C7.2097 6.4963 7.18524 6.49875 7.16078 6.5012C7.13632 6.50364 7.11187 6.50609 7.08741 6.50772C6.59174 6.54685 6.09607 6.55337 5.60692 6.44576C5.29386 6.37728 4.99711 6.26966 4.77211 6.02509C4.39709 5.61746 4.51123 4.962 5.00364 4.7696C5.39496 4.61634 5.78954 4.61634 6.16781 4.82504C6.1741 4.82819 6.18039 4.83243 6.18664 4.83663C6.21276 4.85423 6.23806 4.87127 6.25912 4.80548C6.33942 4.54386 6.42383 4.2843 6.51236 4.01209C6.53528 3.9416 6.55848 3.87027 6.58196 3.79783C6.3113 3.88261 6.05694 3.93805 5.79932 3.9674C5.56453 3.99349 5.32974 4.00001 5.10799 3.88587C4.90907 3.78152 4.80798 3.60869 4.82754 3.39998C4.85037 3.18476 5.0069 3.09997 5.18625 3.0478C5.42757 2.97606 5.6754 3.00214 5.92324 3.03801C6.02759 3.05432 6.1352 3.07062 6.24282 3.08693C6.24391 3.04985 6.24427 3.01241 6.24463 2.97473C6.24535 2.89972 6.24609 2.82375 6.2526 2.74779C6.25912 2.67278 6.22651 2.64996 6.16455 2.63039C5.74714 2.49995 5.31995 2.46408 4.8895 2.56517C4.42644 2.67604 4.09708 2.94345 3.98294 3.41955C3.87533 3.86957 3.99925 4.25437 4.371 4.55764C4.1786 4.66199 4.00251 4.78265 3.84924 4.93591C3.15465 5.62399 3.3177 6.55989 4.20469 6.96752C4.47862 7.09143 4.76558 7.16644 5.06233 7.18927Z" fill="#1B3843"/>
</svg>
