<svg width="12" height="14" viewBox="0 0 12 14" fill="none" xmlns="http://www.w3.org/2000/svg">
<path d="M2.06941 14C1.70298 14 1.38931 13.8532 1.1284 13.5597C0.867489 13.2662 0.737034 12.9133 0.737034 12.5011V1.97714H0.552775C0.396156 1.97714 0.264902 1.91751 0.159015 1.79825C0.0530051 1.67899 0 1.53126 0 1.35506C0 1.17872 0.0530051 1.03106 0.159015 0.912079C0.264902 0.792956 0.396156 0.733395 0.552775 0.733395H3.31665C3.31665 0.530388 3.38022 0.35737 3.50736 0.214339C3.63437 0.0714467 3.78811 0 3.96856 0H7.08695C7.2674 0 7.42113 0.0714467 7.54815 0.214339C7.67529 0.35737 7.73885 0.530388 7.73885 0.733395H10.5027C10.6593 0.733395 10.7906 0.793025 10.8965 0.912287C11.0025 1.03155 11.0555 1.17928 11.0555 1.35547C11.0555 1.53181 11.0025 1.67947 10.8965 1.79845C10.7906 1.91758 10.6593 1.97714 10.5027 1.97714H10.3185V12.5011C10.3185 12.9133 10.188 13.2662 9.92711 13.5597C9.6662 13.8532 9.35253 14 8.9861 14H2.06941ZM9.21292 1.97714H1.84258V12.5011C1.84258 12.5756 1.86384 12.6367 1.90634 12.6845C1.94884 12.7323 2.0032 12.7563 2.06941 12.7563H8.9861C9.05231 12.7563 9.10667 12.7323 9.14917 12.6845C9.19167 12.6367 9.21292 12.5756 9.21292 12.5011V1.97714ZM4.16737 11.0979C4.32399 11.0979 4.45525 11.0384 4.56113 10.9192C4.6669 10.8 4.71978 10.6523 4.71978 10.4761V4.25734C4.71978 4.08114 4.66677 3.93341 4.56076 3.81415C4.45488 3.69503 4.32356 3.63546 4.16682 3.63546C4.0102 3.63546 3.87895 3.69503 3.77306 3.81415C3.6673 3.93341 3.61441 4.08114 3.61441 4.25734V10.4761C3.61441 10.6523 3.66736 10.8 3.77324 10.9192C3.87925 11.0384 4.01063 11.0979 4.16737 11.0979ZM6.88868 11.0979C7.0453 11.0979 7.17656 11.0384 7.28245 10.9192C7.38821 10.8 7.44109 10.6523 7.44109 10.4761V4.25734C7.44109 4.08114 7.38815 3.93341 7.28226 3.81415C7.17625 3.69503 7.04488 3.63546 6.88813 3.63546C6.73151 3.63546 6.60026 3.69503 6.49437 3.81415C6.38861 3.93341 6.33573 4.08114 6.33573 4.25734V10.4761C6.33573 10.6523 6.38873 10.8 6.49474 10.9192C6.60063 11.0384 6.73194 11.0979 6.88868 11.0979Z" fill="#E52551"/>
<path d="M2.06941 14C1.70298 14 1.38931 13.8532 1.1284 13.5597C0.867489 13.2662 0.737034 12.9133 0.737034 12.5011V1.97714H0.552775C0.396156 1.97714 0.264902 1.91751 0.159015 1.79825C0.0530051 1.67899 0 1.53126 0 1.35506C0 1.17872 0.0530051 1.03106 0.159015 0.912079C0.264902 0.792956 0.396156 0.733395 0.552775 0.733395H3.31665C3.31665 0.530388 3.38022 0.35737 3.50736 0.214339C3.63437 0.0714467 3.78811 0 3.96856 0H7.08695C7.2674 0 7.42113 0.0714467 7.54815 0.214339C7.67529 0.35737 7.73885 0.530388 7.73885 0.733395H10.5027C10.6593 0.733395 10.7906 0.793025 10.8965 0.912287C11.0025 1.03155 11.0555 1.17928 11.0555 1.35547C11.0555 1.53181 11.0025 1.67947 10.8965 1.79845C10.7906 1.91758 10.6593 1.97714 10.5027 1.97714H10.3185V12.5011C10.3185 12.9133 10.188 13.2662 9.92711 13.5597C9.6662 13.8532 9.35253 14 8.9861 14H2.06941ZM9.21292 1.97714H1.84258V12.5011C1.84258 12.5756 1.86384 12.6367 1.90634 12.6845C1.94884 12.7323 2.0032 12.7563 2.06941 12.7563H8.9861C9.05231 12.7563 9.10667 12.7323 9.14917 12.6845C9.19167 12.6367 9.21292 12.5756 9.21292 12.5011V1.97714ZM4.16737 11.0979C4.32399 11.0979 4.45525 11.0384 4.56113 10.9192C4.6669 10.8 4.71978 10.6523 4.71978 10.4761V4.25734C4.71978 4.08114 4.66677 3.93341 4.56076 3.81415C4.45488 3.69503 4.32356 3.63546 4.16682 3.63546C4.0102 3.63546 3.87895 3.69503 3.77306 3.81415C3.6673 3.93341 3.61441 4.08114 3.61441 4.25734V10.4761C3.61441 10.6523 3.66736 10.8 3.77324 10.9192C3.87925 11.0384 4.01063 11.0979 4.16737 11.0979ZM6.88868 11.0979C7.0453 11.0979 7.17656 11.0384 7.28245 10.9192C7.38821 10.8 7.44109 10.6523 7.44109 10.4761V4.25734C7.44109 4.08114 7.38815 3.93341 7.28226 3.81415C7.17625 3.69503 7.04488 3.63546 6.88813 3.63546C6.73151 3.63546 6.60026 3.69503 6.49437 3.81415C6.38861 3.93341 6.33573 4.08114 6.33573 4.25734V10.4761C6.33573 10.6523 6.38873 10.8 6.49474 10.9192C6.60063 11.0384 6.73194 11.0979 6.88868 11.0979Z" fill="#1B3843"/>
</svg>
