<svg width="34" height="30" viewBox="0 0 34 30" fill="none" xmlns="http://www.w3.org/2000/svg">
<path fill-rule="evenodd" clip-rule="evenodd" d="M21.1954 0H4.31985C2.26723 0 0.59729 1.66991 0.59729 3.72255V17.7441H3.079L3.079 3.72255C3.079 3.03826 3.63556 2.4817 4.31985 2.4817L21.1954 2.4817V0ZM28.654 9.52545V21.0653C28.654 23.118 26.9841 24.7879 24.9314 24.7879H10.5376C8.48501 24.7879 6.81509 23.118 6.81509 21.0653V9.52545C6.81509 7.47282 8.48501 5.8029 10.5376 5.8029H24.9314C26.9841 5.8029 28.654 7.47282 28.654 9.52545ZM24.9314 8.2846H10.5376C9.85334 8.2846 9.29678 8.84116 9.29678 9.52545V13.9218L11.9366 10.3239L15.1071 14.2331L17.523 10.9406L22.7873 17.4669H26.1723V9.52545C26.1723 8.84116 25.6157 8.2846 24.9314 8.2846ZM9.29678 18.0788V21.0653C9.29678 21.7496 9.85334 22.3062 10.5376 22.3062H24.9314C25.6157 22.3062 26.1723 21.7496 26.1723 21.0653V19.9486H21.6006L17.616 15.009L13.8862 20.0928L11.8853 18.6249L13.5897 16.3018L12.0349 14.3849L9.31499 18.0922L9.29678 18.0788ZM13.0193 29.9994H29.8948C31.9475 29.9994 33.6174 28.3295 33.6174 26.2769V12.2553H31.1357V26.2769C31.1357 26.9612 30.5791 27.5177 29.8948 27.5177H13.0193V29.9994ZM22.8842 10.4562C22.1987 10.4562 21.6433 11.0115 21.6433 11.6971C21.6433 12.3823 22.1987 12.9379 22.8842 12.9379C23.5694 12.9379 24.125 12.3823 24.125 11.6971C24.125 11.0115 23.5694 10.4562 22.8842 10.4562Z" fill="#549A9F"/>
</svg>
