<svg width="22" height="22" viewBox="0 0 22 22" fill="none" xmlns="http://www.w3.org/2000/svg">
<path d="M11.9167 10.2207H6.41675" stroke="#356475" stroke-width="1.5" stroke-linecap="round" stroke-linejoin="round"/>
<path d="M1.83325 10.221V5.98602C1.83325 4.11602 3.34575 2.60352 5.21575 2.60352H10.3674C12.2374 2.60352 13.7499 3.76768 13.7499 5.63768" stroke="#356475" stroke-width="1.5" stroke-linecap="round" stroke-linejoin="round"/>
<path d="M16.0232 11.1835C15.5649 11.6235 15.3449 12.3018 15.5283 12.9985C15.7574 13.851 16.6008 14.3919 17.4808 14.3919H18.3333V15.721C18.3333 17.7469 16.6924 19.3877 14.6666 19.3877H5.49992C3.47409 19.3877 1.83325 17.7469 1.83325 15.721V9.30436C1.83325 7.27853 3.47409 5.6377 5.49992 5.6377H14.6666C16.6833 5.6377 18.3333 7.2877 18.3333 9.30436V10.6335H17.3432C16.8299 10.6335 16.3624 10.8352 16.0232 11.1835Z" stroke="#356475" stroke-width="1.5" stroke-linecap="round" stroke-linejoin="round"/>
<path d="M20.1668 11.5678V13.4562C20.1668 13.9695 19.7451 14.3912 19.2226 14.3912H17.4534C16.4634 14.3912 15.556 13.667 15.4735 12.677C15.4185 12.0995 15.6384 11.5587 16.0234 11.1828C16.3626 10.8345 16.8301 10.6328 17.3434 10.6328H19.2226C19.7451 10.6328 20.1668 11.0545 20.1668 11.5678Z" stroke="#356475" stroke-width="1.5" stroke-linecap="round" stroke-linejoin="round"/>
</svg>
