<svg width="24" height="23" viewBox="0 0 24 23" fill="none" xmlns="http://www.w3.org/2000/svg">
<path d="M21.3036 0H2.69594C1.20945 0 0 1.20945 0 2.69594V19.9563C0 21.4428 1.20945 22.6527 2.69594 22.6527H21.3036C22.7901 22.6527 24 21.4433 24 19.9563V2.69594C23.9995 1.20945 22.7901 0 21.3036 0ZM2.69594 0.749575H21.3036C22.3771 0.749575 23.2504 1.62244 23.2504 2.69594V4.57339H0.749106V2.69594C0.749106 1.62244 1.62244 0.749575 2.69594 0.749575ZM21.3036 21.9027H2.69594C1.62244 21.9027 0.749106 21.0294 0.749106 19.9559V5.32344H23.2504V19.9563C23.2504 21.0294 22.3771 21.9027 21.3036 21.9027ZM3.79616 3.74038C4.39104 3.74038 4.87529 3.25613 4.87529 2.66125C4.87529 2.06637 4.39104 1.58212 3.79616 1.58212C3.20128 1.58212 2.7175 2.06637 2.7175 2.66172C2.7175 3.2566 3.20128 3.74038 3.79616 3.74038ZM3.79616 2.33217C3.97805 2.33217 4.12571 2.47983 4.12571 2.66172C4.12571 2.8436 3.97805 2.99127 3.79616 2.99127C3.61427 2.99127 3.46661 2.8436 3.46661 2.66172C3.46661 2.47983 3.61474 2.33217 3.79616 2.33217ZM6.86431 3.74038C7.46012 3.74038 7.94484 3.25613 7.94484 2.66125C7.94484 2.06637 7.46012 1.58212 6.86431 1.58212C6.26943 1.58212 5.78518 2.06637 5.78518 2.66125C5.78565 3.2566 6.26943 3.74038 6.86431 3.74038ZM6.86431 2.33217C7.04666 2.33217 7.19526 2.47983 7.19526 2.66172C7.19526 2.8436 7.04666 2.99127 6.86431 2.99127C6.68242 2.99127 6.53476 2.8436 6.53476 2.66172C6.53523 2.47983 6.68289 2.33217 6.86431 2.33217ZM9.93433 3.74038C10.5292 3.74038 11.0135 3.25613 11.0135 2.66125C11.0135 2.06637 10.5292 1.58212 9.93433 1.58212C9.33945 1.58212 8.85521 2.06637 8.85521 2.66125C8.85521 3.2566 9.33898 3.74038 9.93433 3.74038ZM9.93433 2.33217C10.1162 2.33217 10.2639 2.47983 10.2639 2.66172C10.2639 2.8436 10.1162 2.99127 9.93433 2.99127C9.75245 2.99127 9.60478 2.8436 9.60478 2.66172C9.60478 2.47983 9.75245 2.33217 9.93433 2.33217ZM12.7231 2.66172C12.7231 2.45452 12.8909 2.28717 13.0976 2.28717H20.907C21.1142 2.28717 21.2816 2.45499 21.2816 2.66172C21.2816 2.86845 21.1137 3.03627 20.907 3.03627H13.0981C12.8909 3.03627 12.7231 2.86845 12.7231 2.66172ZM19.2893 15.5006L17.0869 14.9352C17.1779 14.5016 17.2243 14.0586 17.2243 13.6138C17.2243 10.0857 14.3544 7.21542 10.8274 7.21542C7.29933 7.21542 4.42901 10.0857 4.42901 13.6138C4.42901 17.1408 7.29933 20.0107 10.8274 20.0107C11.9388 20.0107 13.0151 19.7262 13.971 19.1852L14.3047 20.4851C14.3451 20.6417 14.4805 20.7547 14.6418 20.7659C14.6507 20.7664 14.6591 20.7668 14.668 20.7668C14.819 20.7668 14.9563 20.6759 15.0145 20.5343L16.2731 17.4685L19.3389 16.2099C19.4885 16.1484 19.5818 15.9984 19.5705 15.8372C19.5588 15.6764 19.4454 15.5404 19.2893 15.5006ZM14.2757 14.2133C14.2855 14.0104 14.2912 13.8097 14.2912 13.6133C14.2912 12.9223 14.2344 12.2604 14.1294 11.6412H16.1189C16.3486 12.2552 16.4742 12.92 16.4742 13.6133C16.4742 13.9954 16.4358 14.3755 16.3603 14.7482L14.2757 14.2133ZM5.17812 13.6138C5.17812 12.9204 5.30375 12.2562 5.53345 11.6416H7.52435C7.41934 12.2604 7.36262 12.9223 7.36262 13.6138C7.36262 14.3047 7.41934 14.9667 7.52435 15.5859H5.53345C5.30422 14.9713 5.17812 14.3071 5.17812 13.6138ZM8.11219 13.6138C8.11219 12.9242 8.17548 12.259 8.28986 11.6416H10.4523V15.5854H8.28986C8.17548 14.9685 8.11219 14.3033 8.11219 13.6138ZM11.1161 7.99875C11.9984 8.20361 12.7695 9.33102 13.1937 10.8925H11.2019V8.23736C11.2019 8.14641 11.1696 8.06344 11.1161 7.99875ZM10.5381 7.99875C10.4847 8.06344 10.4523 8.14688 10.4523 8.23736V10.8925H8.46049C8.88474 9.33102 9.65588 8.20314 10.5381 7.99875ZM10.4523 16.335V18.9888C10.4523 19.0792 10.4847 19.1627 10.5381 19.2274C9.65588 19.023 8.88474 17.896 8.46049 16.335H10.4523ZM11.1166 19.2264C11.1696 19.1617 11.2019 19.0788 11.2019 18.9888V16.335H13.1951C12.7597 17.9392 11.9721 19.0239 11.1166 19.2264ZM13.1966 13.9363C13.0681 13.9035 12.9322 13.9405 12.8384 14.0343C12.7447 14.128 12.7076 14.264 12.7404 14.3924L13.0465 15.5854H11.2019V11.6416H13.3644C13.4788 12.259 13.542 12.9242 13.542 13.6138C13.542 13.7483 13.5392 13.8852 13.5345 14.023L13.1966 13.9363ZM15.7744 10.892H13.9733C13.7131 9.84526 13.3058 8.95927 12.7972 8.31939C14.0694 8.79473 15.1251 9.71588 15.7744 10.892ZM8.85708 8.31939C8.34799 8.95927 7.94062 9.84526 7.68045 10.892H5.87847C6.52773 9.71588 7.58435 8.79473 8.85708 8.31939ZM5.87894 16.335H7.68092C7.94109 17.3813 8.34846 18.2669 8.85708 18.9063C7.58482 18.4319 6.52819 17.5107 5.87894 16.335ZM12.7962 18.9077C13.0845 18.5448 13.3419 18.099 13.5594 17.5824L13.7769 18.4295C13.4647 18.6217 13.1366 18.7811 12.7962 18.9077ZM15.8433 16.8347C15.7505 16.8727 15.6769 16.9463 15.6389 17.0391L14.7496 19.2049L14.5757 18.5266C14.5729 18.5125 14.5691 18.4984 14.5649 18.4844L13.6241 14.8195L13.7769 14.8588C13.7825 14.8607 13.7886 14.8621 13.7947 14.8635L16.5319 15.5662C16.5343 15.5667 16.5361 15.5676 16.5385 15.5686L16.5511 15.5714L18.0095 15.9459L15.8433 16.8347Z" fill="#011E29"/>
</svg>
