<svg width="24" height="24" viewBox="0 0 24 24" fill="none" xmlns="http://www.w3.org/2000/svg">
<path d="M22 12.6196V14.6796C22 15.2396 21.54 15.6996 20.97 15.6996H19.04C17.96 15.6996 16.97 14.9096 16.88 13.8296C16.82 13.1996 17.06 12.6096 17.48 12.1996C17.85 11.8196 18.36 11.5996 18.92 11.5996H20.97C21.54 11.5996 22 12.0596 22 12.6196Z" fill="white"/>
<path d="M15.38 13.9604C15.29 12.9104 15.67 11.8804 16.43 11.1304C17.07 10.4804 17.96 10.1004 18.92 10.1004H19.49C19.77 10.1004 20 9.87039 19.96 9.59039C19.69 7.65039 18.01 6.15039 16 6.15039H6C3.79 6.15039 2 7.94039 2 10.1504V17.1504C2 19.3604 3.79 21.1504 6 21.1504H16C18.02 21.1504 19.69 19.6504 19.96 17.7104C20 17.4304 19.77 17.2004 19.49 17.2004H19.04C17.14 17.2004 15.54 15.7804 15.38 13.9604ZM13 11.9004H7C6.59 11.9004 6.25 11.5704 6.25 11.1504C6.25 10.7304 6.59 10.4004 7 10.4004H13C13.41 10.4004 13.75 10.7404 13.75 11.1504C13.75 11.5604 13.41 11.9004 13 11.9004Z" fill="white"/>
<path d="M14.21 3.97961C14.47 4.24961 14.24 4.64961 13.86 4.64961H6.03003C4.94003 4.64961 3.92003 4.96961 3.07003 5.51961C2.68003 5.76961 2.15003 5.49961 2.34003 5.06961C2.90003 3.75961 4.21003 2.84961 5.72003 2.84961H11.34C12.5 2.84961 13.53 3.25961 14.21 3.97961Z" fill="white"/>
</svg>
