<svg width="22" height="22" viewBox="0 0 22 22" fill="none" xmlns="http://www.w3.org/2000/svg">
<path d="M8.70833 12.6039C8.70833 13.4931 9.39584 14.2081 10.2392 14.2081H11.9625C12.6958 14.2081 13.2917 13.5847 13.2917 12.8056C13.2917 11.9714 12.925 11.6689 12.3842 11.4764L9.62499 10.5139C9.08416 10.3214 8.7175 10.0281 8.7175 9.18473C8.7175 8.41473 9.31332 7.78223 10.0467 7.78223H11.77C12.6133 7.78223 13.3008 8.49723 13.3008 9.38639" stroke="#356475" stroke-width="1.5" stroke-linecap="round" stroke-linejoin="round"/>
<path d="M11 6.875V15.125" stroke="#356475" stroke-width="1.5" stroke-linecap="round" stroke-linejoin="round"/>
<path d="M20.1667 10.9997C20.1667 16.0597 16.06 20.1663 11 20.1663C5.93999 20.1663 1.83333 16.0597 1.83333 10.9997C1.83333 5.93967 5.93999 1.83301 11 1.83301" stroke="#356475" stroke-width="1.5" stroke-linecap="round" stroke-linejoin="round"/>
<path d="M20.1667 5.49967V1.83301H16.5" stroke="#356475" stroke-width="1.5" stroke-linecap="round" stroke-linejoin="round"/>
<path d="M15.5833 6.41634L20.1667 1.83301" stroke="#356475" stroke-width="1.5" stroke-linecap="round" stroke-linejoin="round"/>
</svg>
