<svg width="24" height="24" viewBox="0 0 24 24" fill="none" xmlns="http://www.w3.org/2000/svg">
<path d="M14.1033 5.53157L14.0091 5.68409H14.1884H21.5156C22.8303 5.68409 23.9 6.75382 23.9 8.06847V18.7883C23.9 20.1405 22.7998 21.2407 21.4477 21.2407H14.5702C14.0339 21.2407 13.5276 21.5242 13.2477 21.9813L13.333 22.0336L13.2477 21.9813L12.3145 23.5057L12.3998 23.5579L12.3145 23.5057C12.2475 23.6152 12.1284 23.6819 12 23.6819C11.8717 23.6819 11.7525 23.6152 11.6855 23.5057L11.6003 23.5579L11.6855 23.5057L10.7518 21.9809L10.7518 21.9808C10.4719 21.5242 9.96589 21.2407 9.43031 21.2407H2.55234C1.20024 21.2407 0.1 20.1405 0.1 18.7883V16.2146C0.199299 16.2992 0.328067 16.3503 0.46875 16.3503C0.609433 16.3503 0.738201 16.2992 0.8375 16.2146V18.7883C0.8375 19.734 1.60668 20.5032 2.55234 20.5032H9.43027C10.22 20.5032 10.9677 20.9219 11.3806 21.5956C11.3806 21.5956 11.3806 21.5956 11.3806 21.5956L11.9147 22.4677L12 22.607L12.0852 22.4677L12.6188 21.5962C13.0315 20.9222 13.7796 20.5032 14.5702 20.5032H21.4477C22.3933 20.5032 23.1625 19.734 23.1625 18.7883V8.06847C23.1625 7.1603 22.4238 6.42159 21.5156 6.42159H13.6096H13.5539L13.5245 6.46907L12.7987 7.64483C12.7987 7.64487 12.7987 7.64491 12.7987 7.64495C12.3732 8.32557 11.351 8.33055 10.928 7.64534L10.2018 6.46906L10.1725 6.42159H10.1167H2.48438C1.57621 6.42159 0.8375 7.1603 0.8375 8.06847V15.0267C0.738201 14.9421 0.609433 14.891 0.46875 14.891C0.328067 14.891 0.199299 14.9421 0.1 15.0267V8.06847C0.1 6.75382 1.16968 5.68409 2.48438 5.68409H9.53822H9.71745L9.62331 5.53157L9.18615 4.82328C9.18614 4.82325 9.18612 4.82323 9.18611 4.82321C8.89403 4.3472 8.74305 3.77926 8.74305 3.22005C8.74305 1.4626 10.2543 0.0230535 12.009 0.103194L12.0136 0.00330136L12.009 0.103194C13.621 0.176798 14.9271 1.49899 14.9816 3.11251C15.0021 3.72015 14.8437 4.33037 14.5253 4.84788L14.1033 5.53157ZM0.8375 15.4597V15.7816C0.8375 15.9852 0.672372 16.1503 0.46875 16.1503C0.265128 16.1503 0.1 15.9852 0.1 15.7816V15.4597C0.1 15.2561 0.265128 15.091 0.46875 15.091C0.672372 15.091 0.8375 15.2561 0.8375 15.4597ZM10.2176 1.49694L10.2867 1.56925L10.2176 1.49694C9.74246 1.95085 9.48055 2.56319 9.48055 3.22C9.48055 3.65911 9.60655 4.07246 9.82096 4.44764L9.82091 4.44766L9.82269 4.45055L11.5557 7.25769C11.6958 7.48498 12.0308 7.48472 12.1708 7.25796L12.1708 7.25794L13.9041 4.45022L13.9046 4.44937C14.1427 4.05501 14.2601 3.60119 14.2445 3.13737V3.13736C14.2029 1.90498 13.2066 0.896157 11.9754 0.839965L11.9708 0.939861L11.9755 0.839969C11.3175 0.809356 10.6925 1.04331 10.2176 1.49694Z" fill="#011E29" stroke="#011E29" stroke-width="0.2"/>
<path d="M12.473 9.55371V12.5465C12.473 12.7502 12.3079 12.9153 12.1042 12.9153C11.9006 12.9153 11.7355 12.7502 11.7355 12.5465V9.55371C11.7355 9.35006 11.9006 9.18496 12.1042 9.18496C12.3079 9.18496 12.473 9.35006 12.473 9.55371Z" fill="#011E29" stroke="#011E29" stroke-width="0.2"/>
<path d="M8.96264 12.0232L8.86191 12.1778H9.04642H10.1781C10.3817 12.1778 10.5468 12.3429 10.5468 12.5465C10.5468 12.7502 10.3817 12.9153 10.1781 12.9153H8.18153C8.04623 12.9153 7.92178 12.8412 7.85733 12.7223C7.79286 12.6033 7.7987 12.4586 7.87255 12.3452L7.87255 12.3452L9.35042 10.0771L9.45115 9.92246H9.26664H8.24284C8.03922 9.92246 7.87409 9.75737 7.87409 9.55371C7.87409 9.35006 8.03922 9.18496 8.24284 9.18496H10.1315C10.2668 9.18496 10.3913 9.25905 10.4557 9.37799C10.5202 9.49697 10.5144 9.64167 10.4405 9.75501L10.4405 9.75501L8.96264 12.0232Z" fill="#011E29" stroke="#011E29" stroke-width="0.2"/>
<path d="M14.5923 11.6128L14.4928 11.6133V11.7128V12.5466C14.4928 12.7502 14.3277 12.9153 14.124 12.9153C13.9204 12.9153 13.7553 12.7502 13.7553 12.5465V9.55371C13.7553 9.35381 13.9242 9.18496 14.124 9.18496H14.9574C15.6366 9.18496 16.1872 9.73053 16.1872 10.3983C16.1872 11.0661 15.6366 11.6116 14.9574 11.6116C14.8702 11.6116 14.7313 11.6122 14.5923 11.6128ZM14.9574 9.92251H14.8574V9.92255H14.5941H14.4939L14.4941 10.0228C14.4943 10.0736 14.4945 10.159 14.4947 10.2555C14.4951 10.4462 14.4956 10.6802 14.4961 10.7758L14.4965 10.8758L14.5965 10.8754C14.7345 10.8747 14.8713 10.8742 14.9574 10.8742C15.2212 10.8742 15.4497 10.6614 15.4497 10.3984C15.4497 10.1353 15.2212 9.92251 14.9574 9.92251Z" fill="#011E29" stroke="#011E29" stroke-width="0.2"/>
<path d="M18.0213 17.3141V17.4141H18.1213H18.9021C19.1057 17.4141 19.2708 17.5792 19.2708 17.7829C19.2708 17.9865 19.1057 18.1516 18.9021 18.1516H17.6526C17.449 18.1516 17.2838 17.9865 17.2838 17.7829V14.8174C17.2838 14.6137 17.449 14.4486 17.6526 14.4486H18.9021C19.1057 14.4486 19.2708 14.6137 19.2708 14.8174C19.2708 15.021 19.1057 15.1861 18.9021 15.1861H18.1213H18.0213V15.2861V15.8314V15.9314H18.1213H18.81C19.0136 15.9314 19.1787 16.0965 19.1787 16.3001C19.1787 16.5038 19.0136 16.6689 18.81 16.6689H18.1213H18.0213V16.7689V17.3141Z" fill="#011E29" stroke="#011E29" stroke-width="0.2"/>
<path d="M13.4663 17.7048V17.6048H13.4662V14.8507C13.4662 14.6485 13.6336 14.4789 13.835 14.4789H14.6575C15.1204 14.4789 15.5026 14.6599 15.7705 14.9735C16.0396 15.2884 16.1991 15.744 16.1991 16.2998C16.1991 17.3534 15.5521 18.0992 14.6881 18.1143H14.6881C14.4545 18.1184 13.8704 18.1206 13.8425 18.1207C13.6238 18.1206 13.4663 17.9349 13.4663 17.7048ZM14.6576 15.2165H14.5576V15.2165H14.3046H14.2044L14.2046 15.3167C14.2047 15.379 14.2048 15.4715 14.205 15.5833C14.2058 16.0942 14.2072 17.0077 14.2081 17.2811L14.2084 17.3815L14.3088 17.3807C14.4488 17.3797 14.5884 17.3784 14.6752 17.3769L14.6752 17.3769C14.9531 17.3721 15.154 17.2244 15.281 17.0178C15.406 16.8146 15.4617 16.5528 15.4617 16.2998C15.4617 16.1803 15.449 15.9178 15.3463 15.6818C15.2945 15.5626 15.2179 15.4457 15.1041 15.3583C14.989 15.27 14.8416 15.2165 14.6576 15.2165Z" fill="#011E29" stroke="#011E29" stroke-width="0.2"/>
<path d="M7.81947 17.6112L7.81948 17.6112C7.95045 17.4553 7.93018 17.2227 7.7742 17.0917L7.77418 17.0917C7.61825 16.9607 7.3856 16.981 7.25466 17.137L7.25463 17.137C7.08593 17.3378 6.84258 17.4278 6.59429 17.4278C5.97244 17.4278 5.46665 16.922 5.46665 16.3001C5.46665 15.6783 5.97243 15.1725 6.59429 15.1725C6.82012 15.1725 7.03821 15.2389 7.2245 15.3648L7.81947 17.6112ZM7.81947 17.6112C7.51647 17.9721 7.06713 18.1653 6.59429 18.1653C5.56596 18.1653 4.72915 17.3285 4.72915 16.3001C4.72915 15.2718 5.56596 14.435 6.59429 14.435C6.96816 14.435 7.32875 14.5452 7.63737 14.7538L7.63739 14.7538M7.81947 17.6112L7.63739 14.7538M7.63739 14.7538C7.80617 14.8678 7.85053 15.097 7.73651 15.2657M7.63739 14.7538L7.73651 15.2657M7.73651 15.2657C7.62243 15.4345 7.39327 15.4789 7.22451 15.3648L7.73651 15.2657Z" fill="#011E29" stroke="#011E29" stroke-width="0.2"/>
<path d="M11.6799 16.3001C11.6799 16.922 11.1741 17.4278 10.5522 17.4278C9.93032 17.4278 9.42454 16.922 9.42454 16.3001C9.42454 15.6783 9.93032 15.1725 10.5522 15.1725L11.6799 16.3001ZM11.6799 16.3001C11.6799 15.6782 11.1741 15.1724 10.5522 15.1725L11.6799 16.3001ZM10.5522 14.435H10.5522C11.5806 14.435 12.4174 15.2717 12.4174 16.3001C12.4174 17.3285 11.5806 18.1653 10.5522 18.1653C9.52384 18.1653 8.68704 17.3285 8.68704 16.3001C8.68704 15.2717 9.52384 14.4349 10.5522 14.435Z" fill="#011E29" stroke="#011E29" stroke-width="0.2"/>
<path d="M13.1645 3.2235C13.1645 3.94091 12.5806 4.52473 11.8633 4.52473C11.1459 4.52473 10.562 3.94091 10.562 3.2235C10.562 2.50609 11.1459 1.92227 11.8633 1.92227C12.5807 1.92227 13.1645 2.50609 13.1645 3.2235ZM12.427 3.22355C12.427 2.91262 12.1742 2.65981 11.8633 2.65981C11.5523 2.65981 11.2995 2.91262 11.2995 3.22355C11.2995 3.53448 11.5523 3.78728 11.8633 3.78728C12.1742 3.78728 12.427 3.53448 12.427 3.22355Z" fill="#011E29" stroke="#011E29" stroke-width="0.2"/>
</svg>
